G04*
G04 #@! TF.GenerationSoftware,Altium Limited,Altium Designer,19.0.15 (446)*
G04*
G04 Layer_Color=2752767*
%FSLAX23Y23*%
%MOIN*%
G70*
G01*
G75*
%ADD109C,0.002*%
%ADD110C,0.003*%
D109*
X727Y2087D02*
Y2103D01*
X743D01*
Y2087D01*
X727D01*
X727Y2243D02*
Y2259D01*
X743D01*
Y2243D01*
X727D01*
X1067Y2243D02*
Y2259D01*
X1083D01*
Y2243D01*
X1067D01*
X1067Y2087D02*
Y2103D01*
X1083D01*
Y2087D01*
X1067D01*
X1767Y459D02*
X1759Y475D01*
X1775D01*
X1767Y459D01*
Y359D02*
X1759Y375D01*
X1775D01*
X1767Y359D01*
Y559D02*
X1759Y575D01*
X1775D01*
X1767Y559D01*
Y659D02*
X1759Y675D01*
X1775D01*
X1767Y659D01*
Y759D02*
X1759Y775D01*
X1775D01*
X1767Y759D01*
X1627Y969D02*
X1631Y973D01*
X1635D01*
X1631Y977D01*
X1635Y981D01*
X1631D01*
X1627Y985D01*
X1623Y981D01*
X1619D01*
X1623Y977D01*
X1619Y973D01*
X1623D01*
X1627Y969D01*
X1727D02*
X1731Y973D01*
X1735D01*
X1731Y977D01*
X1735Y981D01*
X1731D01*
X1727Y985D01*
X1723Y981D01*
X1719D01*
X1723Y977D01*
X1719Y973D01*
X1723D01*
X1727Y969D01*
X1827D02*
X1831Y973D01*
X1835D01*
X1831Y977D01*
X1835Y981D01*
X1831D01*
X1827Y985D01*
X1823Y981D01*
X1819D01*
X1823Y977D01*
X1819Y973D01*
X1823D01*
X1827Y969D01*
X1620Y1432D02*
X1612Y1448D01*
X1628D01*
X1620Y1432D01*
X1720D02*
X1712Y1448D01*
X1728D01*
X1720Y1432D01*
X1820D02*
X1812Y1448D01*
X1828D01*
X1820Y1432D01*
X1620Y1542D02*
X1612Y1558D01*
X1628D01*
X1620Y1542D01*
X1720D02*
X1712Y1558D01*
X1728D01*
X1720Y1542D01*
X1820D02*
X1812Y1558D01*
X1828D01*
X1820Y1542D01*
X1620Y1212D02*
X1612Y1228D01*
X1628D01*
X1620Y1212D01*
X1720D02*
X1712Y1228D01*
X1728D01*
X1720Y1212D01*
X1820D02*
X1812Y1228D01*
X1828D01*
X1820Y1212D01*
X1620Y1322D02*
X1612Y1338D01*
X1628D01*
X1620Y1322D01*
X1720D02*
X1712Y1338D01*
X1728D01*
X1720Y1322D01*
X1820D02*
X1812Y1338D01*
X1828D01*
X1820Y1322D01*
X250Y822D02*
X242Y838D01*
X258D01*
X250Y822D01*
X150D02*
X142Y838D01*
X158D01*
X150Y822D01*
X50D02*
X42Y838D01*
X58D01*
X50Y822D01*
X250Y932D02*
X242Y948D01*
X258D01*
X250Y932D01*
X150D02*
X142Y948D01*
X158D01*
X150Y932D01*
X50D02*
X42Y948D01*
X58D01*
X50Y932D01*
X250Y1042D02*
X242Y1058D01*
X258D01*
X250Y1042D01*
X150D02*
X142Y1058D01*
X158D01*
X150Y1042D01*
X50D02*
X42Y1058D01*
X58D01*
X50Y1042D01*
X250Y1152D02*
X242Y1168D01*
X258D01*
X250Y1152D01*
X150D02*
X142Y1168D01*
X158D01*
X150Y1152D01*
X50D02*
X42Y1168D01*
X58D01*
X50Y1152D01*
X1188Y2047D02*
X1192Y2055D01*
X1188Y2063D01*
X1196Y2059D01*
X1204Y2063D01*
X1200Y2055D01*
X1204Y2047D01*
X1196Y2051D01*
X1188Y2047D01*
X1119Y2054D02*
X1123Y2062D01*
X1119Y2070D01*
X1127Y2066D01*
X1135Y2070D01*
X1131Y2062D01*
X1135Y2054D01*
X1127Y2058D01*
X1119Y2054D01*
X695Y2019D02*
X699Y2027D01*
X695Y2035D01*
X703Y2031D01*
X711Y2035D01*
X707Y2027D01*
X711Y2019D01*
X703Y2023D01*
X695Y2019D01*
X1075Y1069D02*
X1079Y1077D01*
X1075Y1085D01*
X1083Y1081D01*
X1091Y1085D01*
X1087Y1077D01*
X1091Y1069D01*
X1083Y1073D01*
X1075Y1069D01*
X1054Y1104D02*
X1058Y1112D01*
X1054Y1120D01*
X1062Y1116D01*
X1070Y1120D01*
X1066Y1112D01*
X1070Y1104D01*
X1062Y1108D01*
X1054Y1104D01*
X1746Y2024D02*
X1750Y2032D01*
X1746Y2040D01*
X1754Y2036D01*
X1762Y2040D01*
X1758Y2032D01*
X1762Y2024D01*
X1754Y2028D01*
X1746Y2024D01*
X1748Y1757D02*
X1752Y1765D01*
X1748Y1773D01*
X1756Y1769D01*
X1764Y1773D01*
X1760Y1765D01*
X1764Y1757D01*
X1756Y1761D01*
X1748Y1757D01*
X-5Y750D02*
X-1Y758D01*
X-5Y766D01*
X3Y762D01*
X11Y766D01*
X7Y758D01*
X11Y750D01*
X3Y754D01*
X-5Y750D01*
X59Y1373D02*
X63Y1381D01*
X59Y1389D01*
X67Y1385D01*
X75Y1389D01*
X71Y1381D01*
X75Y1373D01*
X67Y1377D01*
X59Y1373D01*
X58Y1675D02*
X62Y1683D01*
X58Y1691D01*
X66Y1687D01*
X74Y1691D01*
X70Y1683D01*
X74Y1675D01*
X66Y1679D01*
X58Y1675D01*
X59Y1973D02*
X63Y1981D01*
X59Y1989D01*
X67Y1985D01*
X75Y1989D01*
X71Y1981D01*
X75Y1973D01*
X67Y1977D01*
X59Y1973D01*
X535Y2126D02*
X539Y2134D01*
X535Y2142D01*
X543Y2138D01*
X551Y2142D01*
X547Y2134D01*
X551Y2126D01*
X543Y2130D01*
X535Y2126D01*
X1686Y855D02*
X1690Y863D01*
X1686Y871D01*
X1694Y867D01*
X1702Y871D01*
X1698Y863D01*
X1702Y855D01*
X1694Y859D01*
X1686Y855D01*
X1205Y0D02*
X1209Y8D01*
X1205Y16D01*
X1213Y12D01*
X1221Y16D01*
X1217Y8D01*
X1221Y0D01*
X1213Y4D01*
X1205Y0D01*
X264Y16D02*
X268Y24D01*
X264Y32D01*
X272Y28D01*
X280Y32D01*
X276Y24D01*
X280Y16D01*
X272Y20D01*
X264Y16D01*
X1519Y1264D02*
X1523Y1272D01*
X1519Y1280D01*
X1527Y1276D01*
X1535Y1280D01*
X1531Y1272D01*
X1535Y1264D01*
X1527Y1268D01*
X1519Y1264D01*
X1488Y1354D02*
X1492Y1362D01*
X1488Y1370D01*
X1496Y1366D01*
X1504Y1370D01*
X1500Y1362D01*
X1504Y1354D01*
X1496Y1358D01*
X1488Y1354D01*
X1461Y1815D02*
X1465Y1823D01*
X1461Y1831D01*
X1469Y1827D01*
X1477Y1831D01*
X1473Y1823D01*
X1477Y1815D01*
X1469Y1819D01*
X1461Y1815D01*
X1329Y1843D02*
X1333Y1851D01*
X1329Y1859D01*
X1337Y1855D01*
X1345Y1859D01*
X1341Y1851D01*
X1345Y1843D01*
X1337Y1847D01*
X1329Y1843D01*
X1488Y1633D02*
X1492Y1641D01*
X1488Y1649D01*
X1496Y1645D01*
X1504Y1649D01*
X1500Y1641D01*
X1504Y1633D01*
X1496Y1637D01*
X1488Y1633D01*
X1375Y1662D02*
X1379Y1670D01*
X1375Y1678D01*
X1383Y1674D01*
X1391Y1678D01*
X1387Y1670D01*
X1391Y1662D01*
X1383Y1666D01*
X1375Y1662D01*
X738Y1982D02*
X742Y1990D01*
X738Y1998D01*
X746Y1994D01*
X754Y1998D01*
X750Y1990D01*
X754Y1982D01*
X746Y1986D01*
X738Y1982D01*
X654Y2055D02*
X658Y2063D01*
X654Y2071D01*
X662Y2067D01*
X670Y2071D01*
X666Y2063D01*
X670Y2055D01*
X662Y2059D01*
X654Y2055D01*
X935Y1925D02*
X939Y1933D01*
X935Y1941D01*
X943Y1937D01*
X951Y1941D01*
X947Y1933D01*
X951Y1925D01*
X943Y1929D01*
X935Y1925D01*
X1027Y1709D02*
X1031Y1717D01*
X1027Y1725D01*
X1035Y1721D01*
X1043Y1725D01*
X1039Y1717D01*
X1043Y1709D01*
X1035Y1713D01*
X1027Y1709D01*
X1151Y1653D02*
X1155Y1661D01*
X1151Y1669D01*
X1159Y1665D01*
X1167Y1669D01*
X1163Y1661D01*
X1167Y1653D01*
X1159Y1657D01*
X1151Y1653D01*
X1088Y1777D02*
X1092Y1785D01*
X1088Y1793D01*
X1096Y1789D01*
X1104Y1793D01*
X1100Y1785D01*
X1104Y1777D01*
X1096Y1781D01*
X1088Y1777D01*
X918Y1071D02*
X922Y1079D01*
X918Y1087D01*
X926Y1083D01*
X934Y1087D01*
X930Y1079D01*
X934Y1071D01*
X926Y1075D01*
X918Y1071D01*
X779Y1586D02*
X783Y1594D01*
X779Y1602D01*
X787Y1598D01*
X795Y1602D01*
X791Y1594D01*
X795Y1586D01*
X787Y1590D01*
X779Y1586D01*
X683Y1513D02*
X687Y1521D01*
X683Y1529D01*
X691Y1525D01*
X699Y1529D01*
X695Y1521D01*
X699Y1513D01*
X691Y1517D01*
X683Y1513D01*
X701Y1583D02*
X705Y1591D01*
X701Y1599D01*
X709Y1595D01*
X717Y1599D01*
X713Y1591D01*
X717Y1583D01*
X709Y1587D01*
X701Y1583D01*
X621Y1243D02*
X625Y1251D01*
X621Y1259D01*
X629Y1255D01*
X637Y1259D01*
X633Y1251D01*
X637Y1243D01*
X629Y1247D01*
X621Y1243D01*
X629Y1184D02*
X633Y1192D01*
X629Y1200D01*
X637Y1196D01*
X645Y1200D01*
X641Y1192D01*
X645Y1184D01*
X637Y1188D01*
X629Y1184D01*
X432Y1305D02*
X436Y1313D01*
X432Y1321D01*
X440Y1317D01*
X448Y1321D01*
X444Y1313D01*
X448Y1305D01*
X440Y1309D01*
X432Y1305D01*
X358Y1245D02*
X362Y1253D01*
X358Y1261D01*
X366Y1257D01*
X374Y1261D01*
X370Y1253D01*
X374Y1245D01*
X366Y1249D01*
X358Y1245D01*
X247Y1249D02*
X251Y1257D01*
X247Y1265D01*
X255Y1261D01*
X263Y1265D01*
X259Y1257D01*
X263Y1249D01*
X255Y1253D01*
X247Y1249D01*
X428Y1511D02*
X432Y1519D01*
X428Y1527D01*
X436Y1523D01*
X444Y1527D01*
X440Y1519D01*
X444Y1511D01*
X436Y1515D01*
X428Y1511D01*
X249Y1533D02*
X253Y1541D01*
X249Y1549D01*
X257Y1545D01*
X265Y1549D01*
X261Y1541D01*
X265Y1533D01*
X257Y1537D01*
X249Y1533D01*
X248Y1762D02*
X252Y1770D01*
X248Y1778D01*
X256Y1774D01*
X264Y1778D01*
X260Y1770D01*
X264Y1762D01*
X256Y1766D01*
X248Y1762D01*
X315Y1851D02*
X319Y1859D01*
X315Y1867D01*
X323Y1863D01*
X331Y1867D01*
X327Y1859D01*
X331Y1851D01*
X323Y1855D01*
X315Y1851D01*
X404Y1951D02*
X408Y1959D01*
X404Y1967D01*
X412Y1963D01*
X420Y1967D01*
X416Y1959D01*
X420Y1951D01*
X412Y1955D01*
X404Y1951D01*
X309Y2132D02*
X313Y2140D01*
X309Y2148D01*
X317Y2144D01*
X325Y2148D01*
X321Y2140D01*
X325Y2132D01*
X317Y2136D01*
X309Y2132D01*
X382Y2249D02*
X386Y2257D01*
X382Y2265D01*
X390Y2261D01*
X398Y2265D01*
X394Y2257D01*
X398Y2249D01*
X390Y2253D01*
X382Y2249D01*
X202Y2253D02*
X206Y2261D01*
X202Y2269D01*
X210Y2265D01*
X218Y2269D01*
X214Y2261D01*
X218Y2253D01*
X210Y2257D01*
X202Y2253D01*
X655Y2279D02*
X659Y2287D01*
X655Y2295D01*
X663Y2291D01*
X671Y2295D01*
X667Y2287D01*
X671Y2279D01*
X663Y2283D01*
X655Y2279D01*
X810Y2278D02*
X814Y2286D01*
X810Y2294D01*
X818Y2290D01*
X826Y2294D01*
X822Y2286D01*
X826Y2278D01*
X818Y2282D01*
X810Y2278D01*
X853D02*
X857Y2286D01*
X853Y2294D01*
X861Y2290D01*
X869Y2294D01*
X865Y2286D01*
X869Y2278D01*
X861Y2282D01*
X853Y2278D01*
X896D02*
X900Y2286D01*
X896Y2294D01*
X904Y2290D01*
X912Y2294D01*
X908Y2286D01*
X912Y2278D01*
X904Y2282D01*
X896Y2278D01*
X938D02*
X942Y2286D01*
X938Y2294D01*
X946Y2290D01*
X954Y2294D01*
X950Y2286D01*
X954Y2278D01*
X946Y2282D01*
X938Y2278D01*
X981D02*
X985Y2286D01*
X981Y2294D01*
X989Y2290D01*
X997Y2294D01*
X993Y2286D01*
X997Y2278D01*
X989Y2282D01*
X981Y2278D01*
X811Y2194D02*
X815Y2202D01*
X811Y2210D01*
X819Y2206D01*
X827Y2210D01*
X823Y2202D01*
X827Y2194D01*
X819Y2198D01*
X811Y2194D01*
X853D02*
X857Y2202D01*
X853Y2210D01*
X861Y2206D01*
X869Y2210D01*
X865Y2202D01*
X869Y2194D01*
X861Y2198D01*
X853Y2194D01*
X896D02*
X900Y2202D01*
X896Y2210D01*
X904Y2206D01*
X912Y2210D01*
X908Y2202D01*
X912Y2194D01*
X904Y2198D01*
X896Y2194D01*
X939D02*
X943Y2202D01*
X939Y2210D01*
X947Y2206D01*
X955Y2210D01*
X951Y2202D01*
X955Y2194D01*
X947Y2198D01*
X939Y2194D01*
X982D02*
X986Y2202D01*
X982Y2210D01*
X990Y2206D01*
X998Y2210D01*
X994Y2202D01*
X998Y2194D01*
X990Y2198D01*
X982Y2194D01*
Y2236D02*
X986Y2244D01*
X982Y2252D01*
X990Y2248D01*
X998Y2252D01*
X994Y2244D01*
X998Y2236D01*
X990Y2240D01*
X982Y2236D01*
X939D02*
X943Y2244D01*
X939Y2252D01*
X947Y2248D01*
X955Y2252D01*
X951Y2244D01*
X955Y2236D01*
X947Y2240D01*
X939Y2236D01*
X896D02*
X900Y2244D01*
X896Y2252D01*
X904Y2248D01*
X912Y2252D01*
X908Y2244D01*
X912Y2236D01*
X904Y2240D01*
X896Y2236D01*
X853D02*
X857Y2244D01*
X853Y2252D01*
X861Y2248D01*
X869Y2252D01*
X865Y2244D01*
X869Y2236D01*
X861Y2240D01*
X853Y2236D01*
X811D02*
X815Y2244D01*
X811Y2252D01*
X819Y2248D01*
X827Y2252D01*
X823Y2244D01*
X827Y2236D01*
X819Y2240D01*
X811Y2236D01*
X1141Y2283D02*
X1145Y2291D01*
X1141Y2299D01*
X1149Y2295D01*
X1157Y2299D01*
X1153Y2291D01*
X1157Y2283D01*
X1149Y2287D01*
X1141Y2283D01*
X1385Y2227D02*
X1389Y2235D01*
X1385Y2243D01*
X1393Y2239D01*
X1401Y2243D01*
X1397Y2235D01*
X1401Y2227D01*
X1393Y2231D01*
X1385Y2227D01*
X1300Y2053D02*
X1304Y2061D01*
X1300Y2069D01*
X1308Y2065D01*
X1316Y2069D01*
X1312Y2061D01*
X1316Y2053D01*
X1308Y2057D01*
X1300Y2053D01*
X1431Y1882D02*
X1435Y1890D01*
X1431Y1898D01*
X1439Y1894D01*
X1447Y1898D01*
X1443Y1890D01*
X1447Y1882D01*
X1439Y1886D01*
X1431Y1882D01*
X1565Y1814D02*
X1569Y1822D01*
X1565Y1830D01*
X1573Y1826D01*
X1581Y1830D01*
X1577Y1822D01*
X1581Y1814D01*
X1573Y1818D01*
X1565Y1814D01*
X1541Y2261D02*
X1545Y2269D01*
X1541Y2277D01*
X1549Y2273D01*
X1557Y2277D01*
X1553Y2269D01*
X1557Y2261D01*
X1549Y2265D01*
X1541Y2261D01*
X1656Y2224D02*
X1660Y2232D01*
X1656Y2240D01*
X1664Y2236D01*
X1672Y2240D01*
X1668Y2232D01*
X1672Y2224D01*
X1664Y2228D01*
X1656Y2224D01*
X1737Y2132D02*
X1741Y2140D01*
X1737Y2148D01*
X1745Y2144D01*
X1753Y2148D01*
X1749Y2140D01*
X1753Y2132D01*
X1745Y2136D01*
X1737Y2132D01*
X1880Y2074D02*
X1884Y2082D01*
X1880Y2090D01*
X1888Y2086D01*
X1896Y2090D01*
X1892Y2082D01*
X1896Y2074D01*
X1888Y2078D01*
X1880Y2074D01*
Y1970D02*
X1884Y1978D01*
X1880Y1986D01*
X1888Y1982D01*
X1896Y1986D01*
X1892Y1978D01*
X1896Y1970D01*
X1888Y1974D01*
X1880Y1970D01*
Y1876D02*
X1884Y1884D01*
X1880Y1892D01*
X1888Y1888D01*
X1896Y1892D01*
X1892Y1884D01*
X1896Y1876D01*
X1888Y1880D01*
X1880Y1876D01*
Y1781D02*
X1884Y1789D01*
X1880Y1797D01*
X1888Y1793D01*
X1896Y1797D01*
X1892Y1789D01*
X1896Y1781D01*
X1888Y1785D01*
X1880Y1781D01*
Y1673D02*
X1884Y1681D01*
X1880Y1689D01*
X1888Y1685D01*
X1896Y1689D01*
X1892Y1681D01*
X1896Y1673D01*
X1888Y1677D01*
X1880Y1673D01*
X1887Y1546D02*
X1891Y1554D01*
X1887Y1562D01*
X1895Y1558D01*
X1903Y1562D01*
X1899Y1554D01*
X1903Y1546D01*
X1895Y1550D01*
X1887Y1546D01*
Y1431D02*
X1891Y1439D01*
X1887Y1447D01*
X1895Y1443D01*
X1903Y1447D01*
X1899Y1439D01*
X1903Y1431D01*
X1895Y1435D01*
X1887Y1431D01*
X1888Y1319D02*
X1892Y1327D01*
X1888Y1335D01*
X1896Y1331D01*
X1904Y1335D01*
X1900Y1327D01*
X1904Y1319D01*
X1896Y1323D01*
X1888Y1319D01*
Y1204D02*
X1892Y1212D01*
X1888Y1220D01*
X1896Y1216D01*
X1904Y1220D01*
X1900Y1212D01*
X1904Y1204D01*
X1896Y1208D01*
X1888Y1204D01*
X1881Y1082D02*
X1885Y1090D01*
X1881Y1098D01*
X1889Y1094D01*
X1897Y1098D01*
X1893Y1090D01*
X1897Y1082D01*
X1889Y1086D01*
X1881Y1082D01*
X1807D02*
X1811Y1090D01*
X1807Y1098D01*
X1815Y1094D01*
X1823Y1098D01*
X1819Y1090D01*
X1823Y1082D01*
X1815Y1086D01*
X1807Y1082D01*
X378Y883D02*
X382Y891D01*
X378Y899D01*
X386Y895D01*
X394Y899D01*
X390Y891D01*
X394Y883D01*
X386Y887D01*
X378Y883D01*
Y1094D02*
X382Y1102D01*
X378Y1110D01*
X386Y1106D01*
X394Y1110D01*
X390Y1102D01*
X394Y1094D01*
X386Y1098D01*
X378Y1094D01*
Y989D02*
X382Y997D01*
X378Y1005D01*
X386Y1001D01*
X394Y1005D01*
X390Y997D01*
X394Y989D01*
X386Y993D01*
X378Y989D01*
X1260Y1077D02*
X1264Y1085D01*
X1260Y1093D01*
X1268Y1089D01*
X1276Y1093D01*
X1272Y1085D01*
X1276Y1077D01*
X1268Y1081D01*
X1260Y1077D01*
X1476Y1160D02*
X1480Y1168D01*
X1476Y1176D01*
X1484Y1172D01*
X1492Y1176D01*
X1488Y1168D01*
X1492Y1160D01*
X1484Y1164D01*
X1476Y1160D01*
X1351Y1135D02*
X1355Y1143D01*
X1351Y1151D01*
X1359Y1147D01*
X1367Y1151D01*
X1363Y1143D01*
X1367Y1135D01*
X1359Y1139D01*
X1351Y1135D01*
X710Y875D02*
X714Y883D01*
X710Y891D01*
X718Y887D01*
X726Y891D01*
X722Y883D01*
X726Y875D01*
X718Y879D01*
X710Y875D01*
X929Y940D02*
X933Y948D01*
X929Y956D01*
X937Y952D01*
X945Y956D01*
X941Y948D01*
X945Y940D01*
X937Y944D01*
X929Y940D01*
X647Y787D02*
X651Y795D01*
X647Y803D01*
X655Y799D01*
X663Y803D01*
X659Y795D01*
X663Y787D01*
X655Y791D01*
X647Y787D01*
X69Y177D02*
X73Y185D01*
X69Y193D01*
X77Y189D01*
X85Y193D01*
X81Y185D01*
X85Y177D01*
X77Y181D01*
X69Y177D01*
X1162Y357D02*
X1166Y365D01*
X1162Y373D01*
X1170Y369D01*
X1178Y373D01*
X1174Y365D01*
X1178Y357D01*
X1170Y361D01*
X1162Y357D01*
Y450D02*
X1166Y458D01*
X1162Y466D01*
X1170Y462D01*
X1178Y466D01*
X1174Y458D01*
X1178Y450D01*
X1170Y454D01*
X1162Y450D01*
Y418D02*
X1166Y426D01*
X1162Y434D01*
X1170Y430D01*
X1178Y434D01*
X1174Y426D01*
X1178Y418D01*
X1170Y422D01*
X1162Y418D01*
Y387D02*
X1166Y395D01*
X1162Y403D01*
X1170Y399D01*
X1178Y403D01*
X1174Y395D01*
X1178Y387D01*
X1170Y391D01*
X1162Y387D01*
X1607Y396D02*
X1611Y404D01*
X1607Y412D01*
X1615Y408D01*
X1623Y412D01*
X1619Y404D01*
X1623Y396D01*
X1615Y400D01*
X1607Y396D01*
X1591Y743D02*
X1595Y751D01*
X1591Y759D01*
X1599Y755D01*
X1607Y759D01*
X1603Y751D01*
X1607Y743D01*
X1599Y747D01*
X1591Y743D01*
X1884Y769D02*
X1888Y777D01*
X1884Y785D01*
X1892Y781D01*
X1900Y785D01*
X1896Y777D01*
X1900Y769D01*
X1892Y773D01*
X1884Y769D01*
Y554D02*
X1888Y562D01*
X1884Y570D01*
X1892Y566D01*
X1900Y570D01*
X1896Y562D01*
X1900Y554D01*
X1892Y558D01*
X1884Y554D01*
X1570Y172D02*
X1574Y180D01*
X1570Y188D01*
X1578Y184D01*
X1586Y188D01*
X1582Y180D01*
X1586Y172D01*
X1578Y176D01*
X1570Y172D01*
X1858Y243D02*
X1862Y251D01*
X1858Y259D01*
X1866Y255D01*
X1874Y259D01*
X1870Y251D01*
X1874Y243D01*
X1866Y247D01*
X1858Y243D01*
X457Y594D02*
X461Y602D01*
X457Y610D01*
X465Y606D01*
X473Y610D01*
X469Y602D01*
X473Y594D01*
X465Y598D01*
X457Y594D01*
X529Y284D02*
X533Y292D01*
X529Y300D01*
X537Y296D01*
X545Y300D01*
X541Y292D01*
X545Y284D01*
X537Y288D01*
X529Y284D01*
X399Y427D02*
X403Y435D01*
X399Y443D01*
X407Y439D01*
X415Y443D01*
X411Y435D01*
X415Y427D01*
X407Y431D01*
X399Y427D01*
X349Y155D02*
X353Y163D01*
X349Y171D01*
X357Y167D01*
X365Y171D01*
X361Y163D01*
X365Y155D01*
X357Y159D01*
X349Y155D01*
X1361Y151D02*
X1365Y159D01*
X1361Y167D01*
X1369Y163D01*
X1377Y167D01*
X1373Y159D01*
X1377Y151D01*
X1369Y155D01*
X1361Y151D01*
X1475Y264D02*
X1479Y272D01*
X1475Y280D01*
X1483Y276D01*
X1491Y280D01*
X1487Y272D01*
X1491Y264D01*
X1483Y268D01*
X1475Y264D01*
X1224Y266D02*
X1228Y274D01*
X1224Y282D01*
X1232Y278D01*
X1240Y282D01*
X1236Y274D01*
X1240Y266D01*
X1232Y270D01*
X1224Y266D01*
X883Y567D02*
X887Y575D01*
X883Y583D01*
X891Y579D01*
X899Y583D01*
X895Y575D01*
X899Y567D01*
X891Y571D01*
X883Y567D01*
X884Y599D02*
X888Y607D01*
X884Y615D01*
X892Y611D01*
X900Y615D01*
X896Y607D01*
X900Y599D01*
X892Y603D01*
X884Y599D01*
X885Y629D02*
X889Y637D01*
X885Y645D01*
X893Y641D01*
X901Y645D01*
X897Y637D01*
X901Y629D01*
X893Y633D01*
X885Y629D01*
X943Y565D02*
X947Y573D01*
X943Y581D01*
X951Y577D01*
X959Y581D01*
X955Y573D01*
X959Y565D01*
X951Y569D01*
X943Y565D01*
X942Y598D02*
X946Y606D01*
X942Y614D01*
X950Y610D01*
X958Y614D01*
X954Y606D01*
X958Y598D01*
X950Y602D01*
X942Y598D01*
Y629D02*
X946Y637D01*
X942Y645D01*
X950Y641D01*
X958Y645D01*
X954Y637D01*
X958Y629D01*
X950Y633D01*
X942Y629D01*
X846Y568D02*
X850Y576D01*
X846Y584D01*
X854Y580D01*
X862Y584D01*
X858Y576D01*
X862Y568D01*
X854Y572D01*
X846Y568D01*
X845Y599D02*
X849Y607D01*
X845Y615D01*
X853Y611D01*
X861Y615D01*
X857Y607D01*
X861Y599D01*
X853Y603D01*
X845Y599D01*
X846Y631D02*
X850Y639D01*
X846Y647D01*
X854Y643D01*
X862Y647D01*
X858Y639D01*
X862Y631D01*
X854Y635D01*
X846Y631D01*
X617Y488D02*
X621Y496D01*
X617Y504D01*
X625Y500D01*
X633Y504D01*
X629Y496D01*
X633Y488D01*
X625Y492D01*
X617Y488D01*
X583D02*
X587Y496D01*
X583Y504D01*
X591Y500D01*
X599Y504D01*
X595Y496D01*
X599Y488D01*
X591Y492D01*
X583Y488D01*
X651D02*
X655Y496D01*
X651Y504D01*
X659Y500D01*
X667Y504D01*
X663Y496D01*
X667Y488D01*
X659Y492D01*
X651Y488D01*
X618Y518D02*
X622Y526D01*
X618Y534D01*
X626Y530D01*
X634Y534D01*
X630Y526D01*
X634Y518D01*
X626Y522D01*
X618Y518D01*
X584D02*
X588Y526D01*
X584Y534D01*
X592Y530D01*
X600Y534D01*
X596Y526D01*
X600Y518D01*
X592Y522D01*
X584Y518D01*
X652D02*
X656Y526D01*
X652Y534D01*
X660Y530D01*
X668Y534D01*
X664Y526D01*
X668Y518D01*
X660Y522D01*
X652Y518D01*
X618Y545D02*
X622Y553D01*
X618Y561D01*
X626Y557D01*
X634Y561D01*
X630Y553D01*
X634Y545D01*
X626Y549D01*
X618Y545D01*
X584D02*
X588Y553D01*
X584Y561D01*
X592Y557D01*
X600Y561D01*
X596Y553D01*
X600Y545D01*
X592Y549D01*
X584Y545D01*
X652D02*
X656Y553D01*
X652Y561D01*
X660Y557D01*
X668Y561D01*
X664Y553D01*
X668Y545D01*
X660Y549D01*
X652Y545D01*
X618Y571D02*
X622Y579D01*
X618Y587D01*
X626Y583D01*
X634Y587D01*
X630Y579D01*
X634Y571D01*
X626Y575D01*
X618Y571D01*
X584D02*
X588Y579D01*
X584Y587D01*
X592Y583D01*
X600Y587D01*
X596Y579D01*
X600Y571D01*
X592Y575D01*
X584Y571D01*
X652D02*
X656Y579D01*
X652Y587D01*
X660Y583D01*
X668Y587D01*
X664Y579D01*
X668Y571D01*
X660Y575D01*
X652Y571D01*
X618Y597D02*
X622Y605D01*
X618Y613D01*
X626Y609D01*
X634Y613D01*
X630Y605D01*
X634Y597D01*
X626Y601D01*
X618Y597D01*
X584D02*
X588Y605D01*
X584Y613D01*
X592Y609D01*
X600Y613D01*
X596Y605D01*
X600Y597D01*
X592Y601D01*
X584Y597D01*
X652D02*
X656Y605D01*
X652Y613D01*
X660Y609D01*
X668Y613D01*
X664Y605D01*
X668Y597D01*
X660Y601D01*
X652Y597D01*
X618Y625D02*
X622Y633D01*
X618Y641D01*
X626Y637D01*
X634Y641D01*
X630Y633D01*
X634Y625D01*
X626Y629D01*
X618Y625D01*
X584D02*
X588Y633D01*
X584Y641D01*
X592Y637D01*
X600Y641D01*
X596Y633D01*
X600Y625D01*
X592Y629D01*
X584Y625D01*
X652D02*
X656Y633D01*
X652Y641D01*
X660Y637D01*
X668Y641D01*
X664Y633D01*
X668Y625D01*
X660Y629D01*
X652Y625D01*
X718Y488D02*
X722Y496D01*
X718Y504D01*
X726Y500D01*
X734Y504D01*
X730Y496D01*
X734Y488D01*
X726Y492D01*
X718Y488D01*
X684D02*
X688Y496D01*
X684Y504D01*
X692Y500D01*
X700Y504D01*
X696Y496D01*
X700Y488D01*
X692Y492D01*
X684Y488D01*
X752D02*
X756Y496D01*
X752Y504D01*
X760Y500D01*
X768Y504D01*
X764Y496D01*
X768Y488D01*
X760Y492D01*
X752Y488D01*
X719Y518D02*
X723Y526D01*
X719Y534D01*
X727Y530D01*
X735Y534D01*
X731Y526D01*
X735Y518D01*
X727Y522D01*
X719Y518D01*
X685D02*
X689Y526D01*
X685Y534D01*
X693Y530D01*
X701Y534D01*
X697Y526D01*
X701Y518D01*
X693Y522D01*
X685Y518D01*
X753D02*
X757Y526D01*
X753Y534D01*
X761Y530D01*
X769Y534D01*
X765Y526D01*
X769Y518D01*
X761Y522D01*
X753Y518D01*
X719Y545D02*
X723Y553D01*
X719Y561D01*
X727Y557D01*
X735Y561D01*
X731Y553D01*
X735Y545D01*
X727Y549D01*
X719Y545D01*
X685D02*
X689Y553D01*
X685Y561D01*
X693Y557D01*
X701Y561D01*
X697Y553D01*
X701Y545D01*
X693Y549D01*
X685Y545D01*
X753D02*
X757Y553D01*
X753Y561D01*
X761Y557D01*
X769Y561D01*
X765Y553D01*
X769Y545D01*
X761Y549D01*
X753Y545D01*
X719Y571D02*
X723Y579D01*
X719Y587D01*
X727Y583D01*
X735Y587D01*
X731Y579D01*
X735Y571D01*
X727Y575D01*
X719Y571D01*
X685D02*
X689Y579D01*
X685Y587D01*
X693Y583D01*
X701Y587D01*
X697Y579D01*
X701Y571D01*
X693Y575D01*
X685Y571D01*
X753D02*
X757Y579D01*
X753Y587D01*
X761Y583D01*
X769Y587D01*
X765Y579D01*
X769Y571D01*
X761Y575D01*
X753Y571D01*
X719Y597D02*
X723Y605D01*
X719Y613D01*
X727Y609D01*
X735Y613D01*
X731Y605D01*
X735Y597D01*
X727Y601D01*
X719Y597D01*
X685D02*
X689Y605D01*
X685Y613D01*
X693Y609D01*
X701Y613D01*
X697Y605D01*
X701Y597D01*
X693Y601D01*
X685Y597D01*
X753D02*
X757Y605D01*
X753Y613D01*
X761Y609D01*
X769Y613D01*
X765Y605D01*
X769Y597D01*
X761Y601D01*
X753Y597D01*
X719Y625D02*
X723Y633D01*
X719Y641D01*
X727Y637D01*
X735Y641D01*
X731Y633D01*
X735Y625D01*
X727Y629D01*
X719Y625D01*
X685D02*
X689Y633D01*
X685Y641D01*
X693Y637D01*
X701Y641D01*
X697Y633D01*
X701Y625D01*
X693Y629D01*
X685Y625D01*
X753D02*
X757Y633D01*
X753Y641D01*
X761Y637D01*
X769Y641D01*
X765Y633D01*
X769Y625D01*
X761Y629D01*
X753Y625D01*
X1117Y387D02*
X1121Y395D01*
X1117Y403D01*
X1125Y399D01*
X1133Y403D01*
X1129Y395D01*
X1133Y387D01*
X1125Y391D01*
X1117Y387D01*
X692D02*
X696Y395D01*
X692Y403D01*
X700Y399D01*
X708Y403D01*
X704Y395D01*
X708Y387D01*
X700Y391D01*
X692Y387D01*
X710Y157D02*
X714Y165D01*
X710Y173D01*
X718Y169D01*
X726Y173D01*
X722Y165D01*
X726Y157D01*
X718Y161D01*
X710Y157D01*
X743Y157D02*
X747Y165D01*
X743Y173D01*
X751Y169D01*
X759Y173D01*
X755Y165D01*
X759Y157D01*
X751Y161D01*
X743Y157D01*
X776D02*
X780Y165D01*
X776Y173D01*
X784Y169D01*
X792Y173D01*
X788Y165D01*
X792Y157D01*
X784Y161D01*
X776Y157D01*
X710Y132D02*
X714Y140D01*
X710Y148D01*
X718Y144D01*
X726Y148D01*
X722Y140D01*
X726Y132D01*
X718Y136D01*
X710Y132D01*
X743Y132D02*
X747Y140D01*
X743Y148D01*
X751Y144D01*
X759Y148D01*
X755Y140D01*
X759Y132D01*
X751Y136D01*
X743Y132D01*
X776D02*
X780Y140D01*
X776Y148D01*
X784Y144D01*
X792Y148D01*
X788Y140D01*
X792Y132D01*
X784Y136D01*
X776Y132D01*
X710Y106D02*
X714Y114D01*
X710Y122D01*
X718Y118D01*
X726Y122D01*
X722Y114D01*
X726Y106D01*
X718Y110D01*
X710Y106D01*
X743Y106D02*
X747Y114D01*
X743Y122D01*
X751Y118D01*
X759Y122D01*
X755Y114D01*
X759Y106D01*
X751Y110D01*
X743Y106D01*
X776D02*
X780Y114D01*
X776Y122D01*
X784Y118D01*
X792Y122D01*
X788Y114D01*
X792Y106D01*
X784Y110D01*
X776Y106D01*
X710Y81D02*
X714Y89D01*
X710Y97D01*
X718Y93D01*
X726Y97D01*
X722Y89D01*
X726Y81D01*
X718Y85D01*
X710Y81D01*
X743Y81D02*
X747Y89D01*
X743Y97D01*
X751Y93D01*
X759Y97D01*
X755Y89D01*
X759Y81D01*
X751Y85D01*
X743Y81D01*
X776D02*
X780Y89D01*
X776Y97D01*
X784Y93D01*
X792Y97D01*
X788Y89D01*
X792Y81D01*
X784Y85D01*
X776Y81D01*
X710Y55D02*
X714Y63D01*
X710Y71D01*
X718Y67D01*
X726Y71D01*
X722Y63D01*
X726Y55D01*
X718Y59D01*
X710Y55D01*
X743Y55D02*
X747Y63D01*
X743Y71D01*
X751Y67D01*
X759Y71D01*
X755Y63D01*
X759Y55D01*
X751Y59D01*
X743Y55D01*
X776D02*
X780Y63D01*
X776Y71D01*
X784Y67D01*
X792Y71D01*
X788Y63D01*
X792Y55D01*
X784Y59D01*
X776Y55D01*
X710Y29D02*
X714Y37D01*
X710Y45D01*
X718Y41D01*
X726Y45D01*
X722Y37D01*
X726Y29D01*
X718Y33D01*
X710Y29D01*
X743Y29D02*
X747Y37D01*
X743Y45D01*
X751Y41D01*
X759Y45D01*
X755Y37D01*
X759Y29D01*
X751Y33D01*
X743Y29D01*
X776D02*
X780Y37D01*
X776Y45D01*
X784Y41D01*
X792Y45D01*
X788Y37D01*
X792Y29D01*
X784Y33D01*
X776Y29D01*
X950Y32D02*
X954Y40D01*
X950Y48D01*
X958Y44D01*
X966Y48D01*
X962Y40D01*
X966Y32D01*
X958Y36D01*
X950Y32D01*
X1018D02*
X1022Y40D01*
X1018Y48D01*
X1026Y44D01*
X1034Y48D01*
X1030Y40D01*
X1034Y32D01*
X1026Y36D01*
X1018Y32D01*
X984D02*
X988Y40D01*
X984Y48D01*
X992Y44D01*
X1000Y48D01*
X996Y40D01*
X1000Y32D01*
X992Y36D01*
X984Y32D01*
X950Y60D02*
X954Y68D01*
X950Y76D01*
X958Y72D01*
X966Y76D01*
X962Y68D01*
X966Y60D01*
X958Y64D01*
X950Y60D01*
X1018D02*
X1022Y68D01*
X1018Y76D01*
X1026Y72D01*
X1034Y76D01*
X1030Y68D01*
X1034Y60D01*
X1026Y64D01*
X1018Y60D01*
X984D02*
X988Y68D01*
X984Y76D01*
X992Y72D01*
X1000Y76D01*
X996Y68D01*
X1000Y60D01*
X992Y64D01*
X984Y60D01*
X950Y86D02*
X954Y94D01*
X950Y102D01*
X958Y98D01*
X966Y102D01*
X962Y94D01*
X966Y86D01*
X958Y90D01*
X950Y86D01*
X1018D02*
X1022Y94D01*
X1018Y102D01*
X1026Y98D01*
X1034Y102D01*
X1030Y94D01*
X1034Y86D01*
X1026Y90D01*
X1018Y86D01*
X984D02*
X988Y94D01*
X984Y102D01*
X992Y98D01*
X1000Y102D01*
X996Y94D01*
X1000Y86D01*
X992Y90D01*
X984Y86D01*
X950Y112D02*
X954Y120D01*
X950Y128D01*
X958Y124D01*
X966Y128D01*
X962Y120D01*
X966Y112D01*
X958Y116D01*
X950Y112D01*
X1018D02*
X1022Y120D01*
X1018Y128D01*
X1026Y124D01*
X1034Y128D01*
X1030Y120D01*
X1034Y112D01*
X1026Y116D01*
X1018Y112D01*
X984D02*
X988Y120D01*
X984Y128D01*
X992Y124D01*
X1000Y128D01*
X996Y120D01*
X1000Y112D01*
X992Y116D01*
X984Y112D01*
X950Y139D02*
X954Y147D01*
X950Y155D01*
X958Y151D01*
X966Y155D01*
X962Y147D01*
X966Y139D01*
X958Y143D01*
X950Y139D01*
X1018D02*
X1022Y147D01*
X1018Y155D01*
X1026Y151D01*
X1034Y155D01*
X1030Y147D01*
X1034Y139D01*
X1026Y143D01*
X1018Y139D01*
X984D02*
X988Y147D01*
X984Y155D01*
X992Y151D01*
X1000Y155D01*
X996Y147D01*
X1000Y139D01*
X992Y143D01*
X984Y139D01*
X951Y169D02*
X955Y177D01*
X951Y185D01*
X959Y181D01*
X967Y185D01*
X963Y177D01*
X967Y169D01*
X959Y173D01*
X951Y169D01*
X1019D02*
X1023Y177D01*
X1019Y185D01*
X1027Y181D01*
X1035Y185D01*
X1031Y177D01*
X1035Y169D01*
X1027Y173D01*
X1019Y169D01*
X985D02*
X989Y177D01*
X985Y185D01*
X993Y181D01*
X1001Y185D01*
X997Y177D01*
X1001Y169D01*
X993Y173D01*
X985Y169D01*
X519Y1708D02*
X523Y1716D01*
X519Y1724D01*
X527Y1720D01*
X535Y1724D01*
X531Y1716D01*
X535Y1708D01*
X527Y1712D01*
X519Y1708D01*
X497Y1822D02*
X501Y1830D01*
X497Y1838D01*
X505Y1834D01*
X513Y1838D01*
X509Y1830D01*
X513Y1822D01*
X505Y1826D01*
X497Y1822D01*
X514Y1671D02*
X518Y1679D01*
X514Y1687D01*
X522Y1683D01*
X530Y1687D01*
X526Y1679D01*
X530Y1671D01*
X522Y1675D01*
X514Y1671D01*
X525Y1438D02*
X529Y1446D01*
X525Y1454D01*
X533Y1450D01*
X541Y1454D01*
X537Y1446D01*
X541Y1438D01*
X533Y1442D01*
X525Y1438D01*
X747Y1834D02*
X751Y1842D01*
X747Y1850D01*
X755Y1846D01*
X763Y1850D01*
X759Y1842D01*
X763Y1834D01*
X755Y1838D01*
X747Y1834D01*
X1040Y1344D02*
X1044Y1352D01*
X1040Y1360D01*
X1048Y1356D01*
X1056Y1360D01*
X1052Y1352D01*
X1056Y1344D01*
X1048Y1348D01*
X1040Y1344D01*
X897Y1901D02*
X901Y1909D01*
X897Y1917D01*
X905Y1913D01*
X913Y1917D01*
X909Y1909D01*
X913Y1901D01*
X905Y1905D01*
X897Y1901D01*
X857Y1261D02*
X861Y1269D01*
X857Y1277D01*
X865Y1273D01*
X873Y1277D01*
X869Y1269D01*
X873Y1261D01*
X865Y1265D01*
X857Y1261D01*
X957Y1222D02*
X961Y1230D01*
X957Y1238D01*
X965Y1234D01*
X973Y1238D01*
X969Y1230D01*
X973Y1222D01*
X965Y1226D01*
X957Y1222D01*
X480Y1620D02*
X484Y1628D01*
X480Y1636D01*
X488Y1632D01*
X496Y1636D01*
X492Y1628D01*
X496Y1620D01*
X488Y1624D01*
X480Y1620D01*
X787Y1802D02*
X791Y1810D01*
X787Y1818D01*
X795Y1814D01*
X803Y1818D01*
X799Y1810D01*
X803Y1802D01*
X795Y1806D01*
X787Y1802D01*
X645Y1776D02*
X649Y1784D01*
X645Y1792D01*
X653Y1788D01*
X661Y1792D01*
X657Y1784D01*
X661Y1776D01*
X653Y1780D01*
X645Y1776D01*
X787Y1641D02*
X791Y1649D01*
X787Y1657D01*
X795Y1653D01*
X803Y1657D01*
X799Y1649D01*
X803Y1641D01*
X795Y1645D01*
X787Y1641D01*
X343Y1459D02*
X347Y1467D01*
X343Y1475D01*
X351Y1471D01*
X359Y1475D01*
X355Y1467D01*
X359Y1459D01*
X351Y1463D01*
X343Y1459D01*
X332Y1497D02*
X336Y1505D01*
X332Y1513D01*
X340Y1509D01*
X348Y1513D01*
X344Y1505D01*
X348Y1497D01*
X340Y1501D01*
X332Y1497D01*
X812Y1382D02*
X816Y1390D01*
X812Y1398D01*
X820Y1394D01*
X828Y1398D01*
X824Y1390D01*
X828Y1382D01*
X820Y1386D01*
X812Y1382D01*
X858Y1641D02*
X862Y1649D01*
X858Y1657D01*
X866Y1653D01*
X874Y1657D01*
X870Y1649D01*
X874Y1641D01*
X866Y1645D01*
X858Y1641D01*
X1151Y1451D02*
X1155Y1459D01*
X1151Y1467D01*
X1159Y1463D01*
X1167Y1467D01*
X1163Y1459D01*
X1167Y1451D01*
X1159Y1455D01*
X1151Y1451D01*
X877Y1489D02*
X881Y1497D01*
X877Y1505D01*
X885Y1501D01*
X893Y1505D01*
X889Y1497D01*
X893Y1489D01*
X885Y1493D01*
X877Y1489D01*
X824Y1520D02*
X828Y1528D01*
X824Y1536D01*
X832Y1532D01*
X840Y1536D01*
X836Y1528D01*
X840Y1520D01*
X832Y1524D01*
X824Y1520D01*
X987Y913D02*
Y909D01*
X995D01*
Y913D01*
X999D01*
Y921D01*
X995D01*
Y925D01*
X987D01*
Y921D01*
X983D01*
Y913D01*
X987D01*
X1259Y1261D02*
X1263Y1269D01*
X1259Y1277D01*
X1267Y1273D01*
X1275Y1277D01*
X1271Y1269D01*
X1275Y1261D01*
X1267Y1265D01*
X1259Y1261D01*
X1478Y1264D02*
X1482Y1272D01*
X1478Y1280D01*
X1486Y1276D01*
X1494Y1280D01*
X1490Y1272D01*
X1494Y1264D01*
X1486Y1268D01*
X1478Y1264D01*
X1123Y1501D02*
X1127Y1509D01*
X1123Y1517D01*
X1131Y1513D01*
X1139Y1517D01*
X1135Y1509D01*
X1139Y1501D01*
X1131Y1505D01*
X1123Y1501D01*
X1526Y1499D02*
X1530Y1507D01*
X1526Y1515D01*
X1534Y1511D01*
X1542Y1515D01*
X1538Y1507D01*
X1542Y1499D01*
X1534Y1503D01*
X1526Y1499D01*
X1253Y1520D02*
X1257Y1528D01*
X1253Y1536D01*
X1261Y1532D01*
X1269Y1536D01*
X1265Y1528D01*
X1269Y1520D01*
X1261Y1524D01*
X1253Y1520D01*
X1535Y929D02*
X1539D01*
X1543Y933D01*
X1547Y929D01*
X1551D01*
Y933D01*
X1547Y937D01*
X1551Y941D01*
Y945D01*
X1547D01*
X1543Y941D01*
X1539Y945D01*
X1535D01*
Y941D01*
X1539Y937D01*
X1535Y933D01*
Y929D01*
X1262Y994D02*
X1266Y1002D01*
X1262Y1010D01*
X1270Y1006D01*
X1278Y1010D01*
X1274Y1002D01*
X1278Y994D01*
X1270Y998D01*
X1262Y994D01*
X1297Y995D02*
X1301Y1003D01*
X1297Y1011D01*
X1305Y1007D01*
X1313Y1011D01*
X1309Y1003D01*
X1313Y995D01*
X1305Y999D01*
X1297Y995D01*
X1424Y1027D02*
X1428Y1035D01*
X1424Y1043D01*
X1432Y1039D01*
X1440Y1043D01*
X1436Y1035D01*
X1440Y1027D01*
X1432Y1031D01*
X1424Y1027D01*
X1423Y1077D02*
X1427Y1085D01*
X1423Y1093D01*
X1431Y1089D01*
X1439Y1093D01*
X1435Y1085D01*
X1439Y1077D01*
X1431Y1081D01*
X1423Y1077D01*
X580Y1732D02*
X584Y1740D01*
X580Y1748D01*
X588Y1744D01*
X596Y1748D01*
X592Y1740D01*
X596Y1732D01*
X588Y1736D01*
X580Y1732D01*
X128Y1359D02*
X132Y1367D01*
X128Y1375D01*
X136Y1371D01*
X144Y1375D01*
X140Y1367D01*
X144Y1359D01*
X136Y1363D01*
X128Y1359D01*
X265Y1303D02*
X269Y1311D01*
X265Y1319D01*
X273Y1315D01*
X281Y1319D01*
X277Y1311D01*
X281Y1303D01*
X273Y1307D01*
X265Y1303D01*
X263Y1467D02*
X267Y1475D01*
X263Y1483D01*
X271Y1479D01*
X279Y1483D01*
X275Y1475D01*
X279Y1467D01*
X271Y1471D01*
X263Y1467D01*
X129Y1396D02*
X133Y1404D01*
X129Y1412D01*
X137Y1408D01*
X145Y1412D01*
X141Y1404D01*
X145Y1396D01*
X137Y1400D01*
X129Y1396D01*
X921Y454D02*
Y450D01*
X929D01*
Y454D01*
X933D01*
Y462D01*
X929D01*
Y466D01*
X921D01*
Y462D01*
X917D01*
Y454D01*
X921D01*
X1443Y361D02*
X1447D01*
X1451Y365D01*
X1455Y361D01*
X1459D01*
Y365D01*
X1455Y369D01*
X1459Y373D01*
Y377D01*
X1455D01*
X1451Y373D01*
X1447Y377D01*
X1443D01*
Y373D01*
X1447Y369D01*
X1443Y365D01*
Y361D01*
X540Y703D02*
X544D01*
X548Y707D01*
X552Y703D01*
X556D01*
Y707D01*
X552Y711D01*
X556Y715D01*
Y719D01*
X552D01*
X548Y715D01*
X544Y719D01*
X540D01*
Y715D01*
X544Y711D01*
X540Y707D01*
Y703D01*
X1475Y1929D02*
Y1925D01*
X1483D01*
Y1929D01*
X1487D01*
Y1937D01*
X1483D01*
Y1941D01*
X1475D01*
Y1937D01*
X1471D01*
Y1929D01*
X1475D01*
X1130Y2002D02*
Y1998D01*
X1138D01*
Y2002D01*
X1142D01*
Y2010D01*
X1138D01*
Y2014D01*
X1130D01*
Y2010D01*
X1126D01*
Y2002D01*
X1130D01*
X1005Y2003D02*
Y1999D01*
X1013D01*
Y2003D01*
X1017D01*
Y2011D01*
X1013D01*
Y2015D01*
X1005D01*
Y2011D01*
X1001D01*
Y2003D01*
X1005D01*
X804Y2016D02*
Y2012D01*
X812D01*
Y2016D01*
X816D01*
Y2024D01*
X812D01*
Y2028D01*
X804D01*
Y2024D01*
X800D01*
Y2016D01*
X804D01*
D110*
X1027Y2110D02*
G03*
X1027Y2110I-8J0D01*
G01*
X798Y2110D02*
G03*
X798Y2110I-8J0D01*
G01*
M02*
