G04*
G04 #@! TF.GenerationSoftware,Altium Limited,Altium Designer,19.0.15 (446)*
G04*
G04 Layer_Color=65535*
%FSLAX23Y23*%
%MOIN*%
G70*
G01*
G75*
%ADD10C,0.006*%
%ADD11C,0.006*%
%ADD12C,0.001*%
%ADD13C,0.008*%
%ADD14C,0.004*%
%ADD15C,0.008*%
%ADD16C,0.010*%
%ADD17C,0.010*%
%ADD18C,0.020*%
%ADD19C,0.005*%
%ADD20C,0.012*%
G04:AMPARAMS|DCode=21|XSize=40mil|YSize=23mil|CornerRadius=0mil|HoleSize=0mil|Usage=FLASHONLY|Rotation=45.000|XOffset=0mil|YOffset=0mil|HoleType=Round|Shape=Rectangle|*
%AMROTATEDRECTD21*
4,1,4,-0.006,-0.022,-0.022,-0.006,0.006,0.022,0.022,0.006,-0.006,-0.022,0.0*
%
%ADD21ROTATEDRECTD21*%

G04:AMPARAMS|DCode=22|XSize=39mil|YSize=23mil|CornerRadius=0mil|HoleSize=0mil|Usage=FLASHONLY|Rotation=135.000|XOffset=0mil|YOffset=0mil|HoleType=Round|Shape=Rectangle|*
%AMROTATEDRECTD22*
4,1,4,0.022,-0.006,0.006,-0.022,-0.022,0.006,-0.006,0.022,0.022,-0.006,0.0*
%
%ADD22ROTATEDRECTD22*%

G04:AMPARAMS|DCode=23|XSize=39mil|YSize=23mil|CornerRadius=0mil|HoleSize=0mil|Usage=FLASHONLY|Rotation=225.000|XOffset=0mil|YOffset=0mil|HoleType=Round|Shape=Rectangle|*
%AMROTATEDRECTD23*
4,1,4,0.006,0.022,0.022,0.006,-0.006,-0.022,-0.022,-0.006,0.006,0.022,0.0*
%
%ADD23ROTATEDRECTD23*%

G04:AMPARAMS|DCode=24|XSize=39mil|YSize=23mil|CornerRadius=0mil|HoleSize=0mil|Usage=FLASHONLY|Rotation=315.000|XOffset=0mil|YOffset=0mil|HoleType=Round|Shape=Rectangle|*
%AMROTATEDRECTD24*
4,1,4,-0.022,0.006,-0.006,0.022,0.022,-0.006,0.006,-0.022,-0.022,0.006,0.0*
%
%ADD24ROTATEDRECTD24*%

%ADD25R,0.008X0.047*%
%ADD26R,0.026X0.069*%
D10*
X1227Y87D02*
G03*
X1218Y78I707J-733D01*
G01*
X1232Y91D02*
G03*
X1227Y87I59J-71D01*
G01*
X1235Y94D02*
G03*
X1232Y91I17J-26D01*
G01*
X1238Y94D02*
G03*
X1235Y94I0J-4D01*
G01*
X1240Y94D02*
G03*
X1238Y94I-3J-7D01*
G01*
X1243Y92D02*
G03*
X1240Y94I-5J-5D01*
G01*
X1244Y90D02*
G03*
X1243Y92I-7J-3D01*
G01*
X1245Y87D02*
G03*
X1244Y90I-7J0D01*
G01*
X1244Y85D02*
G03*
X1245Y87I-4J3D01*
G01*
X1242Y81D02*
G03*
X1244Y85I-22J19D01*
G01*
X1237Y76D02*
G03*
X1242Y81I-78J77D01*
G01*
X1225Y64D02*
G03*
X1237Y76I-1353J1360D01*
G01*
X1217Y56D02*
G03*
X1225Y64I-471J489D01*
G01*
X1210Y50D02*
G03*
X1217Y56I-222J245D01*
G01*
X1205Y45D02*
G03*
X1210Y50I-323J366D01*
G01*
X1203Y44D02*
G03*
X1205Y45I-1J4D01*
G01*
X1201Y44D02*
G03*
X1203Y44I-1J10D01*
G01*
X1193Y43D02*
G03*
X1201Y44I-67J1462D01*
G01*
X1184Y43D02*
G03*
X1193Y43I-31J866D01*
G01*
X1174Y43D02*
G03*
X1184Y43I-40J1426D01*
G01*
X1106Y15D02*
G03*
X1114Y15I8J952D01*
G01*
X1100Y16D02*
G03*
X1106Y15I10J481D01*
G01*
X1094Y16D02*
G03*
X1100Y16I73J3155D01*
G01*
X1094Y17D02*
G03*
X1094Y16I3J-2D01*
G01*
X1109Y44D02*
G03*
X1094Y17I38070J-20037D01*
G01*
X1122Y70D02*
G03*
X1109Y44I12297J-6505D01*
G01*
X1125Y74D02*
G03*
X1122Y70I26J-19D01*
G01*
X1126Y76D02*
G03*
X1125Y74I9J-9D01*
G01*
X1128Y77D02*
G03*
X1126Y76I16J-20D01*
G01*
X1129Y78D02*
G03*
X1128Y77I15J-21D01*
G01*
X1131Y79D02*
G03*
X1129Y78I7J-13D01*
G01*
X1134Y81D02*
G03*
X1131Y79I2J-12D01*
G01*
X1139Y81D02*
G03*
X1134Y81I2J-33D01*
G01*
X1146Y81D02*
G03*
X1139Y81I1J-132D01*
G01*
X1163Y81D02*
G03*
X1146Y81I0J-2858D01*
G01*
X1179Y81D02*
G03*
X1163Y81I-16J-2609D01*
G01*
X1187Y81D02*
G03*
X1179Y81I-8J-154D01*
G01*
X1191Y81D02*
G03*
X1187Y81I-7J-46D01*
G01*
X1193Y80D02*
G03*
X1191Y81I-3J-3D01*
G01*
X1194Y78D02*
G03*
X1193Y80I-5J-2D01*
G01*
X1195Y75D02*
G03*
X1194Y78I-7J0D01*
G01*
X1194Y73D02*
G03*
X1195Y75I-7J3D01*
G01*
X1193Y70D02*
G03*
X1194Y73I-4J4D01*
G01*
X1191Y69D02*
G03*
X1193Y70I-2J5D01*
G01*
X1189Y69D02*
G03*
X1191Y69I-1J9D01*
G01*
X1185Y69D02*
G03*
X1189Y69I-1J32D01*
G01*
X1178Y68D02*
G03*
X1185Y69I-1J508D01*
G01*
X1178Y68D02*
G03*
X1168Y68I0J-319D01*
G01*
D02*
G03*
X1164Y68I1J-21D01*
G01*
D02*
G03*
X1163Y66I1J-2D01*
G01*
X1163D02*
G03*
X1163Y65I1J-1D01*
G01*
X1163D02*
G03*
X1164Y64I2J1D01*
G01*
D02*
G03*
X1167Y63I4J15D01*
G01*
D02*
G03*
X1172Y63I7J65D01*
G01*
D02*
G03*
X1183Y63I29J1246D01*
G01*
X1716Y45D02*
G03*
X1711Y45I-5J-328D01*
G01*
X1718Y45D02*
G03*
X1716Y45I-2J-6D01*
G01*
X1719Y44D02*
G03*
X1718Y45I-1J-0D01*
G01*
X1719Y43D02*
G03*
X1719Y44I-3J1D01*
G01*
X1719Y43D02*
G03*
X1718Y42I25J-6D01*
G01*
D02*
G03*
X1718Y40I127J-24D01*
G01*
X1718D02*
G03*
X1718Y38I143J-25D01*
G01*
X1718D02*
G03*
X1717Y36I129J-21D01*
G01*
X1662Y68D02*
G03*
X1662Y73I-508J-67D01*
G01*
D02*
G03*
X1661Y77I-273J-38D01*
G01*
D02*
G03*
X1661Y80I-1005J-156D01*
G01*
D02*
G03*
X1660Y80I-1J-0D01*
G01*
X1660Y80D02*
G03*
X1659Y77I82J-18D01*
G01*
Y77D02*
G03*
X1659Y73I98J-18D01*
G01*
Y73D02*
G03*
X1658Y66I471J-65D01*
G01*
X1658Y63D02*
G03*
X1658Y66I-398J53D01*
G01*
X1657Y60D02*
G03*
X1658Y63I-355J51D01*
G01*
X1657Y57D02*
G03*
X1657Y60I-324J49D01*
G01*
X1656Y55D02*
G03*
X1657Y57I-34J7D01*
G01*
X1656Y55D02*
G03*
X1656Y54I12J-2D01*
G01*
D02*
G03*
X1656Y53I1J-0D01*
G01*
D02*
G03*
X1657Y53I1J1D01*
G01*
D02*
G03*
X1660Y52I3J54D01*
G01*
D02*
G03*
X1663Y53I0J10D01*
G01*
X1663Y53D02*
G03*
X1664Y54I-0J1D01*
G01*
X1664D02*
G03*
X1664Y57I-10J2D01*
G01*
D02*
G03*
X1662Y68I-1253J-153D01*
G01*
X1654Y109D02*
G03*
X1652Y109I4J-56D01*
G01*
X1657Y109D02*
G03*
X1654Y109I0J-42D01*
G01*
X1660Y109D02*
G03*
X1657Y109I-3J-83D01*
G01*
X1678Y57D02*
G03*
X1675Y71I-7535J-1348D01*
G01*
X1680Y45D02*
G03*
X1678Y57I-4060J-713D01*
G01*
X1682Y34D02*
G03*
X1680Y45I-18326J-3209D01*
G01*
X1682Y33D02*
G03*
X1682Y34I-6J-0D01*
G01*
X1682Y32D02*
G03*
X1682Y33I-0J1D01*
G01*
X1680Y32D02*
G03*
X1682Y32I-1J6D01*
G01*
X1678Y32D02*
G03*
X1680Y32I-1J17D01*
G01*
X1674Y31D02*
G03*
X1678Y32I-0J97D01*
G01*
X1670Y32D02*
G03*
X1674Y31I5J237D01*
G01*
X1668Y32D02*
G03*
X1670Y32I2J6D01*
G01*
X1667Y32D02*
G03*
X1668Y32I1J0D01*
G01*
X1667Y34D02*
G03*
X1667Y32I4J0D01*
G01*
X1667Y34D02*
G03*
X1667Y35I-9J-0D01*
G01*
Y35D02*
G03*
X1667Y36I-20J-3D01*
G01*
Y36D02*
G03*
X1666Y38I-21J-4D01*
G01*
X1666D02*
G03*
X1666Y39I-12J-3D01*
G01*
X1666D02*
G03*
X1665Y40I-7J-3D01*
G01*
X1665D02*
G03*
X1664Y41I-2J-1D01*
G01*
X1664D02*
G03*
X1663Y41I-1J-4D01*
G01*
Y41D02*
G03*
X1660Y41I1J-68D01*
G01*
Y41D02*
G03*
X1657Y41I4J-67D01*
G01*
Y41D02*
G03*
X1655Y41I0J-4D01*
G01*
Y41D02*
G03*
X1655Y40I1J-1D01*
G01*
D02*
G03*
X1654Y38I5J-2D01*
G01*
X1654Y34D02*
G03*
X1654Y38I-68J12D01*
G01*
X1653Y32D02*
G03*
X1654Y34I-2J2D01*
G01*
X1651Y32D02*
G03*
X1653Y32I-0J3D01*
G01*
X1645Y31D02*
G03*
X1651Y32I-0J111D01*
G01*
X1641Y31D02*
G03*
X1645Y31I5J267D01*
G01*
X1639Y32D02*
G03*
X1641Y31I2J5D01*
G01*
X1638Y32D02*
G03*
X1639Y32I1J0D01*
G01*
X1638Y34D02*
G03*
X1638Y32I3J-1D01*
G01*
X1638Y34D02*
G03*
X1639Y39I-106J24D01*
G01*
D02*
G03*
X1645Y72I-68860J12451D01*
G01*
X1652Y107D02*
G03*
X1652Y109I-8J1D01*
G01*
X1622Y109D02*
G03*
X1610Y109I-12J-359D01*
G01*
X1628Y108D02*
G03*
X1622Y109I-6J-22D01*
G01*
X1631Y106D02*
G03*
X1628Y108I-5J-4D01*
G01*
X1633Y103D02*
G03*
X1631Y106I-9J-3D01*
G01*
X1634Y97D02*
G03*
X1633Y103I-24J-0D01*
G01*
X1634Y71D02*
G03*
X1634Y97I-3114J-5D01*
G01*
X1634Y46D02*
G03*
X1634Y71I-2703J21D01*
G01*
X1633Y39D02*
G03*
X1634Y46I-31J7D01*
G01*
X1631Y35D02*
G03*
X1633Y39I-13J8D01*
G01*
X1629Y33D02*
G03*
X1631Y35I-1J4D01*
G01*
X1624Y32D02*
G03*
X1629Y33I-1J16D01*
G01*
X1611Y32D02*
G03*
X1624Y32I-10J581D01*
G01*
X1576Y31D02*
G03*
X1579Y31I3J232D01*
G01*
X1573Y32D02*
G03*
X1576Y31I4J117D01*
G01*
X1571Y32D02*
G03*
X1573Y32I18J460D01*
G01*
X1571Y32D02*
G03*
X1571Y33I-6J0D01*
G01*
D02*
G03*
X1567Y48I-8640J-2300D01*
G01*
D02*
G03*
X1563Y62I-16871J-4521D01*
G01*
X1563D02*
G03*
X1563Y63I-2J-0D01*
G01*
Y63D02*
G03*
X1562Y63I-0J-0D01*
G01*
D02*
G03*
X1562Y59I572J-25D01*
G01*
D02*
G03*
X1562Y54I222J-8D01*
G01*
D02*
G03*
X1562Y48I473J-6D01*
G01*
X1523Y68D02*
G03*
X1522Y72I-239J-27D01*
G01*
D02*
G03*
X1522Y76I-153J-20D01*
G01*
D02*
G03*
X1521Y79I-201J-31D01*
G01*
D02*
G03*
X1521Y80I-3J-1D01*
G01*
X1521Y80D02*
G03*
X1519Y69I2164J-336D01*
G01*
D02*
G03*
X1517Y58I719J-108D01*
G01*
D02*
G03*
X1517Y53I30J-4D01*
G01*
X1517Y53D02*
G03*
X1518Y53I3J9D01*
G01*
D02*
G03*
X1519Y53I2J12D01*
G01*
D02*
G03*
X1521Y52I2J23D01*
G01*
D02*
G03*
X1524Y53I-0J50D01*
G01*
X1524Y53D02*
G03*
X1525Y53I-0J1D01*
G01*
D02*
G03*
X1525Y55I-5J0D01*
G01*
X1524Y56D02*
G03*
X1525Y55I16J2D01*
G01*
X1524Y60D02*
G03*
X1524Y56I378J50D01*
G01*
X1523Y64D02*
G03*
X1524Y60I362J44D01*
G01*
X1523Y68D02*
G03*
X1523Y64I490J55D01*
G01*
X1514Y109D02*
G03*
X1512Y108I0J-1D01*
G01*
X1521Y109D02*
G03*
X1514Y109I9J-243D01*
G01*
X1528Y110D02*
G03*
X1521Y109I2J-253D01*
G01*
X1529Y109D02*
G03*
X1528Y110I-1J0D01*
G01*
X1529Y109D02*
G03*
X1529Y107I9J-0D01*
G01*
X1529D02*
G03*
X1536Y71I190732J34341D01*
G01*
X1536D02*
G03*
X1542Y36I111895J20168D01*
G01*
D02*
G03*
X1543Y33I26J5D01*
G01*
X1542Y32D02*
G03*
X1543Y33I-1J1D01*
G01*
X1540Y32D02*
G03*
X1542Y32I-0J8D01*
G01*
X1536Y31D02*
G03*
X1540Y32I0J198D01*
G01*
X1527Y35D02*
G03*
X1527Y39I-68J-11D01*
G01*
D02*
G03*
X1526Y41I-3J-1D01*
G01*
D02*
G03*
X1524Y41I-2J-2D01*
G01*
D02*
G03*
X1521Y41I-4J-51D01*
G01*
X1503Y32D02*
G03*
X1506Y31I3J68D01*
G01*
X1501Y32D02*
G03*
X1503Y32I3J24D01*
G01*
X1499Y32D02*
G03*
X1501Y32I4J17D01*
G01*
X1499Y33D02*
G03*
X1499Y32I0J0D01*
G01*
X1499Y34D02*
G03*
X1499Y33I11J-2D01*
G01*
X1506Y70D02*
G03*
X1499Y34I137606J-24597D01*
G01*
X1512Y106D02*
G03*
X1506Y70I107006J-19164D01*
G01*
X1512Y108D02*
G03*
X1512Y106I17J-6D01*
G01*
X1463Y93D02*
G03*
X1465Y87I606J158D01*
G01*
X1465D02*
G03*
X1466Y82I334J91D01*
G01*
X1466D02*
G03*
X1468Y78I943J272D01*
G01*
D02*
G03*
X1468Y77I1J0D01*
G01*
X1468Y77D02*
G03*
X1470Y81I-474J150D01*
G01*
D02*
G03*
X1471Y87I-184J57D01*
G01*
X1471D02*
G03*
X1473Y93I-388J107D01*
G01*
X1479Y50D02*
G03*
X1479Y57I-446J0D01*
G01*
D02*
G03*
X1479Y62I-207J-3D01*
G01*
D02*
G03*
X1479Y67I-444J-19D01*
G01*
X1479D02*
G03*
X1478Y67I-0J-0D01*
G01*
D02*
G03*
X1478Y66I1J-1D01*
G01*
D02*
G03*
X1476Y62I552J-201D01*
G01*
D02*
G03*
X1475Y58I253J-90D01*
G01*
Y58D02*
G03*
X1473Y52I446J-149D01*
G01*
X1422Y104D02*
G03*
X1422Y105I-642J-122D01*
G01*
X1423Y102D02*
G03*
X1422Y104I-1214J-228D01*
G01*
X1423Y100D02*
G03*
X1423Y102I-1193J-222D01*
G01*
X1423Y99D02*
G03*
X1423Y100I-541J-99D01*
G01*
X1343Y109D02*
G03*
X1337Y109I-6J-249D01*
G01*
X1349Y109D02*
G03*
X1343Y109I-10J-179D01*
G01*
X1354Y109D02*
G03*
X1349Y109I-15J-188D01*
G01*
X1356Y108D02*
G03*
X1354Y109I-3J-7D01*
G01*
X1359Y106D02*
G03*
X1356Y108I-6J-6D01*
G01*
X1361Y103D02*
G03*
X1359Y106I-7J-2D01*
G01*
X1361Y97D02*
G03*
X1361Y103I-30J-1D01*
G01*
X1362Y83D02*
G03*
X1361Y97I-705J-10D01*
G01*
X1362Y69D02*
G03*
X1362Y83I-679J4D01*
G01*
X1361Y63D02*
G03*
X1362Y69I-38J7D01*
G01*
X1360Y59D02*
G03*
X1361Y63I-8J5D01*
G01*
X1357Y57D02*
G03*
X1360Y59I-2J6D01*
G01*
X1357Y57D02*
G03*
X1356Y57I3J-6D01*
G01*
X1356D02*
G03*
X1356Y56I3J-4D01*
G01*
X1356D02*
G03*
X1355Y55I3J-3D01*
G01*
X1355Y55D02*
G03*
X1355Y54I3J0D01*
G01*
D02*
G03*
X1356Y51I360J107D01*
G01*
D02*
G03*
X1357Y48I214J65D01*
G01*
D02*
G03*
X1358Y43I352J114D01*
G01*
X1360Y39D02*
G03*
X1358Y43I-464J-152D01*
G01*
X1361Y36D02*
G03*
X1360Y39I-270J-84D01*
G01*
X1362Y33D02*
G03*
X1361Y36I-575J-176D01*
G01*
X1362Y32D02*
G03*
X1362Y33I-2J0D01*
G01*
X1360Y32D02*
G03*
X1362Y32I-5J45D01*
G01*
X1357Y32D02*
G03*
X1360Y32I-1J36D01*
G01*
X1355Y31D02*
G03*
X1357Y32I0J70D01*
G01*
X1344Y43D02*
G03*
X1345Y40I2231J667D01*
G01*
X1342Y47D02*
G03*
X1344Y43I2598J773D01*
G01*
X1342Y50D02*
G03*
X1342Y47I2328J689D01*
G01*
X1341Y52D02*
G03*
X1342Y50I504J147D01*
G01*
X1341Y52D02*
G03*
X1340Y54I-15J-4D01*
G01*
D02*
G03*
X1340Y55I-9J-4D01*
G01*
D02*
G03*
X1339Y56I-6J-4D01*
G01*
D02*
G03*
X1338Y56I-1J-1D01*
G01*
X1338Y56D02*
G03*
X1337Y54I13J-4D01*
G01*
D02*
G03*
X1337Y50I40J-4D01*
G01*
D02*
G03*
X1337Y44I363J-6D01*
G01*
X1297Y60D02*
G03*
X1297Y66I-161J-16D01*
G01*
D02*
G03*
X1296Y74I-392J-54D01*
G01*
D02*
G03*
X1294Y81I-849J-134D01*
G01*
X1294Y81D02*
G03*
X1294Y77I6074J-826D01*
G01*
Y77D02*
G03*
X1293Y74I2502J-339D01*
G01*
X1293D02*
G03*
X1292Y69I4376J-586D01*
G01*
X1292Y65D02*
G03*
X1292Y69I-1301J178D01*
G01*
X1291Y60D02*
G03*
X1292Y65I-1022J144D01*
G01*
X1291Y57D02*
G03*
X1291Y60I-1004J145D01*
G01*
X1290Y55D02*
G03*
X1291Y57I-60J10D01*
G01*
X1290Y55D02*
G03*
X1290Y54I12J-2D01*
G01*
D02*
G03*
X1291Y53I1J-0D01*
G01*
D02*
G03*
X1292Y53I1J1D01*
G01*
D02*
G03*
X1294Y52I3J52D01*
G01*
X1288Y109D02*
G03*
X1286Y109I4J-67D01*
G01*
X1291Y109D02*
G03*
X1288Y109I-0J-46D01*
G01*
X1294Y109D02*
G03*
X1291Y109I-3J-91D01*
G01*
X1312Y58D02*
G03*
X1309Y72I-5348J-963D01*
G01*
X1314Y45D02*
G03*
X1312Y58I-2961J-520D01*
G01*
X1316Y35D02*
G03*
X1314Y45I-9544J-1666D01*
G01*
X1316Y33D02*
G03*
X1316Y35I-9J-0D01*
G01*
X1316Y32D02*
G03*
X1316Y33I-1J1D01*
G01*
X1315Y32D02*
G03*
X1316Y32I-0J2D01*
G01*
X1313Y32D02*
G03*
X1315Y32I-0J10D01*
G01*
X1308Y31D02*
G03*
X1313Y32I-0J162D01*
G01*
X1301Y34D02*
G03*
X1301Y38I-40J-0D01*
G01*
X1301D02*
G03*
X1300Y40I-3J-0D01*
G01*
X1300Y40D02*
G03*
X1298Y41I-2J-2D01*
G01*
Y41D02*
G03*
X1294Y41I-2J-30D01*
G01*
Y41D02*
G03*
X1291Y41I4J-83D01*
G01*
D02*
G03*
X1289Y41I0J-4D01*
G01*
D02*
G03*
X1289Y40I1J-1D01*
G01*
D02*
G03*
X1288Y38I4J-2D01*
G01*
X1288Y34D02*
G03*
X1288Y38I-67J12D01*
G01*
X1287Y32D02*
G03*
X1288Y34I-2J2D01*
G01*
X1285Y32D02*
G03*
X1287Y32I-0J3D01*
G01*
X1279Y31D02*
G03*
X1285Y32I-0J113D01*
G01*
X1275Y32D02*
G03*
X1279Y31I4J200D01*
G01*
X1273Y32D02*
G03*
X1275Y32I2J8D01*
G01*
X1272Y32D02*
G03*
X1273Y32I1J1D01*
G01*
X1272Y33D02*
G03*
X1272Y32I1J-0D01*
G01*
X1272Y33D02*
G03*
X1273Y36I-24J7D01*
G01*
D02*
G03*
X1279Y71I-100206J18085D01*
G01*
X1279D02*
G03*
X1286Y107I-162466J29262D01*
G01*
X1286D02*
G03*
X1286Y109I-10J2D01*
G01*
X1180Y148D02*
G03*
X1180Y146I54J-6D01*
G01*
X1180Y150D02*
G03*
X1180Y148I9J-3D01*
G01*
X1181Y151D02*
G03*
X1180Y150I2J-2D01*
G01*
X1182Y151D02*
G03*
X1181Y151I0J-1D01*
G01*
X1183Y150D02*
G03*
X1182Y151I-2J-1D01*
G01*
X1183Y148D02*
G03*
X1183Y150I-9J-0D01*
G01*
X1183Y145D02*
G03*
X1183Y148I-68J-0D01*
G01*
X1191Y149D02*
G03*
X1191Y145I103J-3D01*
G01*
X1191Y150D02*
G03*
X1191Y149I5J-2D01*
G01*
X1192Y151D02*
G03*
X1191Y150I1J-1D01*
G01*
X1193Y151D02*
G03*
X1192Y151I0J-2D01*
G01*
X1194D02*
G03*
X1193Y151I-1J-2D01*
G01*
X1195Y150D02*
G03*
X1194Y151I-1J-0D01*
G01*
X1195Y149D02*
G03*
X1195Y150I-5J-0D01*
G01*
X1195Y145D02*
G03*
X1195Y149I-103J0D01*
G01*
X1214Y129D02*
G03*
X1211Y129I-3J-103D01*
G01*
X1216Y129D02*
G03*
X1214Y129I-2J-5D01*
G01*
X1217Y129D02*
G03*
X1216Y129I-1J-1D01*
G01*
X1217Y127D02*
G03*
X1217Y129I-2J0D01*
G01*
Y126D02*
G03*
X1217Y127I-2J1D01*
G01*
X1216Y126D02*
G03*
X1217Y126I-0J1D01*
G01*
X1214Y126D02*
G03*
X1216Y126I-0J5D01*
G01*
X1211Y125D02*
G03*
X1214Y126I0J103D01*
G01*
Y117D02*
G03*
X1211Y117I-3J-103D01*
G01*
X1216Y117D02*
G03*
X1214Y117I-2J-5D01*
G01*
X1217Y117D02*
G03*
X1216Y117I-1J-1D01*
G01*
X1217Y115D02*
G03*
X1217Y117I-2J0D01*
G01*
Y114D02*
G03*
X1217Y115I-2J1D01*
G01*
X1216Y114D02*
G03*
X1217Y114I-0J1D01*
G01*
X1214Y114D02*
G03*
X1216Y114I-0J5D01*
G01*
X1211Y113D02*
G03*
X1214Y114I0J103D01*
G01*
X1195Y95D02*
G03*
X1195Y98I-79J7D01*
G01*
X1195Y93D02*
G03*
X1195Y95I-5J2D01*
G01*
X1194Y93D02*
G03*
X1195Y93I-1J1D01*
G01*
X1193Y92D02*
G03*
X1194Y93I0J2D01*
G01*
X1192Y93D02*
G03*
X1193Y92I1J2D01*
G01*
X1191Y93D02*
G03*
X1192Y93I1J0D01*
G01*
X1191Y95D02*
G03*
X1191Y93I6J0D01*
G01*
X1191Y99D02*
G03*
X1191Y95I103J0D01*
G01*
X1183Y95D02*
G03*
X1183Y98I-54J6D01*
G01*
X1183Y94D02*
G03*
X1183Y95I-9J3D01*
G01*
X1182Y93D02*
G03*
X1183Y94I-2J2D01*
G01*
X1181Y92D02*
G03*
X1182Y93I0J1D01*
G01*
X1181Y93D02*
G03*
X1181Y92I1J1D01*
G01*
X1180Y94D02*
G03*
X1181Y93I2J1D01*
G01*
X1180Y95D02*
G03*
X1180Y94I9J0D01*
G01*
X1180Y98D02*
G03*
X1180Y95I68J0D01*
G01*
X1160Y114D02*
G03*
X1164Y113I3J103D01*
G01*
X1159Y114D02*
G03*
X1160Y114I2J5D01*
G01*
X1158Y114D02*
G03*
X1159Y114I1J1D01*
G01*
X1158Y115D02*
G03*
X1158Y114I2J0D01*
G01*
Y117D02*
G03*
X1158Y115I2J-1D01*
G01*
X1159Y117D02*
G03*
X1158Y117I0J-1D01*
G01*
X1160Y117D02*
G03*
X1159Y117I0J-5D01*
G01*
X1164Y117D02*
G03*
X1160Y117I-0J-103D01*
G01*
Y126D02*
G03*
X1164Y125I3J103D01*
G01*
X1159Y126D02*
G03*
X1160Y126I2J5D01*
G01*
X1158Y126D02*
G03*
X1159Y126I1J1D01*
G01*
X1158Y127D02*
G03*
X1158Y126I2J0D01*
G01*
Y129D02*
G03*
X1158Y127I2J-1D01*
G01*
X1159Y129D02*
G03*
X1158Y129I0J-1D01*
G01*
X1160Y129D02*
G03*
X1159Y129I0J-5D01*
G01*
X1164Y129D02*
G03*
X1160Y129I-0J-103D01*
G01*
X1180Y121D02*
Y129D01*
X1187D01*
X1195D01*
Y121D02*
Y129D01*
Y113D02*
Y121D01*
X1187Y113D02*
X1195D01*
X1180D02*
X1187D01*
X1180D02*
Y121D01*
X1148Y42D02*
X1174Y43D01*
X1141Y29D02*
X1148Y42D01*
X1134Y15D02*
X1141Y29D01*
X1114Y15D02*
X1134D01*
X1183Y63D02*
X1202Y62D01*
X1218Y78D01*
X1688Y70D02*
Y109D01*
X1695D01*
X1703D01*
Y77D02*
Y109D01*
Y45D02*
Y77D01*
Y45D02*
X1711D01*
X1717Y31D02*
X1717Y36D01*
X1702Y31D02*
X1717D01*
X1688D02*
X1702D01*
X1688D02*
Y70D01*
X1660Y109D02*
X1668Y109D01*
X1675Y71D01*
X1618Y70D02*
Y96D01*
X1614Y96D02*
X1618Y96D01*
X1609Y97D02*
X1614Y96D01*
X1609Y70D02*
Y97D01*
Y44D02*
Y70D01*
Y44D02*
X1614Y45D01*
X1618Y45D01*
Y70D01*
X1594Y70D02*
Y109D01*
X1610D01*
X1594Y31D02*
X1611Y32D01*
X1594Y31D02*
Y70D01*
X1548Y70D02*
Y109D01*
X1555D01*
X1563D01*
X1566Y94D01*
X1570Y78D01*
X1571Y94D01*
X1571Y109D01*
X1579D01*
X1587D01*
Y70D02*
Y109D01*
Y31D02*
Y70D01*
X1579Y31D02*
X1587D01*
X1562D02*
Y48D01*
X1555Y31D02*
X1562D01*
X1548D02*
X1555D01*
X1548D02*
Y70D01*
X1528Y31D02*
X1536D01*
X1527Y35D02*
X1528Y31D01*
X1515Y41D02*
X1521D01*
X1514Y36D02*
X1515Y41D01*
X1514Y31D02*
X1514Y36D01*
X1506Y31D02*
X1514D01*
X1443Y70D02*
Y110D01*
X1451Y109D01*
X1459Y109D01*
X1463Y93D01*
X1473Y93D02*
X1477Y109D01*
X1485D01*
X1493D01*
Y70D02*
Y109D01*
Y31D02*
Y70D01*
X1486Y31D02*
X1493D01*
X1479D02*
X1486D01*
X1479D02*
Y50D01*
X1468Y38D02*
X1473Y52D01*
X1463Y53D02*
X1468Y38D01*
X1458Y69D02*
X1463Y53D01*
X1458Y50D02*
X1458Y69D01*
X1458Y31D02*
X1458Y50D01*
X1450Y31D02*
X1458D01*
X1443D02*
X1450D01*
X1443D02*
Y70D01*
X1392Y70D02*
Y110D01*
X1407Y109D01*
X1421Y109D01*
X1422Y105D01*
X1423Y99D02*
X1424Y95D01*
X1415D02*
X1424D01*
X1407D02*
X1415D01*
X1407Y85D02*
Y95D01*
Y75D02*
Y85D01*
Y75D02*
X1413D01*
X1420D01*
Y69D02*
Y75D01*
Y63D02*
Y69D01*
X1413Y63D02*
X1420D01*
X1407D02*
X1413D01*
X1407Y47D02*
Y63D01*
Y31D02*
Y47D01*
X1399Y31D02*
X1407D01*
X1392D02*
X1399D01*
X1392D02*
Y70D01*
X1369Y70D02*
Y109D01*
X1376D01*
X1384D01*
Y70D02*
Y109D01*
Y31D02*
Y70D01*
X1376Y31D02*
X1384D01*
X1369D02*
X1376D01*
X1369D02*
Y70D01*
X1346Y82D02*
Y96D01*
X1342Y96D02*
X1346Y96D01*
X1337Y97D02*
X1342Y96D01*
X1337Y82D02*
Y97D01*
Y68D02*
Y82D01*
Y68D02*
X1342Y69D01*
X1346Y69D01*
Y82D01*
X1322Y70D02*
Y109D01*
X1337D01*
X1347Y31D02*
X1355D01*
X1345Y40D02*
X1347Y31D01*
X1337D02*
Y44D01*
X1329Y31D02*
X1337D01*
X1322D02*
X1329D01*
X1322D02*
Y70D01*
X1294Y52D02*
X1298D01*
X1297Y60D02*
X1298Y52D01*
X1294Y109D02*
X1302Y109D01*
X1309Y72D01*
X1301Y31D02*
X1308D01*
X1301Y34D02*
X1301Y31D01*
X1201Y122D02*
Y135D01*
X1187D02*
X1201D01*
X1174D02*
X1187D01*
X1174Y122D02*
Y135D01*
Y108D02*
Y122D01*
Y108D02*
X1187D01*
X1201D01*
Y122D01*
X1183Y139D02*
Y145D01*
Y139D02*
X1187D01*
X1191D01*
Y145D01*
X1195Y139D02*
Y145D01*
Y139D02*
X1200D01*
X1205D01*
Y134D02*
Y139D01*
Y129D02*
Y134D01*
Y129D02*
X1211D01*
X1205Y125D02*
X1211D01*
X1205Y121D02*
Y125D01*
Y117D02*
Y121D01*
Y117D02*
X1211D01*
X1205Y113D02*
X1211D01*
X1205Y109D02*
Y113D01*
Y105D02*
Y109D01*
X1200Y104D02*
X1205Y105D01*
X1195Y104D02*
X1200Y104D01*
X1195Y98D02*
X1195Y104D01*
X1191Y99D02*
Y105D01*
X1187Y104D02*
X1191Y105D01*
X1183Y104D02*
X1187Y104D01*
X1183Y98D02*
X1183Y104D01*
X1180Y98D02*
Y104D01*
X1175D02*
X1180D01*
X1170D02*
X1175D01*
X1170D02*
Y109D01*
Y113D01*
X1164D02*
X1170D01*
X1164Y117D02*
X1170D01*
Y121D01*
Y125D01*
X1164D02*
X1170D01*
X1164Y129D02*
X1170D01*
Y134D01*
Y139D01*
X1175Y140D01*
X1179Y140D01*
X1180Y146D01*
X930Y985D02*
X943D01*
X979Y1018D02*
Y1022D01*
X930Y1055D02*
X943D01*
X894Y1018D02*
Y1022D01*
D11*
X1094Y16D02*
D03*
X1660Y80D02*
D03*
X1652Y109D02*
D03*
X1571Y32D02*
D03*
X1521Y80D02*
D03*
X1517Y53D02*
D03*
X1524Y53D02*
D03*
X1542Y32D02*
D03*
X1468Y77D02*
D03*
X1355Y55D02*
D03*
X1362Y32D02*
D03*
X1338Y56D02*
D03*
X1294Y81D02*
D03*
X1294Y81D02*
D03*
X1286Y109D02*
D03*
X1182Y151D02*
D03*
D12*
X2825Y73866D02*
G03*
X2821Y73847I147806J-26651D01*
G01*
D13*
X1012Y710D02*
G03*
X1012Y710I-4J0D01*
G01*
X1249Y724D02*
G03*
X1249Y724I-4J0D01*
G01*
X848Y1099D02*
G03*
X848Y1099I-4J0D01*
G01*
X247Y2044D02*
G03*
X247Y2044I-4J0D01*
G01*
X1621Y1706D02*
G03*
X1621Y1706I-4J0D01*
G01*
X247Y1739D02*
G03*
X247Y1739I-4J0D01*
G01*
Y1444D02*
G03*
X247Y1444I-4J0D01*
G01*
X1361Y1377D02*
X1372D01*
X1361Y1333D02*
X1372D01*
X1361Y1567D02*
X1373D01*
X1361Y1523D02*
X1373D01*
X1454Y1446D02*
Y1458D01*
X1497Y1446D02*
Y1458D01*
X1052Y1029D02*
Y1041D01*
X1009Y1029D02*
Y1041D01*
X817Y1029D02*
Y1041D01*
X861Y1029D02*
Y1041D01*
X1583Y894D02*
X1594D01*
X1583Y850D02*
X1594D01*
X1780Y850D02*
X1791D01*
X1780Y894D02*
X1791D01*
X1689Y700D02*
Y711D01*
X1645Y700D02*
Y711D01*
X1645Y501D02*
Y512D01*
X1689Y501D02*
Y512D01*
X1726Y165D02*
X1738D01*
X1726Y209D02*
X1738D01*
X1725Y240D02*
X1736D01*
X1725Y284D02*
X1736D01*
X785Y417D02*
X797D01*
X785Y373D02*
X797D01*
X1023Y541D02*
Y553D01*
X1067Y541D02*
Y553D01*
X1003Y821D02*
Y832D01*
X1047Y821D02*
Y832D01*
X972Y818D02*
Y829D01*
X929Y818D02*
Y829D01*
X859Y819D02*
Y831D01*
X902Y819D02*
Y831D01*
X794Y821D02*
Y832D01*
X837Y821D02*
Y832D01*
X718Y739D02*
Y751D01*
X761Y739D02*
Y751D01*
X631Y731D02*
X643D01*
X631Y688D02*
X643D01*
X362Y1573D02*
Y1584D01*
X318Y1573D02*
Y1584D01*
X447Y1763D02*
Y1775D01*
X403Y1763D02*
Y1775D01*
X403Y1637D02*
Y1649D01*
X447Y1637D02*
Y1649D01*
X529Y1500D02*
X540D01*
X529Y1456D02*
X540D01*
X688Y1918D02*
X699D01*
X688Y1874D02*
X699D01*
X773Y1721D02*
Y1733D01*
X817Y1721D02*
Y1733D01*
X921Y1761D02*
Y1772D01*
X964Y1761D02*
Y1772D01*
X846Y1761D02*
Y1772D01*
X889Y1761D02*
Y1772D01*
X817Y1898D02*
Y1909D01*
X773Y1898D02*
Y1909D01*
X1567Y1954D02*
X1578D01*
X1567Y1911D02*
X1578D01*
X1547Y2105D02*
X1586D01*
Y2078D02*
Y2105D01*
X1547Y1987D02*
X1586D01*
Y2015D01*
X1465Y2037D02*
Y2048D01*
X1421Y2037D02*
Y2048D01*
X1473Y2154D02*
X1484D01*
X1473Y2198D02*
X1484D01*
X1184Y1698D02*
X1196D01*
X1184Y1742D02*
X1196D01*
X1044Y1858D02*
X1056D01*
X1044Y1902D02*
X1056D01*
X1247Y1821D02*
Y1849D01*
X1133Y1821D02*
Y1849D01*
X1247D01*
X1133Y1821D02*
X1247D01*
X1184Y1977D02*
X1196D01*
X1184Y1933D02*
X1196D01*
X1043Y1982D02*
X1055D01*
X1043Y1939D02*
X1055D01*
X966Y1911D02*
Y1939D01*
X844Y1911D02*
Y1939D01*
X966D01*
X844Y1911D02*
X966D01*
X1198Y2196D02*
Y2207D01*
X1242Y2196D02*
Y2207D01*
X1167Y2193D02*
Y2204D01*
X1123Y2193D02*
Y2204D01*
X687Y2193D02*
Y2204D01*
X643Y2193D02*
Y2204D01*
X1271Y2118D02*
Y2156D01*
Y2285D02*
X1349D01*
Y2234D02*
Y2285D01*
X1271Y2234D02*
Y2285D01*
X1284Y2105D02*
X1336D01*
X1271Y2118D02*
X1284Y2105D01*
X1336D02*
X1349Y2118D01*
X1349Y2118D02*
Y2156D01*
X1882Y922D02*
Y1032D01*
X1572Y922D02*
X1882D01*
X1572D02*
Y1032D01*
X1882D01*
D14*
X1359Y1411D02*
G03*
X1359Y1411I-6J0D01*
G01*
X1306Y1323D02*
X1424D01*
X1306Y1387D02*
X1424D01*
X1405Y1401D02*
Y1499D01*
X1326D02*
X1405D01*
X1326Y1401D02*
Y1499D01*
Y1401D02*
X1405D01*
X1307Y1513D02*
X1425D01*
X1307Y1577D02*
X1425D01*
X1508Y1392D02*
Y1510D01*
X1444Y1392D02*
Y1510D01*
X1000Y975D02*
X1060D01*
X1000Y1095D02*
X1060D01*
X809D02*
X869D01*
X809Y975D02*
X869D01*
X1528Y840D02*
X1646D01*
X1528Y904D02*
X1646D01*
X1728D02*
X1846D01*
X1728Y840D02*
X1846D01*
X1635Y648D02*
Y766D01*
X1699Y648D02*
Y766D01*
Y446D02*
Y564D01*
X1635Y446D02*
Y564D01*
X1672Y157D02*
Y217D01*
X1792Y157D02*
Y217D01*
X1673Y294D02*
X1791D01*
X1673Y230D02*
X1791D01*
X730Y363D02*
X848D01*
X730Y427D02*
X848D01*
X1015Y607D02*
X1075D01*
X1015Y487D02*
X1075D01*
X1057Y766D02*
Y884D01*
X993Y766D02*
Y884D01*
X919Y766D02*
Y884D01*
X983Y766D02*
Y884D01*
X851Y885D02*
X911D01*
X851Y765D02*
X911D01*
X848Y766D02*
Y884D01*
X784Y766D02*
Y884D01*
X771Y685D02*
Y803D01*
X707Y685D02*
Y803D01*
X577Y677D02*
X695D01*
X577Y741D02*
X695D01*
X308Y1521D02*
Y1639D01*
X372Y1521D02*
Y1639D01*
X520Y1761D02*
X600D01*
X620Y1741D01*
Y1661D02*
Y1741D01*
X520Y1661D02*
Y1761D01*
Y1661D02*
X620D01*
X490Y1771D02*
Y1791D01*
X510D01*
X490Y1631D02*
Y1651D01*
Y1631D02*
X510D01*
X630D02*
X650D01*
Y1651D01*
X630Y1791D02*
X650D01*
Y1771D02*
Y1791D01*
X393Y1712D02*
Y1830D01*
X457Y1712D02*
Y1830D01*
Y1583D02*
Y1701D01*
X393Y1583D02*
Y1701D01*
X474Y1446D02*
X592D01*
X474Y1510D02*
X592D01*
X633Y1864D02*
X751D01*
X633Y1928D02*
X751D01*
X827Y1667D02*
Y1785D01*
X763Y1667D02*
Y1785D01*
X974Y1706D02*
Y1824D01*
X910Y1706D02*
Y1824D01*
X900Y1706D02*
Y1824D01*
X836Y1706D02*
Y1824D01*
X763Y1846D02*
Y1964D01*
X827Y1846D02*
Y1964D01*
X1512Y1900D02*
X1630D01*
X1512Y1964D02*
X1630D01*
X1411Y1985D02*
Y2103D01*
X1475Y1985D02*
Y2103D01*
X1421Y2208D02*
X1539D01*
X1421Y2144D02*
X1539D01*
X1130Y1690D02*
Y1750D01*
X1250Y1690D02*
Y1750D01*
X990Y1850D02*
Y1910D01*
X1110Y1850D02*
Y1910D01*
X1250Y1925D02*
Y1985D01*
X1130Y1925D02*
Y1985D01*
X991Y1928D02*
X1109D01*
X991Y1992D02*
X1109D01*
X1252Y2141D02*
Y2259D01*
X1188Y2141D02*
Y2259D01*
X1113Y2141D02*
Y2259D01*
X1177Y2141D02*
Y2259D01*
X633Y2141D02*
Y2259D01*
X697Y2141D02*
Y2259D01*
D15*
X1280Y1022D02*
G03*
X1188Y977I0J-117D01*
G01*
X1372Y977D02*
G03*
X1280Y1022I-92J-72D01*
G01*
X1280Y788D02*
G03*
X1372Y833I-0J117D01*
G01*
X1188Y833D02*
G03*
X1280Y788I92J72D01*
G01*
X1134Y1051D02*
X1426D01*
X1134Y759D02*
X1426D01*
X1134D02*
Y833D01*
Y977D02*
Y1051D01*
X1426Y978D02*
Y1051D01*
Y759D02*
Y831D01*
X884Y231D02*
X986D01*
X997Y249D02*
Y328D01*
X986Y339D02*
X997Y328D01*
X889Y339D02*
X986D01*
X997Y242D02*
Y255D01*
X986Y231D02*
X997Y242D01*
X705Y231D02*
Y339D01*
Y231D02*
X800D01*
X705Y339D02*
X800D01*
X1202Y354D02*
X1417D01*
Y426D01*
X1201D02*
X1417D01*
X1201Y355D02*
Y426D01*
Y355D02*
X1202Y354D01*
X878Y431D02*
X1093D01*
X878Y359D02*
Y431D01*
Y359D02*
X1094D01*
Y430D01*
X1093Y431D02*
X1094Y430D01*
X479Y1935D02*
X621D01*
X479Y1855D02*
X621D01*
X479D02*
Y1935D01*
X621Y1855D02*
Y1935D01*
X459Y1855D02*
Y1935D01*
Y1855D02*
X479D01*
X460Y1935D02*
X479D01*
X755Y1652D02*
Y1794D01*
X675Y1652D02*
Y1794D01*
X755D01*
X675Y1652D02*
X755D01*
X675Y1814D02*
X755D01*
X675Y1794D02*
Y1814D01*
X755Y1794D02*
Y1813D01*
X380Y1794D02*
Y1813D01*
X300Y1794D02*
Y1814D01*
X380D01*
X300Y1652D02*
X380D01*
X300Y1794D02*
X380D01*
X300Y1652D02*
Y1794D01*
X380Y1652D02*
Y1794D01*
X601Y1520D02*
X620D01*
X601Y1600D02*
X621D01*
Y1520D02*
Y1600D01*
X459Y1520D02*
Y1600D01*
X601Y1520D02*
Y1600D01*
X459D02*
X601D01*
X459Y1520D02*
X601D01*
X1595Y1490D02*
X1645D01*
X1670Y1465D01*
Y1415D02*
Y1465D01*
X1645Y1390D02*
X1670Y1415D01*
Y1465D02*
X1695Y1490D01*
X1745D01*
X1770Y1465D01*
Y1415D02*
Y1465D01*
X1745Y1390D02*
X1770Y1415D01*
X1695Y1390D02*
X1745D01*
X1670Y1415D02*
X1695Y1390D01*
X1570Y1415D02*
Y1465D01*
X1595Y1490D01*
X1570Y1415D02*
X1595Y1390D01*
X1645D01*
X1770Y1465D02*
X1795Y1490D01*
X1845D01*
X1870Y1465D01*
Y1415D02*
Y1465D01*
X1845Y1390D02*
X1870Y1415D01*
X1795Y1390D02*
X1845D01*
X1770Y1415D02*
X1795Y1390D01*
X1595Y1600D02*
X1645D01*
X1670Y1575D01*
Y1525D02*
Y1575D01*
X1645Y1500D02*
X1670Y1525D01*
Y1575D02*
X1695Y1600D01*
X1745D01*
X1770Y1575D01*
Y1525D02*
Y1575D01*
X1745Y1500D02*
X1770Y1525D01*
X1695Y1500D02*
X1745D01*
X1670Y1525D02*
X1695Y1500D01*
X1570Y1525D02*
Y1575D01*
X1595Y1600D01*
X1570Y1525D02*
X1595Y1500D01*
X1645D01*
X1770Y1575D02*
X1795Y1600D01*
X1845D01*
X1870Y1575D01*
Y1525D02*
Y1575D01*
X1845Y1500D02*
X1870Y1525D01*
X1795Y1500D02*
X1845D01*
X1770Y1525D02*
X1795Y1500D01*
X1595Y1270D02*
X1645D01*
X1670Y1245D01*
Y1195D02*
Y1245D01*
X1645Y1170D02*
X1670Y1195D01*
Y1245D02*
X1695Y1270D01*
X1745D01*
X1770Y1245D01*
Y1195D02*
Y1245D01*
X1745Y1170D02*
X1770Y1195D01*
X1695Y1170D02*
X1745D01*
X1670Y1195D02*
X1695Y1170D01*
X1570Y1195D02*
Y1245D01*
X1595Y1270D01*
X1570Y1195D02*
X1595Y1170D01*
X1645D01*
X1770Y1245D02*
X1795Y1270D01*
X1845D01*
X1870Y1245D01*
Y1195D02*
Y1245D01*
X1845Y1170D02*
X1870Y1195D01*
X1795Y1170D02*
X1845D01*
X1770Y1195D02*
X1795Y1170D01*
X1595Y1380D02*
X1645D01*
X1670Y1355D01*
Y1305D02*
Y1355D01*
X1645Y1280D02*
X1670Y1305D01*
Y1355D02*
X1695Y1380D01*
X1745D01*
X1770Y1355D01*
Y1305D02*
Y1355D01*
X1745Y1280D02*
X1770Y1305D01*
X1695Y1280D02*
X1745D01*
X1670Y1305D02*
X1695Y1280D01*
X1570Y1305D02*
Y1355D01*
X1595Y1380D01*
X1570Y1305D02*
X1595Y1280D01*
X1645D01*
X1770Y1355D02*
X1795Y1380D01*
X1845D01*
X1870Y1355D01*
Y1305D02*
Y1355D01*
X1845Y1280D02*
X1870Y1305D01*
X1795Y1280D02*
X1845D01*
X1770Y1305D02*
X1795Y1280D01*
X225Y780D02*
X275D01*
X200Y805D02*
X225Y780D01*
X200Y805D02*
Y855D01*
X225Y880D01*
X175Y780D02*
X200Y805D01*
X125Y780D02*
X175D01*
X100Y805D02*
X125Y780D01*
X100Y805D02*
Y855D01*
X125Y880D01*
X175D01*
X200Y855D01*
X300Y805D02*
Y855D01*
X275Y780D02*
X300Y805D01*
X275Y880D02*
X300Y855D01*
X225Y880D02*
X275D01*
X75Y780D02*
X100Y805D01*
X25Y780D02*
X75D01*
X0Y805D02*
X25Y780D01*
X0Y805D02*
Y855D01*
X25Y880D01*
X75D01*
X100Y855D01*
X225Y890D02*
X275D01*
X200Y915D02*
X225Y890D01*
X200Y915D02*
Y965D01*
X225Y990D01*
X175Y890D02*
X200Y915D01*
X125Y890D02*
X175D01*
X100Y915D02*
X125Y890D01*
X100Y915D02*
Y965D01*
X125Y990D01*
X175D01*
X200Y965D01*
X300Y915D02*
Y965D01*
X275Y890D02*
X300Y915D01*
X275Y990D02*
X300Y965D01*
X225Y990D02*
X275D01*
X75Y890D02*
X100Y915D01*
X25Y890D02*
X75D01*
X0Y915D02*
X25Y890D01*
X0Y915D02*
Y965D01*
X25Y990D01*
X75D01*
X100Y965D01*
X225Y1000D02*
X275D01*
X200Y1025D02*
X225Y1000D01*
X200Y1025D02*
Y1075D01*
X225Y1100D01*
X175Y1000D02*
X200Y1025D01*
X125Y1000D02*
X175D01*
X100Y1025D02*
X125Y1000D01*
X100Y1025D02*
Y1075D01*
X125Y1100D01*
X175D01*
X200Y1075D01*
X300Y1025D02*
Y1075D01*
X275Y1000D02*
X300Y1025D01*
X275Y1100D02*
X300Y1075D01*
X225Y1100D02*
X275D01*
X75Y1000D02*
X100Y1025D01*
X25Y1000D02*
X75D01*
X0Y1025D02*
X25Y1000D01*
X0Y1025D02*
Y1075D01*
X25Y1100D01*
X75D01*
X100Y1075D01*
X225Y1110D02*
X275D01*
X200Y1135D02*
X225Y1110D01*
X200Y1135D02*
Y1185D01*
X225Y1210D01*
X175Y1110D02*
X200Y1135D01*
X125Y1110D02*
X175D01*
X100Y1135D02*
X125Y1110D01*
X100Y1135D02*
Y1185D01*
X125Y1210D01*
X175D01*
X200Y1185D01*
X300Y1135D02*
Y1185D01*
X275Y1110D02*
X300Y1135D01*
X275Y1210D02*
X300Y1185D01*
X225Y1210D02*
X275D01*
X75Y1110D02*
X100Y1135D01*
X25Y1110D02*
X75D01*
X0Y1135D02*
X25Y1110D01*
X0Y1135D02*
Y1185D01*
X25Y1210D01*
X75D01*
X100Y1185D01*
D16*
X1524Y2121D02*
G03*
X1524Y2121I-5J0D01*
G01*
X1264Y1882D02*
G03*
X1264Y1882I-5J0D01*
G01*
X982Y1972D02*
G03*
X982Y1972I-5J0D01*
G01*
D17*
X651Y190D02*
G03*
X651Y190I-7J0D01*
G01*
X489Y817D02*
Y1185D01*
X417Y815D02*
Y1183D01*
X41Y289D02*
X289D01*
X41Y359D02*
X286D01*
X157Y236D02*
Y416D01*
X1685Y1951D02*
X1772D01*
X1685Y2109D02*
X1777D01*
X1852Y2000D02*
Y2058D01*
X1685Y1951D02*
Y1985D01*
Y2073D02*
Y2109D01*
X1717Y567D02*
Y592D01*
X1742Y317D02*
X1792D01*
X1717Y367D02*
Y392D01*
X1742Y417D01*
X1792D02*
X1817Y392D01*
Y342D02*
Y392D01*
X1792Y317D02*
X1817Y342D01*
X1717D02*
X1742Y317D01*
X1717Y342D02*
Y367D01*
Y467D02*
Y492D01*
X1742Y517D01*
X1792D02*
X1817Y492D01*
Y442D02*
Y492D01*
X1792Y417D02*
X1817Y442D01*
X1717D02*
X1742Y417D01*
X1717Y442D02*
Y467D01*
Y542D02*
X1742Y517D01*
X1792D02*
X1817Y542D01*
Y592D01*
X1792Y617D02*
X1817Y592D01*
X1792Y617D02*
X1817Y642D01*
Y692D01*
X1792Y717D02*
X1817Y692D01*
X1747Y717D02*
X1792D01*
X1717Y687D02*
X1747Y717D01*
X1717Y642D02*
Y687D01*
Y642D02*
X1742Y617D01*
X1717Y592D02*
X1742Y617D01*
X1717Y467D02*
Y492D01*
X1742Y517D01*
X1792D02*
X1817Y492D01*
Y442D02*
Y492D01*
X1792Y417D02*
X1817Y442D01*
X1717D02*
X1742Y417D01*
X1717Y442D02*
Y467D01*
Y592D02*
X1742Y617D01*
X1792D02*
X1817Y592D01*
X1792Y517D02*
X1817Y542D01*
X1717D02*
X1742Y517D01*
X1717Y542D02*
Y567D01*
Y642D02*
Y667D01*
Y642D02*
X1742Y617D01*
X1792D02*
X1817Y642D01*
Y692D01*
X1792Y717D02*
X1817Y692D01*
X1792Y717D02*
X1817Y742D01*
Y792D01*
X1792Y817D02*
X1817Y792D01*
X1747Y817D02*
X1792D01*
X1717Y787D02*
X1747Y817D01*
X1717Y742D02*
Y787D01*
Y742D02*
X1742Y717D01*
X1717Y692D02*
X1742Y717D01*
X1717Y667D02*
Y692D01*
X62Y435D02*
X262D01*
X62Y735D02*
X262D01*
X62Y435D02*
Y735D01*
X262Y435D02*
Y735D01*
D18*
X43D02*
G03*
X43Y735I-10J0D01*
G01*
D19*
X998Y526D02*
Y684D01*
X994Y526D02*
X998D01*
X994Y684D02*
X998D01*
X802Y526D02*
Y684D01*
X806D01*
X802Y526D02*
X806D01*
X1108Y508D02*
Y712D01*
X1222Y508D02*
Y712D01*
X1191Y1183D02*
Y1218D01*
X797Y1183D02*
Y1218D01*
X1191Y1541D02*
Y1577D01*
X797Y1542D02*
Y1577D01*
X1156Y1183D02*
X1191D01*
X797D02*
X832D01*
X1156Y1577D02*
X1191D01*
X797D02*
X832D01*
X87Y2103D02*
X179D01*
X11Y1911D02*
Y2059D01*
X87Y1867D02*
X179D01*
Y1902D01*
Y2068D02*
Y2103D01*
X1681Y1647D02*
X1773D01*
X1849Y1691D02*
Y1839D01*
X1681Y1883D02*
X1773D01*
X1681Y1848D02*
Y1883D01*
Y1647D02*
Y1682D01*
X87Y1798D02*
X179D01*
X11Y1606D02*
Y1754D01*
X87Y1562D02*
X179D01*
Y1597D01*
Y1763D02*
Y1798D01*
X87Y1503D02*
X179D01*
X11Y1311D02*
Y1459D01*
X87Y1267D02*
X179D01*
Y1302D01*
Y1468D02*
Y1503D01*
X502Y849D02*
Y819D01*
X504Y849D02*
Y819D01*
X512Y840D02*
Y829D01*
X498Y849D02*
X521D01*
Y840D01*
X519Y849D01*
X504Y835D02*
X512D01*
X498Y819D02*
X521D01*
Y828D01*
X519Y819D01*
X544Y845D02*
X545Y849D01*
Y840D01*
X544Y845D01*
X541Y848D01*
X536Y849D01*
X532D01*
X528Y848D01*
X525Y845D01*
Y842D01*
X526Y839D01*
X528Y838D01*
X531Y836D01*
X539Y833D01*
X542Y832D01*
X545Y829D01*
X525Y842D02*
X528Y839D01*
X531Y838D01*
X539Y835D01*
X542Y833D01*
X544Y832D01*
X545Y829D01*
Y823D01*
X542Y820D01*
X538Y819D01*
X534D01*
X529Y820D01*
X526Y823D01*
X525Y828D01*
Y819D01*
X526Y823D01*
X569Y845D02*
X571Y840D01*
Y849D01*
X569Y845D01*
X567Y848D01*
X562Y849D01*
X559D01*
X555Y848D01*
X552Y845D01*
X551Y842D01*
X549Y838D01*
Y830D01*
X551Y826D01*
X552Y823D01*
X555Y820D01*
X559Y819D01*
X562D01*
X567Y820D01*
X569Y823D01*
X571Y826D01*
X559Y849D02*
X557Y848D01*
X554Y845D01*
X552Y842D01*
X551Y838D01*
Y830D01*
X552Y826D01*
X554Y823D01*
X557Y820D01*
X559Y819D01*
X589Y846D02*
Y819D01*
X598Y828D02*
X575D01*
X591Y849D01*
Y819D01*
X585D02*
X595D01*
X432Y849D02*
X429Y835D01*
X432Y838D01*
X436Y839D01*
X440D01*
X445Y838D01*
X448Y835D01*
X449Y830D01*
Y828D01*
X448Y823D01*
X445Y820D01*
X440Y819D01*
X436D01*
X432Y820D01*
X430Y822D01*
X429Y825D01*
Y826D01*
X430Y828D01*
X432Y826D01*
X430Y825D01*
X440Y839D02*
X443Y838D01*
X446Y835D01*
X448Y830D01*
Y828D01*
X446Y823D01*
X443Y820D01*
X440Y819D01*
X432Y849D02*
X446D01*
X432Y848D02*
X439D01*
X446Y849D01*
X456D02*
X466Y819D01*
X458Y849D02*
X466Y823D01*
X476Y849D02*
X466Y819D01*
X453Y849D02*
X462D01*
X471D02*
X479D01*
X342Y845D02*
X343Y840D01*
Y849D01*
X342Y845D01*
X339Y848D01*
X335Y849D01*
X332D01*
X328Y848D01*
X325Y845D01*
X323Y842D01*
X322Y838D01*
Y830D01*
X323Y826D01*
X325Y823D01*
X328Y820D01*
X332Y819D01*
X335D01*
X339Y820D01*
X342Y823D01*
X332Y849D02*
X329Y848D01*
X326Y845D01*
X325Y842D01*
X323Y838D01*
Y830D01*
X325Y826D01*
X326Y823D01*
X329Y820D01*
X332Y819D01*
X342Y830D02*
Y819D01*
X343Y830D02*
Y819D01*
X338Y830D02*
X348D01*
X356Y849D02*
Y819D01*
X357Y849D02*
X374Y822D01*
X357Y846D02*
X374Y819D01*
Y849D02*
Y819D01*
X352Y849D02*
X357D01*
X370D02*
X379D01*
X352Y819D02*
X360D01*
X387Y849D02*
Y819D01*
X388Y849D02*
Y819D01*
X382Y849D02*
X397D01*
X401Y848D01*
X404Y845D01*
X405Y842D01*
X407Y838D01*
Y830D01*
X405Y826D01*
X404Y823D01*
X401Y820D01*
X397Y819D01*
X382D01*
X397Y849D02*
X400Y848D01*
X402Y845D01*
X404Y842D01*
X405Y838D01*
Y830D01*
X404Y826D01*
X402Y823D01*
X400Y820D01*
X397Y819D01*
X505Y950D02*
Y920D01*
X507Y950D02*
Y920D01*
X515Y941D02*
Y930D01*
X501Y950D02*
X524D01*
Y941D01*
X522Y950D01*
X507Y936D02*
X515D01*
X501Y920D02*
X524D01*
Y929D01*
X522Y920D01*
X546Y946D02*
X548Y950D01*
Y941D01*
X546Y946D01*
X544Y949D01*
X539Y950D01*
X535D01*
X531Y949D01*
X528Y946D01*
Y943D01*
X529Y940D01*
X531Y939D01*
X534Y937D01*
X542Y934D01*
X545Y933D01*
X548Y930D01*
X528Y943D02*
X531Y940D01*
X534Y939D01*
X542Y936D01*
X545Y934D01*
X546Y933D01*
X548Y930D01*
Y924D01*
X545Y921D01*
X541Y920D01*
X536D01*
X532Y921D01*
X529Y924D01*
X528Y929D01*
Y920D01*
X529Y924D01*
X572Y946D02*
X574Y941D01*
Y950D01*
X572Y946D01*
X569Y949D01*
X565Y950D01*
X562D01*
X558Y949D01*
X555Y946D01*
X554Y943D01*
X552Y939D01*
Y931D01*
X554Y927D01*
X555Y924D01*
X558Y921D01*
X562Y920D01*
X565D01*
X569Y921D01*
X572Y924D01*
X574Y927D01*
X562Y950D02*
X559Y949D01*
X557Y946D01*
X555Y943D01*
X554Y939D01*
Y931D01*
X555Y927D01*
X557Y924D01*
X559Y921D01*
X562Y920D01*
X579Y944D02*
X581Y943D01*
X579Y941D01*
X578Y943D01*
Y944D01*
X579Y947D01*
X581Y949D01*
X585Y950D01*
X591D01*
X595Y949D01*
X597Y946D01*
Y941D01*
X595Y939D01*
X591Y937D01*
X587D01*
X591Y950D02*
X594Y949D01*
X595Y946D01*
Y941D01*
X594Y939D01*
X591Y937D01*
X594Y936D01*
X597Y933D01*
X598Y930D01*
Y926D01*
X597Y923D01*
X595Y921D01*
X591Y920D01*
X585D01*
X581Y921D01*
X579Y923D01*
X578Y926D01*
Y927D01*
X579Y929D01*
X581Y927D01*
X579Y926D01*
X595Y934D02*
X597Y930D01*
Y926D01*
X595Y923D01*
X594Y921D01*
X591Y920D01*
X432Y953D02*
X429Y939D01*
X432Y942D01*
X436Y943D01*
X440D01*
X445Y942D01*
X448Y939D01*
X449Y934D01*
Y932D01*
X448Y927D01*
X445Y924D01*
X440Y923D01*
X436D01*
X432Y924D01*
X430Y926D01*
X429Y929D01*
Y930D01*
X430Y932D01*
X432Y930D01*
X430Y929D01*
X440Y943D02*
X443Y942D01*
X446Y939D01*
X448Y934D01*
Y932D01*
X446Y927D01*
X443Y924D01*
X440Y923D01*
X432Y953D02*
X446D01*
X432Y952D02*
X439D01*
X446Y953D01*
X456D02*
X466Y923D01*
X458Y953D02*
X466Y927D01*
X476Y953D02*
X466Y923D01*
X453Y953D02*
X462D01*
X471D02*
X479D01*
X342Y949D02*
X343Y944D01*
Y953D01*
X342Y949D01*
X339Y952D01*
X335Y953D01*
X332D01*
X328Y952D01*
X325Y949D01*
X323Y946D01*
X322Y942D01*
Y934D01*
X323Y930D01*
X325Y927D01*
X328Y924D01*
X332Y923D01*
X335D01*
X339Y924D01*
X342Y927D01*
X332Y953D02*
X329Y952D01*
X326Y949D01*
X325Y946D01*
X323Y942D01*
Y934D01*
X325Y930D01*
X326Y927D01*
X329Y924D01*
X332Y923D01*
X342Y934D02*
Y923D01*
X343Y934D02*
Y923D01*
X338Y934D02*
X348D01*
X356Y953D02*
Y923D01*
X357Y953D02*
X374Y926D01*
X357Y950D02*
X374Y923D01*
Y953D02*
Y923D01*
X352Y953D02*
X357D01*
X370D02*
X379D01*
X352Y923D02*
X360D01*
X387Y953D02*
Y923D01*
X388Y953D02*
Y923D01*
X382Y953D02*
X397D01*
X401Y952D01*
X404Y949D01*
X405Y946D01*
X407Y942D01*
Y934D01*
X405Y930D01*
X404Y927D01*
X401Y924D01*
X397Y923D01*
X382D01*
X397Y953D02*
X400Y952D01*
X402Y949D01*
X404Y946D01*
X405Y942D01*
Y934D01*
X404Y930D01*
X402Y927D01*
X400Y924D01*
X397Y923D01*
X505Y1067D02*
Y1037D01*
X507Y1067D02*
Y1037D01*
X515Y1058D02*
Y1047D01*
X501Y1067D02*
X524D01*
Y1058D01*
X522Y1067D01*
X507Y1053D02*
X515D01*
X501Y1037D02*
X524D01*
Y1046D01*
X522Y1037D01*
X546Y1063D02*
X548Y1067D01*
Y1058D01*
X546Y1063D01*
X544Y1066D01*
X539Y1067D01*
X535D01*
X531Y1066D01*
X528Y1063D01*
Y1060D01*
X529Y1057D01*
X531Y1056D01*
X534Y1054D01*
X542Y1051D01*
X545Y1050D01*
X548Y1047D01*
X528Y1060D02*
X531Y1057D01*
X534Y1056D01*
X542Y1053D01*
X545Y1051D01*
X546Y1050D01*
X548Y1047D01*
Y1041D01*
X545Y1038D01*
X541Y1037D01*
X536D01*
X532Y1038D01*
X529Y1041D01*
X528Y1046D01*
Y1037D01*
X529Y1041D01*
X572Y1063D02*
X574Y1058D01*
Y1067D01*
X572Y1063D01*
X569Y1066D01*
X565Y1067D01*
X562D01*
X558Y1066D01*
X555Y1063D01*
X554Y1060D01*
X552Y1056D01*
Y1048D01*
X554Y1044D01*
X555Y1041D01*
X558Y1038D01*
X562Y1037D01*
X565D01*
X569Y1038D01*
X572Y1041D01*
X574Y1044D01*
X562Y1067D02*
X559Y1066D01*
X557Y1063D01*
X555Y1060D01*
X554Y1056D01*
Y1048D01*
X555Y1044D01*
X557Y1041D01*
X559Y1038D01*
X562Y1037D01*
X579Y1061D02*
X581Y1060D01*
X579Y1058D01*
X578Y1060D01*
Y1061D01*
X579Y1064D01*
X581Y1066D01*
X585Y1067D01*
X591D01*
X595Y1066D01*
X597Y1064D01*
X598Y1061D01*
Y1058D01*
X597Y1056D01*
X592Y1053D01*
X585Y1050D01*
X582Y1048D01*
X579Y1046D01*
X578Y1041D01*
Y1037D01*
X591Y1067D02*
X594Y1066D01*
X595Y1064D01*
X597Y1061D01*
Y1058D01*
X595Y1056D01*
X591Y1053D01*
X585Y1050D01*
X578Y1040D02*
X579Y1041D01*
X582D01*
X589Y1038D01*
X594D01*
X597Y1040D01*
X598Y1041D01*
Y1044D01*
X582Y1041D02*
X589Y1037D01*
X595D01*
X597Y1038D01*
X598Y1041D01*
X432Y1067D02*
X429Y1053D01*
X432Y1056D01*
X436Y1057D01*
X440D01*
X445Y1056D01*
X448Y1053D01*
X449Y1048D01*
Y1046D01*
X448Y1041D01*
X445Y1038D01*
X440Y1037D01*
X436D01*
X432Y1038D01*
X430Y1040D01*
X429Y1043D01*
Y1044D01*
X430Y1046D01*
X432Y1044D01*
X430Y1043D01*
X440Y1057D02*
X443Y1056D01*
X446Y1053D01*
X448Y1048D01*
Y1046D01*
X446Y1041D01*
X443Y1038D01*
X440Y1037D01*
X432Y1067D02*
X446D01*
X432Y1066D02*
X439D01*
X446Y1067D01*
X456D02*
X466Y1037D01*
X458Y1067D02*
X466Y1041D01*
X476Y1067D02*
X466Y1037D01*
X453Y1067D02*
X462D01*
X471D02*
X479D01*
X342Y1063D02*
X343Y1058D01*
Y1067D01*
X342Y1063D01*
X339Y1066D01*
X335Y1067D01*
X332D01*
X328Y1066D01*
X325Y1063D01*
X323Y1060D01*
X322Y1056D01*
Y1048D01*
X323Y1044D01*
X325Y1041D01*
X328Y1038D01*
X332Y1037D01*
X335D01*
X339Y1038D01*
X342Y1041D01*
X332Y1067D02*
X329Y1066D01*
X326Y1063D01*
X325Y1060D01*
X323Y1056D01*
Y1048D01*
X325Y1044D01*
X326Y1041D01*
X329Y1038D01*
X332Y1037D01*
X342Y1048D02*
Y1037D01*
X343Y1048D02*
Y1037D01*
X338Y1048D02*
X348D01*
X356Y1067D02*
Y1037D01*
X357Y1067D02*
X374Y1040D01*
X357Y1064D02*
X374Y1037D01*
Y1067D02*
Y1037D01*
X352Y1067D02*
X357D01*
X370D02*
X379D01*
X352Y1037D02*
X360D01*
X387Y1067D02*
Y1037D01*
X388Y1067D02*
Y1037D01*
X382Y1067D02*
X397D01*
X401Y1066D01*
X404Y1063D01*
X405Y1060D01*
X407Y1056D01*
Y1048D01*
X405Y1044D01*
X404Y1041D01*
X401Y1038D01*
X397Y1037D01*
X382D01*
X397Y1067D02*
X400Y1066D01*
X402Y1063D01*
X404Y1060D01*
X405Y1056D01*
Y1048D01*
X404Y1044D01*
X402Y1041D01*
X400Y1038D01*
X397Y1037D01*
X342Y1173D02*
X343Y1168D01*
Y1177D01*
X342Y1173D01*
X339Y1176D01*
X335Y1177D01*
X332D01*
X328Y1176D01*
X325Y1173D01*
X323Y1170D01*
X322Y1166D01*
Y1158D01*
X323Y1154D01*
X325Y1151D01*
X328Y1148D01*
X332Y1147D01*
X335D01*
X339Y1148D01*
X342Y1151D01*
X332Y1177D02*
X329Y1176D01*
X326Y1173D01*
X325Y1170D01*
X323Y1166D01*
Y1158D01*
X325Y1154D01*
X326Y1151D01*
X329Y1148D01*
X332Y1147D01*
X342Y1158D02*
Y1147D01*
X343Y1158D02*
Y1147D01*
X338Y1158D02*
X348D01*
X356Y1177D02*
Y1147D01*
X357Y1177D02*
X374Y1150D01*
X357Y1174D02*
X374Y1147D01*
Y1177D02*
Y1147D01*
X352Y1177D02*
X357D01*
X370D02*
X379D01*
X352Y1147D02*
X360D01*
X387Y1177D02*
Y1147D01*
X388Y1177D02*
Y1147D01*
X382Y1177D02*
X397D01*
X401Y1176D01*
X404Y1173D01*
X405Y1170D01*
X407Y1166D01*
Y1158D01*
X405Y1154D01*
X404Y1151D01*
X401Y1148D01*
X397Y1147D01*
X382D01*
X397Y1177D02*
X400Y1176D01*
X402Y1173D01*
X404Y1170D01*
X405Y1166D01*
Y1158D01*
X404Y1154D01*
X402Y1151D01*
X400Y1148D01*
X397Y1147D01*
X432Y1177D02*
X429Y1163D01*
X432Y1166D01*
X436Y1167D01*
X440D01*
X445Y1166D01*
X448Y1163D01*
X449Y1158D01*
Y1156D01*
X448Y1151D01*
X445Y1148D01*
X440Y1147D01*
X436D01*
X432Y1148D01*
X430Y1150D01*
X429Y1153D01*
Y1154D01*
X430Y1156D01*
X432Y1154D01*
X430Y1153D01*
X440Y1167D02*
X443Y1166D01*
X446Y1163D01*
X448Y1158D01*
Y1156D01*
X446Y1151D01*
X443Y1148D01*
X440Y1147D01*
X432Y1177D02*
X446D01*
X432Y1176D02*
X439D01*
X446Y1177D01*
X456D02*
X466Y1147D01*
X458Y1177D02*
X466Y1151D01*
X476Y1177D02*
X466Y1147D01*
X453Y1177D02*
X462D01*
X471D02*
X479D01*
X429Y351D02*
X469D01*
X429Y353D02*
X469D01*
X429Y345D02*
Y368D01*
X431Y374D01*
X433Y375D01*
X437Y377D01*
X440D01*
X444Y375D01*
X446Y374D01*
X448Y368D01*
X429D02*
X431Y372D01*
X433Y374D01*
X437Y375D01*
X440D01*
X444Y374D01*
X446Y372D01*
X448Y368D01*
Y353D02*
Y368D01*
X450Y374D01*
X452Y375D01*
X456Y377D01*
X461D01*
X465Y375D01*
X467Y374D01*
X469Y368D01*
Y345D01*
X448Y368D02*
X450Y372D01*
X452Y374D01*
X456Y375D01*
X461D01*
X465Y374D01*
X467Y372D01*
X469Y368D01*
X429Y396D02*
X431Y390D01*
X435Y387D01*
X439Y385D01*
X446Y383D01*
X452D01*
X459Y385D01*
X463Y387D01*
X467Y390D01*
X469Y396D01*
Y400D01*
X467Y406D01*
X463Y409D01*
X459Y411D01*
X452Y413D01*
X446D01*
X439Y411D01*
X435Y409D01*
X431Y406D01*
X429Y400D01*
Y396D01*
X431Y392D01*
X435Y388D01*
X439Y387D01*
X446Y385D01*
X452D01*
X459Y387D01*
X463Y388D01*
X467Y392D01*
X469Y396D01*
Y400D02*
X467Y404D01*
X463Y407D01*
X459Y409D01*
X452Y411D01*
X446D01*
X439Y409D01*
X435Y407D01*
X431Y404D01*
X429Y400D01*
Y436D02*
X469Y423D01*
X429Y436D02*
X469Y449D01*
X435Y436D02*
X469Y447D01*
X458Y426D02*
Y443D01*
X469Y419D02*
Y430D01*
Y442D02*
Y453D01*
X429Y464D02*
X469D01*
X429Y466D02*
X469D01*
X429Y458D02*
Y481D01*
X431Y487D01*
X433Y489D01*
X437Y490D01*
X440D01*
X444Y489D01*
X446Y487D01*
X448Y481D01*
Y466D01*
X429Y481D02*
X431Y485D01*
X433Y487D01*
X437Y489D01*
X440D01*
X444Y487D01*
X446Y485D01*
X448Y481D01*
X469Y458D02*
Y471D01*
X448Y475D02*
X450Y479D01*
X452Y481D01*
X465Y487D01*
X467Y489D01*
Y490D01*
X465Y492D01*
X450Y479D02*
X454Y481D01*
X467Y485D01*
X469Y487D01*
Y490D01*
X465Y492D01*
X463D01*
X429Y503D02*
X469D01*
X429Y505D02*
X469D01*
X429Y498D02*
Y517D01*
X431Y522D01*
X435Y526D01*
X439Y528D01*
X444Y530D01*
X454D01*
X459Y528D01*
X463Y526D01*
X467Y522D01*
X469Y517D01*
Y498D01*
X429Y517D02*
X431Y520D01*
X435Y524D01*
X439Y526D01*
X444Y528D01*
X454D01*
X459Y526D01*
X463Y524D01*
X467Y520D01*
X469Y517D01*
X364Y166D02*
X404D01*
X364Y168D02*
X404D01*
X375Y179D02*
X391D01*
X364Y160D02*
Y190D01*
X375D01*
X364Y189D01*
X383Y168D02*
Y179D01*
X404Y160D02*
Y173D01*
X364Y202D02*
X404D01*
X364Y204D02*
X404D01*
X364Y196D02*
Y209D01*
X404Y196D02*
Y225D01*
X393D01*
X404Y223D01*
X364Y236D02*
X404D01*
X364Y238D02*
X404D01*
X364Y230D02*
Y244D01*
X404Y230D02*
Y244D01*
X370Y277D02*
X375Y279D01*
X364D01*
X370Y277D01*
X366Y274D01*
X364Y268D01*
Y264D01*
X366Y258D01*
X370Y255D01*
X374Y253D01*
X379Y251D01*
X389D01*
X394Y253D01*
X398Y255D01*
X402Y258D01*
X404Y264D01*
Y268D01*
X402Y274D01*
X398Y277D01*
X364Y264D02*
X366Y260D01*
X370Y257D01*
X374Y255D01*
X379Y253D01*
X389D01*
X394Y255D01*
X398Y257D01*
X402Y260D01*
X404Y264D01*
X389Y277D02*
X404D01*
X389Y279D02*
X404D01*
X389Y272D02*
Y285D01*
X364Y296D02*
X404D01*
X364Y298D02*
X404D01*
X364Y321D02*
X404D01*
X364Y323D02*
X404D01*
X364Y290D02*
Y304D01*
Y315D02*
Y328D01*
X383Y298D02*
Y321D01*
X404Y290D02*
Y304D01*
Y315D02*
Y328D01*
X364Y346D02*
X404D01*
X364Y348D02*
X404D01*
X364Y335D02*
X375Y333D01*
X364D01*
Y362D01*
X375D01*
X364Y360D01*
X404Y341D02*
Y354D01*
X370Y430D02*
X375Y432D01*
X364D01*
X370Y430D01*
X366Y426D01*
X364Y421D01*
Y417D01*
X366Y411D01*
X370Y407D01*
X374Y405D01*
X379Y403D01*
X389D01*
X394Y405D01*
X398Y407D01*
X402Y411D01*
X404Y417D01*
Y421D01*
X402Y426D01*
X398Y430D01*
X394Y432D01*
X364Y417D02*
X366Y413D01*
X370Y409D01*
X374Y407D01*
X379Y405D01*
X389D01*
X394Y407D01*
X398Y409D01*
X402Y413D01*
X404Y417D01*
X364Y451D02*
X366Y445D01*
X370Y441D01*
X374Y440D01*
X381Y438D01*
X387D01*
X394Y440D01*
X398Y441D01*
X402Y445D01*
X404Y451D01*
Y455D01*
X402Y461D01*
X398Y464D01*
X394Y466D01*
X387Y468D01*
X381D01*
X374Y466D01*
X370Y464D01*
X366Y461D01*
X364Y455D01*
Y451D01*
X366Y447D01*
X370Y443D01*
X374Y441D01*
X381Y440D01*
X387D01*
X394Y441D01*
X398Y443D01*
X402Y447D01*
X404Y451D01*
Y455D02*
X402Y459D01*
X398Y462D01*
X394Y464D01*
X387Y466D01*
X381D01*
X374Y464D01*
X370Y462D01*
X366Y459D01*
X364Y455D01*
Y479D02*
X404D01*
X364Y481D02*
X400Y504D01*
X368Y481D02*
X404Y504D01*
X364D02*
X404D01*
X364Y474D02*
Y481D01*
Y498D02*
Y510D01*
X404Y474D02*
Y485D01*
X364Y528D02*
X404D01*
X364Y530D02*
X404D01*
X364Y517D02*
X375Y515D01*
X364D01*
Y543D01*
X375D01*
X364Y541D01*
X404Y522D02*
Y536D01*
X364Y555D02*
X404D01*
X364Y557D02*
X404D01*
X364Y549D02*
Y572D01*
X366Y578D01*
X368Y580D01*
X372Y581D01*
X375D01*
X379Y580D01*
X381Y578D01*
X383Y572D01*
Y557D01*
X364Y572D02*
X366Y576D01*
X368Y578D01*
X372Y580D01*
X375D01*
X379Y578D01*
X381Y576D01*
X383Y572D01*
X404Y549D02*
Y562D01*
X383Y566D02*
X385Y570D01*
X387Y572D01*
X400Y578D01*
X402Y580D01*
Y581D01*
X400Y583D01*
X385Y570D02*
X389Y572D01*
X402Y576D01*
X404Y578D01*
Y581D01*
X400Y583D01*
X398D01*
X364Y602D02*
X366Y596D01*
X370Y592D01*
X374Y590D01*
X381Y588D01*
X387D01*
X394Y590D01*
X398Y592D01*
X402Y596D01*
X404Y602D01*
Y606D01*
X402Y611D01*
X398Y615D01*
X394Y617D01*
X387Y619D01*
X381D01*
X374Y617D01*
X370Y615D01*
X366Y611D01*
X364Y606D01*
Y602D01*
X366Y598D01*
X370Y594D01*
X374Y592D01*
X381Y590D01*
X387D01*
X394Y592D01*
X398Y594D01*
X402Y598D01*
X404Y602D01*
Y606D02*
X402Y609D01*
X398Y613D01*
X394Y615D01*
X387Y617D01*
X381D01*
X374Y615D01*
X370Y613D01*
X366Y609D01*
X364Y606D01*
Y630D02*
X404D01*
X364Y632D02*
X404D01*
X364Y624D02*
Y638D01*
X404Y624D02*
Y653D01*
X393D01*
X404Y651D01*
X364Y664D02*
X404D01*
X364Y666D02*
X404D01*
X364Y659D02*
Y672D01*
X404Y659D02*
Y687D01*
X393D01*
X404Y685D01*
X364Y699D02*
X404D01*
X364Y701D02*
X404D01*
X375Y712D02*
X391D01*
X364Y693D02*
Y723D01*
X375D01*
X364Y722D01*
X383Y701D02*
Y712D01*
X404Y693D02*
Y723D01*
X393D01*
X404Y722D01*
X364Y735D02*
X404D01*
X364Y737D02*
X404D01*
X364Y729D02*
Y752D01*
X366Y758D01*
X368Y759D01*
X372Y761D01*
X375D01*
X379Y759D01*
X381Y758D01*
X383Y752D01*
Y737D01*
X364Y752D02*
X366Y756D01*
X368Y758D01*
X372Y759D01*
X375D01*
X379Y758D01*
X381Y756D01*
X383Y752D01*
X404Y729D02*
Y742D01*
X383Y746D02*
X385Y750D01*
X387Y752D01*
X400Y758D01*
X402Y759D01*
Y761D01*
X400Y763D01*
X385Y750D02*
X389Y752D01*
X402Y756D01*
X404Y758D01*
Y761D01*
X400Y763D01*
X398D01*
X1799Y1149D02*
X1800Y1144D01*
Y1153D01*
X1799Y1149D01*
X1796Y1152D01*
X1792Y1153D01*
X1789D01*
X1785Y1152D01*
X1782Y1149D01*
X1780Y1146D01*
X1779Y1142D01*
Y1134D01*
X1780Y1130D01*
X1782Y1127D01*
X1785Y1124D01*
X1789Y1123D01*
X1792D01*
X1796Y1124D01*
X1799Y1127D01*
X1789Y1153D02*
X1786Y1152D01*
X1783Y1149D01*
X1782Y1146D01*
X1780Y1142D01*
Y1134D01*
X1782Y1130D01*
X1783Y1127D01*
X1786Y1124D01*
X1789Y1123D01*
X1799Y1134D02*
Y1123D01*
X1800Y1134D02*
Y1123D01*
X1795Y1134D02*
X1805D01*
X1813Y1153D02*
Y1123D01*
X1814Y1153D02*
X1831Y1126D01*
X1814Y1150D02*
X1831Y1123D01*
Y1153D02*
Y1123D01*
X1809Y1153D02*
X1814D01*
X1827D02*
X1836D01*
X1809Y1123D02*
X1817D01*
X1844Y1153D02*
Y1123D01*
X1845Y1153D02*
Y1123D01*
X1839Y1153D02*
X1854D01*
X1858Y1152D01*
X1861Y1149D01*
X1862Y1146D01*
X1864Y1142D01*
Y1134D01*
X1862Y1130D01*
X1861Y1127D01*
X1858Y1124D01*
X1854Y1123D01*
X1839D01*
X1854Y1153D02*
X1857Y1152D01*
X1859Y1149D01*
X1861Y1146D01*
X1862Y1142D01*
Y1134D01*
X1861Y1130D01*
X1859Y1127D01*
X1857Y1124D01*
X1854Y1123D01*
X1696Y1153D02*
X1693Y1139D01*
X1696Y1142D01*
X1700Y1143D01*
X1704D01*
X1709Y1142D01*
X1712Y1139D01*
X1713Y1134D01*
Y1132D01*
X1712Y1127D01*
X1709Y1124D01*
X1704Y1123D01*
X1700D01*
X1696Y1124D01*
X1694Y1126D01*
X1693Y1129D01*
Y1130D01*
X1694Y1132D01*
X1696Y1130D01*
X1694Y1129D01*
X1704Y1143D02*
X1707Y1142D01*
X1710Y1139D01*
X1712Y1134D01*
Y1132D01*
X1710Y1127D01*
X1707Y1124D01*
X1704Y1123D01*
X1696Y1153D02*
X1710D01*
X1696Y1152D02*
X1703D01*
X1710Y1153D01*
X1720D02*
X1730Y1123D01*
X1722Y1153D02*
X1730Y1127D01*
X1740Y1153D02*
X1730Y1123D01*
X1717Y1153D02*
X1726D01*
X1735D02*
X1743D01*
X1608Y1149D02*
X1609Y1153D01*
Y1144D01*
X1608Y1149D01*
X1605Y1152D01*
X1600Y1153D01*
X1596D01*
X1592Y1152D01*
X1589Y1149D01*
Y1146D01*
X1590Y1143D01*
X1592Y1142D01*
X1595Y1140D01*
X1603Y1137D01*
X1606Y1136D01*
X1609Y1133D01*
X1589Y1146D02*
X1592Y1143D01*
X1595Y1142D01*
X1603Y1139D01*
X1606Y1137D01*
X1608Y1136D01*
X1609Y1133D01*
Y1127D01*
X1606Y1124D01*
X1602Y1123D01*
X1598D01*
X1593Y1124D01*
X1590Y1127D01*
X1589Y1132D01*
Y1123D01*
X1590Y1127D01*
X1633Y1149D02*
X1635Y1144D01*
Y1153D01*
X1633Y1149D01*
X1631Y1152D01*
X1626Y1153D01*
X1623D01*
X1619Y1152D01*
X1616Y1149D01*
X1615Y1146D01*
X1613Y1142D01*
Y1134D01*
X1615Y1130D01*
X1616Y1127D01*
X1619Y1124D01*
X1623Y1123D01*
X1626D01*
X1631Y1124D01*
X1633Y1127D01*
X1623Y1153D02*
X1621Y1152D01*
X1618Y1149D01*
X1616Y1146D01*
X1615Y1142D01*
Y1134D01*
X1616Y1130D01*
X1618Y1127D01*
X1621Y1124D01*
X1623Y1123D01*
X1633Y1134D02*
Y1123D01*
X1635Y1134D02*
Y1123D01*
X1629Y1134D02*
X1639D01*
X306Y47D02*
Y17D01*
X308Y47D02*
Y17D01*
X302Y47D02*
X312D01*
X302Y17D02*
X312D01*
X322Y47D02*
Y17D01*
X323Y47D02*
X340Y20D01*
X323Y44D02*
X340Y17D01*
Y47D02*
Y17D01*
X317Y47D02*
X323D01*
X336D02*
X345D01*
X317Y17D02*
X326D01*
X353Y47D02*
Y17D01*
X354Y47D02*
Y17D01*
X348Y47D02*
X365D01*
X370Y46D01*
X371Y44D01*
X373Y41D01*
Y37D01*
X371Y34D01*
X370Y33D01*
X365Y31D01*
X354D01*
X365Y47D02*
X368Y46D01*
X370Y44D01*
X371Y41D01*
Y37D01*
X370Y34D01*
X368Y33D01*
X365Y31D01*
X348Y17D02*
X358D01*
X381Y47D02*
Y26D01*
X382Y21D01*
X385Y18D01*
X389Y17D01*
X392D01*
X397Y18D01*
X399Y21D01*
X401Y26D01*
Y47D01*
X382D02*
Y26D01*
X384Y21D01*
X387Y18D01*
X389Y17D01*
X377Y47D02*
X387D01*
X397D02*
X405D01*
X419D02*
Y17D01*
X420Y47D02*
Y17D01*
X410Y47D02*
X409Y38D01*
Y47D01*
X430D01*
Y38D01*
X429Y47D01*
X414Y17D02*
X424D01*
X444Y53D02*
X442Y50D01*
X439Y46D01*
X436Y40D01*
X434Y33D01*
Y27D01*
X436Y20D01*
X439Y14D01*
X442Y10D01*
X444Y7D01*
X442Y50D02*
X439Y44D01*
X437Y40D01*
X436Y33D01*
Y27D01*
X437Y20D01*
X439Y16D01*
X442Y10D01*
X453Y47D02*
X450Y33D01*
X453Y36D01*
X457Y37D01*
X461D01*
X466Y36D01*
X468Y33D01*
X470Y28D01*
Y26D01*
X468Y21D01*
X466Y18D01*
X461Y17D01*
X457D01*
X453Y18D01*
X451Y20D01*
X450Y23D01*
Y24D01*
X451Y26D01*
X453Y24D01*
X451Y23D01*
X461Y37D02*
X464Y36D01*
X467Y33D01*
X468Y28D01*
Y26D01*
X467Y21D01*
X464Y18D01*
X461Y17D01*
X453Y47D02*
X467D01*
X453Y46D02*
X460D01*
X467Y47D01*
X477D02*
X487Y17D01*
X479Y47D02*
X487Y21D01*
X497Y47D02*
X487Y17D01*
X474Y47D02*
X483D01*
X491D02*
X500D01*
X504Y30D02*
X530D01*
X535Y41D02*
X536Y40D01*
X535Y38D01*
X533Y40D01*
Y41D01*
X535Y44D01*
X536Y46D01*
X541Y47D01*
X546D01*
X551Y46D01*
X552Y44D01*
X553Y41D01*
Y38D01*
X552Y36D01*
X548Y33D01*
X541Y30D01*
X538Y28D01*
X535Y26D01*
X533Y21D01*
Y17D01*
X546Y47D02*
X549Y46D01*
X551Y44D01*
X552Y41D01*
Y38D01*
X551Y36D01*
X546Y33D01*
X541Y30D01*
X533Y20D02*
X535Y21D01*
X538D01*
X545Y18D01*
X549D01*
X552Y20D01*
X553Y21D01*
Y24D01*
X538Y21D02*
X545Y17D01*
X551D01*
X552Y18D01*
X553Y21D01*
X572Y44D02*
Y17D01*
X581Y26D02*
X558D01*
X574Y47D01*
Y17D01*
X568D02*
X578D01*
X588Y47D02*
X598Y17D01*
X589Y47D02*
X598Y21D01*
X608Y47D02*
X598Y17D01*
X585Y47D02*
X593D01*
X602D02*
X611D01*
X614Y53D02*
X617Y50D01*
X620Y46D01*
X623Y40D01*
X624Y33D01*
Y27D01*
X623Y20D01*
X620Y14D01*
X617Y10D01*
X614Y7D01*
X617Y50D02*
X620Y44D01*
X622Y40D01*
X623Y33D01*
Y27D01*
X622Y20D01*
X620Y16D01*
X617Y10D01*
X205Y275D02*
Y245D01*
X207Y275D02*
Y245D01*
X201Y275D02*
X218D01*
X222Y274D01*
X224Y272D01*
X225Y269D01*
Y265D01*
X224Y262D01*
X222Y261D01*
X218Y259D01*
X207D01*
X218Y275D02*
X221Y274D01*
X222Y272D01*
X224Y269D01*
Y265D01*
X222Y262D01*
X221Y261D01*
X218Y259D01*
X201Y245D02*
X211D01*
X249Y271D02*
X251Y266D01*
Y275D01*
X249Y271D01*
X246Y274D01*
X242Y275D01*
X239D01*
X235Y274D01*
X232Y271D01*
X231Y268D01*
X229Y264D01*
Y256D01*
X231Y252D01*
X232Y249D01*
X235Y246D01*
X239Y245D01*
X242D01*
X246Y246D01*
X249Y249D01*
X251Y252D01*
X239Y275D02*
X236Y274D01*
X234Y271D01*
X232Y268D01*
X231Y264D01*
Y256D01*
X232Y252D01*
X234Y249D01*
X236Y246D01*
X239Y245D01*
X262Y275D02*
X258Y274D01*
X256Y271D01*
Y266D01*
X258Y264D01*
X262Y262D01*
X268D01*
X272Y264D01*
X274Y266D01*
Y271D01*
X272Y274D01*
X268Y275D01*
X262D01*
X259Y274D01*
X258Y271D01*
Y266D01*
X259Y264D01*
X262Y262D01*
X268D02*
X271Y264D01*
X272Y266D01*
Y271D01*
X271Y274D01*
X268Y275D01*
X262Y262D02*
X258Y261D01*
X256Y259D01*
X255Y256D01*
Y251D01*
X256Y248D01*
X258Y246D01*
X262Y245D01*
X268D01*
X272Y246D01*
X274Y248D01*
X275Y251D01*
Y256D01*
X274Y259D01*
X272Y261D01*
X268Y262D01*
X262D02*
X259Y261D01*
X258Y259D01*
X256Y256D01*
Y251D01*
X258Y248D01*
X259Y246D01*
X262Y245D01*
X268D02*
X271Y246D01*
X272Y248D01*
X274Y251D01*
Y256D01*
X272Y259D01*
X271Y261D01*
X268Y262D01*
X53Y275D02*
Y245D01*
X55Y275D02*
Y245D01*
X49Y275D02*
X66D01*
X70Y274D01*
X72Y272D01*
X73Y269D01*
Y265D01*
X72Y262D01*
X70Y261D01*
X66Y259D01*
X55D01*
X66Y275D02*
X69Y274D01*
X70Y272D01*
X72Y269D01*
Y265D01*
X70Y262D01*
X69Y261D01*
X66Y259D01*
X49Y245D02*
X59D01*
X97Y271D02*
X99Y266D01*
Y275D01*
X97Y271D01*
X94Y274D01*
X90Y275D01*
X87D01*
X83Y274D01*
X80Y271D01*
X79Y268D01*
X77Y264D01*
Y256D01*
X79Y252D01*
X80Y249D01*
X83Y246D01*
X87Y245D01*
X90D01*
X94Y246D01*
X97Y249D01*
X99Y252D01*
X87Y275D02*
X84Y274D01*
X82Y271D01*
X80Y268D01*
X79Y264D01*
Y256D01*
X80Y252D01*
X82Y249D01*
X84Y246D01*
X87Y245D01*
X106Y275D02*
X103Y261D01*
X106Y264D01*
X110Y265D01*
X114D01*
X119Y264D01*
X122Y261D01*
X123Y256D01*
Y254D01*
X122Y249D01*
X119Y246D01*
X114Y245D01*
X110D01*
X106Y246D01*
X104Y248D01*
X103Y251D01*
Y252D01*
X104Y254D01*
X106Y252D01*
X104Y251D01*
X114Y265D02*
X117Y264D01*
X120Y261D01*
X122Y256D01*
Y254D01*
X120Y249D01*
X117Y246D01*
X114Y245D01*
X106Y275D02*
X120D01*
X106Y274D02*
X113D01*
X120Y275D01*
X205Y342D02*
Y312D01*
X207Y342D02*
Y312D01*
X201Y342D02*
X218D01*
X222Y341D01*
X224Y339D01*
X225Y336D01*
Y332D01*
X224Y329D01*
X222Y328D01*
X218Y326D01*
X207D01*
X218Y342D02*
X221Y341D01*
X222Y339D01*
X224Y336D01*
Y332D01*
X222Y329D01*
X221Y328D01*
X218Y326D01*
X201Y312D02*
X211D01*
X249Y338D02*
X251Y333D01*
Y342D01*
X249Y338D01*
X246Y341D01*
X242Y342D01*
X239D01*
X235Y341D01*
X232Y338D01*
X231Y335D01*
X229Y331D01*
Y323D01*
X231Y319D01*
X232Y316D01*
X235Y313D01*
X239Y312D01*
X242D01*
X246Y313D01*
X249Y316D01*
X251Y319D01*
X239Y342D02*
X236Y341D01*
X234Y338D01*
X232Y335D01*
X231Y331D01*
Y323D01*
X232Y319D01*
X234Y316D01*
X236Y313D01*
X239Y312D01*
X269Y339D02*
Y312D01*
X278Y321D02*
X255D01*
X271Y342D01*
Y312D01*
X265D02*
X275D01*
X53Y342D02*
Y312D01*
X55Y342D02*
Y312D01*
X49Y342D02*
X66D01*
X70Y341D01*
X72Y339D01*
X73Y336D01*
Y332D01*
X72Y329D01*
X70Y328D01*
X66Y326D01*
X55D01*
X66Y342D02*
X69Y341D01*
X70Y339D01*
X72Y336D01*
Y332D01*
X70Y329D01*
X69Y328D01*
X66Y326D01*
X49Y312D02*
X59D01*
X97Y338D02*
X99Y333D01*
Y342D01*
X97Y338D01*
X94Y341D01*
X90Y342D01*
X87D01*
X83Y341D01*
X80Y338D01*
X79Y335D01*
X77Y331D01*
Y323D01*
X79Y319D01*
X80Y316D01*
X83Y313D01*
X87Y312D01*
X90D01*
X94Y313D01*
X97Y316D01*
X99Y319D01*
X87Y342D02*
X84Y341D01*
X82Y338D01*
X80Y335D01*
X79Y331D01*
Y323D01*
X80Y319D01*
X82Y316D01*
X84Y313D01*
X87Y312D01*
X104Y336D02*
X106Y335D01*
X104Y333D01*
X103Y335D01*
Y336D01*
X104Y339D01*
X106Y341D01*
X110Y342D01*
X116D01*
X120Y341D01*
X122Y338D01*
Y333D01*
X120Y331D01*
X116Y329D01*
X112D01*
X116Y342D02*
X119Y341D01*
X120Y338D01*
Y333D01*
X119Y331D01*
X116Y329D01*
X119Y328D01*
X122Y325D01*
X123Y322D01*
Y318D01*
X122Y315D01*
X120Y313D01*
X116Y312D01*
X110D01*
X106Y313D01*
X104Y315D01*
X103Y318D01*
Y319D01*
X104Y321D01*
X106Y319D01*
X104Y318D01*
X120Y326D02*
X122Y322D01*
Y318D01*
X120Y315D01*
X119Y313D01*
X116Y312D01*
X205Y405D02*
Y375D01*
X207Y405D02*
Y375D01*
X201Y405D02*
X218D01*
X222Y404D01*
X224Y402D01*
X225Y399D01*
Y395D01*
X224Y392D01*
X222Y391D01*
X218Y389D01*
X207D01*
X218Y405D02*
X221Y404D01*
X222Y402D01*
X224Y399D01*
Y395D01*
X222Y392D01*
X221Y391D01*
X218Y389D01*
X201Y375D02*
X211D01*
X249Y401D02*
X251Y396D01*
Y405D01*
X249Y401D01*
X246Y404D01*
X242Y405D01*
X239D01*
X235Y404D01*
X232Y401D01*
X231Y398D01*
X229Y394D01*
Y386D01*
X231Y382D01*
X232Y379D01*
X235Y376D01*
X239Y375D01*
X242D01*
X246Y376D01*
X249Y379D01*
X251Y382D01*
X239Y405D02*
X236Y404D01*
X234Y401D01*
X232Y398D01*
X231Y394D01*
Y386D01*
X232Y382D01*
X234Y379D01*
X236Y376D01*
X239Y375D01*
X256Y399D02*
X258Y398D01*
X256Y396D01*
X255Y398D01*
Y399D01*
X256Y402D01*
X258Y404D01*
X262Y405D01*
X268D01*
X272Y404D01*
X274Y402D01*
X275Y399D01*
Y396D01*
X274Y394D01*
X269Y391D01*
X262Y388D01*
X259Y386D01*
X256Y384D01*
X255Y379D01*
Y375D01*
X268Y405D02*
X271Y404D01*
X272Y402D01*
X274Y399D01*
Y396D01*
X272Y394D01*
X268Y391D01*
X262Y388D01*
X255Y378D02*
X256Y379D01*
X259D01*
X266Y376D01*
X271D01*
X274Y378D01*
X275Y379D01*
Y382D01*
X259Y379D02*
X266Y375D01*
X272D01*
X274Y376D01*
X275Y379D01*
X53Y405D02*
Y375D01*
X55Y405D02*
Y375D01*
X49Y405D02*
X66D01*
X70Y404D01*
X72Y402D01*
X73Y399D01*
Y395D01*
X72Y392D01*
X70Y391D01*
X66Y389D01*
X55D01*
X66Y405D02*
X69Y404D01*
X70Y402D01*
X72Y399D01*
Y395D01*
X70Y392D01*
X69Y391D01*
X66Y389D01*
X49Y375D02*
X59D01*
X97Y401D02*
X99Y396D01*
Y405D01*
X97Y401D01*
X94Y404D01*
X90Y405D01*
X87D01*
X83Y404D01*
X80Y401D01*
X79Y398D01*
X77Y394D01*
Y386D01*
X79Y382D01*
X80Y379D01*
X83Y376D01*
X87Y375D01*
X90D01*
X94Y376D01*
X97Y379D01*
X99Y382D01*
X87Y405D02*
X84Y404D01*
X82Y401D01*
X80Y398D01*
X79Y394D01*
Y386D01*
X80Y382D01*
X82Y379D01*
X84Y376D01*
X87Y375D01*
X103Y399D02*
X106Y401D01*
X110Y405D01*
Y375D01*
X109Y404D02*
Y375D01*
X103D02*
X116D01*
X1835Y329D02*
X1865D01*
X1835Y331D02*
X1865D01*
X1835Y325D02*
Y342D01*
X1836Y346D01*
X1837Y348D01*
X1840Y349D01*
X1843D01*
X1846Y348D01*
X1847Y346D01*
X1849Y342D01*
Y331D01*
X1835Y342D02*
X1836Y345D01*
X1837Y346D01*
X1840Y348D01*
X1843D01*
X1846Y346D01*
X1847Y345D01*
X1849Y342D01*
X1865Y325D02*
Y335D01*
X1849Y338D02*
X1850Y341D01*
X1852Y342D01*
X1862Y346D01*
X1863Y348D01*
Y349D01*
X1862Y351D01*
X1850Y341D02*
X1853Y342D01*
X1863Y345D01*
X1865Y346D01*
Y349D01*
X1862Y351D01*
X1860D01*
X1839Y373D02*
X1835Y375D01*
X1843D01*
X1839Y373D01*
X1836Y370D01*
X1835Y366D01*
Y362D01*
X1836Y357D01*
X1839Y355D01*
X1842D01*
X1845Y356D01*
X1846Y357D01*
X1847Y360D01*
X1850Y369D01*
X1852Y372D01*
X1855Y375D01*
X1842Y355D02*
X1845Y357D01*
X1846Y360D01*
X1849Y369D01*
X1850Y372D01*
X1852Y373D01*
X1855Y375D01*
X1860D01*
X1863Y372D01*
X1865Y367D01*
Y363D01*
X1863Y359D01*
X1860Y356D01*
X1856Y355D01*
X1865D01*
X1860Y356D01*
X1835Y389D02*
X1865D01*
X1835Y390D02*
X1865D01*
X1835Y380D02*
X1843Y379D01*
X1835D01*
Y400D01*
X1843D01*
X1835Y399D01*
X1865Y385D02*
Y395D01*
X1835Y434D02*
X1865D01*
X1835Y436D02*
X1865D01*
X1835Y430D02*
Y444D01*
X1836Y449D01*
X1839Y451D01*
X1842Y453D01*
X1846Y454D01*
X1853D01*
X1857Y453D01*
X1860Y451D01*
X1863Y449D01*
X1865Y444D01*
Y430D01*
X1835Y444D02*
X1836Y447D01*
X1839Y450D01*
X1842Y451D01*
X1846Y453D01*
X1853D01*
X1857Y451D01*
X1860Y450D01*
X1863Y447D01*
X1865Y444D01*
X1835Y463D02*
X1865D01*
X1835Y464D02*
X1865D01*
X1835Y458D02*
Y468D01*
X1865Y458D02*
Y468D01*
X1835Y484D02*
X1836Y479D01*
X1839Y477D01*
X1842Y475D01*
X1847Y474D01*
X1852D01*
X1857Y475D01*
X1860Y477D01*
X1863Y479D01*
X1865Y484D01*
Y487D01*
X1863Y491D01*
X1860Y494D01*
X1857Y495D01*
X1852Y497D01*
X1847D01*
X1842Y495D01*
X1839Y494D01*
X1836Y491D01*
X1835Y487D01*
Y484D01*
X1836Y481D01*
X1839Y478D01*
X1842Y477D01*
X1847Y475D01*
X1852D01*
X1857Y477D01*
X1860Y478D01*
X1863Y481D01*
X1865Y484D01*
Y487D02*
X1863Y489D01*
X1860Y492D01*
X1857Y494D01*
X1852Y495D01*
X1847D01*
X1842Y494D01*
X1839Y492D01*
X1836Y489D01*
X1835Y487D01*
X1839Y546D02*
X1843Y547D01*
X1835D01*
X1839Y546D01*
X1836Y543D01*
X1835Y539D01*
Y536D01*
X1836Y532D01*
X1839Y529D01*
X1842Y527D01*
X1846Y526D01*
X1853D01*
X1857Y527D01*
X1860Y529D01*
X1863Y532D01*
X1865Y536D01*
Y539D01*
X1863Y543D01*
X1860Y546D01*
X1835Y536D02*
X1836Y533D01*
X1839Y530D01*
X1842Y529D01*
X1846Y527D01*
X1853D01*
X1857Y529D01*
X1860Y530D01*
X1863Y533D01*
X1865Y536D01*
X1853Y546D02*
X1865D01*
X1853Y547D02*
X1865D01*
X1853Y542D02*
Y552D01*
X1835Y560D02*
X1865D01*
X1835Y561D02*
X1862Y578D01*
X1837Y561D02*
X1865Y578D01*
X1835D02*
X1865D01*
X1835Y556D02*
Y561D01*
Y574D02*
Y583D01*
X1865Y556D02*
Y564D01*
X1835Y591D02*
X1865D01*
X1835Y592D02*
X1865D01*
X1835Y586D02*
Y601D01*
X1836Y605D01*
X1839Y608D01*
X1842Y609D01*
X1846Y611D01*
X1853D01*
X1857Y609D01*
X1860Y608D01*
X1863Y605D01*
X1865Y601D01*
Y586D01*
X1835Y601D02*
X1836Y604D01*
X1839Y606D01*
X1842Y608D01*
X1846Y609D01*
X1853D01*
X1857Y608D01*
X1860Y606D01*
X1863Y604D01*
X1865Y601D01*
X1839Y652D02*
X1843Y653D01*
X1835D01*
X1839Y652D01*
X1836Y649D01*
X1835Y645D01*
Y642D01*
X1836Y638D01*
X1839Y635D01*
X1842Y633D01*
X1846Y632D01*
X1853D01*
X1857Y633D01*
X1860Y635D01*
X1863Y638D01*
X1865Y642D01*
Y645D01*
X1863Y649D01*
X1860Y652D01*
X1857Y653D01*
X1835Y642D02*
X1836Y639D01*
X1839Y636D01*
X1842Y635D01*
X1846Y633D01*
X1853D01*
X1857Y635D01*
X1860Y636D01*
X1863Y639D01*
X1865Y642D01*
X1835Y662D02*
X1865D01*
X1835Y663D02*
X1865D01*
X1835Y658D02*
Y668D01*
X1865Y658D02*
Y679D01*
X1856D01*
X1865Y678D01*
X1835Y688D02*
X1865D01*
X1835Y689D02*
X1865D01*
X1835Y708D02*
X1853Y689D01*
X1847Y696D02*
X1865Y708D01*
X1847Y695D02*
X1865Y706D01*
X1835Y683D02*
Y693D01*
Y702D02*
Y711D01*
X1865Y683D02*
Y693D01*
Y702D02*
Y711D01*
X1840Y737D02*
X1842Y739D01*
X1843Y737D01*
X1842Y736D01*
X1840D01*
X1837Y737D01*
X1836Y739D01*
X1835Y743D01*
Y749D01*
X1836Y753D01*
X1839Y755D01*
X1843D01*
X1846Y753D01*
X1847Y749D01*
Y745D01*
X1835Y749D02*
X1836Y752D01*
X1839Y753D01*
X1843D01*
X1846Y752D01*
X1847Y749D01*
X1849Y752D01*
X1852Y755D01*
X1855Y756D01*
X1859D01*
X1862Y755D01*
X1863Y753D01*
X1865Y749D01*
Y743D01*
X1863Y739D01*
X1862Y737D01*
X1859Y736D01*
X1857D01*
X1856Y737D01*
X1857Y739D01*
X1859Y737D01*
X1850Y753D02*
X1855Y755D01*
X1859D01*
X1862Y753D01*
X1863Y752D01*
X1865Y749D01*
X1835Y763D02*
X1865Y773D01*
X1835Y765D02*
X1860Y773D01*
X1835Y783D02*
X1865Y773D01*
X1835Y760D02*
Y769D01*
Y778D02*
Y786D01*
X1840Y791D02*
X1842Y793D01*
X1843Y791D01*
X1842Y790D01*
X1840D01*
X1837Y791D01*
X1836Y793D01*
X1835Y797D01*
Y803D01*
X1836Y807D01*
X1839Y809D01*
X1843D01*
X1846Y807D01*
X1847Y803D01*
Y799D01*
X1835Y803D02*
X1836Y806D01*
X1839Y807D01*
X1843D01*
X1846Y806D01*
X1847Y803D01*
X1849Y806D01*
X1852Y809D01*
X1855Y810D01*
X1859D01*
X1862Y809D01*
X1863Y807D01*
X1865Y803D01*
Y797D01*
X1863Y793D01*
X1862Y791D01*
X1859Y790D01*
X1857D01*
X1856Y791D01*
X1857Y793D01*
X1859Y791D01*
X1850Y807D02*
X1855Y809D01*
X1859D01*
X1862Y807D01*
X1863Y806D01*
X1865Y803D01*
X1670Y1079D02*
Y1049D01*
X1672Y1079D02*
Y1049D01*
X1666Y1079D02*
X1683D01*
X1687Y1078D01*
X1689Y1076D01*
X1690Y1073D01*
Y1070D01*
X1689Y1068D01*
X1687Y1066D01*
X1683Y1065D01*
Y1079D02*
X1686Y1078D01*
X1687Y1076D01*
X1689Y1073D01*
Y1070D01*
X1687Y1068D01*
X1686Y1066D01*
X1683Y1065D01*
X1672D02*
X1683D01*
X1687Y1063D01*
X1689Y1062D01*
X1690Y1059D01*
Y1055D01*
X1689Y1052D01*
X1687Y1050D01*
X1683Y1049D01*
X1666D01*
X1683Y1065D02*
X1686Y1063D01*
X1687Y1062D01*
X1689Y1059D01*
Y1055D01*
X1687Y1052D01*
X1686Y1050D01*
X1683Y1049D01*
X1704Y1079D02*
X1700Y1078D01*
X1697Y1075D01*
X1696Y1072D01*
X1694Y1066D01*
Y1062D01*
X1696Y1056D01*
X1697Y1053D01*
X1700Y1050D01*
X1704Y1049D01*
X1707D01*
X1711Y1050D01*
X1714Y1053D01*
X1716Y1056D01*
X1717Y1062D01*
Y1066D01*
X1716Y1072D01*
X1714Y1075D01*
X1711Y1078D01*
X1707Y1079D01*
X1704D01*
X1701Y1078D01*
X1699Y1075D01*
X1697Y1072D01*
X1696Y1066D01*
Y1062D01*
X1697Y1056D01*
X1699Y1053D01*
X1701Y1050D01*
X1704Y1049D01*
X1707D02*
X1710Y1050D01*
X1713Y1053D01*
X1714Y1056D01*
X1716Y1062D01*
Y1066D01*
X1714Y1072D01*
X1713Y1075D01*
X1710Y1078D01*
X1707Y1079D01*
X1731D02*
X1727Y1078D01*
X1724Y1075D01*
X1723Y1072D01*
X1721Y1066D01*
Y1062D01*
X1723Y1056D01*
X1724Y1053D01*
X1727Y1050D01*
X1731Y1049D01*
X1734D01*
X1738Y1050D01*
X1741Y1053D01*
X1743Y1056D01*
X1744Y1062D01*
Y1066D01*
X1743Y1072D01*
X1741Y1075D01*
X1738Y1078D01*
X1734Y1079D01*
X1731D01*
X1728Y1078D01*
X1726Y1075D01*
X1724Y1072D01*
X1723Y1066D01*
Y1062D01*
X1724Y1056D01*
X1726Y1053D01*
X1728Y1050D01*
X1731Y1049D01*
X1734D02*
X1737Y1050D01*
X1740Y1053D01*
X1741Y1056D01*
X1743Y1062D01*
Y1066D01*
X1741Y1072D01*
X1740Y1075D01*
X1737Y1078D01*
X1734Y1079D01*
X1758D02*
Y1049D01*
X1760Y1079D02*
Y1049D01*
X1750Y1079D02*
X1748Y1070D01*
Y1079D01*
X1770D01*
Y1070D01*
X1768Y1079D01*
X1754Y1049D02*
X1764D01*
X1530Y1179D02*
X1526Y1180D01*
X1534D01*
X1530Y1179D01*
X1527Y1176D01*
X1526Y1171D01*
Y1167D01*
X1527Y1163D01*
X1530Y1160D01*
X1533D01*
X1536Y1161D01*
X1537Y1163D01*
X1538Y1166D01*
X1541Y1174D01*
X1543Y1177D01*
X1546Y1180D01*
X1533Y1160D02*
X1536Y1163D01*
X1537Y1166D01*
X1540Y1174D01*
X1541Y1177D01*
X1543Y1179D01*
X1546Y1180D01*
X1551D01*
X1554Y1177D01*
X1556Y1173D01*
Y1169D01*
X1554Y1164D01*
X1551Y1161D01*
X1547Y1160D01*
X1556D01*
X1551Y1161D01*
X1526Y1189D02*
X1556D01*
X1526Y1190D02*
X1556D01*
X1526Y1184D02*
Y1202D01*
X1527Y1206D01*
X1528Y1207D01*
X1531Y1209D01*
X1534D01*
X1537Y1207D01*
X1538Y1206D01*
X1540Y1202D01*
Y1190D01*
X1526Y1202D02*
X1527Y1204D01*
X1528Y1206D01*
X1531Y1207D01*
X1534D01*
X1537Y1206D01*
X1538Y1204D01*
X1540Y1202D01*
X1556Y1184D02*
Y1194D01*
X1540Y1197D02*
X1541Y1200D01*
X1543Y1202D01*
X1553Y1206D01*
X1554Y1207D01*
Y1209D01*
X1553Y1210D01*
X1541Y1200D02*
X1544Y1202D01*
X1554Y1204D01*
X1556Y1206D01*
Y1209D01*
X1553Y1210D01*
X1551D01*
X1526Y1217D02*
X1556Y1227D01*
X1526Y1218D02*
X1551Y1227D01*
X1526Y1237D02*
X1556Y1227D01*
X1526Y1214D02*
Y1223D01*
Y1231D02*
Y1240D01*
X1528Y1258D02*
X1556D01*
X1547Y1266D02*
Y1244D01*
X1526Y1259D01*
X1556D01*
Y1254D02*
Y1264D01*
X1530Y1285D02*
X1526Y1286D01*
X1534D01*
X1530Y1285D01*
X1527Y1282D01*
X1526Y1277D01*
Y1273D01*
X1527Y1269D01*
X1530Y1266D01*
X1533D01*
X1536Y1267D01*
X1537Y1269D01*
X1538Y1272D01*
X1541Y1280D01*
X1543Y1283D01*
X1546Y1286D01*
X1533Y1266D02*
X1536Y1269D01*
X1537Y1272D01*
X1540Y1280D01*
X1541Y1283D01*
X1543Y1285D01*
X1546Y1286D01*
X1551D01*
X1554Y1283D01*
X1556Y1279D01*
Y1275D01*
X1554Y1270D01*
X1551Y1267D01*
X1547Y1266D01*
X1556D01*
X1551Y1267D01*
X1526Y1295D02*
X1556D01*
X1526Y1296D02*
X1556D01*
X1526Y1290D02*
Y1308D01*
X1527Y1312D01*
X1528Y1313D01*
X1531Y1315D01*
X1534D01*
X1537Y1313D01*
X1538Y1312D01*
X1540Y1308D01*
Y1296D01*
X1526Y1308D02*
X1527Y1310D01*
X1528Y1312D01*
X1531Y1313D01*
X1534D01*
X1537Y1312D01*
X1538Y1310D01*
X1540Y1308D01*
X1556Y1290D02*
Y1300D01*
X1540Y1303D02*
X1541Y1306D01*
X1543Y1308D01*
X1553Y1312D01*
X1554Y1313D01*
Y1315D01*
X1553Y1316D01*
X1541Y1306D02*
X1544Y1308D01*
X1554Y1310D01*
X1556Y1312D01*
Y1315D01*
X1553Y1316D01*
X1551D01*
X1526Y1323D02*
X1556Y1333D01*
X1526Y1324D02*
X1551Y1333D01*
X1526Y1343D02*
X1556Y1333D01*
X1526Y1320D02*
Y1329D01*
Y1337D02*
Y1346D01*
X1531Y1351D02*
X1533Y1352D01*
X1534Y1351D01*
X1533Y1350D01*
X1531D01*
X1528Y1351D01*
X1527Y1352D01*
X1526Y1357D01*
Y1362D01*
X1527Y1367D01*
X1530Y1368D01*
X1534D01*
X1537Y1367D01*
X1538Y1362D01*
Y1358D01*
X1526Y1362D02*
X1527Y1365D01*
X1530Y1367D01*
X1534D01*
X1537Y1365D01*
X1538Y1362D01*
X1540Y1365D01*
X1543Y1368D01*
X1546Y1370D01*
X1550D01*
X1553Y1368D01*
X1554Y1367D01*
X1556Y1362D01*
Y1357D01*
X1554Y1352D01*
X1553Y1351D01*
X1550Y1350D01*
X1548D01*
X1547Y1351D01*
X1548Y1352D01*
X1550Y1351D01*
X1541Y1367D02*
X1546Y1368D01*
X1550D01*
X1553Y1367D01*
X1554Y1365D01*
X1556Y1362D01*
X1530Y1401D02*
X1526Y1402D01*
X1534D01*
X1530Y1401D01*
X1527Y1398D01*
X1526Y1393D01*
Y1389D01*
X1527Y1385D01*
X1530Y1382D01*
X1533D01*
X1536Y1383D01*
X1537Y1385D01*
X1538Y1388D01*
X1541Y1396D01*
X1543Y1399D01*
X1546Y1402D01*
X1533Y1382D02*
X1536Y1385D01*
X1537Y1388D01*
X1540Y1396D01*
X1541Y1399D01*
X1543Y1401D01*
X1546Y1402D01*
X1551D01*
X1554Y1399D01*
X1556Y1395D01*
Y1391D01*
X1554Y1386D01*
X1551Y1383D01*
X1547Y1382D01*
X1556D01*
X1551Y1383D01*
X1526Y1411D02*
X1556D01*
X1526Y1412D02*
X1556D01*
X1526Y1406D02*
Y1424D01*
X1527Y1428D01*
X1528Y1429D01*
X1531Y1431D01*
X1534D01*
X1537Y1429D01*
X1538Y1428D01*
X1540Y1424D01*
Y1412D01*
X1526Y1424D02*
X1527Y1426D01*
X1528Y1428D01*
X1531Y1429D01*
X1534D01*
X1537Y1428D01*
X1538Y1426D01*
X1540Y1424D01*
X1556Y1406D02*
Y1416D01*
X1540Y1419D02*
X1541Y1422D01*
X1543Y1424D01*
X1553Y1428D01*
X1554Y1429D01*
Y1431D01*
X1553Y1432D01*
X1541Y1422D02*
X1544Y1424D01*
X1554Y1426D01*
X1556Y1428D01*
Y1431D01*
X1553Y1432D01*
X1551D01*
X1526Y1439D02*
X1556Y1449D01*
X1526Y1440D02*
X1551Y1449D01*
X1526Y1459D02*
X1556Y1449D01*
X1526Y1436D02*
Y1445D01*
Y1453D02*
Y1462D01*
X1531Y1467D02*
X1533Y1468D01*
X1534Y1467D01*
X1533Y1466D01*
X1531D01*
X1528Y1467D01*
X1527Y1468D01*
X1526Y1473D01*
Y1478D01*
X1527Y1483D01*
X1528Y1484D01*
X1531Y1486D01*
X1534D01*
X1537Y1484D01*
X1540Y1480D01*
X1543Y1473D01*
X1544Y1470D01*
X1547Y1467D01*
X1551Y1466D01*
X1556D01*
X1526Y1478D02*
X1527Y1481D01*
X1528Y1483D01*
X1531Y1484D01*
X1534D01*
X1537Y1483D01*
X1540Y1478D01*
X1543Y1473D01*
X1553Y1466D02*
X1551Y1467D01*
Y1470D01*
X1554Y1477D01*
Y1481D01*
X1553Y1484D01*
X1551Y1486D01*
X1548D01*
X1551Y1470D02*
X1556Y1477D01*
Y1483D01*
X1554Y1484D01*
X1551Y1486D01*
X1530Y1521D02*
X1526Y1522D01*
X1534D01*
X1530Y1521D01*
X1527Y1518D01*
X1526Y1513D01*
Y1509D01*
X1527Y1505D01*
X1530Y1502D01*
X1533D01*
X1536Y1503D01*
X1537Y1505D01*
X1538Y1508D01*
X1541Y1516D01*
X1543Y1519D01*
X1546Y1522D01*
X1533Y1502D02*
X1536Y1505D01*
X1537Y1508D01*
X1540Y1516D01*
X1541Y1519D01*
X1543Y1521D01*
X1546Y1522D01*
X1551D01*
X1554Y1519D01*
X1556Y1515D01*
Y1511D01*
X1554Y1506D01*
X1551Y1503D01*
X1547Y1502D01*
X1556D01*
X1551Y1503D01*
X1526Y1531D02*
X1556D01*
X1526Y1532D02*
X1556D01*
X1526Y1526D02*
Y1544D01*
X1527Y1548D01*
X1528Y1549D01*
X1531Y1551D01*
X1534D01*
X1537Y1549D01*
X1538Y1548D01*
X1540Y1544D01*
Y1532D01*
X1526Y1544D02*
X1527Y1546D01*
X1528Y1548D01*
X1531Y1549D01*
X1534D01*
X1537Y1548D01*
X1538Y1546D01*
X1540Y1544D01*
X1556Y1526D02*
Y1536D01*
X1540Y1539D02*
X1541Y1542D01*
X1543Y1544D01*
X1553Y1548D01*
X1554Y1549D01*
Y1551D01*
X1553Y1552D01*
X1541Y1542D02*
X1544Y1544D01*
X1554Y1546D01*
X1556Y1548D01*
Y1551D01*
X1553Y1552D01*
X1551D01*
X1526Y1559D02*
X1556Y1569D01*
X1526Y1560D02*
X1551Y1569D01*
X1526Y1579D02*
X1556Y1569D01*
X1526Y1556D02*
Y1565D01*
Y1573D02*
Y1582D01*
X1531Y1586D02*
X1530Y1588D01*
X1526Y1593D01*
X1556D01*
X1527Y1591D02*
X1556D01*
Y1586D02*
Y1598D01*
X512Y1177D02*
Y1147D01*
X514Y1177D02*
Y1147D01*
X522Y1168D02*
Y1157D01*
X508Y1177D02*
X531D01*
Y1168D01*
X529Y1177D01*
X514Y1163D02*
X522D01*
X508Y1147D02*
X531D01*
Y1156D01*
X529Y1147D01*
X554Y1173D02*
X555Y1177D01*
Y1168D01*
X554Y1173D01*
X551Y1176D01*
X546Y1177D01*
X542D01*
X538Y1176D01*
X535Y1173D01*
Y1170D01*
X536Y1167D01*
X538Y1166D01*
X541Y1164D01*
X549Y1161D01*
X552Y1160D01*
X555Y1157D01*
X535Y1170D02*
X538Y1167D01*
X541Y1166D01*
X549Y1163D01*
X552Y1161D01*
X554Y1160D01*
X555Y1157D01*
Y1151D01*
X552Y1148D01*
X548Y1147D01*
X544D01*
X539Y1148D01*
X536Y1151D01*
X535Y1156D01*
Y1147D01*
X536Y1151D01*
X579Y1173D02*
X581Y1168D01*
Y1177D01*
X579Y1173D01*
X577Y1176D01*
X572Y1177D01*
X569D01*
X565Y1176D01*
X562Y1173D01*
X561Y1170D01*
X559Y1166D01*
Y1158D01*
X561Y1154D01*
X562Y1151D01*
X565Y1148D01*
X569Y1147D01*
X572D01*
X577Y1148D01*
X579Y1151D01*
X581Y1154D01*
X569Y1177D02*
X567Y1176D01*
X564Y1173D01*
X562Y1170D01*
X561Y1166D01*
Y1158D01*
X562Y1154D01*
X564Y1151D01*
X567Y1148D01*
X569Y1147D01*
X585Y1171D02*
X588Y1173D01*
X592Y1177D01*
Y1147D01*
X591Y1176D02*
Y1147D01*
X585D02*
X598D01*
X1648Y2161D02*
Y2131D01*
X1650Y2161D02*
Y2131D01*
X1644Y2161D02*
X1661D01*
X1665Y2160D01*
X1667Y2158D01*
X1668Y2155D01*
Y2152D01*
X1667Y2150D01*
X1665Y2148D01*
X1661Y2147D01*
Y2161D02*
X1664Y2160D01*
X1665Y2158D01*
X1667Y2155D01*
Y2152D01*
X1665Y2150D01*
X1664Y2148D01*
X1661Y2147D01*
X1650D02*
X1661D01*
X1665Y2145D01*
X1667Y2144D01*
X1668Y2141D01*
Y2137D01*
X1667Y2134D01*
X1665Y2132D01*
X1661Y2131D01*
X1644D01*
X1661Y2147D02*
X1664Y2145D01*
X1665Y2144D01*
X1667Y2141D01*
Y2137D01*
X1665Y2134D01*
X1664Y2132D01*
X1661Y2131D01*
X1691Y2161D02*
X1672Y2131D01*
X1692Y2161D02*
X1674Y2131D01*
Y2161D02*
X1672Y2152D01*
Y2161D01*
X1692D01*
X1672Y2131D02*
X1692D01*
Y2140D01*
X1691Y2131D01*
X1701Y2161D02*
Y2131D01*
X1702Y2161D02*
Y2131D01*
X1697Y2161D02*
X1714D01*
X1718Y2160D01*
X1720Y2158D01*
X1721Y2155D01*
Y2152D01*
X1720Y2150D01*
X1718Y2148D01*
X1714Y2147D01*
X1702D01*
X1714Y2161D02*
X1717Y2160D01*
X1718Y2158D01*
X1720Y2155D01*
Y2152D01*
X1718Y2150D01*
X1717Y2148D01*
X1714Y2147D01*
X1697Y2131D02*
X1707D01*
X1710Y2147D02*
X1712Y2145D01*
X1714Y2144D01*
X1718Y2134D01*
X1720Y2132D01*
X1721D01*
X1722Y2134D01*
X1712Y2145D02*
X1714Y2142D01*
X1717Y2132D01*
X1718Y2131D01*
X1721D01*
X1722Y2134D01*
Y2135D01*
X1593Y1745D02*
X1598Y1746D01*
X1589D01*
X1593Y1745D01*
X1590Y1742D01*
X1589Y1738D01*
Y1735D01*
X1590Y1731D01*
X1593Y1728D01*
X1596Y1726D01*
X1600Y1725D01*
X1608D01*
X1612Y1726D01*
X1615Y1728D01*
X1618Y1731D01*
X1619Y1735D01*
Y1738D01*
X1618Y1742D01*
X1615Y1745D01*
X1589Y1735D02*
X1590Y1732D01*
X1593Y1729D01*
X1596Y1728D01*
X1600Y1726D01*
X1608D01*
X1612Y1728D01*
X1615Y1729D01*
X1618Y1732D01*
X1619Y1735D01*
X1608Y1745D02*
X1619D01*
X1608Y1746D02*
X1619D01*
X1608Y1741D02*
Y1751D01*
X1589Y1759D02*
X1619D01*
X1589Y1760D02*
X1619D01*
X1589Y1755D02*
Y1772D01*
X1590Y1776D01*
X1592Y1777D01*
X1595Y1779D01*
X1599D01*
X1602Y1777D01*
X1603Y1776D01*
X1605Y1772D01*
Y1760D01*
X1589Y1772D02*
X1590Y1775D01*
X1592Y1776D01*
X1595Y1777D01*
X1599D01*
X1602Y1776D01*
X1603Y1775D01*
X1605Y1772D01*
X1619Y1755D02*
Y1765D01*
X1593Y1801D02*
X1589Y1803D01*
X1598D01*
X1593Y1801D01*
X1590Y1799D01*
X1589Y1794D01*
Y1790D01*
X1590Y1786D01*
X1593Y1783D01*
X1596D01*
X1599Y1784D01*
X1600Y1786D01*
X1602Y1789D01*
X1605Y1797D01*
X1606Y1800D01*
X1609Y1803D01*
X1596Y1783D02*
X1599Y1786D01*
X1600Y1789D01*
X1603Y1797D01*
X1605Y1800D01*
X1606Y1801D01*
X1609Y1803D01*
X1615D01*
X1618Y1800D01*
X1619Y1796D01*
Y1791D01*
X1618Y1787D01*
X1615Y1784D01*
X1610Y1783D01*
X1619D01*
X1615Y1784D01*
X241Y1339D02*
X271D01*
X241Y1341D02*
X271D01*
X241Y1335D02*
Y1345D01*
X271Y1335D02*
Y1345D01*
X247Y1352D02*
X248Y1353D01*
X250Y1352D01*
X248Y1350D01*
X247D01*
X244Y1352D01*
X242Y1353D01*
X241Y1358D01*
Y1363D01*
X242Y1368D01*
X244Y1369D01*
X247Y1370D01*
X250D01*
X252Y1369D01*
X255Y1365D01*
X258Y1358D01*
X260Y1355D01*
X262Y1352D01*
X267Y1350D01*
X271D01*
X241Y1363D02*
X242Y1366D01*
X244Y1368D01*
X247Y1369D01*
X250D01*
X252Y1368D01*
X255Y1363D01*
X258Y1358D01*
X268Y1350D02*
X267Y1352D01*
Y1355D01*
X270Y1362D01*
Y1366D01*
X268Y1369D01*
X267Y1370D01*
X264D01*
X267Y1355D02*
X271Y1362D01*
Y1368D01*
X270Y1369D01*
X267Y1370D01*
X245Y1395D02*
X250Y1396D01*
X241D01*
X245Y1395D01*
X242Y1392D01*
X241Y1388D01*
Y1385D01*
X242Y1381D01*
X245Y1378D01*
X248Y1376D01*
X252Y1375D01*
X260D01*
X264Y1376D01*
X267Y1378D01*
X270Y1381D01*
X271Y1385D01*
Y1388D01*
X270Y1392D01*
X267Y1395D01*
X264Y1396D01*
X241Y1385D02*
X242Y1382D01*
X245Y1379D01*
X248Y1378D01*
X252Y1376D01*
X260D01*
X264Y1378D01*
X267Y1379D01*
X270Y1382D01*
X271Y1385D01*
X247Y1402D02*
X248Y1403D01*
X250Y1402D01*
X248Y1401D01*
X247D01*
X244Y1402D01*
X242Y1403D01*
X241Y1408D01*
Y1413D01*
X242Y1418D01*
X245Y1419D01*
X250D01*
X252Y1418D01*
X254Y1413D01*
Y1409D01*
X241Y1413D02*
X242Y1416D01*
X245Y1418D01*
X250D01*
X252Y1416D01*
X254Y1413D01*
X255Y1416D01*
X258Y1419D01*
X261Y1421D01*
X265D01*
X268Y1419D01*
X270Y1418D01*
X271Y1413D01*
Y1408D01*
X270Y1403D01*
X268Y1402D01*
X265Y1401D01*
X264D01*
X262Y1402D01*
X264Y1403D01*
X265Y1402D01*
X257Y1418D02*
X261Y1419D01*
X265D01*
X268Y1418D01*
X270Y1416D01*
X271Y1413D01*
X241Y1586D02*
X262D01*
X267Y1588D01*
X270Y1591D01*
X271Y1595D01*
Y1598D01*
X270Y1602D01*
X267Y1605D01*
X262Y1606D01*
X241D01*
Y1588D02*
X262D01*
X267Y1589D01*
X270Y1592D01*
X271Y1595D01*
X241Y1582D02*
Y1592D01*
Y1602D02*
Y1611D01*
Y1627D02*
X271Y1617D01*
X241Y1627D02*
X271Y1637D01*
X245Y1627D02*
X271Y1636D01*
X262Y1620D02*
Y1633D01*
X271Y1614D02*
Y1623D01*
Y1631D02*
Y1640D01*
X241Y1648D02*
X271D01*
X241Y1649D02*
X271D01*
X241Y1644D02*
Y1661D01*
X242Y1665D01*
X244Y1667D01*
X247Y1668D01*
X250D01*
X252Y1667D01*
X254Y1665D01*
X255Y1661D01*
Y1649D01*
X241Y1661D02*
X242Y1664D01*
X244Y1665D01*
X247Y1667D01*
X250D01*
X252Y1665D01*
X254Y1664D01*
X255Y1661D01*
X271Y1644D02*
Y1654D01*
X255Y1657D02*
X257Y1659D01*
X258Y1661D01*
X268Y1665D01*
X270Y1667D01*
Y1668D01*
X268Y1669D01*
X257Y1659D02*
X260Y1661D01*
X270Y1664D01*
X271Y1665D01*
Y1668D01*
X268Y1669D01*
X267D01*
X241Y1683D02*
X271D01*
X241Y1685D02*
X271D01*
X241Y1675D02*
X250Y1673D01*
X241D01*
Y1695D01*
X250D01*
X241Y1693D01*
X271Y1679D02*
Y1689D01*
X241Y1702D02*
X255Y1699D01*
X252Y1702D01*
X251Y1706D01*
Y1710D01*
X252Y1715D01*
X255Y1718D01*
X260Y1719D01*
X262D01*
X267Y1718D01*
X270Y1715D01*
X271Y1710D01*
Y1706D01*
X270Y1702D01*
X268Y1700D01*
X265Y1699D01*
X264D01*
X262Y1700D01*
X264Y1702D01*
X265Y1700D01*
X251Y1710D02*
X252Y1713D01*
X255Y1716D01*
X260Y1718D01*
X262D01*
X267Y1716D01*
X270Y1713D01*
X271Y1710D01*
X241Y1702D02*
Y1716D01*
X242Y1702D02*
Y1709D01*
X241Y1716D01*
X241Y1929D02*
X271D01*
X241Y1930D02*
X271D01*
X241Y1920D02*
X250Y1919D01*
X241D01*
Y1940D01*
X250D01*
X241Y1939D01*
X271Y1925D02*
Y1935D01*
X241Y1949D02*
X271D01*
X241Y1950D02*
X271D01*
X250Y1959D02*
X261D01*
X241Y1945D02*
Y1968D01*
X250D01*
X241Y1966D01*
X255Y1950D02*
Y1959D01*
X271Y1945D02*
Y1968D01*
X262D01*
X271Y1966D01*
X241Y1976D02*
X271D01*
X241Y1977D02*
X271D01*
X241Y1972D02*
Y1982D01*
X271Y1972D02*
Y1993D01*
X262D01*
X271Y1992D01*
X241Y2002D02*
X271D01*
X241Y2003D02*
X271D01*
X250Y2012D02*
X261D01*
X241Y1997D02*
Y2020D01*
X250D01*
X241Y2019D01*
X255Y2003D02*
Y2012D01*
X271Y1997D02*
Y2020D01*
X262D01*
X271Y2019D01*
X429Y2068D02*
X459D01*
X429Y2070D02*
X459D01*
X429Y2064D02*
Y2081D01*
X430Y2085D01*
X432Y2087D01*
X435Y2088D01*
X438D01*
X440Y2087D01*
X442Y2085D01*
X443Y2081D01*
Y2070D01*
X429Y2081D02*
X430Y2084D01*
X432Y2085D01*
X435Y2087D01*
X438D01*
X440Y2085D01*
X442Y2084D01*
X443Y2081D01*
X459Y2064D02*
Y2074D01*
X443Y2077D02*
X445Y2080D01*
X446Y2081D01*
X456Y2085D01*
X458Y2087D01*
Y2088D01*
X456Y2090D01*
X445Y2080D02*
X448Y2081D01*
X458Y2084D01*
X459Y2085D01*
Y2088D01*
X456Y2090D01*
X455D01*
X429Y2098D02*
X459D01*
X429Y2099D02*
X459D01*
X438Y2108D02*
X449D01*
X429Y2094D02*
Y2116D01*
X438D01*
X429Y2115D01*
X443Y2099D02*
Y2108D01*
X459Y2094D02*
Y2116D01*
X450D01*
X459Y2115D01*
X433Y2139D02*
X429Y2141D01*
X438D01*
X433Y2139D01*
X430Y2136D01*
X429Y2132D01*
Y2128D01*
X430Y2123D01*
X433Y2121D01*
X436D01*
X439Y2122D01*
X440Y2123D01*
X442Y2126D01*
X445Y2135D01*
X446Y2138D01*
X449Y2141D01*
X436Y2121D02*
X439Y2123D01*
X440Y2126D01*
X443Y2135D01*
X445Y2138D01*
X446Y2139D01*
X449Y2141D01*
X455D01*
X458Y2138D01*
X459Y2133D01*
Y2129D01*
X458Y2125D01*
X455Y2122D01*
X450Y2121D01*
X459D01*
X455Y2122D01*
X429Y2149D02*
X459D01*
X429Y2151D02*
X459D01*
X438Y2159D02*
X449D01*
X429Y2145D02*
Y2168D01*
X438D01*
X429Y2166D01*
X443Y2151D02*
Y2159D01*
X459Y2145D02*
Y2168D01*
X450D01*
X459Y2166D01*
X429Y2182D02*
X459D01*
X429Y2183D02*
X459D01*
X429Y2173D02*
X438Y2172D01*
X429D01*
Y2193D01*
X438D01*
X429Y2192D01*
X459Y2178D02*
Y2188D01*
X1372Y2277D02*
Y2247D01*
X1374Y2277D02*
Y2247D01*
X1368Y2277D02*
X1385D01*
X1389Y2276D01*
X1391Y2274D01*
X1392Y2271D01*
Y2267D01*
X1391Y2264D01*
X1389Y2263D01*
X1385Y2261D01*
X1374D01*
X1385Y2277D02*
X1388Y2276D01*
X1389Y2274D01*
X1391Y2271D01*
Y2267D01*
X1389Y2264D01*
X1388Y2263D01*
X1385Y2261D01*
X1368Y2247D02*
X1378D01*
X1406Y2277D02*
X1402Y2276D01*
X1399Y2273D01*
X1398Y2270D01*
X1396Y2264D01*
Y2260D01*
X1398Y2254D01*
X1399Y2251D01*
X1402Y2248D01*
X1406Y2247D01*
X1409D01*
X1413Y2248D01*
X1416Y2251D01*
X1418Y2254D01*
X1419Y2260D01*
Y2264D01*
X1418Y2270D01*
X1416Y2273D01*
X1413Y2276D01*
X1409Y2277D01*
X1406D01*
X1403Y2276D01*
X1401Y2273D01*
X1399Y2270D01*
X1398Y2264D01*
Y2260D01*
X1399Y2254D01*
X1401Y2251D01*
X1403Y2248D01*
X1406Y2247D01*
X1409D02*
X1412Y2248D01*
X1415Y2251D01*
X1416Y2254D01*
X1418Y2260D01*
Y2264D01*
X1416Y2270D01*
X1415Y2273D01*
X1412Y2276D01*
X1409Y2277D01*
X1428D02*
X1433Y2247D01*
X1429Y2277D02*
X1433Y2254D01*
X1439Y2277D02*
X1433Y2247D01*
X1439Y2277D02*
X1445Y2247D01*
X1440Y2277D02*
X1445Y2254D01*
X1450Y2277D02*
X1445Y2247D01*
X1423Y2277D02*
X1433D01*
X1446D02*
X1455D01*
X1462D02*
Y2247D01*
X1464Y2277D02*
Y2247D01*
X1472Y2268D02*
Y2257D01*
X1458Y2277D02*
X1481D01*
Y2268D01*
X1479Y2277D01*
X1464Y2263D02*
X1472D01*
X1458Y2247D02*
X1481D01*
Y2256D01*
X1479Y2247D01*
X1489Y2277D02*
Y2247D01*
X1491Y2277D02*
Y2247D01*
X1485Y2277D02*
X1502D01*
X1506Y2276D01*
X1508Y2274D01*
X1509Y2271D01*
Y2268D01*
X1508Y2266D01*
X1506Y2264D01*
X1502Y2263D01*
X1491D01*
X1502Y2277D02*
X1505Y2276D01*
X1506Y2274D01*
X1508Y2271D01*
Y2268D01*
X1506Y2266D01*
X1505Y2264D01*
X1502Y2263D01*
X1485Y2247D02*
X1495D01*
X1498Y2263D02*
X1501Y2261D01*
X1502Y2260D01*
X1506Y2250D01*
X1508Y2248D01*
X1509D01*
X1511Y2250D01*
X1501Y2261D02*
X1502Y2258D01*
X1505Y2248D01*
X1506Y2247D01*
X1509D01*
X1511Y2250D01*
Y2251D01*
X639Y295D02*
Y265D01*
X641Y295D02*
Y265D01*
X635Y295D02*
X649D01*
X654Y294D01*
X656Y291D01*
X658Y288D01*
X659Y284D01*
Y276D01*
X658Y272D01*
X656Y269D01*
X654Y266D01*
X649Y265D01*
X635D01*
X649Y295D02*
X652Y294D01*
X655Y291D01*
X656Y288D01*
X658Y284D01*
Y276D01*
X656Y272D01*
X655Y269D01*
X652Y266D01*
X649Y265D01*
X666Y295D02*
X663Y281D01*
X666Y284D01*
X670Y285D01*
X675D01*
X679Y284D01*
X682Y281D01*
X683Y276D01*
Y274D01*
X682Y269D01*
X679Y266D01*
X675Y265D01*
X670D01*
X666Y266D01*
X665Y268D01*
X663Y271D01*
Y272D01*
X665Y274D01*
X666Y272D01*
X665Y271D01*
X675Y285D02*
X678Y284D01*
X680Y281D01*
X682Y276D01*
Y274D01*
X680Y269D01*
X678Y266D01*
X675Y265D01*
X666Y295D02*
X680D01*
X666Y294D02*
X673D01*
X680Y295D01*
X735Y613D02*
Y591D01*
X736Y587D01*
X739Y584D01*
X743Y583D01*
X746D01*
X750Y584D01*
X753Y587D01*
X755Y591D01*
Y613D01*
X736D02*
Y591D01*
X738Y587D01*
X740Y584D01*
X743Y583D01*
X730Y613D02*
X740D01*
X750D02*
X759D01*
X763D02*
Y604D01*
Y607D02*
X764Y610D01*
X767Y613D01*
X770D01*
X777Y608D01*
X780D01*
X781Y610D01*
X783Y613D01*
X764Y610D02*
X767Y611D01*
X770D01*
X777Y608D01*
X783Y613D02*
Y608D01*
X781Y604D01*
X775Y597D01*
X774Y594D01*
X773Y590D01*
Y583D01*
X781Y604D02*
X774Y597D01*
X773Y594D01*
X771Y590D01*
Y583D01*
X1268Y1802D02*
Y1781D01*
X1270Y1777D01*
X1272Y1774D01*
X1277Y1772D01*
X1280D01*
X1284Y1774D01*
X1287Y1777D01*
X1288Y1781D01*
Y1802D01*
X1270D02*
Y1781D01*
X1271Y1777D01*
X1274Y1774D01*
X1277Y1772D01*
X1264Y1802D02*
X1274D01*
X1284D02*
X1292D01*
X1313Y1798D02*
X1312Y1797D01*
X1313Y1795D01*
X1315Y1797D01*
Y1798D01*
X1313Y1801D01*
X1310Y1802D01*
X1306D01*
X1302Y1801D01*
X1299Y1798D01*
X1297Y1795D01*
X1296Y1790D01*
Y1781D01*
X1297Y1777D01*
X1300Y1774D01*
X1305Y1772D01*
X1307D01*
X1312Y1774D01*
X1315Y1777D01*
X1316Y1781D01*
Y1782D01*
X1315Y1787D01*
X1312Y1790D01*
X1307Y1791D01*
X1306D01*
X1302Y1790D01*
X1299Y1787D01*
X1297Y1782D01*
X1306Y1802D02*
X1303Y1801D01*
X1300Y1798D01*
X1299Y1795D01*
X1297Y1790D01*
Y1781D01*
X1299Y1777D01*
X1302Y1774D01*
X1305Y1772D01*
X1307D02*
X1310Y1774D01*
X1313Y1777D01*
X1315Y1781D01*
Y1782D01*
X1313Y1787D01*
X1310Y1790D01*
X1307Y1791D01*
X784Y2026D02*
Y2005D01*
X786Y2000D01*
X789Y1997D01*
X793Y1996D01*
X796D01*
X800Y1997D01*
X803Y2000D01*
X804Y2005D01*
Y2026D01*
X786D02*
Y2005D01*
X787Y2000D01*
X790Y1997D01*
X793Y1996D01*
X780Y2026D02*
X790D01*
X800D02*
X809D01*
X815D02*
X812Y2012D01*
X815Y2015D01*
X819Y2016D01*
X824D01*
X828Y2015D01*
X831Y2012D01*
X832Y2007D01*
Y2005D01*
X831Y2000D01*
X828Y1997D01*
X824Y1996D01*
X819D01*
X815Y1997D01*
X814Y1999D01*
X812Y2002D01*
Y2003D01*
X814Y2005D01*
X815Y2003D01*
X814Y2002D01*
X824Y2016D02*
X826Y2015D01*
X829Y2012D01*
X831Y2007D01*
Y2005D01*
X829Y2000D01*
X826Y1997D01*
X824Y1996D01*
X815Y2026D02*
X829D01*
X815Y2025D02*
X822D01*
X829Y2026D01*
X619Y1843D02*
Y1822D01*
X621Y1817D01*
X624Y1814D01*
X628Y1813D01*
X631D01*
X635Y1814D01*
X638Y1817D01*
X639Y1822D01*
Y1843D01*
X621D02*
Y1822D01*
X622Y1817D01*
X625Y1814D01*
X628Y1813D01*
X615Y1843D02*
X625D01*
X635D02*
X644D01*
X649Y1837D02*
X650Y1836D01*
X649Y1834D01*
X647Y1836D01*
Y1837D01*
X649Y1840D01*
X650Y1842D01*
X654Y1843D01*
X660D01*
X664Y1842D01*
X666Y1839D01*
Y1834D01*
X664Y1832D01*
X660Y1830D01*
X656D01*
X660Y1843D02*
X663Y1842D01*
X664Y1839D01*
Y1834D01*
X663Y1832D01*
X660Y1830D01*
X663Y1829D01*
X666Y1826D01*
X667Y1823D01*
Y1819D01*
X666Y1816D01*
X664Y1814D01*
X660Y1813D01*
X654D01*
X650Y1814D01*
X649Y1816D01*
X647Y1819D01*
Y1820D01*
X649Y1822D01*
X650Y1820D01*
X649Y1819D01*
X664Y1827D02*
X666Y1823D01*
Y1819D01*
X664Y1816D01*
X663Y1814D01*
X660Y1813D01*
X1428Y1376D02*
Y1355D01*
X1430Y1350D01*
X1433Y1347D01*
X1437Y1346D01*
X1440D01*
X1444Y1347D01*
X1447Y1350D01*
X1448Y1355D01*
Y1376D01*
X1430D02*
Y1355D01*
X1431Y1350D01*
X1434Y1347D01*
X1437Y1346D01*
X1424Y1376D02*
X1434D01*
X1444D02*
X1453D01*
X1458Y1370D02*
X1459Y1369D01*
X1458Y1367D01*
X1456Y1369D01*
Y1370D01*
X1458Y1373D01*
X1459Y1375D01*
X1463Y1376D01*
X1469D01*
X1473Y1375D01*
X1475Y1373D01*
X1476Y1370D01*
Y1367D01*
X1475Y1365D01*
X1470Y1362D01*
X1463Y1359D01*
X1460Y1357D01*
X1458Y1355D01*
X1456Y1350D01*
Y1346D01*
X1469Y1376D02*
X1472Y1375D01*
X1473Y1373D01*
X1475Y1370D01*
Y1367D01*
X1473Y1365D01*
X1469Y1362D01*
X1463Y1359D01*
X1456Y1349D02*
X1458Y1350D01*
X1460D01*
X1468Y1347D01*
X1472D01*
X1475Y1349D01*
X1476Y1350D01*
Y1353D01*
X1460Y1350D02*
X1468Y1346D01*
X1473D01*
X1475Y1347D01*
X1476Y1350D01*
X709Y1180D02*
Y1159D01*
X711Y1154D01*
X714Y1151D01*
X718Y1150D01*
X721D01*
X725Y1151D01*
X728Y1154D01*
X729Y1159D01*
Y1180D01*
X711D02*
Y1159D01*
X712Y1154D01*
X715Y1151D01*
X718Y1150D01*
X705Y1180D02*
X715D01*
X725D02*
X734D01*
X737Y1174D02*
X740Y1176D01*
X744Y1180D01*
Y1150D01*
X743Y1179D02*
Y1150D01*
X737D02*
X750D01*
X735Y925D02*
Y895D01*
X736Y925D02*
Y895D01*
X730Y925D02*
X747D01*
X752Y924D01*
X753Y922D01*
X755Y919D01*
Y916D01*
X753Y914D01*
X752Y912D01*
X747Y911D01*
X736D01*
X747Y925D02*
X750Y924D01*
X752Y922D01*
X753Y919D01*
Y916D01*
X752Y914D01*
X750Y912D01*
X747Y911D01*
X730Y895D02*
X740D01*
X743Y911D02*
X746Y909D01*
X747Y908D01*
X752Y898D01*
X753Y896D01*
X755D01*
X756Y898D01*
X746Y909D02*
X747Y906D01*
X750Y896D01*
X752Y895D01*
X755D01*
X756Y898D01*
Y899D01*
X761Y919D02*
X763Y918D01*
X761Y916D01*
X760Y918D01*
Y919D01*
X761Y922D01*
X763Y924D01*
X767Y925D01*
X773D01*
X777Y924D01*
X778Y921D01*
Y916D01*
X777Y914D01*
X773Y912D01*
X768D01*
X773Y925D02*
X776Y924D01*
X777Y921D01*
Y916D01*
X776Y914D01*
X773Y912D01*
X776Y911D01*
X778Y908D01*
X780Y905D01*
Y901D01*
X778Y898D01*
X777Y896D01*
X773Y895D01*
X767D01*
X763Y896D01*
X761Y898D01*
X760Y901D01*
Y902D01*
X761Y904D01*
X763Y902D01*
X761Y901D01*
X777Y909D02*
X778Y905D01*
Y901D01*
X777Y898D01*
X776Y896D01*
X773Y895D01*
X786Y919D02*
X787Y918D01*
X786Y916D01*
X784Y918D01*
Y919D01*
X786Y922D01*
X787Y924D01*
X791Y925D01*
X797D01*
X801Y924D01*
X803Y921D01*
Y916D01*
X801Y914D01*
X797Y912D01*
X793D01*
X797Y925D02*
X800Y924D01*
X801Y921D01*
Y916D01*
X800Y914D01*
X797Y912D01*
X800Y911D01*
X803Y908D01*
X804Y905D01*
Y901D01*
X803Y898D01*
X801Y896D01*
X797Y895D01*
X791D01*
X787Y896D01*
X786Y898D01*
X784Y901D01*
Y902D01*
X786Y904D01*
X787Y902D01*
X786Y901D01*
X801Y909D02*
X803Y905D01*
Y901D01*
X801Y898D01*
X800Y896D01*
X797Y895D01*
X907Y925D02*
Y895D01*
X908Y925D02*
Y895D01*
X902Y925D02*
X920D01*
X924Y924D01*
X925Y922D01*
X927Y919D01*
Y916D01*
X925Y914D01*
X924Y912D01*
X920Y911D01*
X908D01*
X920Y925D02*
X922Y924D01*
X924Y922D01*
X925Y919D01*
Y916D01*
X924Y914D01*
X922Y912D01*
X920Y911D01*
X902Y895D02*
X912D01*
X915Y911D02*
X918Y909D01*
X920Y908D01*
X924Y898D01*
X925Y896D01*
X927D01*
X928Y898D01*
X918Y909D02*
X920Y906D01*
X922Y896D01*
X924Y895D01*
X927D01*
X928Y898D01*
Y899D01*
X933Y919D02*
X935Y918D01*
X933Y916D01*
X932Y918D01*
Y919D01*
X933Y922D01*
X935Y924D01*
X939Y925D01*
X945D01*
X949Y924D01*
X951Y921D01*
Y916D01*
X949Y914D01*
X945Y912D01*
X941D01*
X945Y925D02*
X948Y924D01*
X949Y921D01*
Y916D01*
X948Y914D01*
X945Y912D01*
X948Y911D01*
X951Y908D01*
X952Y905D01*
Y901D01*
X951Y898D01*
X949Y896D01*
X945Y895D01*
X939D01*
X935Y896D01*
X933Y898D01*
X932Y901D01*
Y902D01*
X933Y904D01*
X935Y902D01*
X933Y901D01*
X949Y909D02*
X951Y905D01*
Y901D01*
X949Y898D01*
X948Y896D01*
X945Y895D01*
X958Y919D02*
X959Y918D01*
X958Y916D01*
X956Y918D01*
Y919D01*
X958Y922D01*
X959Y924D01*
X964Y925D01*
X969D01*
X974Y924D01*
X975Y922D01*
X976Y919D01*
Y916D01*
X975Y914D01*
X971Y911D01*
X964Y908D01*
X961Y906D01*
X958Y904D01*
X956Y899D01*
Y895D01*
X969Y925D02*
X972Y924D01*
X974Y922D01*
X975Y919D01*
Y916D01*
X974Y914D01*
X969Y911D01*
X964Y908D01*
X956Y898D02*
X958Y899D01*
X961D01*
X968Y896D01*
X972D01*
X975Y898D01*
X976Y899D01*
Y902D01*
X961Y899D02*
X968Y895D01*
X974D01*
X975Y896D01*
X976Y899D01*
X648Y404D02*
Y374D01*
X650Y404D02*
Y374D01*
X644Y404D02*
X661D01*
X665Y403D01*
X667Y401D01*
X668Y398D01*
Y395D01*
X667Y393D01*
X665Y391D01*
X661Y390D01*
X650D01*
X661Y404D02*
X664Y403D01*
X665Y401D01*
X667Y398D01*
Y395D01*
X665Y393D01*
X664Y391D01*
X661Y390D01*
X644Y374D02*
X654D01*
X657Y390D02*
X660Y388D01*
X661Y387D01*
X665Y377D01*
X667Y375D01*
X668D01*
X670Y377D01*
X660Y388D02*
X661Y385D01*
X664Y375D01*
X665Y374D01*
X668D01*
X670Y377D01*
Y378D01*
X675Y398D02*
X676Y397D01*
X675Y395D01*
X674Y397D01*
Y398D01*
X675Y401D01*
X676Y403D01*
X681Y404D01*
X686D01*
X691Y403D01*
X692Y400D01*
Y395D01*
X691Y393D01*
X686Y391D01*
X682D01*
X686Y404D02*
X689Y403D01*
X691Y400D01*
Y395D01*
X689Y393D01*
X686Y391D01*
X689Y390D01*
X692Y387D01*
X694Y384D01*
Y380D01*
X692Y377D01*
X691Y375D01*
X686Y374D01*
X681D01*
X676Y375D01*
X675Y377D01*
X674Y380D01*
Y381D01*
X675Y383D01*
X676Y381D01*
X675Y380D01*
X691Y388D02*
X692Y384D01*
Y380D01*
X691Y377D01*
X689Y375D01*
X686Y374D01*
X698Y398D02*
X701Y400D01*
X705Y404D01*
Y374D01*
X704Y403D02*
Y374D01*
X698D02*
X711D01*
X700Y844D02*
Y814D01*
X702Y844D02*
Y814D01*
X696Y844D02*
X713D01*
X717Y843D01*
X719Y842D01*
X720Y839D01*
Y836D01*
X719Y833D01*
X717Y832D01*
X713Y830D01*
X702D01*
X713Y844D02*
X716Y843D01*
X717Y842D01*
X719Y839D01*
Y836D01*
X717Y833D01*
X716Y832D01*
X713Y830D01*
X696Y814D02*
X706D01*
X709Y830D02*
X712Y829D01*
X713Y827D01*
X717Y817D01*
X719Y816D01*
X720D01*
X722Y817D01*
X712Y829D02*
X713Y826D01*
X716Y816D01*
X717Y814D01*
X720D01*
X722Y817D01*
Y819D01*
X727Y839D02*
X728Y837D01*
X727Y836D01*
X725Y837D01*
Y839D01*
X727Y842D01*
X728Y843D01*
X733Y844D01*
X738D01*
X743Y843D01*
X744Y840D01*
Y836D01*
X743Y833D01*
X738Y832D01*
X734D01*
X738Y844D02*
X741Y843D01*
X743Y840D01*
Y836D01*
X741Y833D01*
X738Y832D01*
X741Y830D01*
X744Y827D01*
X745Y824D01*
Y820D01*
X744Y817D01*
X743Y816D01*
X738Y814D01*
X733D01*
X728Y816D01*
X727Y817D01*
X725Y820D01*
Y822D01*
X727Y823D01*
X728Y822D01*
X727Y820D01*
X743Y829D02*
X744Y824D01*
Y820D01*
X743Y817D01*
X741Y816D01*
X738Y814D01*
X758Y844D02*
X754Y843D01*
X751Y839D01*
X750Y832D01*
Y827D01*
X751Y820D01*
X754Y816D01*
X758Y814D01*
X761D01*
X766Y816D01*
X768Y820D01*
X770Y827D01*
Y832D01*
X768Y839D01*
X766Y843D01*
X761Y844D01*
X758D01*
X756Y843D01*
X754Y842D01*
X753Y839D01*
X751Y832D01*
Y827D01*
X753Y820D01*
X754Y817D01*
X756Y816D01*
X758Y814D01*
X761D02*
X764Y816D01*
X766Y817D01*
X767Y820D01*
X768Y827D01*
Y832D01*
X767Y839D01*
X766Y842D01*
X764Y843D01*
X761Y844D01*
X994Y924D02*
Y894D01*
X996Y924D02*
Y894D01*
X990Y924D02*
X1007D01*
X1011Y923D01*
X1013Y921D01*
X1014Y918D01*
Y915D01*
X1013Y913D01*
X1011Y911D01*
X1007Y910D01*
X996D01*
X1007Y924D02*
X1010Y923D01*
X1011Y921D01*
X1013Y918D01*
Y915D01*
X1011Y913D01*
X1010Y911D01*
X1007Y910D01*
X990Y894D02*
X1000D01*
X1003Y910D02*
X1006Y908D01*
X1007Y907D01*
X1011Y897D01*
X1013Y895D01*
X1014D01*
X1016Y897D01*
X1006Y908D02*
X1007Y905D01*
X1010Y895D01*
X1011Y894D01*
X1014D01*
X1016Y897D01*
Y898D01*
X1021Y918D02*
X1022Y917D01*
X1021Y915D01*
X1020Y917D01*
Y918D01*
X1021Y921D01*
X1022Y923D01*
X1027Y924D01*
X1032D01*
X1037Y923D01*
X1038Y921D01*
X1040Y918D01*
Y915D01*
X1038Y913D01*
X1034Y910D01*
X1027Y907D01*
X1024Y905D01*
X1021Y903D01*
X1020Y898D01*
Y894D01*
X1032Y924D02*
X1035Y923D01*
X1037Y921D01*
X1038Y918D01*
Y915D01*
X1037Y913D01*
X1032Y910D01*
X1027Y907D01*
X1020Y897D02*
X1021Y898D01*
X1024D01*
X1031Y895D01*
X1035D01*
X1038Y897D01*
X1040Y898D01*
Y901D01*
X1024Y898D02*
X1031Y894D01*
X1037D01*
X1038Y895D01*
X1040Y898D01*
X1063Y914D02*
X1061Y910D01*
X1058Y907D01*
X1054Y905D01*
X1053D01*
X1048Y907D01*
X1045Y910D01*
X1044Y914D01*
Y915D01*
X1045Y920D01*
X1048Y923D01*
X1053Y924D01*
X1055D01*
X1060Y923D01*
X1063Y920D01*
X1064Y915D01*
Y907D01*
X1063Y901D01*
X1061Y898D01*
X1058Y895D01*
X1054Y894D01*
X1050D01*
X1047Y895D01*
X1045Y898D01*
Y900D01*
X1047Y901D01*
X1048Y900D01*
X1047Y898D01*
X1053Y905D02*
X1050Y907D01*
X1047Y910D01*
X1045Y914D01*
Y915D01*
X1047Y920D01*
X1050Y923D01*
X1053Y924D01*
X1055D02*
X1058Y923D01*
X1061Y920D01*
X1063Y915D01*
Y907D01*
X1061Y901D01*
X1060Y898D01*
X1057Y895D01*
X1054Y894D01*
X600Y659D02*
Y629D01*
X602Y659D02*
Y629D01*
X596Y659D02*
X613D01*
X617Y658D01*
X619Y657D01*
X620Y654D01*
Y651D01*
X619Y648D01*
X617Y647D01*
X613Y645D01*
X602D01*
X613Y659D02*
X616Y658D01*
X617Y657D01*
X619Y654D01*
Y651D01*
X617Y648D01*
X616Y647D01*
X613Y645D01*
X596Y629D02*
X606D01*
X609Y645D02*
X612Y644D01*
X613Y642D01*
X617Y632D01*
X619Y631D01*
X620D01*
X622Y632D01*
X612Y644D02*
X613Y641D01*
X616Y631D01*
X617Y629D01*
X620D01*
X622Y632D01*
Y634D01*
X627Y654D02*
X628Y652D01*
X627Y651D01*
X625Y652D01*
Y654D01*
X627Y657D01*
X628Y658D01*
X633Y659D01*
X638D01*
X643Y658D01*
X644Y657D01*
X645Y654D01*
Y651D01*
X644Y648D01*
X640Y645D01*
X633Y642D01*
X630Y641D01*
X627Y638D01*
X625Y634D01*
Y629D01*
X638Y659D02*
X641Y658D01*
X643Y657D01*
X644Y654D01*
Y651D01*
X643Y648D01*
X638Y645D01*
X633Y642D01*
X625Y632D02*
X627Y634D01*
X630D01*
X637Y631D01*
X641D01*
X644Y632D01*
X645Y634D01*
Y637D01*
X630Y634D02*
X637Y629D01*
X643D01*
X644Y631D01*
X645Y634D01*
X657Y659D02*
X653Y658D01*
X651Y655D01*
Y651D01*
X653Y648D01*
X657Y647D01*
X663D01*
X667Y648D01*
X668Y651D01*
Y655D01*
X667Y658D01*
X663Y659D01*
X657D01*
X654Y658D01*
X653Y655D01*
Y651D01*
X654Y648D01*
X657Y647D01*
X663D02*
X666Y648D01*
X667Y651D01*
Y655D01*
X666Y658D01*
X663Y659D01*
X657Y647D02*
X653Y645D01*
X651Y644D01*
X650Y641D01*
Y635D01*
X651Y632D01*
X653Y631D01*
X657Y629D01*
X663D01*
X667Y631D01*
X668Y632D01*
X670Y635D01*
Y641D01*
X668Y644D01*
X667Y645D01*
X663Y647D01*
X657D02*
X654Y645D01*
X653Y644D01*
X651Y641D01*
Y635D01*
X653Y632D01*
X654Y631D01*
X657Y629D01*
X663D02*
X666Y631D01*
X667Y632D01*
X668Y635D01*
Y641D01*
X667Y644D01*
X666Y645D01*
X663Y647D01*
X1186Y2311D02*
Y2281D01*
X1188Y2311D02*
Y2281D01*
X1182Y2311D02*
X1199D01*
X1203Y2309D01*
X1205Y2308D01*
X1206Y2305D01*
Y2302D01*
X1205Y2299D01*
X1203Y2298D01*
X1199Y2297D01*
X1188D01*
X1199Y2311D02*
X1202Y2309D01*
X1203Y2308D01*
X1205Y2305D01*
Y2302D01*
X1203Y2299D01*
X1202Y2298D01*
X1199Y2297D01*
X1182Y2281D02*
X1192D01*
X1195Y2297D02*
X1198Y2295D01*
X1199Y2294D01*
X1203Y2284D01*
X1205Y2282D01*
X1206D01*
X1208Y2284D01*
X1198Y2295D02*
X1199Y2292D01*
X1202Y2282D01*
X1203Y2281D01*
X1206D01*
X1208Y2284D01*
Y2285D01*
X1213Y2305D02*
X1214Y2304D01*
X1213Y2302D01*
X1212Y2304D01*
Y2305D01*
X1213Y2308D01*
X1214Y2309D01*
X1219Y2311D01*
X1224D01*
X1229Y2309D01*
X1230Y2308D01*
X1232Y2305D01*
Y2302D01*
X1230Y2299D01*
X1226Y2297D01*
X1219Y2294D01*
X1216Y2292D01*
X1213Y2289D01*
X1212Y2285D01*
Y2281D01*
X1224Y2311D02*
X1227Y2309D01*
X1229Y2308D01*
X1230Y2305D01*
Y2302D01*
X1229Y2299D01*
X1224Y2297D01*
X1219Y2294D01*
X1212Y2284D02*
X1213Y2285D01*
X1216D01*
X1223Y2282D01*
X1227D01*
X1230Y2284D01*
X1232Y2285D01*
Y2288D01*
X1216Y2285D02*
X1223Y2281D01*
X1229D01*
X1230Y2282D01*
X1232Y2285D01*
X1236Y2311D02*
Y2302D01*
Y2305D02*
X1237Y2308D01*
X1240Y2311D01*
X1243D01*
X1250Y2307D01*
X1253D01*
X1255Y2308D01*
X1256Y2311D01*
X1237Y2308D02*
X1240Y2309D01*
X1243D01*
X1250Y2307D01*
X1256Y2311D02*
Y2307D01*
X1255Y2302D01*
X1249Y2295D01*
X1247Y2292D01*
X1246Y2288D01*
Y2281D01*
X1255Y2302D02*
X1247Y2295D01*
X1246Y2292D01*
X1245Y2288D01*
Y2281D01*
X634Y2310D02*
Y2280D01*
X636Y2310D02*
Y2280D01*
X630Y2310D02*
X647D01*
X651Y2309D01*
X653Y2307D01*
X654Y2304D01*
Y2301D01*
X653Y2299D01*
X651Y2297D01*
X647Y2296D01*
X636D01*
X647Y2310D02*
X650Y2309D01*
X651Y2307D01*
X653Y2304D01*
Y2301D01*
X651Y2299D01*
X650Y2297D01*
X647Y2296D01*
X630Y2280D02*
X640D01*
X643Y2296D02*
X646Y2294D01*
X647Y2293D01*
X651Y2283D01*
X653Y2281D01*
X654D01*
X656Y2283D01*
X646Y2294D02*
X647Y2291D01*
X650Y2281D01*
X651Y2280D01*
X654D01*
X656Y2283D01*
Y2284D01*
X661Y2304D02*
X662Y2303D01*
X661Y2301D01*
X660Y2303D01*
Y2304D01*
X661Y2307D01*
X662Y2309D01*
X667Y2310D01*
X672D01*
X677Y2309D01*
X678Y2307D01*
X680Y2304D01*
Y2301D01*
X678Y2299D01*
X674Y2296D01*
X667Y2293D01*
X664Y2291D01*
X661Y2289D01*
X660Y2284D01*
Y2280D01*
X672Y2310D02*
X675Y2309D01*
X677Y2307D01*
X678Y2304D01*
Y2301D01*
X677Y2299D01*
X672Y2296D01*
X667Y2293D01*
X660Y2283D02*
X661Y2284D01*
X664D01*
X671Y2281D01*
X675D01*
X678Y2283D01*
X680Y2284D01*
Y2287D01*
X664Y2284D02*
X671Y2280D01*
X677D01*
X678Y2281D01*
X680Y2284D01*
X701Y2306D02*
X700Y2304D01*
X701Y2303D01*
X703Y2304D01*
Y2306D01*
X701Y2309D01*
X698Y2310D01*
X694D01*
X690Y2309D01*
X687Y2306D01*
X685Y2303D01*
X684Y2297D01*
Y2289D01*
X685Y2284D01*
X688Y2281D01*
X693Y2280D01*
X695D01*
X700Y2281D01*
X703Y2284D01*
X704Y2289D01*
Y2290D01*
X703Y2294D01*
X700Y2297D01*
X695Y2299D01*
X694D01*
X690Y2297D01*
X687Y2294D01*
X685Y2290D01*
X694Y2310D02*
X691Y2309D01*
X688Y2306D01*
X687Y2303D01*
X685Y2297D01*
Y2289D01*
X687Y2284D01*
X690Y2281D01*
X693Y2280D01*
X695D02*
X698Y2281D01*
X701Y2284D01*
X703Y2289D01*
Y2290D01*
X701Y2294D01*
X698Y2297D01*
X695Y2299D01*
X1114Y2125D02*
Y2095D01*
X1116Y2125D02*
Y2095D01*
X1110Y2125D02*
X1127D01*
X1131Y2124D01*
X1133Y2122D01*
X1134Y2119D01*
Y2116D01*
X1133Y2114D01*
X1131Y2112D01*
X1127Y2111D01*
X1116D01*
X1127Y2125D02*
X1130Y2124D01*
X1131Y2122D01*
X1133Y2119D01*
Y2116D01*
X1131Y2114D01*
X1130Y2112D01*
X1127Y2111D01*
X1110Y2095D02*
X1120D01*
X1123Y2111D02*
X1126Y2109D01*
X1127Y2108D01*
X1131Y2098D01*
X1133Y2096D01*
X1134D01*
X1136Y2098D01*
X1126Y2109D02*
X1127Y2106D01*
X1130Y2096D01*
X1131Y2095D01*
X1134D01*
X1136Y2098D01*
Y2099D01*
X1141Y2119D02*
X1142Y2118D01*
X1141Y2116D01*
X1140Y2118D01*
Y2119D01*
X1141Y2122D01*
X1142Y2124D01*
X1147Y2125D01*
X1152D01*
X1157Y2124D01*
X1158Y2122D01*
X1160Y2119D01*
Y2116D01*
X1158Y2114D01*
X1154Y2111D01*
X1147Y2108D01*
X1144Y2106D01*
X1141Y2104D01*
X1140Y2099D01*
Y2095D01*
X1152Y2125D02*
X1155Y2124D01*
X1157Y2122D01*
X1158Y2119D01*
Y2116D01*
X1157Y2114D01*
X1152Y2111D01*
X1147Y2108D01*
X1140Y2098D02*
X1141Y2099D01*
X1144D01*
X1151Y2096D01*
X1155D01*
X1158Y2098D01*
X1160Y2099D01*
Y2102D01*
X1144Y2099D02*
X1151Y2095D01*
X1157D01*
X1158Y2096D01*
X1160Y2099D01*
X1167Y2125D02*
X1164Y2111D01*
X1167Y2114D01*
X1171Y2115D01*
X1175D01*
X1180Y2114D01*
X1183Y2111D01*
X1184Y2106D01*
Y2104D01*
X1183Y2099D01*
X1180Y2096D01*
X1175Y2095D01*
X1171D01*
X1167Y2096D01*
X1165Y2098D01*
X1164Y2101D01*
Y2102D01*
X1165Y2104D01*
X1167Y2102D01*
X1165Y2101D01*
X1175Y2115D02*
X1178Y2114D01*
X1181Y2111D01*
X1183Y2106D01*
Y2104D01*
X1181Y2099D01*
X1178Y2096D01*
X1175Y2095D01*
X1167Y2125D02*
X1181D01*
X1167Y2124D02*
X1174D01*
X1181Y2125D01*
X694Y2015D02*
Y1985D01*
X696Y2015D02*
Y1985D01*
X690Y2015D02*
X707D01*
X711Y2014D01*
X713Y2012D01*
X714Y2009D01*
Y2006D01*
X713Y2004D01*
X711Y2002D01*
X707Y2001D01*
X696D01*
X707Y2015D02*
X710Y2014D01*
X711Y2012D01*
X713Y2009D01*
Y2006D01*
X711Y2004D01*
X710Y2002D01*
X707Y2001D01*
X690Y1985D02*
X700D01*
X703Y2001D02*
X706Y1999D01*
X707Y1998D01*
X711Y1988D01*
X713Y1986D01*
X714D01*
X716Y1988D01*
X706Y1999D02*
X707Y1996D01*
X710Y1986D01*
X711Y1985D01*
X714D01*
X716Y1988D01*
Y1989D01*
X721Y2009D02*
X722Y2008D01*
X721Y2006D01*
X720Y2008D01*
Y2009D01*
X721Y2012D01*
X722Y2014D01*
X727Y2015D01*
X732D01*
X737Y2014D01*
X738Y2012D01*
X740Y2009D01*
Y2006D01*
X738Y2004D01*
X734Y2001D01*
X727Y1998D01*
X724Y1996D01*
X721Y1994D01*
X720Y1989D01*
Y1985D01*
X732Y2015D02*
X735Y2014D01*
X737Y2012D01*
X738Y2009D01*
Y2006D01*
X737Y2004D01*
X732Y2001D01*
X727Y1998D01*
X720Y1988D02*
X721Y1989D01*
X724D01*
X731Y1986D01*
X735D01*
X738Y1988D01*
X740Y1989D01*
Y1992D01*
X724Y1989D02*
X731Y1985D01*
X737D01*
X738Y1986D01*
X740Y1989D01*
X758Y2012D02*
Y1985D01*
X767Y1994D02*
X744D01*
X760Y2015D01*
Y1985D01*
X754D02*
X764D01*
X850Y1692D02*
Y1662D01*
X852Y1692D02*
Y1662D01*
X846Y1692D02*
X863D01*
X867Y1691D01*
X869Y1689D01*
X870Y1686D01*
Y1683D01*
X869Y1681D01*
X867Y1679D01*
X863Y1678D01*
X852D01*
X863Y1692D02*
X866Y1691D01*
X867Y1689D01*
X869Y1686D01*
Y1683D01*
X867Y1681D01*
X866Y1679D01*
X863Y1678D01*
X846Y1662D02*
X856D01*
X859Y1678D02*
X862Y1676D01*
X863Y1675D01*
X867Y1665D01*
X869Y1663D01*
X870D01*
X872Y1665D01*
X862Y1676D02*
X863Y1673D01*
X866Y1663D01*
X867Y1662D01*
X870D01*
X872Y1665D01*
Y1666D01*
X877Y1686D02*
X878Y1685D01*
X877Y1683D01*
X876Y1685D01*
Y1686D01*
X877Y1689D01*
X878Y1691D01*
X883Y1692D01*
X888D01*
X893Y1691D01*
X894Y1689D01*
X896Y1686D01*
Y1683D01*
X894Y1681D01*
X890Y1678D01*
X883Y1675D01*
X880Y1673D01*
X877Y1671D01*
X876Y1666D01*
Y1662D01*
X888Y1692D02*
X891Y1691D01*
X893Y1689D01*
X894Y1686D01*
Y1683D01*
X893Y1681D01*
X888Y1678D01*
X883Y1675D01*
X876Y1665D02*
X877Y1666D01*
X880D01*
X887Y1663D01*
X891D01*
X894Y1665D01*
X896Y1666D01*
Y1669D01*
X880Y1666D02*
X887Y1662D01*
X893D01*
X894Y1663D01*
X896Y1666D01*
X901Y1686D02*
X903Y1685D01*
X901Y1683D01*
X900Y1685D01*
Y1686D01*
X901Y1689D01*
X903Y1691D01*
X907Y1692D01*
X913D01*
X917Y1691D01*
X919Y1688D01*
Y1683D01*
X917Y1681D01*
X913Y1679D01*
X909D01*
X913Y1692D02*
X916Y1691D01*
X917Y1688D01*
Y1683D01*
X916Y1681D01*
X913Y1679D01*
X916Y1678D01*
X919Y1675D01*
X920Y1672D01*
Y1668D01*
X919Y1665D01*
X917Y1663D01*
X913Y1662D01*
X907D01*
X903Y1663D01*
X901Y1665D01*
X900Y1668D01*
Y1669D01*
X901Y1671D01*
X903Y1669D01*
X901Y1668D01*
X917Y1676D02*
X919Y1672D01*
Y1668D01*
X917Y1665D01*
X916Y1663D01*
X913Y1662D01*
X989Y1785D02*
Y1755D01*
X991Y1785D02*
Y1755D01*
X985Y1785D02*
X1002D01*
X1006Y1784D01*
X1008Y1782D01*
X1009Y1779D01*
Y1776D01*
X1008Y1774D01*
X1006Y1772D01*
X1002Y1771D01*
X991D01*
X1002Y1785D02*
X1005Y1784D01*
X1006Y1782D01*
X1008Y1779D01*
Y1776D01*
X1006Y1774D01*
X1005Y1772D01*
X1002Y1771D01*
X985Y1755D02*
X995D01*
X998Y1771D02*
X1001Y1769D01*
X1002Y1768D01*
X1006Y1758D01*
X1008Y1756D01*
X1009D01*
X1011Y1758D01*
X1001Y1769D02*
X1002Y1766D01*
X1005Y1756D01*
X1006Y1755D01*
X1009D01*
X1011Y1758D01*
Y1759D01*
X1016Y1779D02*
X1017Y1778D01*
X1016Y1776D01*
X1015Y1778D01*
Y1779D01*
X1016Y1782D01*
X1017Y1784D01*
X1022Y1785D01*
X1027D01*
X1032Y1784D01*
X1033Y1782D01*
X1035Y1779D01*
Y1776D01*
X1033Y1774D01*
X1029Y1771D01*
X1022Y1768D01*
X1019Y1766D01*
X1016Y1764D01*
X1015Y1759D01*
Y1755D01*
X1027Y1785D02*
X1030Y1784D01*
X1032Y1782D01*
X1033Y1779D01*
Y1776D01*
X1032Y1774D01*
X1027Y1771D01*
X1022Y1768D01*
X1015Y1758D02*
X1016Y1759D01*
X1019D01*
X1026Y1756D01*
X1030D01*
X1033Y1758D01*
X1035Y1759D01*
Y1762D01*
X1019Y1759D02*
X1026Y1755D01*
X1032D01*
X1033Y1756D01*
X1035Y1759D01*
X1040Y1779D02*
X1042Y1778D01*
X1040Y1776D01*
X1039Y1778D01*
Y1779D01*
X1040Y1782D01*
X1042Y1784D01*
X1046Y1785D01*
X1052D01*
X1056Y1784D01*
X1058Y1782D01*
X1059Y1779D01*
Y1776D01*
X1058Y1774D01*
X1053Y1771D01*
X1046Y1768D01*
X1043Y1766D01*
X1040Y1764D01*
X1039Y1759D01*
Y1755D01*
X1052Y1785D02*
X1055Y1784D01*
X1056Y1782D01*
X1058Y1779D01*
Y1776D01*
X1056Y1774D01*
X1052Y1771D01*
X1046Y1768D01*
X1039Y1758D02*
X1040Y1759D01*
X1043D01*
X1050Y1756D01*
X1055D01*
X1058Y1758D01*
X1059Y1759D01*
Y1762D01*
X1043Y1759D02*
X1050Y1755D01*
X1056D01*
X1058Y1756D01*
X1059Y1759D01*
X1449Y1553D02*
Y1523D01*
X1451Y1553D02*
Y1523D01*
X1445Y1553D02*
X1462D01*
X1466Y1552D01*
X1468Y1550D01*
X1469Y1548D01*
Y1545D01*
X1468Y1542D01*
X1466Y1540D01*
X1462Y1539D01*
X1451D01*
X1462Y1553D02*
X1465Y1552D01*
X1466Y1550D01*
X1468Y1548D01*
Y1545D01*
X1466Y1542D01*
X1465Y1540D01*
X1462Y1539D01*
X1445Y1523D02*
X1455D01*
X1458Y1539D02*
X1461Y1538D01*
X1462Y1536D01*
X1466Y1526D01*
X1468Y1525D01*
X1469D01*
X1471Y1526D01*
X1461Y1538D02*
X1462Y1535D01*
X1465Y1525D01*
X1466Y1523D01*
X1469D01*
X1471Y1526D01*
Y1528D01*
X1475Y1548D02*
X1477Y1549D01*
X1482Y1553D01*
Y1523D01*
X1480Y1552D02*
Y1523D01*
X1475D02*
X1487D01*
X1511Y1543D02*
X1510Y1539D01*
X1507Y1536D01*
X1503Y1535D01*
X1501D01*
X1497Y1536D01*
X1494Y1539D01*
X1493Y1543D01*
Y1545D01*
X1494Y1549D01*
X1497Y1552D01*
X1501Y1553D01*
X1504D01*
X1508Y1552D01*
X1511Y1549D01*
X1513Y1545D01*
Y1536D01*
X1511Y1530D01*
X1510Y1528D01*
X1507Y1525D01*
X1503Y1523D01*
X1498D01*
X1495Y1525D01*
X1494Y1528D01*
Y1529D01*
X1495Y1530D01*
X1497Y1529D01*
X1495Y1528D01*
X1501Y1535D02*
X1498Y1536D01*
X1495Y1539D01*
X1494Y1543D01*
Y1545D01*
X1495Y1549D01*
X1498Y1552D01*
X1501Y1553D01*
X1504D02*
X1507Y1552D01*
X1510Y1549D01*
X1511Y1545D01*
Y1536D01*
X1510Y1530D01*
X1508Y1528D01*
X1505Y1525D01*
X1503Y1523D01*
X369Y1877D02*
Y1847D01*
X371Y1877D02*
Y1847D01*
X365Y1877D02*
X382D01*
X386Y1876D01*
X388Y1874D01*
X389Y1871D01*
Y1868D01*
X388Y1866D01*
X386Y1864D01*
X382Y1863D01*
X371D01*
X382Y1877D02*
X385Y1876D01*
X386Y1874D01*
X388Y1871D01*
Y1868D01*
X386Y1866D01*
X385Y1864D01*
X382Y1863D01*
X365Y1847D02*
X375D01*
X378Y1863D02*
X381Y1861D01*
X382Y1860D01*
X386Y1850D01*
X388Y1848D01*
X389D01*
X391Y1850D01*
X381Y1861D02*
X382Y1858D01*
X385Y1848D01*
X386Y1847D01*
X389D01*
X391Y1850D01*
Y1851D01*
X395Y1871D02*
X397Y1873D01*
X402Y1877D01*
Y1847D01*
X400Y1876D02*
Y1847D01*
X395D02*
X407D01*
X420Y1877D02*
X415Y1876D01*
X414Y1873D01*
Y1868D01*
X415Y1866D01*
X420Y1864D01*
X425D01*
X430Y1866D01*
X431Y1868D01*
Y1873D01*
X430Y1876D01*
X425Y1877D01*
X420D01*
X417Y1876D01*
X415Y1873D01*
Y1868D01*
X417Y1866D01*
X420Y1864D01*
X425D02*
X428Y1866D01*
X430Y1868D01*
Y1873D01*
X428Y1876D01*
X425Y1877D01*
X420Y1864D02*
X415Y1863D01*
X414Y1861D01*
X413Y1858D01*
Y1853D01*
X414Y1850D01*
X415Y1848D01*
X420Y1847D01*
X425D01*
X430Y1848D01*
X431Y1850D01*
X433Y1853D01*
Y1858D01*
X431Y1861D01*
X430Y1863D01*
X425Y1864D01*
X420D02*
X417Y1863D01*
X415Y1861D01*
X414Y1858D01*
Y1853D01*
X415Y1850D01*
X417Y1848D01*
X420Y1847D01*
X425D02*
X428Y1848D01*
X430Y1850D01*
X431Y1853D01*
Y1858D01*
X430Y1861D01*
X428Y1863D01*
X425Y1864D01*
X384Y1565D02*
Y1535D01*
X386Y1565D02*
Y1535D01*
X380Y1565D02*
X397D01*
X401Y1564D01*
X403Y1562D01*
X404Y1560D01*
Y1557D01*
X403Y1554D01*
X401Y1552D01*
X397Y1551D01*
X386D01*
X397Y1565D02*
X400Y1564D01*
X401Y1562D01*
X403Y1560D01*
Y1557D01*
X401Y1554D01*
X400Y1552D01*
X397Y1551D01*
X380Y1535D02*
X390D01*
X393Y1551D02*
X396Y1550D01*
X397Y1548D01*
X401Y1538D01*
X403Y1537D01*
X404D01*
X406Y1538D01*
X396Y1550D02*
X397Y1547D01*
X400Y1537D01*
X401Y1535D01*
X404D01*
X406Y1538D01*
Y1540D01*
X410Y1560D02*
X412Y1561D01*
X417Y1565D01*
Y1535D01*
X415Y1564D02*
Y1535D01*
X410D02*
X422D01*
X428Y1565D02*
Y1557D01*
Y1560D02*
X429Y1562D01*
X432Y1565D01*
X435D01*
X442Y1561D01*
X445D01*
X446Y1562D01*
X448Y1565D01*
X429Y1562D02*
X432Y1564D01*
X435D01*
X442Y1561D01*
X448Y1565D02*
Y1561D01*
X446Y1557D01*
X440Y1550D01*
X439Y1547D01*
X438Y1542D01*
Y1535D01*
X446Y1557D02*
X439Y1550D01*
X438Y1547D01*
X436Y1542D01*
Y1535D01*
X1340Y1620D02*
Y1590D01*
X1342Y1620D02*
Y1590D01*
X1336Y1620D02*
X1353D01*
X1357Y1619D01*
X1359Y1617D01*
X1360Y1614D01*
Y1611D01*
X1359Y1609D01*
X1357Y1607D01*
X1353Y1606D01*
X1342D01*
X1353Y1620D02*
X1356Y1619D01*
X1357Y1617D01*
X1359Y1614D01*
Y1611D01*
X1357Y1609D01*
X1356Y1607D01*
X1353Y1606D01*
X1336Y1590D02*
X1346D01*
X1349Y1606D02*
X1352Y1604D01*
X1353Y1603D01*
X1357Y1593D01*
X1359Y1591D01*
X1360D01*
X1362Y1593D01*
X1352Y1604D02*
X1353Y1601D01*
X1356Y1591D01*
X1357Y1590D01*
X1360D01*
X1362Y1593D01*
Y1594D01*
X1366Y1614D02*
X1368Y1616D01*
X1373Y1620D01*
Y1590D01*
X1371Y1619D02*
Y1590D01*
X1366D02*
X1378D01*
X1401Y1616D02*
X1399Y1614D01*
X1401Y1613D01*
X1402Y1614D01*
Y1616D01*
X1401Y1619D01*
X1398Y1620D01*
X1394D01*
X1389Y1619D01*
X1386Y1616D01*
X1385Y1613D01*
X1384Y1607D01*
Y1599D01*
X1385Y1594D01*
X1388Y1591D01*
X1392Y1590D01*
X1395D01*
X1399Y1591D01*
X1402Y1594D01*
X1404Y1599D01*
Y1600D01*
X1402Y1604D01*
X1399Y1607D01*
X1395Y1609D01*
X1394D01*
X1389Y1607D01*
X1386Y1604D01*
X1385Y1600D01*
X1394Y1620D02*
X1391Y1619D01*
X1388Y1616D01*
X1386Y1613D01*
X1385Y1607D01*
Y1599D01*
X1386Y1594D01*
X1389Y1591D01*
X1392Y1590D01*
X1395D02*
X1398Y1591D01*
X1401Y1594D01*
X1402Y1599D01*
Y1600D01*
X1401Y1604D01*
X1398Y1607D01*
X1395Y1609D01*
X1338Y1309D02*
Y1279D01*
X1340Y1309D02*
Y1279D01*
X1334Y1309D02*
X1351D01*
X1355Y1308D01*
X1357Y1306D01*
X1358Y1303D01*
Y1300D01*
X1357Y1298D01*
X1355Y1296D01*
X1351Y1295D01*
X1340D01*
X1351Y1309D02*
X1354Y1308D01*
X1355Y1306D01*
X1357Y1303D01*
Y1300D01*
X1355Y1298D01*
X1354Y1296D01*
X1351Y1295D01*
X1334Y1279D02*
X1344D01*
X1347Y1295D02*
X1350Y1293D01*
X1351Y1292D01*
X1355Y1282D01*
X1357Y1280D01*
X1358D01*
X1360Y1282D01*
X1350Y1293D02*
X1351Y1290D01*
X1354Y1280D01*
X1355Y1279D01*
X1358D01*
X1360Y1282D01*
Y1283D01*
X1364Y1303D02*
X1366Y1305D01*
X1371Y1309D01*
Y1279D01*
X1369Y1308D02*
Y1279D01*
X1364D02*
X1376D01*
X1384Y1309D02*
X1382Y1295D01*
X1384Y1298D01*
X1389Y1299D01*
X1393D01*
X1397Y1298D01*
X1400Y1295D01*
X1402Y1290D01*
Y1288D01*
X1400Y1283D01*
X1397Y1280D01*
X1393Y1279D01*
X1389D01*
X1384Y1280D01*
X1383Y1282D01*
X1382Y1285D01*
Y1286D01*
X1383Y1288D01*
X1384Y1286D01*
X1383Y1285D01*
X1393Y1299D02*
X1396Y1298D01*
X1399Y1295D01*
X1400Y1290D01*
Y1288D01*
X1399Y1283D01*
X1396Y1280D01*
X1393Y1279D01*
X1384Y1309D02*
X1399D01*
X1384Y1308D02*
X1392D01*
X1399Y1309D01*
X1392Y1969D02*
Y1939D01*
X1394Y1969D02*
Y1939D01*
X1388Y1969D02*
X1405D01*
X1409Y1967D01*
X1411Y1966D01*
X1412Y1963D01*
Y1960D01*
X1411Y1957D01*
X1409Y1956D01*
X1405Y1954D01*
X1394D01*
X1405Y1969D02*
X1408Y1967D01*
X1409Y1966D01*
X1411Y1963D01*
Y1960D01*
X1409Y1957D01*
X1408Y1956D01*
X1405Y1954D01*
X1388Y1939D02*
X1398D01*
X1401Y1954D02*
X1404Y1953D01*
X1405Y1952D01*
X1409Y1942D01*
X1411Y1940D01*
X1412D01*
X1414Y1942D01*
X1404Y1953D02*
X1405Y1950D01*
X1408Y1940D01*
X1409Y1939D01*
X1412D01*
X1414Y1942D01*
Y1943D01*
X1418Y1963D02*
X1420Y1964D01*
X1425Y1969D01*
Y1939D01*
X1423Y1967D02*
Y1939D01*
X1418D02*
X1430D01*
X1437Y1963D02*
X1438Y1962D01*
X1437Y1960D01*
X1436Y1962D01*
Y1963D01*
X1437Y1966D01*
X1438Y1967D01*
X1443Y1969D01*
X1448D01*
X1453Y1967D01*
X1454Y1966D01*
X1456Y1963D01*
Y1960D01*
X1454Y1957D01*
X1450Y1954D01*
X1443Y1952D01*
X1440Y1950D01*
X1437Y1947D01*
X1436Y1943D01*
Y1939D01*
X1448Y1969D02*
X1451Y1967D01*
X1453Y1966D01*
X1454Y1963D01*
Y1960D01*
X1453Y1957D01*
X1448Y1954D01*
X1443Y1952D01*
X1436Y1942D02*
X1437Y1943D01*
X1440D01*
X1447Y1940D01*
X1451D01*
X1454Y1942D01*
X1456Y1943D01*
Y1946D01*
X1440Y1943D02*
X1447Y1939D01*
X1453D01*
X1454Y1940D01*
X1456Y1943D01*
X1556Y2214D02*
Y2184D01*
X1558Y2214D02*
Y2184D01*
X1552Y2214D02*
X1569D01*
X1573Y2213D01*
X1575Y2211D01*
X1576Y2208D01*
Y2205D01*
X1575Y2203D01*
X1573Y2201D01*
X1569Y2200D01*
X1558D01*
X1569Y2214D02*
X1572Y2213D01*
X1573Y2211D01*
X1575Y2208D01*
Y2205D01*
X1573Y2203D01*
X1572Y2201D01*
X1569Y2200D01*
X1552Y2184D02*
X1562D01*
X1565Y2200D02*
X1568Y2198D01*
X1569Y2197D01*
X1573Y2187D01*
X1575Y2185D01*
X1576D01*
X1578Y2187D01*
X1568Y2198D02*
X1569Y2195D01*
X1572Y2185D01*
X1573Y2184D01*
X1576D01*
X1578Y2187D01*
Y2188D01*
X1582Y2208D02*
X1584Y2210D01*
X1589Y2214D01*
Y2184D01*
X1587Y2213D02*
Y2184D01*
X1582D02*
X1594D01*
X1600Y2208D02*
X1602Y2210D01*
X1607Y2214D01*
Y2184D01*
X1605Y2213D02*
Y2184D01*
X1600D02*
X1612D01*
X1540Y1887D02*
Y1857D01*
X1542Y1887D02*
Y1857D01*
X1536Y1887D02*
X1553D01*
X1557Y1885D01*
X1559Y1884D01*
X1560Y1881D01*
Y1878D01*
X1559Y1875D01*
X1557Y1874D01*
X1553Y1872D01*
X1542D01*
X1553Y1887D02*
X1556Y1885D01*
X1557Y1884D01*
X1559Y1881D01*
Y1878D01*
X1557Y1875D01*
X1556Y1874D01*
X1553Y1872D01*
X1536Y1857D02*
X1546D01*
X1549Y1872D02*
X1552Y1871D01*
X1553Y1870D01*
X1557Y1860D01*
X1559Y1858D01*
X1560D01*
X1562Y1860D01*
X1552Y1871D02*
X1553Y1868D01*
X1556Y1858D01*
X1557Y1857D01*
X1560D01*
X1562Y1860D01*
Y1861D01*
X1566Y1881D02*
X1568Y1882D01*
X1573Y1887D01*
Y1857D01*
X1571Y1885D02*
Y1857D01*
X1566D02*
X1578D01*
X1592Y1887D02*
X1588Y1885D01*
X1585Y1881D01*
X1584Y1874D01*
Y1870D01*
X1585Y1862D01*
X1588Y1858D01*
X1592Y1857D01*
X1595D01*
X1599Y1858D01*
X1602Y1862D01*
X1604Y1870D01*
Y1874D01*
X1602Y1881D01*
X1599Y1885D01*
X1595Y1887D01*
X1592D01*
X1589Y1885D01*
X1588Y1884D01*
X1586Y1881D01*
X1585Y1874D01*
Y1870D01*
X1586Y1862D01*
X1588Y1860D01*
X1589Y1858D01*
X1592Y1857D01*
X1595D02*
X1598Y1858D01*
X1599Y1860D01*
X1601Y1862D01*
X1602Y1870D01*
Y1874D01*
X1601Y1881D01*
X1599Y1884D01*
X1598Y1885D01*
X1595Y1887D01*
X512Y1433D02*
Y1403D01*
X514Y1433D02*
Y1403D01*
X508Y1433D02*
X525D01*
X529Y1432D01*
X531Y1430D01*
X532Y1427D01*
Y1424D01*
X531Y1422D01*
X529Y1420D01*
X525Y1419D01*
X514D01*
X525Y1433D02*
X528Y1432D01*
X529Y1430D01*
X531Y1427D01*
Y1424D01*
X529Y1422D01*
X528Y1420D01*
X525Y1419D01*
X508Y1403D02*
X518D01*
X521Y1419D02*
X524Y1417D01*
X525Y1416D01*
X529Y1406D01*
X531Y1404D01*
X532D01*
X534Y1406D01*
X524Y1417D02*
X525Y1414D01*
X528Y1404D01*
X529Y1403D01*
X532D01*
X534Y1406D01*
Y1407D01*
X556Y1423D02*
X555Y1419D01*
X552Y1416D01*
X548Y1414D01*
X546D01*
X542Y1416D01*
X539Y1419D01*
X538Y1423D01*
Y1424D01*
X539Y1429D01*
X542Y1432D01*
X546Y1433D01*
X549D01*
X553Y1432D01*
X556Y1429D01*
X558Y1424D01*
Y1416D01*
X556Y1410D01*
X555Y1407D01*
X552Y1404D01*
X548Y1403D01*
X543D01*
X540Y1404D01*
X539Y1407D01*
Y1409D01*
X540Y1410D01*
X542Y1409D01*
X540Y1407D01*
X546Y1414D02*
X543Y1416D01*
X540Y1419D01*
X539Y1423D01*
Y1424D01*
X540Y1429D01*
X543Y1432D01*
X546Y1433D01*
X549D02*
X552Y1432D01*
X555Y1429D01*
X556Y1424D01*
Y1416D01*
X555Y1410D01*
X553Y1407D01*
X550Y1404D01*
X548Y1403D01*
X317Y1508D02*
Y1478D01*
X319Y1508D02*
Y1478D01*
X313Y1508D02*
X330D01*
X334Y1507D01*
X336Y1506D01*
X337Y1503D01*
Y1500D01*
X336Y1497D01*
X334Y1496D01*
X330Y1494D01*
X319D01*
X330Y1508D02*
X333Y1507D01*
X334Y1506D01*
X336Y1503D01*
Y1500D01*
X334Y1497D01*
X333Y1496D01*
X330Y1494D01*
X313Y1478D02*
X323D01*
X326Y1494D02*
X329Y1493D01*
X330Y1491D01*
X334Y1481D01*
X336Y1480D01*
X337D01*
X339Y1481D01*
X329Y1493D02*
X330Y1490D01*
X333Y1480D01*
X334Y1478D01*
X337D01*
X339Y1481D01*
Y1483D01*
X350Y1508D02*
X345Y1507D01*
X344Y1504D01*
Y1500D01*
X345Y1497D01*
X350Y1496D01*
X355D01*
X360Y1497D01*
X361Y1500D01*
Y1504D01*
X360Y1507D01*
X355Y1508D01*
X350D01*
X347Y1507D01*
X345Y1504D01*
Y1500D01*
X347Y1497D01*
X350Y1496D01*
X355D02*
X358Y1497D01*
X360Y1500D01*
Y1504D01*
X358Y1507D01*
X355Y1508D01*
X350Y1496D02*
X345Y1494D01*
X344Y1493D01*
X343Y1490D01*
Y1484D01*
X344Y1481D01*
X345Y1480D01*
X350Y1478D01*
X355D01*
X360Y1480D01*
X361Y1481D01*
X363Y1484D01*
Y1490D01*
X361Y1493D01*
X360Y1494D01*
X355Y1496D01*
X350D02*
X347Y1494D01*
X345Y1493D01*
X344Y1490D01*
Y1484D01*
X345Y1481D01*
X347Y1480D01*
X350Y1478D01*
X355D02*
X358Y1480D01*
X360Y1481D01*
X361Y1484D01*
Y1490D01*
X360Y1493D01*
X358Y1494D01*
X355Y1496D01*
X676Y1968D02*
Y1938D01*
X678Y1968D02*
Y1938D01*
X672Y1968D02*
X689D01*
X693Y1967D01*
X695Y1965D01*
X696Y1962D01*
Y1959D01*
X695Y1957D01*
X693Y1955D01*
X689Y1954D01*
X678D01*
X689Y1968D02*
X692Y1967D01*
X693Y1965D01*
X695Y1962D01*
Y1959D01*
X693Y1957D01*
X692Y1955D01*
X689Y1954D01*
X672Y1938D02*
X682D01*
X685Y1954D02*
X688Y1952D01*
X689Y1951D01*
X693Y1941D01*
X695Y1939D01*
X696D01*
X698Y1941D01*
X688Y1952D02*
X689Y1949D01*
X692Y1939D01*
X693Y1938D01*
X696D01*
X698Y1941D01*
Y1942D01*
X702Y1968D02*
Y1959D01*
Y1962D02*
X703Y1965D01*
X706Y1968D01*
X709D01*
X716Y1964D01*
X719D01*
X720Y1965D01*
X722Y1968D01*
X703Y1965D02*
X706Y1967D01*
X709D01*
X716Y1964D01*
X722Y1968D02*
Y1964D01*
X720Y1959D01*
X714Y1952D01*
X713Y1949D01*
X712Y1945D01*
Y1938D01*
X720Y1959D02*
X713Y1952D01*
X712Y1949D01*
X710Y1945D01*
Y1938D01*
X1579Y723D02*
Y693D01*
X1581Y723D02*
Y693D01*
X1575Y723D02*
X1592D01*
X1596Y722D01*
X1598Y720D01*
X1599Y717D01*
Y714D01*
X1598Y712D01*
X1596Y710D01*
X1592Y709D01*
X1581D01*
X1592Y723D02*
X1595Y722D01*
X1596Y720D01*
X1598Y717D01*
Y714D01*
X1596Y712D01*
X1595Y710D01*
X1592Y709D01*
X1575Y693D02*
X1585D01*
X1588Y709D02*
X1591Y707D01*
X1592Y706D01*
X1596Y696D01*
X1598Y694D01*
X1599D01*
X1601Y696D01*
X1591Y707D02*
X1592Y704D01*
X1595Y694D01*
X1596Y693D01*
X1599D01*
X1601Y696D01*
Y697D01*
X1622Y719D02*
X1620Y717D01*
X1622Y716D01*
X1623Y717D01*
Y719D01*
X1622Y722D01*
X1619Y723D01*
X1615D01*
X1610Y722D01*
X1607Y719D01*
X1606Y716D01*
X1605Y710D01*
Y702D01*
X1606Y697D01*
X1609Y694D01*
X1613Y693D01*
X1616D01*
X1620Y694D01*
X1623Y697D01*
X1625Y702D01*
Y703D01*
X1623Y707D01*
X1620Y710D01*
X1616Y712D01*
X1615D01*
X1610Y710D01*
X1607Y707D01*
X1606Y703D01*
X1615Y723D02*
X1612Y722D01*
X1609Y719D01*
X1607Y716D01*
X1606Y710D01*
Y702D01*
X1607Y697D01*
X1610Y694D01*
X1613Y693D01*
X1616D02*
X1619Y694D01*
X1622Y697D01*
X1623Y702D01*
Y703D01*
X1622Y707D01*
X1619Y710D01*
X1616Y712D01*
X775Y1655D02*
Y1625D01*
X777Y1655D02*
Y1625D01*
X771Y1655D02*
X788D01*
X792Y1654D01*
X794Y1652D01*
X795Y1649D01*
Y1646D01*
X794Y1644D01*
X792Y1642D01*
X788Y1641D01*
X777D01*
X788Y1655D02*
X791Y1654D01*
X792Y1652D01*
X794Y1649D01*
Y1646D01*
X792Y1644D01*
X791Y1642D01*
X788Y1641D01*
X771Y1625D02*
X781D01*
X784Y1641D02*
X787Y1639D01*
X788Y1638D01*
X792Y1628D01*
X794Y1626D01*
X795D01*
X797Y1628D01*
X787Y1639D02*
X788Y1636D01*
X791Y1626D01*
X792Y1625D01*
X795D01*
X797Y1628D01*
Y1629D01*
X803Y1655D02*
X800Y1641D01*
X803Y1644D01*
X808Y1645D01*
X812D01*
X816Y1644D01*
X819Y1641D01*
X820Y1636D01*
Y1634D01*
X819Y1629D01*
X816Y1626D01*
X812Y1625D01*
X808D01*
X803Y1626D01*
X802Y1628D01*
X800Y1631D01*
Y1632D01*
X802Y1634D01*
X803Y1632D01*
X802Y1631D01*
X812Y1645D02*
X815Y1644D01*
X818Y1641D01*
X819Y1636D01*
Y1634D01*
X818Y1629D01*
X815Y1626D01*
X812Y1625D01*
X803Y1655D02*
X818D01*
X803Y1654D02*
X810D01*
X818Y1655D01*
X1646Y605D02*
Y575D01*
X1648Y605D02*
Y575D01*
X1642Y605D02*
X1659D01*
X1663Y604D01*
X1665Y602D01*
X1666Y599D01*
Y596D01*
X1665Y594D01*
X1663Y592D01*
X1659Y591D01*
X1648D01*
X1659Y605D02*
X1662Y604D01*
X1663Y602D01*
X1665Y599D01*
Y596D01*
X1663Y594D01*
X1662Y592D01*
X1659Y591D01*
X1642Y575D02*
X1652D01*
X1655Y591D02*
X1658Y589D01*
X1659Y588D01*
X1663Y578D01*
X1665Y576D01*
X1666D01*
X1668Y578D01*
X1658Y589D02*
X1659Y586D01*
X1662Y576D01*
X1663Y575D01*
X1666D01*
X1668Y578D01*
Y579D01*
X1686Y602D02*
Y575D01*
X1694Y584D02*
X1672D01*
X1687Y605D01*
Y575D01*
X1682D02*
X1692D01*
X1565Y828D02*
Y798D01*
X1567Y828D02*
Y798D01*
X1561Y828D02*
X1578D01*
X1582Y827D01*
X1584Y825D01*
X1585Y822D01*
Y819D01*
X1584Y817D01*
X1582Y815D01*
X1578Y814D01*
X1567D01*
X1578Y828D02*
X1581Y827D01*
X1582Y825D01*
X1584Y822D01*
Y819D01*
X1582Y817D01*
X1581Y815D01*
X1578Y814D01*
X1561Y798D02*
X1571D01*
X1574Y814D02*
X1577Y812D01*
X1578Y811D01*
X1582Y801D01*
X1584Y799D01*
X1585D01*
X1587Y801D01*
X1577Y812D02*
X1578Y809D01*
X1581Y799D01*
X1582Y798D01*
X1585D01*
X1587Y801D01*
Y802D01*
X1592Y822D02*
X1593Y821D01*
X1592Y819D01*
X1591Y821D01*
Y822D01*
X1592Y825D01*
X1593Y827D01*
X1598Y828D01*
X1603D01*
X1608Y827D01*
X1609Y824D01*
Y819D01*
X1608Y817D01*
X1603Y815D01*
X1599D01*
X1603Y828D02*
X1606Y827D01*
X1608Y824D01*
Y819D01*
X1606Y817D01*
X1603Y815D01*
X1606Y814D01*
X1609Y811D01*
X1611Y808D01*
Y804D01*
X1609Y801D01*
X1608Y799D01*
X1603Y798D01*
X1598D01*
X1593Y799D01*
X1592Y801D01*
X1591Y804D01*
Y805D01*
X1592Y807D01*
X1593Y805D01*
X1592Y804D01*
X1608Y812D02*
X1609Y808D01*
Y804D01*
X1608Y801D01*
X1606Y799D01*
X1603Y798D01*
X1862Y887D02*
Y857D01*
X1864Y887D02*
Y857D01*
X1858Y887D02*
X1875D01*
X1879Y886D01*
X1881Y884D01*
X1882Y881D01*
Y878D01*
X1881Y876D01*
X1879Y874D01*
X1875Y873D01*
X1864D01*
X1875Y887D02*
X1878Y886D01*
X1879Y884D01*
X1881Y881D01*
Y878D01*
X1879Y876D01*
X1878Y874D01*
X1875Y873D01*
X1858Y857D02*
X1868D01*
X1871Y873D02*
X1874Y871D01*
X1875Y870D01*
X1879Y860D01*
X1881Y858D01*
X1882D01*
X1884Y860D01*
X1874Y871D02*
X1875Y868D01*
X1878Y858D01*
X1879Y857D01*
X1882D01*
X1884Y860D01*
Y861D01*
X1889Y881D02*
X1890Y880D01*
X1889Y878D01*
X1888Y880D01*
Y881D01*
X1889Y884D01*
X1890Y886D01*
X1895Y887D01*
X1900D01*
X1905Y886D01*
X1906Y884D01*
X1908Y881D01*
Y878D01*
X1906Y876D01*
X1902Y873D01*
X1895Y870D01*
X1892Y868D01*
X1889Y866D01*
X1888Y861D01*
Y857D01*
X1900Y887D02*
X1903Y886D01*
X1905Y884D01*
X1906Y881D01*
Y878D01*
X1905Y876D01*
X1900Y873D01*
X1895Y870D01*
X1888Y860D02*
X1889Y861D01*
X1892D01*
X1899Y858D01*
X1903D01*
X1906Y860D01*
X1908Y861D01*
Y864D01*
X1892Y861D02*
X1899Y857D01*
X1905D01*
X1906Y858D01*
X1908Y861D01*
X1621Y277D02*
Y247D01*
X1623Y277D02*
Y247D01*
X1617Y277D02*
X1634D01*
X1638Y276D01*
X1640Y274D01*
X1641Y271D01*
Y268D01*
X1640Y266D01*
X1638Y264D01*
X1634Y263D01*
X1623D01*
X1634Y277D02*
X1637Y276D01*
X1638Y274D01*
X1640Y271D01*
Y268D01*
X1638Y266D01*
X1637Y264D01*
X1634Y263D01*
X1617Y247D02*
X1627D01*
X1630Y263D02*
X1633Y261D01*
X1634Y260D01*
X1638Y250D01*
X1640Y248D01*
X1641D01*
X1643Y250D01*
X1633Y261D02*
X1634Y258D01*
X1637Y248D01*
X1638Y247D01*
X1641D01*
X1643Y250D01*
Y251D01*
X1647Y271D02*
X1649Y273D01*
X1654Y277D01*
Y247D01*
X1652Y276D02*
Y247D01*
X1647D02*
X1659D01*
X1574Y2159D02*
X1570Y2158D01*
X1567Y2155D01*
X1565Y2152D01*
X1564Y2146D01*
Y2142D01*
X1565Y2136D01*
X1567Y2133D01*
X1570Y2130D01*
X1574Y2129D01*
X1577D01*
X1581Y2130D01*
X1584Y2133D01*
X1585Y2136D01*
X1587Y2142D01*
Y2146D01*
X1585Y2152D01*
X1584Y2155D01*
X1581Y2158D01*
X1577Y2159D01*
X1574D01*
X1571Y2158D01*
X1568Y2155D01*
X1567Y2152D01*
X1565Y2146D01*
Y2142D01*
X1567Y2136D01*
X1568Y2133D01*
X1571Y2130D01*
X1574Y2129D01*
X1577D02*
X1580Y2130D01*
X1583Y2133D01*
X1584Y2136D01*
X1585Y2142D01*
Y2146D01*
X1584Y2152D01*
X1583Y2155D01*
X1580Y2158D01*
X1577Y2159D01*
X1570Y2132D02*
Y2133D01*
X1571Y2136D01*
X1574Y2138D01*
X1575D01*
X1578Y2136D01*
X1580Y2133D01*
X1581Y2123D01*
X1583Y2122D01*
X1585D01*
X1587Y2125D01*
Y2126D01*
X1580Y2133D02*
X1581Y2128D01*
X1583Y2125D01*
X1584Y2123D01*
X1585D01*
X1587Y2125D01*
X1591Y2153D02*
X1594Y2155D01*
X1598Y2159D01*
Y2129D01*
X1597Y2158D02*
Y2129D01*
X1591D02*
X1604D01*
X1449Y810D02*
Y780D01*
X1451Y810D02*
Y780D01*
X1445Y810D02*
X1455D01*
X1445Y780D02*
X1466D01*
Y789D01*
X1465Y780D01*
X1471Y804D02*
X1474Y806D01*
X1478Y810D01*
Y780D01*
X1476Y809D02*
Y780D01*
X1471D02*
X1484D01*
X1069Y2035D02*
Y2005D01*
X1071Y2035D02*
Y2005D01*
X1079Y2026D02*
Y2015D01*
X1065Y2035D02*
X1088D01*
Y2026D01*
X1086Y2035D01*
X1071Y2021D02*
X1079D01*
X1065Y2005D02*
X1075D01*
X1092Y2029D02*
X1095Y2031D01*
X1099Y2035D01*
Y2005D01*
X1098Y2034D02*
Y2005D01*
X1092D02*
X1105D01*
X1249Y620D02*
Y590D01*
X1251Y620D02*
Y590D01*
X1245Y620D02*
X1259D01*
X1264Y619D01*
X1266Y616D01*
X1268Y613D01*
X1269Y609D01*
Y601D01*
X1268Y597D01*
X1266Y594D01*
X1264Y591D01*
X1259Y590D01*
X1245D01*
X1259Y620D02*
X1262Y619D01*
X1265Y616D01*
X1266Y613D01*
X1268Y609D01*
Y601D01*
X1266Y597D01*
X1265Y594D01*
X1262Y591D01*
X1259Y590D01*
X1273Y620D02*
Y611D01*
Y614D02*
X1275Y617D01*
X1278Y620D01*
X1280D01*
X1288Y616D01*
X1290D01*
X1292Y617D01*
X1293Y620D01*
X1275Y617D02*
X1278Y619D01*
X1280D01*
X1288Y616D01*
X1293Y620D02*
Y616D01*
X1292Y611D01*
X1286Y604D01*
X1285Y601D01*
X1283Y597D01*
Y590D01*
X1292Y611D02*
X1285Y604D01*
X1283Y601D01*
X1282Y597D01*
Y590D01*
X841Y921D02*
X842Y916D01*
Y925D01*
X841Y921D01*
X838Y924D01*
X834Y925D01*
X831D01*
X827Y924D01*
X824Y921D01*
X822Y918D01*
X821Y914D01*
Y906D01*
X822Y902D01*
X824Y899D01*
X827Y896D01*
X831Y895D01*
X834D01*
X838Y896D01*
X841Y899D01*
X842Y902D01*
X831Y925D02*
X828Y924D01*
X825Y921D01*
X824Y918D01*
X822Y914D01*
Y906D01*
X824Y902D01*
X825Y899D01*
X828Y896D01*
X831Y895D01*
X848Y919D02*
X849Y918D01*
X848Y916D01*
X847Y918D01*
Y919D01*
X848Y922D01*
X849Y924D01*
X854Y925D01*
X859D01*
X864Y924D01*
X865Y922D01*
X867Y919D01*
Y916D01*
X865Y914D01*
X861Y911D01*
X854Y908D01*
X851Y906D01*
X848Y904D01*
X847Y899D01*
Y895D01*
X859Y925D02*
X862Y924D01*
X864Y922D01*
X865Y919D01*
Y916D01*
X864Y914D01*
X859Y911D01*
X854Y908D01*
X847Y898D02*
X848Y899D01*
X851D01*
X858Y896D01*
X862D01*
X865Y898D01*
X867Y899D01*
Y902D01*
X851Y899D02*
X858Y895D01*
X864D01*
X865Y896D01*
X867Y899D01*
X874Y925D02*
X871Y911D01*
X874Y914D01*
X878Y915D01*
X882D01*
X887Y914D01*
X890Y911D01*
X891Y906D01*
Y904D01*
X890Y899D01*
X887Y896D01*
X882Y895D01*
X878D01*
X874Y896D01*
X872Y898D01*
X871Y901D01*
Y902D01*
X872Y904D01*
X874Y902D01*
X872Y901D01*
X882Y915D02*
X885Y914D01*
X888Y911D01*
X890Y906D01*
Y904D01*
X888Y899D01*
X885Y896D01*
X882Y895D01*
X874Y925D02*
X888D01*
X874Y924D02*
X881D01*
X888Y925D01*
X1406Y326D02*
X1407Y321D01*
Y330D01*
X1406Y326D01*
X1403Y329D01*
X1399Y330D01*
X1396D01*
X1391Y329D01*
X1389Y326D01*
X1387Y323D01*
X1386Y319D01*
Y311D01*
X1387Y307D01*
X1389Y304D01*
X1391Y301D01*
X1396Y300D01*
X1399D01*
X1403Y301D01*
X1406Y304D01*
X1407Y307D01*
X1396Y330D02*
X1393Y329D01*
X1390Y326D01*
X1389Y323D01*
X1387Y319D01*
Y311D01*
X1389Y307D01*
X1390Y304D01*
X1393Y301D01*
X1396Y300D01*
X1413Y324D02*
X1414Y323D01*
X1413Y321D01*
X1411Y323D01*
Y324D01*
X1413Y327D01*
X1414Y329D01*
X1419Y330D01*
X1424D01*
X1429Y329D01*
X1430Y327D01*
X1431Y324D01*
Y321D01*
X1430Y319D01*
X1426Y316D01*
X1419Y313D01*
X1416Y311D01*
X1413Y309D01*
X1411Y304D01*
Y300D01*
X1424Y330D02*
X1427Y329D01*
X1429Y327D01*
X1430Y324D01*
Y321D01*
X1429Y319D01*
X1424Y316D01*
X1419Y313D01*
X1411Y303D02*
X1413Y304D01*
X1416D01*
X1423Y301D01*
X1427D01*
X1430Y303D01*
X1431Y304D01*
Y307D01*
X1416Y304D02*
X1423Y300D01*
X1429D01*
X1430Y301D01*
X1431Y304D01*
X1450Y327D02*
Y300D01*
X1459Y309D02*
X1436D01*
X1452Y330D01*
Y300D01*
X1446D02*
X1456D01*
X1066Y334D02*
X1067Y329D01*
Y338D01*
X1066Y334D01*
X1063Y337D01*
X1058Y338D01*
X1056D01*
X1051Y337D01*
X1048Y334D01*
X1047Y331D01*
X1046Y327D01*
Y319D01*
X1047Y315D01*
X1048Y312D01*
X1051Y309D01*
X1056Y308D01*
X1058D01*
X1063Y309D01*
X1066Y312D01*
X1067Y315D01*
X1056Y338D02*
X1053Y337D01*
X1050Y334D01*
X1048Y331D01*
X1047Y327D01*
Y319D01*
X1048Y315D01*
X1050Y312D01*
X1053Y309D01*
X1056Y308D01*
X1073Y332D02*
X1074Y331D01*
X1073Y329D01*
X1071Y331D01*
Y332D01*
X1073Y335D01*
X1074Y337D01*
X1078Y338D01*
X1084D01*
X1088Y337D01*
X1090Y335D01*
X1091Y332D01*
Y329D01*
X1090Y327D01*
X1086Y324D01*
X1078Y321D01*
X1076Y319D01*
X1073Y317D01*
X1071Y312D01*
Y308D01*
X1084Y338D02*
X1087Y337D01*
X1088Y335D01*
X1090Y332D01*
Y329D01*
X1088Y327D01*
X1084Y324D01*
X1078Y321D01*
X1071Y311D02*
X1073Y312D01*
X1076D01*
X1083Y309D01*
X1087D01*
X1090Y311D01*
X1091Y312D01*
Y315D01*
X1076Y312D02*
X1083Y308D01*
X1088D01*
X1090Y309D01*
X1091Y312D01*
X1097Y332D02*
X1099Y331D01*
X1097Y329D01*
X1096Y331D01*
Y332D01*
X1097Y335D01*
X1099Y337D01*
X1103Y338D01*
X1109D01*
X1113Y337D01*
X1114Y334D01*
Y329D01*
X1113Y327D01*
X1109Y325D01*
X1104D01*
X1109Y338D02*
X1111Y337D01*
X1113Y334D01*
Y329D01*
X1111Y327D01*
X1109Y325D01*
X1111Y324D01*
X1114Y321D01*
X1116Y318D01*
Y314D01*
X1114Y311D01*
X1113Y309D01*
X1109Y308D01*
X1103D01*
X1099Y309D01*
X1097Y311D01*
X1096Y314D01*
Y315D01*
X1097Y317D01*
X1099Y315D01*
X1097Y314D01*
X1113Y322D02*
X1114Y318D01*
Y314D01*
X1113Y311D01*
X1111Y309D01*
X1109Y308D01*
X1035Y656D02*
X1036Y651D01*
Y660D01*
X1035Y656D01*
X1032Y659D01*
X1028Y660D01*
X1025D01*
X1021Y659D01*
X1018Y656D01*
X1016Y653D01*
X1015Y649D01*
Y641D01*
X1016Y637D01*
X1018Y634D01*
X1021Y631D01*
X1025Y630D01*
X1028D01*
X1032Y631D01*
X1035Y634D01*
X1036Y637D01*
X1025Y660D02*
X1022Y659D01*
X1019Y656D01*
X1018Y653D01*
X1016Y649D01*
Y641D01*
X1018Y637D01*
X1019Y634D01*
X1022Y631D01*
X1025Y630D01*
X1042Y654D02*
X1044Y653D01*
X1042Y651D01*
X1041Y653D01*
Y654D01*
X1042Y657D01*
X1044Y659D01*
X1048Y660D01*
X1054D01*
X1058Y659D01*
X1059Y657D01*
X1061Y654D01*
Y651D01*
X1059Y649D01*
X1055Y646D01*
X1048Y643D01*
X1045Y641D01*
X1042Y639D01*
X1041Y634D01*
Y630D01*
X1054Y660D02*
X1056Y659D01*
X1058Y657D01*
X1059Y654D01*
Y651D01*
X1058Y649D01*
X1054Y646D01*
X1048Y643D01*
X1041Y633D02*
X1042Y634D01*
X1045D01*
X1052Y631D01*
X1056D01*
X1059Y633D01*
X1061Y634D01*
Y637D01*
X1045Y634D02*
X1052Y630D01*
X1058D01*
X1059Y631D01*
X1061Y634D01*
X1067Y654D02*
X1068Y653D01*
X1067Y651D01*
X1065Y653D01*
Y654D01*
X1067Y657D01*
X1068Y659D01*
X1072Y660D01*
X1078D01*
X1082Y659D01*
X1084Y657D01*
X1085Y654D01*
Y651D01*
X1084Y649D01*
X1079Y646D01*
X1072Y643D01*
X1069Y641D01*
X1067Y639D01*
X1065Y634D01*
Y630D01*
X1078Y660D02*
X1081Y659D01*
X1082Y657D01*
X1084Y654D01*
Y651D01*
X1082Y649D01*
X1078Y646D01*
X1072Y643D01*
X1065Y633D02*
X1067Y634D01*
X1069D01*
X1077Y631D01*
X1081D01*
X1084Y633D01*
X1085Y634D01*
Y637D01*
X1069Y634D02*
X1077Y630D01*
X1082D01*
X1084Y631D01*
X1085Y634D01*
X1077Y1731D02*
X1078Y1726D01*
Y1735D01*
X1077Y1731D01*
X1074Y1734D01*
X1070Y1735D01*
X1067D01*
X1062Y1734D01*
X1060Y1731D01*
X1058Y1728D01*
X1057Y1724D01*
Y1716D01*
X1058Y1712D01*
X1060Y1709D01*
X1062Y1706D01*
X1067Y1705D01*
X1070D01*
X1074Y1706D01*
X1077Y1709D01*
X1078Y1712D01*
X1067Y1735D02*
X1064Y1734D01*
X1061Y1731D01*
X1060Y1728D01*
X1058Y1724D01*
Y1716D01*
X1060Y1712D01*
X1061Y1709D01*
X1064Y1706D01*
X1067Y1705D01*
X1084Y1729D02*
X1085Y1728D01*
X1084Y1726D01*
X1082Y1728D01*
Y1729D01*
X1084Y1732D01*
X1085Y1734D01*
X1090Y1735D01*
X1095D01*
X1100Y1734D01*
X1101Y1732D01*
X1102Y1729D01*
Y1726D01*
X1101Y1724D01*
X1097Y1721D01*
X1090Y1718D01*
X1087Y1716D01*
X1084Y1714D01*
X1082Y1709D01*
Y1705D01*
X1095Y1735D02*
X1098Y1734D01*
X1100Y1732D01*
X1101Y1729D01*
Y1726D01*
X1100Y1724D01*
X1095Y1721D01*
X1090Y1718D01*
X1082Y1708D02*
X1084Y1709D01*
X1087D01*
X1094Y1706D01*
X1098D01*
X1101Y1708D01*
X1102Y1709D01*
Y1712D01*
X1087Y1709D02*
X1094Y1705D01*
X1100D01*
X1101Y1706D01*
X1102Y1709D01*
X1107Y1729D02*
X1110Y1731D01*
X1114Y1735D01*
Y1705D01*
X1112Y1734D02*
Y1705D01*
X1107D02*
X1120D01*
X1284Y1971D02*
X1285Y1966D01*
Y1975D01*
X1284Y1971D01*
X1281Y1974D01*
X1277Y1975D01*
X1274D01*
X1270Y1974D01*
X1267Y1971D01*
X1265Y1968D01*
X1264Y1964D01*
Y1956D01*
X1265Y1952D01*
X1267Y1949D01*
X1270Y1946D01*
X1274Y1945D01*
X1277D01*
X1281Y1946D01*
X1284Y1949D01*
X1285Y1952D01*
X1274Y1975D02*
X1271Y1974D01*
X1268Y1971D01*
X1267Y1968D01*
X1265Y1964D01*
Y1956D01*
X1267Y1952D01*
X1268Y1949D01*
X1271Y1946D01*
X1274Y1945D01*
X1291Y1969D02*
X1292Y1968D01*
X1291Y1966D01*
X1290Y1968D01*
Y1969D01*
X1291Y1972D01*
X1292Y1974D01*
X1297Y1975D01*
X1302D01*
X1307Y1974D01*
X1308Y1972D01*
X1310Y1969D01*
Y1966D01*
X1308Y1964D01*
X1304Y1961D01*
X1297Y1958D01*
X1294Y1956D01*
X1291Y1954D01*
X1290Y1949D01*
Y1945D01*
X1302Y1975D02*
X1305Y1974D01*
X1307Y1972D01*
X1308Y1969D01*
Y1966D01*
X1307Y1964D01*
X1302Y1961D01*
X1297Y1958D01*
X1290Y1948D02*
X1291Y1949D01*
X1294D01*
X1301Y1946D01*
X1305D01*
X1308Y1948D01*
X1310Y1949D01*
Y1952D01*
X1294Y1949D02*
X1301Y1945D01*
X1307D01*
X1308Y1946D01*
X1310Y1949D01*
X1323Y1975D02*
X1318Y1974D01*
X1315Y1969D01*
X1314Y1962D01*
Y1958D01*
X1315Y1951D01*
X1318Y1946D01*
X1323Y1945D01*
X1325D01*
X1330Y1946D01*
X1333Y1951D01*
X1334Y1958D01*
Y1962D01*
X1333Y1969D01*
X1330Y1974D01*
X1325Y1975D01*
X1323D01*
X1320Y1974D01*
X1318Y1972D01*
X1317Y1969D01*
X1315Y1962D01*
Y1958D01*
X1317Y1951D01*
X1318Y1948D01*
X1320Y1946D01*
X1323Y1945D01*
X1325D02*
X1328Y1946D01*
X1330Y1948D01*
X1331Y1951D01*
X1333Y1958D01*
Y1962D01*
X1331Y1969D01*
X1330Y1972D01*
X1328Y1974D01*
X1325Y1975D01*
X1040Y1841D02*
X1041Y1836D01*
Y1845D01*
X1040Y1841D01*
X1037Y1844D01*
X1033Y1845D01*
X1030D01*
X1026Y1844D01*
X1023Y1841D01*
X1021Y1838D01*
X1020Y1834D01*
Y1826D01*
X1021Y1822D01*
X1023Y1819D01*
X1026Y1816D01*
X1030Y1815D01*
X1033D01*
X1037Y1816D01*
X1040Y1819D01*
X1041Y1822D01*
X1030Y1845D02*
X1027Y1844D01*
X1024Y1841D01*
X1023Y1838D01*
X1021Y1834D01*
Y1826D01*
X1023Y1822D01*
X1024Y1819D01*
X1027Y1816D01*
X1030Y1815D01*
X1046Y1839D02*
X1049Y1841D01*
X1053Y1845D01*
Y1815D01*
X1051Y1844D02*
Y1815D01*
X1046D02*
X1059D01*
X1082Y1835D02*
X1081Y1831D01*
X1078Y1828D01*
X1074Y1826D01*
X1072D01*
X1068Y1828D01*
X1065Y1831D01*
X1064Y1835D01*
Y1836D01*
X1065Y1841D01*
X1068Y1844D01*
X1072Y1845D01*
X1075D01*
X1079Y1844D01*
X1082Y1841D01*
X1084Y1836D01*
Y1828D01*
X1082Y1822D01*
X1081Y1819D01*
X1078Y1816D01*
X1074Y1815D01*
X1069D01*
X1067Y1816D01*
X1065Y1819D01*
Y1821D01*
X1067Y1822D01*
X1068Y1821D01*
X1067Y1819D01*
X1072Y1826D02*
X1069Y1828D01*
X1067Y1831D01*
X1065Y1835D01*
Y1836D01*
X1067Y1841D01*
X1069Y1844D01*
X1072Y1845D01*
X1075D02*
X1078Y1844D01*
X1081Y1841D01*
X1082Y1836D01*
Y1828D01*
X1081Y1822D01*
X1079Y1819D01*
X1077Y1816D01*
X1074Y1815D01*
X1019Y959D02*
X1020Y954D01*
Y963D01*
X1019Y959D01*
X1016Y962D01*
X1012Y963D01*
X1009D01*
X1005Y962D01*
X1002Y959D01*
X1000Y956D01*
X999Y952D01*
Y944D01*
X1000Y940D01*
X1002Y937D01*
X1005Y934D01*
X1009Y933D01*
X1012D01*
X1016Y934D01*
X1019Y937D01*
X1020Y940D01*
X1009Y963D02*
X1006Y962D01*
X1003Y959D01*
X1002Y956D01*
X1000Y952D01*
Y944D01*
X1002Y940D01*
X1003Y937D01*
X1006Y934D01*
X1009Y933D01*
X1025Y957D02*
X1028Y959D01*
X1032Y963D01*
Y933D01*
X1030Y962D02*
Y933D01*
X1025D02*
X1038D01*
X1051Y963D02*
X1047Y962D01*
X1044Y957D01*
X1043Y950D01*
Y946D01*
X1044Y939D01*
X1047Y934D01*
X1051Y933D01*
X1054D01*
X1058Y934D01*
X1061Y939D01*
X1063Y946D01*
Y950D01*
X1061Y957D01*
X1058Y962D01*
X1054Y963D01*
X1051D01*
X1048Y962D01*
X1047Y960D01*
X1046Y957D01*
X1044Y950D01*
Y946D01*
X1046Y939D01*
X1047Y936D01*
X1048Y934D01*
X1051Y933D01*
X1054D02*
X1057Y934D01*
X1058Y936D01*
X1060Y939D01*
X1061Y946D01*
Y950D01*
X1060Y957D01*
X1058Y960D01*
X1057Y962D01*
X1054Y963D01*
X776Y1031D02*
X777Y1026D01*
Y1035D01*
X776Y1031D01*
X773Y1034D01*
X769Y1035D01*
X766D01*
X761Y1034D01*
X759Y1031D01*
X757Y1028D01*
X756Y1024D01*
Y1016D01*
X757Y1012D01*
X759Y1009D01*
X761Y1006D01*
X766Y1005D01*
X769D01*
X773Y1006D01*
X776Y1009D01*
X777Y1012D01*
X766Y1035D02*
X763Y1034D01*
X760Y1031D01*
X759Y1028D01*
X757Y1024D01*
Y1016D01*
X759Y1012D01*
X760Y1009D01*
X763Y1006D01*
X766Y1005D01*
X800Y1025D02*
X799Y1021D01*
X796Y1018D01*
X791Y1016D01*
X790D01*
X786Y1018D01*
X783Y1021D01*
X781Y1025D01*
Y1026D01*
X783Y1031D01*
X786Y1034D01*
X790Y1035D01*
X793D01*
X797Y1034D01*
X800Y1031D01*
X801Y1026D01*
Y1018D01*
X800Y1012D01*
X799Y1009D01*
X796Y1006D01*
X791Y1005D01*
X787D01*
X784Y1006D01*
X783Y1009D01*
Y1011D01*
X784Y1012D01*
X786Y1011D01*
X784Y1009D01*
X790Y1016D02*
X787Y1018D01*
X784Y1021D01*
X783Y1025D01*
Y1026D01*
X784Y1031D01*
X787Y1034D01*
X790Y1035D01*
X793D02*
X796Y1034D01*
X799Y1031D01*
X800Y1026D01*
Y1018D01*
X799Y1012D01*
X797Y1009D01*
X794Y1006D01*
X791Y1005D01*
X1632Y198D02*
X1633Y193D01*
Y202D01*
X1632Y198D01*
X1629Y201D01*
X1625Y202D01*
X1622D01*
X1618Y201D01*
X1615Y198D01*
X1613Y195D01*
X1612Y191D01*
Y183D01*
X1613Y179D01*
X1615Y176D01*
X1618Y173D01*
X1622Y172D01*
X1625D01*
X1629Y173D01*
X1632Y176D01*
X1633Y179D01*
X1622Y202D02*
X1619Y201D01*
X1616Y198D01*
X1615Y195D01*
X1613Y191D01*
Y183D01*
X1615Y179D01*
X1616Y176D01*
X1619Y173D01*
X1622Y172D01*
X1645Y202D02*
X1641Y201D01*
X1639Y198D01*
Y193D01*
X1641Y191D01*
X1645Y189D01*
X1651D01*
X1655Y191D01*
X1656Y193D01*
Y198D01*
X1655Y201D01*
X1651Y202D01*
X1645D01*
X1642Y201D01*
X1641Y198D01*
Y193D01*
X1642Y191D01*
X1645Y189D01*
X1651D02*
X1653Y191D01*
X1655Y193D01*
Y198D01*
X1653Y201D01*
X1651Y202D01*
X1645Y189D02*
X1641Y188D01*
X1639Y186D01*
X1638Y183D01*
Y178D01*
X1639Y175D01*
X1641Y173D01*
X1645Y172D01*
X1651D01*
X1655Y173D01*
X1656Y175D01*
X1658Y178D01*
Y183D01*
X1656Y186D01*
X1655Y188D01*
X1651Y189D01*
X1645D02*
X1642Y188D01*
X1641Y186D01*
X1639Y183D01*
Y178D01*
X1641Y175D01*
X1642Y173D01*
X1645Y172D01*
X1651D02*
X1653Y173D01*
X1655Y175D01*
X1656Y178D01*
Y183D01*
X1655Y186D01*
X1653Y188D01*
X1651Y189D01*
D20*
X478Y2292D02*
X510D01*
X478Y1978D02*
Y2292D01*
Y1978D02*
X506D01*
X584D02*
X612D01*
Y2292D01*
X584D02*
X612D01*
D21*
X1192Y996D02*
D03*
D22*
X1192Y814D02*
D03*
D23*
X1368Y814D02*
D03*
D24*
X1368Y996D02*
D03*
D25*
X1423Y390D02*
D03*
X1196Y390D02*
D03*
X872Y395D02*
D03*
X1099Y395D02*
D03*
D26*
X1408Y390D02*
D03*
X886Y395D02*
D03*
M02*
