G04*
G04 #@! TF.GenerationSoftware,Altium Limited,Altium Designer,19.0.15 (446)*
G04*
G04 Layer_Color=255*
%FSLAX23Y23*%
%MOIN*%
G70*
G01*
G75*
%ADD28R,0.037X0.051*%
%ADD30R,0.051X0.037*%
%ADD97O,0.039X0.079*%
%ADD98C,0.028*%
%ADD99C,0.067*%
%ADD100O,0.071X0.094*%
%ADD101R,0.071X0.094*%
G04:AMPARAMS|DCode=102|XSize=80mil|YSize=60mil|CornerRadius=0mil|HoleSize=0mil|Usage=FLASHONLY|Rotation=90.000|XOffset=0mil|YOffset=0mil|HoleType=Round|Shape=Octagon|*
%AMOCTAGOND102*
4,1,8,0.015,0.040,-0.015,0.040,-0.030,0.025,-0.030,-0.025,-0.015,-0.040,0.015,-0.040,0.030,-0.025,0.030,0.025,0.015,0.040,0.0*
%
%ADD102OCTAGOND102*%

G04:AMPARAMS|DCode=106|XSize=67mil|YSize=24mil|CornerRadius=3mil|HoleSize=0mil|Usage=FLASHONLY|Rotation=0.000|XOffset=0mil|YOffset=0mil|HoleType=Round|Shape=RoundedRectangle|*
%AMROUNDEDRECTD106*
21,1,0.067,0.018,0,0,0.0*
21,1,0.061,0.024,0,0,0.0*
1,1,0.006,0.030,-0.009*
1,1,0.006,-0.030,-0.009*
1,1,0.006,-0.030,0.009*
1,1,0.006,0.030,0.009*
%
%ADD106ROUNDEDRECTD106*%
D28*
X1276Y1418D02*
D03*
X1354Y1418D02*
D03*
X1294Y1580D02*
D03*
X1216Y1580D02*
D03*
X857Y1695D02*
D03*
X936Y1695D02*
D03*
X714Y1765D02*
D03*
X793Y1765D02*
D03*
X526Y1561D02*
D03*
X604Y1561D02*
D03*
X526Y1626D02*
D03*
X604Y1626D02*
D03*
X589Y1726D02*
D03*
X511D02*
D03*
X589Y1790D02*
D03*
X511D02*
D03*
X272Y1355D02*
D03*
X350D02*
D03*
X272Y1426D02*
D03*
X350D02*
D03*
X1294Y1650D02*
D03*
X1216Y1650D02*
D03*
X793Y1695D02*
D03*
X714Y1695D02*
D03*
D30*
X1113Y1034D02*
D03*
X1113Y956D02*
D03*
X1294Y1193D02*
D03*
X1294Y1272D02*
D03*
X1359Y1193D02*
D03*
X1359Y1272D02*
D03*
X1429Y1193D02*
D03*
X1429Y1272D02*
D03*
X1461Y1464D02*
D03*
X1461Y1386D02*
D03*
X1531Y1464D02*
D03*
X1531Y1386D02*
D03*
X425Y1701D02*
D03*
X425Y1622D02*
D03*
D97*
X735Y2095D02*
D03*
X735Y2251D02*
D03*
X1075Y2251D02*
D03*
X1075Y2095D02*
D03*
D98*
X1019Y2110D02*
D03*
X790Y2110D02*
D03*
D99*
X1767Y467D02*
D03*
Y367D02*
D03*
Y567D02*
D03*
Y667D02*
D03*
Y767D02*
D03*
D100*
X1627Y977D02*
D03*
X1827D02*
D03*
D101*
X1727D02*
D03*
D102*
X1620Y1440D02*
D03*
X1720D02*
D03*
X1820D02*
D03*
X1620Y1550D02*
D03*
X1720D02*
D03*
X1820D02*
D03*
X1620Y1220D02*
D03*
X1720D02*
D03*
X1820D02*
D03*
X1620Y1330D02*
D03*
X1720D02*
D03*
X1820D02*
D03*
X250Y830D02*
D03*
X150D02*
D03*
X50D02*
D03*
X250Y940D02*
D03*
X150D02*
D03*
X50D02*
D03*
X250Y1050D02*
D03*
X150D02*
D03*
X50D02*
D03*
X250Y1160D02*
D03*
X150D02*
D03*
X50D02*
D03*
D106*
X1200Y935D02*
D03*
Y985D02*
D03*
Y1035D02*
D03*
Y1085D02*
D03*
X1487D02*
D03*
Y1035D02*
D03*
Y985D02*
D03*
Y935D02*
D03*
M02*
