M48
;Layer_Color=5050912
;FILE_FORMAT=2:3
INCH,LZ
;TYPE=PLATED
T1F00S00C0.010
%
T01
X00178Y00465
X00143Y00504
X00145Y00604
Y00706
X0032Y00704
X00319Y00603
X00243Y01365
X00242Y01406
X0025Y01661
X00249Y01699
X00257Y01964
X00258Y02005
X00702Y01896
X00665Y0147
X00703Y0142
X00856Y01423
X00833Y01449
Y01488
X01018Y01476
X01004Y01547
X00992Y0167
X01004Y01204
X01043Y01216
X01142Y01205
X01271Y01232
X01266Y0139
X01161Y0135
X01023Y01111
X01607Y01745
X01608Y01785
X01398Y02178
M30
