G04*
G04 #@! TF.GenerationSoftware,Altium Limited,Altium Designer,19.0.15 (446)*
G04*
G04 Layer_Physical_Order=1*
G04 Layer_Color=255*
%FSLAX23Y23*%
%MOIN*%
G70*
G01*
G75*
%ADD15C,0.008*%
%ADD17C,0.010*%
%ADD18C,0.020*%
G04:AMPARAMS|DCode=27|XSize=78mil|YSize=24mil|CornerRadius=6mil|HoleSize=0mil|Usage=FLASHONLY|Rotation=270.000|XOffset=0mil|YOffset=0mil|HoleType=Round|Shape=RoundedRectangle|*
%AMROUNDEDRECTD27*
21,1,0.078,0.011,0,0,270.0*
21,1,0.065,0.024,0,0,270.0*
1,1,0.013,-0.005,-0.032*
1,1,0.013,-0.005,0.032*
1,1,0.013,0.005,0.032*
1,1,0.013,0.005,-0.032*
%
%ADD27ROUNDEDRECTD27*%
%ADD28R,0.037X0.051*%
%ADD29R,0.039X0.014*%
%ADD30R,0.051X0.037*%
%ADD31R,0.037X0.033*%
%ADD32R,0.120X0.128*%
G04:AMPARAMS|DCode=33|XSize=92mil|YSize=61mil|CornerRadius=15mil|HoleSize=0mil|Usage=FLASHONLY|Rotation=270.000|XOffset=0mil|YOffset=0mil|HoleType=Round|Shape=RoundedRectangle|*
%AMROUNDEDRECTD33*
21,1,0.092,0.031,0,0,270.0*
21,1,0.061,0.061,0,0,270.0*
1,1,0.031,-0.015,-0.031*
1,1,0.031,-0.015,0.031*
1,1,0.031,0.015,0.031*
1,1,0.031,0.015,-0.031*
%
%ADD33ROUNDEDRECTD33*%
%ADD34R,0.091X0.091*%
%ADD35R,0.063X0.055*%
%ADD36R,0.033X0.014*%
%ADD37R,0.014X0.033*%
%ADD38R,0.051X0.063*%
%ADD39R,0.063X0.051*%
G04:AMPARAMS|DCode=40|XSize=58mil|YSize=11mil|CornerRadius=1mil|HoleSize=0mil|Usage=FLASHONLY|Rotation=180.000|XOffset=0mil|YOffset=0mil|HoleType=Round|Shape=RoundedRectangle|*
%AMROUNDEDRECTD40*
21,1,0.058,0.008,0,0,180.0*
21,1,0.055,0.011,0,0,180.0*
1,1,0.003,-0.028,0.004*
1,1,0.003,0.028,0.004*
1,1,0.003,0.028,-0.004*
1,1,0.003,-0.028,-0.004*
%
%ADD40ROUNDEDRECTD40*%
G04:AMPARAMS|DCode=41|XSize=55mil|YSize=5mil|CornerRadius=1mil|HoleSize=0mil|Usage=FLASHONLY|Rotation=180.000|XOffset=0mil|YOffset=0mil|HoleType=Round|Shape=RoundedRectangle|*
%AMROUNDEDRECTD41*
21,1,0.055,0.004,0,0,180.0*
21,1,0.054,0.005,0,0,180.0*
1,1,0.001,-0.027,0.002*
1,1,0.001,0.027,0.002*
1,1,0.001,0.027,-0.002*
1,1,0.001,-0.027,-0.002*
%
%ADD41ROUNDEDRECTD41*%
G04:AMPARAMS|DCode=42|XSize=58mil|YSize=11mil|CornerRadius=1mil|HoleSize=0mil|Usage=FLASHONLY|Rotation=90.000|XOffset=0mil|YOffset=0mil|HoleType=Round|Shape=RoundedRectangle|*
%AMROUNDEDRECTD42*
21,1,0.058,0.008,0,0,90.0*
21,1,0.055,0.011,0,0,90.0*
1,1,0.003,0.004,0.028*
1,1,0.003,0.004,-0.028*
1,1,0.003,-0.004,-0.028*
1,1,0.003,-0.004,0.028*
%
%ADD42ROUNDEDRECTD42*%
G04:AMPARAMS|DCode=43|XSize=55mil|YSize=5mil|CornerRadius=1mil|HoleSize=0mil|Usage=FLASHONLY|Rotation=90.000|XOffset=0mil|YOffset=0mil|HoleType=Round|Shape=RoundedRectangle|*
%AMROUNDEDRECTD43*
21,1,0.055,0.004,0,0,90.0*
21,1,0.054,0.005,0,0,90.0*
1,1,0.001,0.002,0.027*
1,1,0.001,0.002,-0.027*
1,1,0.001,-0.002,-0.027*
1,1,0.001,-0.002,0.027*
%
%ADD43ROUNDEDRECTD43*%
%ADD44R,0.035X0.031*%
%ADD45R,0.020X0.037*%
%ADD46R,0.026X0.039*%
%ADD47R,0.071X0.047*%
%ADD48R,0.061X0.024*%
%ADD49R,0.061X0.024*%
%ADD50R,0.071X0.047*%
G04:AMPARAMS|DCode=51|XSize=150mil|YSize=200mil|CornerRadius=38mil|HoleSize=0mil|Usage=FLASHONLY|Rotation=0.000|XOffset=0mil|YOffset=0mil|HoleType=Round|Shape=RoundedRectangle|*
%AMROUNDEDRECTD51*
21,1,0.150,0.125,0,0,0.0*
21,1,0.075,0.200,0,0,0.0*
1,1,0.075,0.038,-0.063*
1,1,0.075,-0.038,-0.063*
1,1,0.075,-0.038,0.063*
1,1,0.075,0.038,0.063*
%
%ADD51ROUNDEDRECTD51*%
%ADD52R,0.012X0.039*%
%ADD53R,0.024X0.039*%
%ADD54R,0.059X0.035*%
%ADD55R,0.059X0.079*%
%ADD56R,0.150X0.050*%
%ADD94R,0.130X0.095*%
%ADD95C,0.015*%
%ADD96C,0.030*%
%ADD97O,0.039X0.079*%
%ADD98C,0.028*%
%ADD99C,0.067*%
%ADD100O,0.071X0.094*%
%ADD101R,0.071X0.094*%
G04:AMPARAMS|DCode=102|XSize=80mil|YSize=60mil|CornerRadius=0mil|HoleSize=0mil|Usage=FLASHONLY|Rotation=90.000|XOffset=0mil|YOffset=0mil|HoleType=Round|Shape=Octagon|*
%AMOCTAGOND102*
4,1,8,0.015,0.040,-0.015,0.040,-0.030,0.025,-0.030,-0.025,-0.015,-0.040,0.015,-0.040,0.030,-0.025,0.030,0.025,0.015,0.040,0.0*
%
%ADD102OCTAGOND102*%

%ADD103C,0.020*%
%ADD104C,0.030*%
%ADD105C,0.035*%
G36*
X100Y2321D02*
X1790Y2321D01*
X1790Y2321D01*
X1795Y2320D01*
X1809Y2319D01*
X1827Y2315D01*
X1845Y2308D01*
X1861Y2298D01*
X1875Y2285D01*
X1888Y2271D01*
X1898Y2255D01*
X1905Y2237D01*
X1909Y2219D01*
X1910Y2205D01*
X1911Y2200D01*
X1912Y2196D01*
X1912Y2196D01*
X1914Y2194D01*
X1916Y2192D01*
X1916Y98D01*
X1914Y96D01*
X1912Y94D01*
X1912Y94D01*
X1911Y90D01*
X1910Y85D01*
X1909Y71D01*
X1905Y53D01*
X1898Y35D01*
X1888Y19D01*
X1875Y5D01*
X1861Y-8D01*
X1845Y-18D01*
X1827Y-25D01*
X1809Y-29D01*
X1790Y-31D01*
X1790Y-31D01*
X100D01*
X100Y-31D01*
X95Y-30D01*
X81Y-29D01*
X63Y-25D01*
X45Y-18D01*
X29Y-8D01*
X15Y5D01*
X2Y19D01*
X-8Y35D01*
X-15Y53D01*
X-19Y71D01*
X-20Y85D01*
X-21Y90D01*
X-21Y95D01*
X-21Y2200D01*
X-21Y2200D01*
X-20Y2205D01*
X-19Y2219D01*
X-15Y2237D01*
X-8Y2255D01*
X2Y2271D01*
X15Y2285D01*
X29Y2298D01*
X45Y2308D01*
X63Y2315D01*
X81Y2319D01*
X100Y2321D01*
X100Y2321D01*
D02*
G37*
%LPC*%
G36*
X1344Y2282D02*
X1276D01*
Y2277D01*
X1225D01*
X1221Y2276D01*
X1218Y2275D01*
X1214Y2270D01*
X1212Y2267D01*
X1211Y2263D01*
Y2262D01*
X1190D01*
Y2217D01*
X1250D01*
Y2259D01*
X1276D01*
Y2238D01*
X1344D01*
Y2282D01*
D02*
G37*
G36*
X1149Y2300D02*
X1145Y2299D01*
X1142Y2297D01*
X1140Y2295D01*
X1139Y2291D01*
Y2247D01*
X1139Y2246D01*
X1137Y2243D01*
X1136Y2239D01*
X1137Y2236D01*
X1139Y2233D01*
X1141Y2231D01*
X1145Y2230D01*
X1149Y2231D01*
X1151Y2233D01*
X1155Y2236D01*
X1157Y2239D01*
X1158Y2243D01*
Y2291D01*
X1157Y2295D01*
X1155Y2297D01*
X1152Y2299D01*
X1149Y2300D01*
D02*
G37*
G36*
X663Y2296D02*
X660Y2296D01*
X657Y2294D01*
X655Y2291D01*
X654Y2287D01*
Y2241D01*
X655Y2237D01*
X657Y2234D01*
X659Y2233D01*
X661Y2231D01*
X665Y2230D01*
X669Y2231D01*
X671Y2233D01*
X673Y2236D01*
X674Y2239D01*
X673Y2243D01*
X673Y2244D01*
Y2287D01*
X672Y2291D01*
X670Y2294D01*
X667Y2296D01*
X663Y2296D01*
D02*
G37*
G36*
X1463Y2206D02*
X1418D01*
Y2187D01*
X1409D01*
X1408Y2188D01*
X1403Y2191D01*
X1398Y2192D01*
X1393Y2191D01*
X1388Y2188D01*
X1385Y2183D01*
X1384Y2178D01*
X1385Y2173D01*
X1388Y2168D01*
X1393Y2165D01*
X1398Y2164D01*
X1403Y2165D01*
X1408Y2168D01*
X1409Y2169D01*
X1418D01*
Y2146D01*
X1463D01*
Y2206D01*
D02*
G37*
G36*
X1810Y2295D02*
X1797Y2293D01*
X1784Y2289D01*
X1772Y2283D01*
X1762Y2275D01*
X1753Y2264D01*
X1747Y2252D01*
X1743Y2240D01*
X1742Y2226D01*
X1743Y2213D01*
X1747Y2200D01*
X1753Y2188D01*
X1762Y2178D01*
X1772Y2169D01*
X1784Y2163D01*
X1797Y2159D01*
X1810Y2158D01*
X1823Y2159D01*
X1836Y2163D01*
X1848Y2169D01*
X1858Y2178D01*
X1867Y2188D01*
X1873Y2200D01*
X1877Y2213D01*
X1878Y2226D01*
X1877Y2240D01*
X1873Y2252D01*
X1867Y2264D01*
X1858Y2275D01*
X1848Y2283D01*
X1836Y2289D01*
X1823Y2293D01*
X1810Y2295D01*
D02*
G37*
G36*
X70D02*
X57Y2293D01*
X44Y2289D01*
X32Y2283D01*
X22Y2275D01*
X13Y2264D01*
X7Y2252D01*
X3Y2240D01*
X2Y2226D01*
X3Y2213D01*
X7Y2200D01*
X13Y2188D01*
X22Y2178D01*
X32Y2169D01*
X44Y2163D01*
X57Y2159D01*
X70Y2158D01*
X83Y2159D01*
X96Y2163D01*
X108Y2169D01*
X118Y2178D01*
X127Y2188D01*
X133Y2200D01*
X137Y2213D01*
X138Y2226D01*
X137Y2240D01*
X133Y2252D01*
X127Y2264D01*
X118Y2275D01*
X108Y2283D01*
X96Y2289D01*
X83Y2293D01*
X70Y2295D01*
D02*
G37*
G36*
X1542Y2206D02*
X1497D01*
Y2146D01*
X1507D01*
Y2104D01*
X1497D01*
Y2095D01*
X1473D01*
Y2106D01*
X1413D01*
Y2061D01*
X1473D01*
Y2072D01*
X1497D01*
Y2064D01*
X1541D01*
Y2104D01*
X1531D01*
Y2146D01*
X1542D01*
Y2206D01*
D02*
G37*
G36*
X790Y2128D02*
X783Y2127D01*
X777Y2123D01*
X773Y2117D01*
X772Y2110D01*
X773Y2103D01*
X777Y2097D01*
X783Y2093D01*
X790Y2092D01*
X797Y2093D01*
X803Y2097D01*
X807Y2103D01*
X808Y2110D01*
X807Y2117D01*
X803Y2123D01*
X797Y2127D01*
X790Y2128D01*
D02*
G37*
G36*
X1175Y2183D02*
X1115D01*
Y2169D01*
X970D01*
X967Y2168D01*
X964Y2166D01*
X964Y2166D01*
X948Y2150D01*
X946Y2147D01*
X946Y2144D01*
X946Y2144D01*
Y2087D01*
X924D01*
X924Y2091D01*
Y2111D01*
X923Y2115D01*
X921Y2118D01*
X915Y2123D01*
X912Y2125D01*
X909Y2126D01*
X881D01*
X877Y2125D01*
X874Y2123D01*
X869Y2118D01*
X867Y2115D01*
X866Y2111D01*
Y2091D01*
X865Y2087D01*
X846D01*
Y2087D01*
X844D01*
Y2150D01*
X843Y2153D01*
X841Y2156D01*
X841Y2156D01*
X831Y2166D01*
X828Y2168D01*
X825Y2169D01*
X825Y2169D01*
X695D01*
Y2183D01*
X635D01*
Y2138D01*
X695D01*
Y2152D01*
X822D01*
X828Y2147D01*
Y2090D01*
X824Y2087D01*
X821Y2087D01*
X792D01*
Y2039D01*
X794D01*
Y2033D01*
X790Y2027D01*
X789Y2020D01*
X790Y2013D01*
X794Y2006D01*
X801Y2002D01*
X808Y2001D01*
X815Y2002D01*
X822Y2006D01*
X826Y2013D01*
X827Y2020D01*
X826Y2027D01*
X822Y2033D01*
Y2036D01*
X826Y2039D01*
X828Y2039D01*
X845D01*
Y2039D01*
X862D01*
X864Y2034D01*
X861Y2031D01*
X859Y2028D01*
X858Y2025D01*
Y2000D01*
X851D01*
Y1953D01*
X851Y1953D01*
X825D01*
Y1967D01*
X765D01*
Y1922D01*
X825D01*
Y1936D01*
X852D01*
X859Y1929D01*
Y1898D01*
X851D01*
Y1850D01*
X859D01*
Y1827D01*
X838D01*
Y1782D01*
X897D01*
Y1827D01*
X876D01*
Y1850D01*
X883D01*
X884Y1850D01*
X888D01*
X889Y1850D01*
X921D01*
X922Y1850D01*
X926D01*
X927Y1850D01*
X934D01*
Y1827D01*
X913D01*
Y1782D01*
X972D01*
Y1827D01*
X951D01*
Y1850D01*
X959D01*
Y1898D01*
X927D01*
X926Y1898D01*
X922D01*
X919Y1902D01*
Y1909D01*
X918Y1914D01*
X915Y1919D01*
X910Y1922D01*
X905Y1923D01*
X900Y1922D01*
X895Y1919D01*
X892Y1914D01*
X891Y1909D01*
Y1900D01*
X888Y1898D01*
X884D01*
X883Y1898D01*
X876D01*
Y1932D01*
X876Y1932D01*
X875Y1936D01*
X873Y1938D01*
X873Y1938D01*
X864Y1947D01*
X866Y1952D01*
X884D01*
Y2000D01*
X877D01*
Y2021D01*
X881Y2025D01*
X884Y2025D01*
X887Y2024D01*
X888Y2022D01*
X900Y2010D01*
X903Y2008D01*
X907Y2007D01*
X928D01*
X932Y2003D01*
X932Y2002D01*
X931Y2000D01*
X926D01*
Y1952D01*
X959D01*
Y2000D01*
X953D01*
Y2009D01*
X952Y2013D01*
X950Y2015D01*
X943Y2023D01*
Y2039D01*
X964D01*
Y2039D01*
X983D01*
Y1927D01*
X984Y1924D01*
X987Y1923D01*
X1039D01*
X1042Y1924D01*
X1043Y1927D01*
Y2025D01*
X1042Y2028D01*
X1039Y2029D01*
X1018D01*
Y2087D01*
X1019Y2090D01*
X1023Y2093D01*
X1026Y2093D01*
X1032Y2097D01*
X1036Y2103D01*
X1037Y2110D01*
X1036Y2117D01*
X1032Y2123D01*
X1026Y2127D01*
X1019Y2128D01*
X1012Y2127D01*
X1006Y2123D01*
X1002Y2117D01*
X1001Y2110D01*
X1002Y2103D01*
X1005Y2099D01*
X1002Y2094D01*
X987D01*
X984Y2093D01*
X983Y2090D01*
Y2087D01*
X964D01*
X962Y2091D01*
Y2141D01*
X974Y2152D01*
X1115D01*
Y2138D01*
X1175D01*
Y2183D01*
D02*
G37*
G36*
X1864Y2128D02*
X1785D01*
Y2073D01*
X1864D01*
Y2128D01*
D02*
G37*
G36*
X78Y2123D02*
X-1D01*
Y2068D01*
X78D01*
Y2123D01*
D02*
G37*
G36*
X1308Y2137D02*
X1304Y2136D01*
X1301Y2134D01*
X1299Y2131D01*
X1298Y2128D01*
Y2061D01*
X1299Y2057D01*
X1301Y2055D01*
X1304Y2053D01*
X1308Y2052D01*
X1311Y2053D01*
X1314Y2055D01*
X1316Y2057D01*
X1317Y2061D01*
Y2128D01*
X1316Y2131D01*
X1314Y2134D01*
X1311Y2136D01*
X1308Y2137D01*
D02*
G37*
G36*
X1619Y2066D02*
X1576D01*
Y2027D01*
X1619D01*
Y2038D01*
X1638D01*
Y2034D01*
X1707D01*
Y2065D01*
X1638D01*
Y2061D01*
X1619D01*
Y2066D01*
D02*
G37*
G36*
X226Y2020D02*
X157D01*
Y1989D01*
X226D01*
Y1997D01*
X247D01*
X248Y1995D01*
X253Y1991D01*
X258Y1990D01*
X263Y1991D01*
X268Y1995D01*
X271Y1999D01*
X272Y2005D01*
X271Y2010D01*
X268Y2015D01*
X263Y2018D01*
X258Y2019D01*
X253Y2018D01*
X248Y2015D01*
X247Y2013D01*
X226D01*
Y2020D01*
D02*
G37*
G36*
X579Y2033D02*
X511D01*
Y1947D01*
X579D01*
Y1981D01*
X603D01*
X604Y1980D01*
X609Y1977D01*
X614Y1976D01*
X619Y1977D01*
X624Y1980D01*
X627Y1985D01*
X628Y1990D01*
X627Y1995D01*
X624Y2000D01*
X619Y2003D01*
X614Y2004D01*
X609Y2003D01*
X604Y2000D01*
X603Y1999D01*
X579D01*
Y2033D01*
D02*
G37*
G36*
X226Y1981D02*
X157D01*
Y1950D01*
X226D01*
Y1956D01*
X246D01*
X247Y1954D01*
X252Y1951D01*
X257Y1950D01*
X263Y1951D01*
X267Y1954D01*
X270Y1959D01*
X272Y1964D01*
X270Y1970D01*
X267Y1974D01*
X263Y1977D01*
X257Y1979D01*
X252Y1977D01*
X247Y1974D01*
X246Y1972D01*
X226D01*
Y1981D01*
D02*
G37*
G36*
X1554Y1962D02*
X1509D01*
Y1945D01*
X1494D01*
X1493Y1947D01*
X1486Y1951D01*
X1479Y1952D01*
X1472Y1951D01*
X1465Y1947D01*
X1461Y1940D01*
X1460Y1933D01*
X1461Y1926D01*
X1465Y1919D01*
X1472Y1915D01*
X1479Y1914D01*
X1486Y1915D01*
X1489Y1917D01*
X1509D01*
Y1903D01*
X1554D01*
Y1962D01*
D02*
G37*
G36*
X1707Y2026D02*
X1638D01*
Y1995D01*
X1661D01*
Y1962D01*
X1643Y1944D01*
X1633D01*
Y1962D01*
X1588D01*
Y1903D01*
X1633D01*
Y1921D01*
X1647D01*
X1652Y1922D01*
X1656Y1924D01*
X1681Y1949D01*
X1683Y1953D01*
X1684Y1957D01*
Y1995D01*
X1707D01*
Y2026D01*
D02*
G37*
G36*
X1864Y1987D02*
X1785D01*
Y1932D01*
X1864D01*
Y1987D01*
D02*
G37*
G36*
X754Y1926D02*
X709D01*
Y1914D01*
X704Y1910D01*
X702Y1910D01*
X697Y1909D01*
X692Y1906D01*
X689Y1901D01*
X688Y1896D01*
X689Y1891D01*
X692Y1886D01*
X697Y1883D01*
X702Y1882D01*
X704Y1882D01*
X709Y1878D01*
Y1866D01*
X754D01*
Y1926D01*
D02*
G37*
G36*
X1443Y2014D02*
X1439Y2013D01*
X1437Y2011D01*
X1432Y2007D01*
X1430Y2004D01*
X1429Y2000D01*
Y1890D01*
X1430Y1886D01*
X1432Y1884D01*
X1435Y1882D01*
X1439Y1881D01*
X1442Y1882D01*
X1445Y1884D01*
X1447Y1886D01*
X1448Y1890D01*
Y1996D01*
X1449Y1998D01*
X1451Y2001D01*
X1452Y2005D01*
X1451Y2008D01*
X1449Y2011D01*
X1447Y2013D01*
X1443Y2014D01*
D02*
G37*
G36*
X617Y1930D02*
X558D01*
Y1860D01*
X617D01*
Y1886D01*
X630D01*
Y1866D01*
X675D01*
Y1926D01*
X630D01*
Y1904D01*
X617D01*
Y1930D01*
D02*
G37*
G36*
X825Y1888D02*
X765D01*
Y1856D01*
X758D01*
X755Y1856D01*
X752Y1856D01*
X634D01*
X630Y1855D01*
X626Y1852D01*
X615Y1842D01*
X513D01*
X510Y1843D01*
X505Y1844D01*
X500Y1843D01*
X495Y1840D01*
X492Y1836D01*
X491Y1830D01*
X492Y1825D01*
X495Y1820D01*
X500Y1817D01*
X505Y1816D01*
X510Y1817D01*
X513Y1818D01*
X607D01*
Y1810D01*
X510D01*
Y1773D01*
X510Y1771D01*
X508Y1771D01*
X471D01*
Y1736D01*
X466Y1733D01*
X463Y1735D01*
X461Y1737D01*
X457Y1738D01*
X455D01*
Y1754D01*
X395D01*
Y1709D01*
X395D01*
Y1704D01*
X395D01*
Y1658D01*
X455D01*
Y1672D01*
X471D01*
Y1651D01*
X479D01*
Y1639D01*
X478Y1638D01*
X475Y1633D01*
X474Y1628D01*
X475Y1623D01*
X478Y1618D01*
X483Y1615D01*
X488Y1614D01*
X493Y1615D01*
X498Y1618D01*
X501Y1623D01*
X502Y1628D01*
X501Y1633D01*
X498Y1638D01*
X497Y1639D01*
Y1651D01*
X510D01*
Y1611D01*
X610D01*
Y1653D01*
X551D01*
X549Y1658D01*
X555Y1665D01*
X557Y1667D01*
X558Y1671D01*
Y1717D01*
X557Y1721D01*
X555Y1723D01*
X546Y1733D01*
X546Y1733D01*
X546Y1733D01*
X532Y1747D01*
X529Y1749D01*
X526Y1749D01*
X512D01*
Y1767D01*
X512Y1769D01*
X514Y1769D01*
X626D01*
X628Y1769D01*
X628Y1767D01*
Y1749D01*
X599D01*
X598Y1750D01*
X593Y1753D01*
X588Y1754D01*
X583Y1753D01*
X578Y1750D01*
X575Y1746D01*
X574Y1740D01*
X575Y1735D01*
X578Y1730D01*
X583Y1727D01*
X588Y1726D01*
X593Y1727D01*
X598Y1730D01*
X599Y1731D01*
X628D01*
Y1690D01*
X669D01*
Y1729D01*
Y1771D01*
X666D01*
X664Y1776D01*
X666Y1779D01*
X667Y1784D01*
X666Y1789D01*
X663Y1794D01*
X658Y1797D01*
X653Y1798D01*
X647Y1797D01*
X643Y1794D01*
X639Y1789D01*
X638Y1784D01*
X639Y1779D01*
X641Y1776D01*
X639Y1771D01*
X632D01*
X630Y1771D01*
X630Y1773D01*
Y1785D01*
X631Y1789D01*
Y1824D01*
X639Y1832D01*
X745D01*
X745Y1832D01*
X750Y1829D01*
X755Y1828D01*
X760Y1829D01*
X765Y1832D01*
X765Y1832D01*
X773D01*
X778Y1833D01*
X782Y1836D01*
X789Y1843D01*
X825D01*
Y1888D01*
D02*
G37*
G36*
X1861Y1903D02*
X1782D01*
Y1848D01*
X1861D01*
Y1903D01*
D02*
G37*
G36*
X78Y1902D02*
X-1D01*
Y1847D01*
X78D01*
Y1902D01*
D02*
G37*
G36*
X1250Y2183D02*
X1190D01*
Y2138D01*
X1208D01*
Y2093D01*
X1209Y2089D01*
X1212Y2085D01*
X1267Y2029D01*
Y1826D01*
X1231D01*
X1229Y1831D01*
X1235Y1838D01*
X1238Y1842D01*
X1239Y1846D01*
Y1850D01*
X1239Y1852D01*
Y1860D01*
X1241D01*
Y1905D01*
X1214D01*
Y1860D01*
X1216D01*
Y1853D01*
X1215Y1851D01*
Y1851D01*
X1214Y1850D01*
X1174D01*
X1170Y1853D01*
Y1912D01*
X1178D01*
X1181Y1913D01*
X1182Y1916D01*
Y2029D01*
X1181Y2032D01*
X1178Y2033D01*
X1061D01*
X1058Y2032D01*
X1057Y2029D01*
Y1844D01*
X1058Y1841D01*
X1061Y1840D01*
X1151D01*
X1161Y1830D01*
X1165Y1827D01*
X1169Y1826D01*
X1191D01*
X1195Y1822D01*
Y1622D01*
X1196Y1619D01*
X1199Y1618D01*
X1247D01*
Y1542D01*
X1245Y1538D01*
X1190D01*
X1186Y1536D01*
X1184Y1532D01*
Y1524D01*
X1184Y1522D01*
X1181Y1517D01*
X1142D01*
X1141Y1519D01*
X1136Y1522D01*
X1131Y1523D01*
X1126Y1522D01*
X1121Y1519D01*
X1118Y1514D01*
X1117Y1509D01*
X1118Y1504D01*
X1121Y1499D01*
X1126Y1496D01*
X1131Y1495D01*
X1136Y1496D01*
X1141Y1499D01*
X1181D01*
X1184Y1494D01*
X1184Y1492D01*
Y1484D01*
X1185Y1482D01*
X1185Y1478D01*
X1185Y1475D01*
X1184Y1473D01*
Y1464D01*
X1184Y1463D01*
X1181Y1458D01*
X1178D01*
X1173Y1459D01*
X1172Y1464D01*
X1169Y1469D01*
X1164Y1472D01*
X1159Y1473D01*
X1154Y1472D01*
X1149Y1469D01*
X1146Y1464D01*
X1145Y1459D01*
X1146Y1454D01*
X1149Y1449D01*
X1154Y1446D01*
X1158Y1445D01*
X1159Y1443D01*
X1158Y1440D01*
X1157Y1438D01*
X1112D01*
X1111Y1438D01*
X1102D01*
X1101Y1439D01*
X1096Y1442D01*
X1091Y1443D01*
X1086Y1442D01*
X1081Y1439D01*
X1078Y1434D01*
X1077Y1429D01*
X1078Y1424D01*
X1081Y1419D01*
X1086Y1416D01*
X1091Y1415D01*
X1096Y1416D01*
X1101Y1419D01*
X1102Y1420D01*
X1144D01*
X1147Y1415D01*
X1147Y1414D01*
X1146Y1409D01*
X1147Y1404D01*
X1150Y1399D01*
X1155Y1396D01*
X1160Y1395D01*
X1165Y1396D01*
X1170Y1399D01*
X1171Y1400D01*
X1181D01*
X1184Y1395D01*
X1184Y1394D01*
Y1386D01*
X1185Y1384D01*
X1182Y1379D01*
X1181D01*
X1177Y1378D01*
X1174Y1376D01*
X1162Y1364D01*
X1161Y1364D01*
X1156Y1363D01*
X1151Y1360D01*
X1148Y1355D01*
X1147Y1350D01*
X1148Y1345D01*
X1151Y1340D01*
X1156Y1337D01*
X1161Y1336D01*
X1166Y1337D01*
X1168Y1334D01*
X1169Y1333D01*
X1159Y1322D01*
X1157Y1320D01*
X1156Y1316D01*
Y1218D01*
X1155Y1218D01*
X1151Y1216D01*
X1147Y1218D01*
X1142Y1219D01*
X1137Y1218D01*
X1132Y1215D01*
X1129Y1210D01*
X1128Y1205D01*
X1129Y1200D01*
X1131Y1196D01*
X1131Y1193D01*
X1131Y1193D01*
X1128Y1191D01*
X1126Y1190D01*
X1118D01*
X1116Y1189D01*
X1115Y1189D01*
X1110Y1191D01*
Y1221D01*
X1111Y1222D01*
X1114Y1227D01*
X1115Y1232D01*
X1114Y1237D01*
X1111Y1242D01*
X1106Y1245D01*
X1101Y1246D01*
X1096Y1245D01*
X1095Y1245D01*
X1090Y1248D01*
Y1385D01*
X1089Y1389D01*
X1087Y1391D01*
X1031Y1447D01*
X1029Y1449D01*
X1025Y1450D01*
X907D01*
X877Y1480D01*
X878Y1481D01*
X880Y1484D01*
X885Y1483D01*
X890Y1484D01*
X895Y1487D01*
X898Y1492D01*
X899Y1497D01*
X898Y1502D01*
X895Y1507D01*
X894Y1508D01*
Y1568D01*
X899Y1571D01*
X901Y1570D01*
X910D01*
X914Y1572D01*
X917Y1572D01*
X921Y1570D01*
X929D01*
X931Y1570D01*
X936Y1567D01*
Y1562D01*
X930Y1555D01*
X928Y1553D01*
X927Y1549D01*
Y1521D01*
X926Y1520D01*
X923Y1515D01*
X922Y1510D01*
X923Y1505D01*
X926Y1500D01*
X931Y1497D01*
X936Y1496D01*
X941Y1497D01*
X946Y1500D01*
X949Y1505D01*
X950Y1510D01*
X949Y1515D01*
X946Y1520D01*
X945Y1521D01*
Y1542D01*
X946Y1542D01*
X947Y1542D01*
X951Y1540D01*
X952Y1536D01*
X955Y1531D01*
X960Y1528D01*
X965Y1527D01*
X970Y1528D01*
X975Y1531D01*
X978Y1536D01*
X979Y1541D01*
X978Y1546D01*
X975Y1551D01*
X974Y1552D01*
Y1567D01*
X979Y1570D01*
X980Y1570D01*
X988D01*
X990Y1570D01*
X995Y1567D01*
Y1558D01*
X994Y1557D01*
X991Y1552D01*
X990Y1547D01*
X991Y1542D01*
X994Y1537D01*
X999Y1534D01*
X1004Y1533D01*
X1009Y1534D01*
X1014Y1531D01*
Y1490D01*
X1013Y1489D01*
X1008Y1486D01*
X1005Y1481D01*
X1004Y1476D01*
X1005Y1471D01*
X1008Y1466D01*
X1013Y1463D01*
X1018Y1462D01*
X1023Y1463D01*
X1028Y1466D01*
X1031Y1471D01*
X1032Y1476D01*
X1031Y1480D01*
X1032Y1481D01*
X1033Y1484D01*
Y1535D01*
X1034Y1536D01*
X1038Y1537D01*
X1050Y1525D01*
X1050Y1523D01*
X1051Y1518D01*
X1054Y1513D01*
X1059Y1510D01*
X1064Y1509D01*
X1070Y1510D01*
X1075Y1513D01*
X1078Y1518D01*
X1079Y1523D01*
X1078Y1529D01*
X1075Y1534D01*
X1070Y1537D01*
X1064Y1538D01*
X1063Y1538D01*
X1052Y1549D01*
Y1567D01*
X1057Y1570D01*
X1059Y1570D01*
X1067D01*
X1071Y1572D01*
X1072Y1573D01*
X1077D01*
X1077Y1573D01*
X1081Y1571D01*
X1085D01*
X1088Y1573D01*
X1090Y1576D01*
Y1630D01*
X1088Y1634D01*
X1085Y1635D01*
X1081D01*
X1078Y1634D01*
X1073Y1636D01*
X1073Y1636D01*
Y1658D01*
X1074Y1659D01*
X1077Y1664D01*
X1078Y1669D01*
X1077Y1674D01*
X1074Y1679D01*
X1069Y1682D01*
X1064Y1683D01*
X1059Y1682D01*
X1054Y1679D01*
X1051Y1674D01*
X1050Y1669D01*
X1051Y1664D01*
X1054Y1659D01*
X1054Y1659D01*
Y1639D01*
X1049Y1636D01*
X1047Y1637D01*
X1039D01*
X1037Y1636D01*
X1033Y1635D01*
X1030Y1636D01*
X1028Y1637D01*
X1019D01*
X1015Y1635D01*
X1012Y1635D01*
X1008Y1637D01*
X1000D01*
X998Y1636D01*
X993Y1639D01*
Y1656D01*
X994Y1656D01*
X997Y1657D01*
X1002Y1660D01*
X1005Y1665D01*
X1006Y1670D01*
X1005Y1675D01*
X1002Y1680D01*
X997Y1683D01*
X992Y1684D01*
X987Y1683D01*
X982Y1680D01*
X979Y1675D01*
X978Y1670D01*
X978Y1667D01*
X978Y1666D01*
X976Y1663D01*
X975Y1660D01*
Y1639D01*
X970Y1636D01*
X969Y1637D01*
X960D01*
X956Y1635D01*
X953Y1635D01*
X949Y1637D01*
X941D01*
X939Y1636D01*
X934Y1639D01*
Y1649D01*
X934Y1652D01*
X932Y1655D01*
X922Y1665D01*
Y1702D01*
X922Y1703D01*
X929D01*
X930Y1703D01*
X972D01*
Y1748D01*
X913D01*
Y1719D01*
X912Y1718D01*
X908Y1715D01*
X905Y1713D01*
X902Y1715D01*
X898Y1718D01*
X897Y1719D01*
Y1748D01*
X838D01*
Y1703D01*
X880D01*
X881Y1703D01*
X888D01*
X888Y1702D01*
Y1655D01*
X889Y1652D01*
X891Y1649D01*
X896Y1644D01*
X896Y1639D01*
X891Y1636D01*
X890Y1637D01*
X882D01*
X878Y1640D01*
X878Y1642D01*
X879Y1644D01*
X880Y1649D01*
X879Y1654D01*
X876Y1659D01*
X871Y1662D01*
X866Y1663D01*
X860Y1662D01*
X856Y1659D01*
X852Y1654D01*
X847Y1653D01*
X844Y1655D01*
X842Y1657D01*
X838Y1658D01*
X811D01*
X810Y1659D01*
X810Y1659D01*
X813Y1664D01*
X825D01*
Y1709D01*
X765D01*
Y1694D01*
X750D01*
Y1715D01*
X680D01*
Y1656D01*
X750D01*
Y1676D01*
X765D01*
Y1664D01*
X783D01*
X784Y1661D01*
X785Y1659D01*
X782Y1654D01*
X781Y1649D01*
X782Y1644D01*
X785Y1639D01*
X790Y1636D01*
X795Y1635D01*
X800Y1636D01*
X805Y1639D01*
X806Y1640D01*
X834D01*
X837Y1637D01*
Y1631D01*
X836Y1631D01*
Y1576D01*
X837Y1574D01*
Y1557D01*
X838Y1553D01*
X840Y1550D01*
X850Y1540D01*
Y1535D01*
X845Y1534D01*
X845Y1534D01*
X842Y1538D01*
X837Y1541D01*
X832Y1542D01*
X826Y1541D01*
X822Y1538D01*
X821Y1537D01*
X800D01*
X798Y1538D01*
X743D01*
X739Y1536D01*
X737Y1532D01*
Y1524D01*
X739Y1519D01*
X741Y1519D01*
Y1513D01*
X740Y1513D01*
X739Y1510D01*
Y1506D01*
X740Y1503D01*
X741Y1502D01*
Y1497D01*
X739Y1497D01*
X737Y1492D01*
Y1484D01*
X738Y1483D01*
X735Y1478D01*
X676D01*
X675Y1480D01*
X670Y1483D01*
X665Y1484D01*
X660Y1483D01*
X655Y1480D01*
X652Y1475D01*
X651Y1470D01*
X652Y1465D01*
X655Y1460D01*
X660Y1457D01*
X665Y1456D01*
X670Y1457D01*
X675Y1460D01*
X676Y1462D01*
X737D01*
X739Y1457D01*
X737Y1453D01*
Y1445D01*
X738Y1443D01*
X738Y1442D01*
X736Y1437D01*
X713D01*
X713Y1437D01*
X710Y1437D01*
X707Y1435D01*
X707Y1435D01*
X706Y1434D01*
X703Y1435D01*
X698Y1433D01*
X693Y1430D01*
X690Y1426D01*
X689Y1420D01*
X690Y1415D01*
X693Y1410D01*
X698Y1407D01*
X703Y1406D01*
X709Y1407D01*
X713Y1410D01*
X716Y1415D01*
X718Y1420D01*
X718Y1421D01*
X736D01*
X738Y1416D01*
X738Y1416D01*
X737Y1414D01*
Y1405D01*
X739Y1401D01*
X739Y1398D01*
X737Y1394D01*
Y1386D01*
X738Y1384D01*
X735Y1379D01*
X603D01*
X580Y1402D01*
Y1448D01*
X595D01*
Y1508D01*
X550D01*
Y1455D01*
X545Y1454D01*
X543Y1456D01*
X538Y1459D01*
X533Y1460D01*
X528Y1459D01*
X523Y1456D01*
X521Y1454D01*
X516Y1455D01*
Y1508D01*
X503D01*
Y1525D01*
X522D01*
Y1595D01*
X463D01*
Y1525D01*
X484D01*
Y1508D01*
X471D01*
Y1448D01*
X514D01*
X515Y1448D01*
X516Y1444D01*
X513Y1440D01*
X395D01*
X365Y1470D01*
X364Y1472D01*
X361Y1477D01*
X356Y1480D01*
X351Y1481D01*
X346Y1480D01*
X341Y1477D01*
X338Y1472D01*
X337Y1467D01*
X338Y1462D01*
X338Y1461D01*
Y1457D01*
X337Y1456D01*
X226D01*
Y1460D01*
X157D01*
Y1459D01*
X150D01*
X140Y1469D01*
Y1725D01*
X157D01*
Y1723D01*
X226D01*
Y1755D01*
X157D01*
Y1753D01*
X140D01*
Y2026D01*
X144Y2030D01*
X157D01*
Y2028D01*
X226D01*
Y2060D01*
X157D01*
Y2058D01*
X138D01*
X132Y2057D01*
X128Y2054D01*
X128Y2054D01*
X116Y2042D01*
X113Y2038D01*
X112Y2032D01*
X112Y2032D01*
Y1740D01*
X112Y1740D01*
X112Y1740D01*
Y1463D01*
X112Y1463D01*
X113Y1458D01*
X116Y1453D01*
X134Y1435D01*
X134Y1435D01*
X139Y1432D01*
X144Y1431D01*
X157D01*
Y1428D01*
X226D01*
Y1432D01*
X342D01*
X347Y1433D01*
X351Y1436D01*
X358Y1443D01*
X382Y1420D01*
X386Y1417D01*
X390Y1416D01*
X533D01*
X537Y1417D01*
X541Y1420D01*
X544Y1424D01*
X545Y1428D01*
Y1438D01*
X546Y1441D01*
X547Y1445D01*
X548Y1447D01*
X552Y1448D01*
X562D01*
Y1398D01*
X563Y1394D01*
X565Y1392D01*
X588Y1368D01*
X588Y1366D01*
X586Y1363D01*
X582Y1362D01*
X577Y1359D01*
X574Y1354D01*
X573Y1349D01*
X574Y1344D01*
X577Y1339D01*
X582Y1336D01*
X587Y1335D01*
X588Y1335D01*
X657Y1266D01*
X657Y1263D01*
X655Y1261D01*
X629D01*
X626Y1260D01*
X623Y1258D01*
X622Y1258D01*
X620Y1255D01*
X620Y1251D01*
X620Y1248D01*
X622Y1245D01*
X625Y1243D01*
X629Y1242D01*
X631Y1242D01*
X735D01*
X738Y1237D01*
X737Y1236D01*
Y1228D01*
X739Y1224D01*
X743Y1222D01*
X765D01*
X766Y1222D01*
X771Y1221D01*
X824D01*
X835Y1210D01*
Y1157D01*
X836Y1152D01*
X836Y1151D01*
Y1129D01*
X838Y1125D01*
X842Y1123D01*
X851D01*
X855Y1125D01*
X855Y1126D01*
X861D01*
X861Y1126D01*
X864Y1125D01*
X868D01*
X872Y1126D01*
X873Y1130D01*
Y1184D01*
X872Y1187D01*
X868Y1189D01*
X864D01*
X863Y1188D01*
X858Y1191D01*
Y1215D01*
X857Y1219D01*
X855Y1223D01*
X840Y1237D01*
Y1278D01*
X844Y1282D01*
X851D01*
X853Y1277D01*
X852Y1274D01*
X851Y1269D01*
X852Y1264D01*
X855Y1259D01*
X860Y1256D01*
X865Y1255D01*
X870Y1256D01*
X875Y1259D01*
X876Y1260D01*
X949D01*
X961Y1248D01*
X960Y1245D01*
X959Y1243D01*
X954Y1241D01*
X951Y1236D01*
X950Y1230D01*
X951Y1225D01*
X954Y1220D01*
X955Y1220D01*
Y1193D01*
X950Y1190D01*
X949Y1190D01*
X941D01*
X938Y1189D01*
X935Y1189D01*
X932Y1189D01*
X929Y1190D01*
X921D01*
X917Y1188D01*
X916Y1187D01*
X911D01*
X911Y1187D01*
X907Y1189D01*
X904D01*
X900Y1187D01*
X899Y1184D01*
Y1130D01*
X900Y1126D01*
X904Y1125D01*
X907D01*
X911Y1126D01*
X911Y1126D01*
X916D01*
X917Y1125D01*
X917Y1125D01*
Y1118D01*
X872Y1073D01*
X870Y1070D01*
X870Y1067D01*
X870Y1067D01*
Y1023D01*
X869Y1018D01*
X809D01*
Y973D01*
X869D01*
Y984D01*
X885D01*
Y977D01*
X930D01*
Y1018D01*
X886D01*
Y1064D01*
X931Y1108D01*
X931Y1108D01*
X936Y1107D01*
X937Y1107D01*
Y1097D01*
X937Y1097D01*
X937Y1094D01*
X939Y1091D01*
X957Y1074D01*
Y1063D01*
X942D01*
Y1022D01*
X987D01*
Y1031D01*
X1019D01*
X1024Y1032D01*
X1027Y1034D01*
X1039Y1046D01*
X1041Y1049D01*
X1042Y1052D01*
X1060D01*
Y1097D01*
X1036D01*
X1035Y1098D01*
X1034Y1102D01*
X1036Y1106D01*
X1037Y1111D01*
X1036Y1116D01*
X1035Y1118D01*
X1035Y1120D01*
X1039Y1123D01*
X1047D01*
X1052Y1125D01*
X1053Y1129D01*
Y1184D01*
X1052Y1187D01*
Y1205D01*
X1053Y1206D01*
X1056Y1211D01*
X1057Y1216D01*
X1056Y1221D01*
X1053Y1226D01*
X1048Y1229D01*
X1043Y1230D01*
X1038Y1229D01*
X1033Y1226D01*
X1030Y1221D01*
X1029Y1216D01*
X1030Y1211D01*
X1033Y1206D01*
X1034Y1205D01*
Y1193D01*
X1029Y1190D01*
X1028Y1190D01*
X1019D01*
X1016Y1194D01*
X1016Y1197D01*
X1017Y1199D01*
X1018Y1204D01*
X1017Y1210D01*
X1014Y1214D01*
X1009Y1217D01*
X1004Y1218D01*
X998Y1217D01*
X998Y1217D01*
X993Y1220D01*
Y1238D01*
X993Y1241D01*
X991Y1244D01*
X959Y1275D01*
X957Y1277D01*
X958Y1282D01*
X1011D01*
X1073Y1220D01*
Y1186D01*
X1073Y1184D01*
Y1129D01*
X1073Y1127D01*
Y1088D01*
X1073Y1087D01*
X1069Y1082D01*
X1068Y1077D01*
X1069Y1072D01*
X1073Y1067D01*
X1077Y1064D01*
X1083Y1063D01*
X1088Y1064D01*
X1093Y1067D01*
X1096Y1072D01*
X1097Y1077D01*
X1096Y1082D01*
X1093Y1087D01*
X1092Y1088D01*
Y1121D01*
X1097Y1124D01*
X1098Y1123D01*
X1106D01*
X1108Y1124D01*
X1113Y1121D01*
Y1086D01*
X1112Y1086D01*
X1107Y1083D01*
X1104Y1078D01*
X1103Y1073D01*
X1104Y1068D01*
X1107Y1063D01*
X1112Y1060D01*
X1117Y1059D01*
X1122Y1060D01*
X1127Y1063D01*
X1130Y1068D01*
X1131Y1073D01*
X1131Y1075D01*
X1131Y1077D01*
Y1121D01*
X1136Y1124D01*
X1138Y1123D01*
X1146D01*
X1150Y1125D01*
X1151Y1127D01*
X1156Y1126D01*
Y1107D01*
X1157Y1103D01*
X1159Y1101D01*
X1256Y1003D01*
X1256Y1002D01*
X1257Y997D01*
X1260Y992D01*
X1261Y991D01*
X1259Y986D01*
X1082D01*
X1079Y985D01*
X1078Y982D01*
Y752D01*
X961D01*
X961Y752D01*
X956Y756D01*
Y763D01*
X980D01*
Y771D01*
X995D01*
Y763D01*
X1055D01*
Y808D01*
X995D01*
Y800D01*
X980D01*
Y808D01*
X921D01*
Y763D01*
X928D01*
Y752D01*
X921Y745D01*
X920D01*
X916Y745D01*
X912Y742D01*
X910Y739D01*
X909Y735D01*
Y670D01*
X910Y666D01*
X912Y663D01*
X916Y660D01*
X920Y659D01*
X930D01*
X934Y660D01*
X938Y663D01*
X940Y666D01*
X941Y670D01*
Y725D01*
X952Y736D01*
X953Y736D01*
X957Y734D01*
Y663D01*
X958Y660D01*
X961Y659D01*
X988D01*
Y566D01*
X989Y563D01*
X991Y561D01*
X994Y560D01*
X1087D01*
X1090Y561D01*
X1091Y564D01*
Y620D01*
X1270D01*
X1273Y621D01*
X1274Y624D01*
Y982D01*
X1274Y983D01*
X1275Y988D01*
X1276Y989D01*
X1280Y992D01*
X1283Y997D01*
X1284Y1002D01*
X1283Y1007D01*
X1280Y1012D01*
X1275Y1015D01*
X1270Y1016D01*
X1269Y1016D01*
X1174Y1111D01*
Y1312D01*
X1179Y1317D01*
X1183Y1316D01*
X1184Y1315D01*
Y1307D01*
X1186Y1303D01*
X1186Y1300D01*
X1184Y1296D01*
Y1287D01*
X1185Y1285D01*
X1185Y1282D01*
X1185Y1278D01*
X1184Y1276D01*
Y1268D01*
X1186Y1263D01*
X1190Y1262D01*
X1245D01*
X1247Y1263D01*
X1254D01*
X1257Y1259D01*
X1262Y1256D01*
X1267Y1255D01*
X1272Y1256D01*
X1277Y1259D01*
X1280Y1264D01*
X1281Y1268D01*
X1284Y1270D01*
X1286Y1270D01*
X1296Y1260D01*
Y1014D01*
X1295Y1013D01*
X1292Y1008D01*
X1291Y1003D01*
X1292Y998D01*
X1295Y993D01*
X1298Y991D01*
X1298Y985D01*
X1297Y985D01*
X1295Y982D01*
X1295Y334D01*
X1297Y331D01*
X1300Y330D01*
X1475D01*
X1478Y331D01*
X1479Y334D01*
X1479Y978D01*
X1568Y1067D01*
X1674D01*
X1681Y1068D01*
X1688Y1072D01*
X1734Y1118D01*
X1738Y1125D01*
X1739Y1132D01*
Y1178D01*
X1754Y1193D01*
Y1247D01*
X1737Y1264D01*
X1703D01*
X1686Y1247D01*
Y1193D01*
X1701Y1178D01*
Y1140D01*
X1666Y1105D01*
X1560D01*
X1553Y1104D01*
X1546Y1100D01*
X1444Y998D01*
X1440Y991D01*
X1439Y986D01*
X1314Y986D01*
X1313Y991D01*
X1315Y993D01*
X1318Y998D01*
X1319Y1003D01*
X1318Y1008D01*
X1315Y1013D01*
X1314Y1014D01*
Y1262D01*
X1319Y1264D01*
X1388Y1195D01*
Y1054D01*
X1389Y1050D01*
X1391Y1047D01*
X1407Y1030D01*
X1410Y1028D01*
X1414Y1028D01*
X1420D01*
X1422Y1025D01*
X1427Y1022D01*
X1432Y1021D01*
X1437Y1022D01*
X1442Y1025D01*
X1445Y1030D01*
X1446Y1035D01*
X1445Y1040D01*
X1442Y1045D01*
X1437Y1048D01*
X1432Y1049D01*
X1427Y1048D01*
X1423Y1046D01*
X1418D01*
X1406Y1058D01*
Y1195D01*
X1411Y1197D01*
X1422Y1186D01*
Y1096D01*
X1421Y1095D01*
X1418Y1090D01*
X1417Y1085D01*
X1418Y1080D01*
X1421Y1075D01*
X1426Y1072D01*
X1431Y1071D01*
X1436Y1072D01*
X1441Y1075D01*
X1444Y1080D01*
X1445Y1085D01*
X1444Y1090D01*
X1441Y1095D01*
X1440Y1096D01*
Y1190D01*
X1439Y1194D01*
X1437Y1196D01*
X1313Y1321D01*
X1315Y1325D01*
X1348D01*
Y1385D01*
X1303D01*
Y1364D01*
X1296D01*
X1296Y1364D01*
Y1443D01*
X1296Y1443D01*
X1301Y1440D01*
Y1426D01*
X1348D01*
Y1426D01*
X1353Y1427D01*
X1375Y1406D01*
X1378Y1404D01*
X1381Y1403D01*
X1383D01*
Y1401D01*
X1396D01*
Y1385D01*
X1382D01*
Y1325D01*
X1427D01*
Y1340D01*
X1443D01*
X1474Y1309D01*
Y1280D01*
X1473Y1277D01*
X1472Y1272D01*
X1473Y1267D01*
X1476Y1262D01*
X1481Y1259D01*
X1486Y1258D01*
X1491Y1259D01*
X1496Y1262D01*
X1499Y1267D01*
X1500Y1272D01*
X1499Y1277D01*
X1498Y1280D01*
Y1314D01*
X1497Y1318D01*
X1494Y1322D01*
X1456Y1360D01*
X1452Y1363D01*
X1448Y1364D01*
X1427D01*
Y1385D01*
X1414D01*
Y1401D01*
X1431D01*
Y1423D01*
X1384D01*
X1368Y1438D01*
X1379Y1449D01*
X1383Y1452D01*
Y1452D01*
X1383Y1452D01*
X1431D01*
Y1472D01*
X1431Y1474D01*
Y1477D01*
X1432Y1479D01*
X1446D01*
Y1467D01*
X1505D01*
X1505Y1509D01*
Y1509D01*
D01*
X1505Y1510D01*
X1506Y1510D01*
X1510Y1512D01*
X1522Y1500D01*
X1524Y1497D01*
X1529Y1494D01*
X1534Y1493D01*
X1539Y1494D01*
X1544Y1497D01*
X1547Y1502D01*
X1548Y1507D01*
Y1508D01*
X1548Y1508D01*
X1547Y1513D01*
X1544Y1518D01*
X1529Y1533D01*
X1532Y1537D01*
X1535Y1537D01*
X1540Y1538D01*
X1545Y1541D01*
X1546Y1542D01*
X1586D01*
Y1523D01*
X1603Y1506D01*
X1637D01*
X1654Y1523D01*
Y1577D01*
X1637Y1594D01*
X1603D01*
X1586Y1577D01*
Y1560D01*
X1546D01*
X1545Y1561D01*
X1540Y1564D01*
X1535Y1565D01*
X1530Y1564D01*
X1525Y1561D01*
X1522Y1556D01*
X1521Y1551D01*
X1521Y1548D01*
X1517Y1545D01*
X1507Y1555D01*
X1502Y1558D01*
X1500Y1559D01*
X1498Y1564D01*
X1628Y1693D01*
X1634D01*
Y1690D01*
X1703D01*
Y1722D01*
X1668D01*
X1667Y1722D01*
X1667Y1722D01*
X1622D01*
X1622Y1722D01*
X1616Y1721D01*
X1612Y1718D01*
X1453Y1559D01*
X1428D01*
Y1575D01*
X1382D01*
Y1554D01*
X1380D01*
X1376Y1553D01*
X1374Y1551D01*
X1360Y1537D01*
X1358Y1535D01*
X1357Y1531D01*
Y1469D01*
X1358Y1465D01*
X1360Y1462D01*
X1363Y1459D01*
X1355Y1451D01*
X1349Y1452D01*
X1348Y1453D01*
Y1474D01*
X1348D01*
Y1477D01*
X1348D01*
Y1499D01*
X1335D01*
Y1515D01*
X1349D01*
Y1575D01*
X1304D01*
Y1515D01*
X1317D01*
Y1499D01*
X1301D01*
Y1498D01*
X1253D01*
X1250Y1503D01*
X1251Y1504D01*
Y1512D01*
X1251Y1512D01*
X1255Y1516D01*
X1256Y1515D01*
X1261Y1514D01*
X1267Y1515D01*
X1271Y1518D01*
X1274Y1523D01*
X1275Y1528D01*
Y1618D01*
X1300D01*
X1303Y1619D01*
X1304Y1622D01*
Y1822D01*
X1303Y1825D01*
X1300Y1826D01*
X1291D01*
Y2034D01*
X1290Y2038D01*
X1287Y2042D01*
X1232Y2098D01*
Y2138D01*
X1250D01*
Y2183D01*
D02*
G37*
G36*
X1669Y1833D02*
X1665Y1833D01*
X1665Y1832D01*
X1574D01*
X1570Y1832D01*
X1567Y1830D01*
X1566Y1828D01*
X1564Y1826D01*
X1563Y1822D01*
X1564Y1818D01*
X1566Y1816D01*
X1569Y1814D01*
X1573Y1813D01*
X1576Y1814D01*
X1577Y1814D01*
X1668D01*
X1671Y1815D01*
X1674Y1817D01*
X1675Y1818D01*
X1677Y1821D01*
X1678Y1824D01*
X1677Y1828D01*
X1675Y1831D01*
X1672Y1833D01*
X1669Y1833D01*
D02*
G37*
G36*
X1703Y1800D02*
X1634D01*
Y1793D01*
X1619D01*
X1618Y1795D01*
X1613Y1798D01*
X1608Y1799D01*
X1603Y1798D01*
X1598Y1795D01*
X1595Y1790D01*
X1594Y1785D01*
X1595Y1780D01*
X1598Y1775D01*
X1603Y1772D01*
X1608Y1771D01*
X1613Y1772D01*
X1618Y1775D01*
X1619Y1777D01*
X1634D01*
Y1769D01*
X1703D01*
Y1800D01*
D02*
G37*
G36*
X1166Y1810D02*
X1139D01*
Y1765D01*
X1166D01*
Y1810D01*
D02*
G37*
G36*
X78Y1818D02*
X-1D01*
Y1763D01*
X78D01*
Y1818D01*
D02*
G37*
G36*
X1703Y1761D02*
X1634D01*
Y1753D01*
X1618D01*
X1617Y1755D01*
X1612Y1758D01*
X1607Y1759D01*
X1602Y1758D01*
X1597Y1755D01*
X1594Y1750D01*
X1593Y1745D01*
X1594Y1740D01*
X1597Y1735D01*
X1602Y1732D01*
X1607Y1731D01*
X1612Y1732D01*
X1617Y1735D01*
X1618Y1737D01*
X1634D01*
Y1730D01*
X1703D01*
Y1761D01*
D02*
G37*
G36*
X795Y1824D02*
X790Y1823D01*
X785Y1820D01*
X782Y1815D01*
X781Y1810D01*
X782Y1805D01*
X785Y1800D01*
X786Y1799D01*
Y1788D01*
X765D01*
Y1742D01*
X825D01*
Y1788D01*
X804D01*
Y1799D01*
X805Y1800D01*
X808Y1805D01*
X809Y1810D01*
X808Y1815D01*
X805Y1820D01*
X800Y1823D01*
X795Y1824D01*
D02*
G37*
G36*
X226Y1715D02*
X157D01*
Y1684D01*
X226D01*
Y1691D01*
X237D01*
X239Y1689D01*
X244Y1686D01*
X249Y1685D01*
X254Y1686D01*
X259Y1689D01*
X262Y1694D01*
X263Y1699D01*
X262Y1704D01*
X259Y1709D01*
X254Y1712D01*
X249Y1713D01*
X244Y1712D01*
X239Y1709D01*
X238Y1707D01*
X226D01*
Y1715D01*
D02*
G37*
G36*
X669Y1672D02*
X628D01*
Y1651D01*
X669D01*
Y1672D01*
D02*
G37*
G36*
X226Y1676D02*
X157D01*
Y1645D01*
X226D01*
Y1653D01*
X239D01*
X240Y1651D01*
X245Y1648D01*
X250Y1647D01*
X255Y1648D01*
X260Y1651D01*
X263Y1656D01*
X264Y1661D01*
X263Y1666D01*
X260Y1671D01*
X255Y1674D01*
X250Y1675D01*
X245Y1674D01*
X240Y1671D01*
X239Y1669D01*
X226D01*
Y1676D01*
D02*
G37*
G36*
X1861Y1682D02*
X1782D01*
Y1627D01*
X1861D01*
Y1682D01*
D02*
G37*
G36*
X375Y1715D02*
X305D01*
Y1656D01*
X331D01*
Y1642D01*
X310D01*
Y1597D01*
X370D01*
Y1642D01*
X349D01*
Y1656D01*
X375D01*
Y1715D01*
D02*
G37*
G36*
X1144Y1635D02*
X1140D01*
X1136Y1634D01*
X1135Y1630D01*
Y1576D01*
X1136Y1573D01*
X1140Y1571D01*
X1144D01*
X1147Y1573D01*
X1149Y1576D01*
Y1630D01*
X1147Y1634D01*
X1144Y1635D01*
D02*
G37*
G36*
X1124D02*
X1120D01*
X1117Y1634D01*
X1115Y1630D01*
Y1576D01*
X1117Y1573D01*
X1120Y1571D01*
X1124D01*
X1127Y1573D01*
X1129Y1576D01*
Y1630D01*
X1127Y1634D01*
X1124Y1635D01*
D02*
G37*
G36*
X1104D02*
X1100D01*
X1097Y1634D01*
X1095Y1630D01*
Y1576D01*
X1097Y1573D01*
X1100Y1571D01*
X1104D01*
X1108Y1573D01*
X1109Y1576D01*
Y1630D01*
X1108Y1634D01*
X1104Y1635D01*
D02*
G37*
G36*
X78Y1597D02*
X-1D01*
Y1542D01*
X78D01*
Y1597D01*
D02*
G37*
G36*
X425Y1612D02*
X421Y1611D01*
X419Y1609D01*
X417Y1606D01*
X416Y1602D01*
X417Y1599D01*
X419Y1596D01*
X426Y1588D01*
Y1519D01*
X427Y1515D01*
X429Y1512D01*
X432Y1510D01*
X436Y1510D01*
X439Y1510D01*
X442Y1512D01*
X444Y1515D01*
X445Y1519D01*
Y1592D01*
X444Y1595D01*
X442Y1598D01*
X431Y1609D01*
X429Y1611D01*
X425Y1612D01*
D02*
G37*
G36*
X1737Y1594D02*
X1703D01*
X1686Y1577D01*
Y1523D01*
X1703Y1506D01*
X1737D01*
X1754Y1523D01*
Y1577D01*
X1737Y1594D01*
D02*
G37*
G36*
X370Y1563D02*
X310D01*
Y1518D01*
X326D01*
X328Y1513D01*
X327Y1510D01*
X326Y1505D01*
X327Y1500D01*
X330Y1495D01*
X335Y1492D01*
X340Y1491D01*
X345Y1492D01*
X350Y1495D01*
X353Y1500D01*
X354Y1505D01*
X353Y1510D01*
X352Y1513D01*
X354Y1518D01*
X370D01*
Y1563D01*
D02*
G37*
G36*
X78Y1523D02*
X-1D01*
Y1468D01*
X78D01*
Y1523D01*
D02*
G37*
G36*
X271Y1489D02*
X266Y1488D01*
X261Y1485D01*
X258Y1480D01*
X257Y1475D01*
X258Y1470D01*
X261Y1465D01*
X266Y1462D01*
X271Y1461D01*
X276Y1462D01*
X281Y1465D01*
X284Y1470D01*
X285Y1475D01*
X284Y1480D01*
X281Y1485D01*
X276Y1488D01*
X271Y1489D01*
D02*
G37*
G36*
X1637Y1484D02*
X1603D01*
X1586Y1467D01*
Y1445D01*
X1551D01*
X1550Y1446D01*
X1545Y1449D01*
X1540Y1450D01*
X1535Y1449D01*
X1530Y1446D01*
X1527Y1441D01*
X1526Y1436D01*
X1527Y1431D01*
X1530Y1426D01*
X1535Y1423D01*
X1540Y1422D01*
X1545Y1423D01*
X1550Y1426D01*
X1551Y1427D01*
X1586D01*
Y1413D01*
X1603Y1396D01*
X1637D01*
X1654Y1413D01*
Y1467D01*
X1637Y1484D01*
D02*
G37*
G36*
X226Y1420D02*
X157D01*
Y1413D01*
X148D01*
X147Y1414D01*
X142Y1417D01*
X137Y1418D01*
X132Y1417D01*
X127Y1414D01*
X124Y1409D01*
X123Y1404D01*
X124Y1399D01*
X127Y1394D01*
X132Y1391D01*
X137Y1390D01*
X142Y1391D01*
X147Y1394D01*
X148Y1395D01*
X157D01*
Y1389D01*
X226D01*
Y1397D01*
X231D01*
X232Y1396D01*
X237Y1393D01*
X242Y1392D01*
X247Y1393D01*
X252Y1396D01*
X255Y1401D01*
X256Y1406D01*
X255Y1411D01*
X252Y1416D01*
X247Y1419D01*
X242Y1420D01*
X237Y1419D01*
X232Y1416D01*
X231Y1415D01*
X226D01*
Y1420D01*
D02*
G37*
G36*
X1737Y1484D02*
X1703D01*
X1686Y1467D01*
Y1413D01*
X1703Y1396D01*
X1737D01*
X1754Y1413D01*
Y1467D01*
X1737Y1484D01*
D02*
G37*
G36*
X136Y1381D02*
X131Y1380D01*
X126Y1377D01*
X123Y1372D01*
X122Y1367D01*
X123Y1362D01*
X126Y1357D01*
X131Y1354D01*
X136Y1353D01*
X141Y1354D01*
X146Y1357D01*
X147Y1358D01*
X157D01*
Y1350D01*
X226D01*
Y1356D01*
X232D01*
X233Y1355D01*
X238Y1352D01*
X243Y1351D01*
X248Y1352D01*
X253Y1355D01*
X256Y1360D01*
X257Y1365D01*
X256Y1371D01*
X253Y1375D01*
X248Y1379D01*
X243Y1380D01*
X238Y1379D01*
X233Y1375D01*
X232Y1374D01*
X226D01*
Y1381D01*
X157D01*
Y1376D01*
X147D01*
X146Y1377D01*
X141Y1380D01*
X136Y1381D01*
D02*
G37*
G36*
X1637Y1374D02*
X1603D01*
X1586Y1357D01*
Y1340D01*
X1555D01*
X1554Y1341D01*
X1549Y1344D01*
X1544Y1345D01*
X1539Y1344D01*
X1534Y1341D01*
X1531Y1336D01*
X1530Y1331D01*
X1531Y1325D01*
X1534Y1321D01*
X1539Y1318D01*
X1544Y1317D01*
X1549Y1318D01*
X1554Y1321D01*
X1555Y1322D01*
X1586D01*
Y1303D01*
X1603Y1286D01*
X1637D01*
X1654Y1303D01*
Y1357D01*
X1637Y1374D01*
D02*
G37*
G36*
X273Y1325D02*
X268Y1324D01*
X263Y1321D01*
X260Y1316D01*
X259Y1311D01*
X260Y1306D01*
X263Y1301D01*
X268Y1298D01*
X273Y1297D01*
X278Y1298D01*
X283Y1301D01*
X286Y1306D01*
X287Y1311D01*
X286Y1316D01*
X283Y1321D01*
X278Y1324D01*
X273Y1325D01*
D02*
G37*
G36*
X1737Y1374D02*
X1703D01*
X1686Y1357D01*
Y1303D01*
X1703Y1286D01*
X1737D01*
X1754Y1303D01*
Y1357D01*
X1737Y1374D01*
D02*
G37*
G36*
X78Y1302D02*
X-1D01*
Y1247D01*
X78D01*
Y1302D01*
D02*
G37*
G36*
X1271Y1247D02*
X1266Y1246D01*
X1261Y1242D01*
X1260Y1241D01*
X1249D01*
X1249Y1241D01*
X1245Y1242D01*
X1190D01*
X1186Y1241D01*
X1184Y1236D01*
Y1228D01*
X1186Y1224D01*
X1190Y1222D01*
X1245D01*
X1249Y1224D01*
X1249Y1224D01*
X1260D01*
X1261Y1222D01*
X1266Y1219D01*
X1271Y1218D01*
X1276Y1219D01*
X1281Y1222D01*
X1284Y1227D01*
X1285Y1232D01*
X1284Y1238D01*
X1281Y1242D01*
X1276Y1246D01*
X1271Y1247D01*
D02*
G37*
G36*
X1637Y1264D02*
X1603D01*
X1586Y1247D01*
Y1228D01*
X1553D01*
X1552Y1229D01*
X1547Y1232D01*
X1542Y1233D01*
X1537Y1232D01*
X1532Y1229D01*
X1529Y1224D01*
X1528Y1219D01*
X1529Y1214D01*
X1532Y1209D01*
X1537Y1206D01*
X1542Y1205D01*
X1547Y1206D01*
X1552Y1209D01*
X1553Y1210D01*
X1586D01*
Y1193D01*
X1603Y1176D01*
X1637D01*
X1654Y1193D01*
Y1247D01*
X1637Y1264D01*
D02*
G37*
G36*
X267Y1204D02*
X233D01*
X216Y1187D01*
Y1133D01*
X233Y1116D01*
X267D01*
X284Y1133D01*
Y1149D01*
X494D01*
X495Y1148D01*
X500Y1145D01*
X505Y1144D01*
X510Y1145D01*
X515Y1148D01*
X518Y1153D01*
X519Y1158D01*
X518Y1163D01*
X515Y1168D01*
X510Y1171D01*
X505Y1172D01*
X500Y1171D01*
X495Y1168D01*
X494Y1167D01*
X284D01*
Y1187D01*
X267Y1204D01*
D02*
G37*
G36*
X888Y1189D02*
X884D01*
X880Y1187D01*
X879Y1184D01*
Y1130D01*
X880Y1126D01*
X884Y1125D01*
X888D01*
X891Y1126D01*
X893Y1130D01*
Y1184D01*
X891Y1187D01*
X888Y1189D01*
D02*
G37*
G36*
X167Y1204D02*
X133D01*
X116Y1187D01*
Y1133D01*
X133Y1116D01*
X167D01*
X184Y1133D01*
Y1187D01*
X167Y1204D01*
D02*
G37*
G36*
X267Y1094D02*
X233D01*
X216Y1077D01*
Y1023D01*
X233Y1006D01*
X267D01*
X284Y1023D01*
Y1042D01*
X495D01*
X496Y1041D01*
X501Y1038D01*
X506Y1037D01*
X511Y1038D01*
X516Y1041D01*
X519Y1046D01*
X520Y1051D01*
X519Y1056D01*
X516Y1061D01*
X511Y1064D01*
X506Y1065D01*
X501Y1064D01*
X496Y1061D01*
X495Y1060D01*
X284D01*
Y1077D01*
X267Y1094D01*
D02*
G37*
G36*
X926Y1088D02*
X922Y1088D01*
X919Y1086D01*
X901Y1068D01*
X899Y1065D01*
X899Y1062D01*
Y1044D01*
X899Y1043D01*
X899Y1039D01*
X901Y1036D01*
X904Y1034D01*
X908Y1033D01*
X911Y1034D01*
X914Y1036D01*
X914Y1036D01*
X916Y1039D01*
X917Y1043D01*
Y1058D01*
X932Y1073D01*
X934Y1076D01*
X935Y1079D01*
X934Y1083D01*
X932Y1086D01*
X929Y1088D01*
X926Y1088D01*
D02*
G37*
G36*
X167Y1094D02*
X133D01*
X116Y1077D01*
Y1023D01*
X133Y1006D01*
X167D01*
X184Y1023D01*
Y1077D01*
X167Y1094D01*
D02*
G37*
G36*
X1734Y1069D02*
X1729Y1068D01*
X1724Y1065D01*
X1721Y1060D01*
X1720Y1055D01*
X1721Y1050D01*
X1724Y1045D01*
X1725Y1044D01*
Y1028D01*
X1688D01*
Y926D01*
X1766D01*
Y1028D01*
X1743D01*
Y1044D01*
X1744Y1045D01*
X1747Y1050D01*
X1748Y1055D01*
X1747Y1060D01*
X1744Y1065D01*
X1739Y1068D01*
X1734Y1069D01*
D02*
G37*
G36*
X267Y984D02*
X233D01*
X216Y967D01*
Y913D01*
X233Y896D01*
X267D01*
X284Y913D01*
Y928D01*
X367D01*
X368Y927D01*
X373Y924D01*
X378Y923D01*
X383Y924D01*
X388Y927D01*
X391Y932D01*
X392Y937D01*
X391Y942D01*
X388Y947D01*
X383Y950D01*
X378Y951D01*
X373Y950D01*
X368Y947D01*
X367Y946D01*
X284D01*
Y967D01*
X267Y984D01*
D02*
G37*
G36*
X167D02*
X133D01*
X116Y967D01*
Y913D01*
X133Y896D01*
X167D01*
X184Y913D01*
Y967D01*
X167Y984D01*
D02*
G37*
G36*
X910Y887D02*
X851D01*
Y879D01*
X845D01*
Y887D01*
X786D01*
Y842D01*
X845D01*
Y850D01*
X851D01*
Y842D01*
X910D01*
Y887D01*
D02*
G37*
G36*
X1827Y1029D02*
X1817Y1027D01*
X1807Y1023D01*
X1799Y1017D01*
X1793Y1009D01*
X1789Y999D01*
X1787Y989D01*
Y965D01*
X1789Y955D01*
X1793Y945D01*
X1799Y937D01*
X1807Y931D01*
X1812Y929D01*
Y902D01*
X1804D01*
Y842D01*
X1849D01*
Y902D01*
X1841D01*
Y928D01*
X1847Y931D01*
X1855Y937D01*
X1861Y945D01*
X1865Y955D01*
X1867Y965D01*
Y989D01*
X1865Y999D01*
X1861Y1009D01*
X1855Y1017D01*
X1847Y1023D01*
X1837Y1027D01*
X1827Y1029D01*
D02*
G37*
G36*
X1627D02*
X1617Y1027D01*
X1607Y1023D01*
X1599Y1017D01*
X1593Y1009D01*
X1589Y999D01*
X1587Y989D01*
Y965D01*
X1589Y955D01*
X1593Y945D01*
X1599Y937D01*
X1607Y931D01*
X1612Y929D01*
Y902D01*
X1604D01*
Y842D01*
X1649D01*
Y902D01*
X1641D01*
Y928D01*
X1647Y931D01*
X1655Y937D01*
X1661Y945D01*
X1665Y955D01*
X1667Y965D01*
Y989D01*
X1665Y999D01*
X1661Y1009D01*
X1655Y1017D01*
X1647Y1023D01*
X1637Y1027D01*
X1627Y1029D01*
D02*
G37*
G36*
X991Y936D02*
X984Y935D01*
X977Y931D01*
X973Y924D01*
X972Y917D01*
X973Y910D01*
X977Y903D01*
X984Y899D01*
X991Y898D01*
X998Y899D01*
X1000Y900D01*
X1008Y892D01*
X1006Y887D01*
X995D01*
Y842D01*
X1055D01*
Y887D01*
X1039D01*
Y895D01*
X1039Y895D01*
X1038Y900D01*
X1035Y905D01*
X1013Y927D01*
X1008Y930D01*
X1004Y931D01*
X998Y935D01*
X991Y936D01*
D02*
G37*
G36*
X267Y874D02*
X233D01*
X216Y857D01*
Y803D01*
X233Y786D01*
X267D01*
X284Y803D01*
Y825D01*
X311D01*
X312Y824D01*
X317Y821D01*
X322Y820D01*
X327Y821D01*
X332Y824D01*
X335Y829D01*
X336Y834D01*
X335Y839D01*
X332Y844D01*
X327Y847D01*
X322Y848D01*
X317Y847D01*
X312Y844D01*
X311Y843D01*
X284D01*
Y857D01*
X267Y874D01*
D02*
G37*
G36*
X167D02*
X133D01*
X116Y857D01*
Y803D01*
X133Y786D01*
X167D01*
X184Y803D01*
Y857D01*
X167Y874D01*
D02*
G37*
G36*
X1543Y959D02*
X1535Y957D01*
X1527Y953D01*
X1523Y945D01*
X1521Y937D01*
X1523Y929D01*
X1527Y921D01*
X1531Y919D01*
Y902D01*
X1525D01*
Y842D01*
X1533D01*
Y811D01*
X1533Y811D01*
X1533Y811D01*
Y622D01*
X1533Y622D01*
X1533Y622D01*
Y355D01*
X1533Y355D01*
X1534Y350D01*
X1538Y345D01*
X1631Y252D01*
X1631Y252D01*
X1636Y249D01*
X1641Y248D01*
X1641Y248D01*
X1670D01*
Y232D01*
X1715D01*
Y292D01*
X1670D01*
Y276D01*
X1647D01*
X1562Y361D01*
Y581D01*
X1567Y583D01*
X1614Y536D01*
X1614Y536D01*
X1619Y533D01*
X1624Y532D01*
X1637D01*
Y522D01*
X1697D01*
Y567D01*
X1637D01*
Y560D01*
X1630D01*
X1562Y628D01*
Y785D01*
X1729D01*
X1732Y781D01*
X1730Y777D01*
X1729Y767D01*
X1730Y757D01*
X1734Y748D01*
X1740Y740D01*
X1748Y734D01*
X1757Y730D01*
X1767Y729D01*
X1777Y730D01*
X1786Y734D01*
X1794Y740D01*
X1800Y748D01*
X1804Y757D01*
X1805Y767D01*
X1804Y777D01*
X1800Y786D01*
X1794Y794D01*
X1786Y800D01*
X1777Y803D01*
X1767Y805D01*
X1757Y803D01*
X1753Y802D01*
X1745Y809D01*
X1740Y812D01*
X1735Y813D01*
X1735Y813D01*
X1565D01*
X1562Y817D01*
Y842D01*
X1570D01*
Y902D01*
X1560D01*
Y923D01*
X1563Y929D01*
X1565Y937D01*
X1563Y945D01*
X1559Y953D01*
X1551Y957D01*
X1543Y959D01*
D02*
G37*
G36*
X619Y739D02*
X574D01*
Y725D01*
X564D01*
X564Y727D01*
X556Y731D01*
X548Y733D01*
X540Y731D01*
X532Y727D01*
X528Y719D01*
X526Y711D01*
X528Y703D01*
X532Y695D01*
X540Y691D01*
X548Y689D01*
X556Y691D01*
X564Y695D01*
X564Y697D01*
X574D01*
Y680D01*
X619D01*
Y739D01*
D02*
G37*
G36*
X1767Y705D02*
X1757Y703D01*
X1748Y700D01*
X1740Y694D01*
X1734Y686D01*
X1732Y682D01*
X1697D01*
Y690D01*
X1637D01*
Y645D01*
X1697D01*
Y653D01*
X1732D01*
X1734Y648D01*
X1740Y640D01*
X1748Y634D01*
X1757Y631D01*
X1767Y629D01*
X1777Y631D01*
X1786Y634D01*
X1794Y640D01*
X1800Y648D01*
X1804Y657D01*
X1805Y667D01*
X1804Y677D01*
X1800Y686D01*
X1794Y694D01*
X1786Y700D01*
X1777Y703D01*
X1767Y705D01*
D02*
G37*
G36*
X910Y808D02*
X851D01*
Y763D01*
X863D01*
Y743D01*
X862Y742D01*
X860Y739D01*
X859Y735D01*
Y670D01*
X860Y666D01*
X862Y663D01*
X866Y660D01*
X870Y659D01*
X880D01*
X884Y660D01*
X888Y663D01*
X890Y666D01*
X891Y670D01*
Y704D01*
X891Y704D01*
Y763D01*
X910D01*
Y808D01*
D02*
G37*
G36*
X842Y753D02*
X648D01*
X645Y752D01*
X644Y749D01*
Y661D01*
X645Y658D01*
X648Y657D01*
X842D01*
X845Y658D01*
X846Y661D01*
Y749D01*
X845Y752D01*
X842Y753D01*
D02*
G37*
G36*
X320Y718D02*
X315Y717D01*
X310Y714D01*
X310Y714D01*
X171D01*
Y656D01*
X329D01*
Y693D01*
X330Y694D01*
X333Y699D01*
X334Y704D01*
X333Y709D01*
X330Y714D01*
X325Y717D01*
X320Y718D01*
D02*
G37*
G36*
X145Y720D02*
X140Y719D01*
X135Y716D01*
X134Y714D01*
X-4D01*
Y656D01*
X154D01*
Y695D01*
X155Y696D01*
X158Y701D01*
X159Y706D01*
X158Y711D01*
X155Y716D01*
X150Y719D01*
X145Y720D01*
D02*
G37*
G36*
X319Y617D02*
X314Y616D01*
X310Y614D01*
X171D01*
Y556D01*
X329D01*
Y593D01*
X329Y593D01*
X332Y598D01*
X333Y603D01*
X332Y608D01*
X329Y613D01*
X329Y613D01*
Y614D01*
X328D01*
X324Y616D01*
X319Y617D01*
D02*
G37*
G36*
X145Y618D02*
X140Y617D01*
X135Y614D01*
X135Y614D01*
X-4D01*
Y556D01*
X154D01*
Y593D01*
X155Y594D01*
X158Y599D01*
X159Y604D01*
X158Y609D01*
X155Y614D01*
X150Y617D01*
X145Y618D01*
D02*
G37*
G36*
X980Y551D02*
X970D01*
X966Y550D01*
X962Y547D01*
X960Y544D01*
X959Y540D01*
Y475D01*
X960Y471D01*
X962Y468D01*
X966Y465D01*
X970Y465D01*
X980D01*
X984Y465D01*
X988Y468D01*
X990Y471D01*
X991Y475D01*
Y493D01*
X1015D01*
Y485D01*
X1075D01*
Y530D01*
X1015D01*
Y522D01*
X991D01*
Y540D01*
X990Y544D01*
X988Y547D01*
X984Y550D01*
X980Y551D01*
D02*
G37*
G36*
X1767Y505D02*
X1757Y503D01*
X1748Y500D01*
X1740Y494D01*
X1734Y486D01*
X1732Y481D01*
X1697D01*
Y488D01*
X1637D01*
Y443D01*
X1697D01*
Y452D01*
X1733D01*
X1734Y448D01*
X1740Y440D01*
X1748Y434D01*
X1757Y431D01*
X1767Y429D01*
X1777Y431D01*
X1786Y434D01*
X1794Y440D01*
X1800Y448D01*
X1804Y457D01*
X1805Y467D01*
X1804Y477D01*
X1800Y486D01*
X1794Y494D01*
X1786Y500D01*
X1777Y503D01*
X1767Y505D01*
D02*
G37*
G36*
X143Y518D02*
X138Y517D01*
X133Y514D01*
X133Y514D01*
X-4D01*
Y456D01*
X154D01*
Y495D01*
X156Y499D01*
X157Y504D01*
X156Y509D01*
X154Y513D01*
Y514D01*
X153D01*
X153Y514D01*
X149Y517D01*
X143Y518D01*
D02*
G37*
G36*
X329Y514D02*
X171D01*
Y477D01*
X168Y475D01*
X165Y470D01*
X164Y465D01*
X165Y460D01*
X168Y455D01*
X173Y452D01*
X178Y451D01*
X183Y452D01*
X188Y455D01*
X189Y456D01*
X329D01*
Y514D01*
D02*
G37*
G36*
X880Y551D02*
X870D01*
X866Y550D01*
X862Y547D01*
X860Y544D01*
X859Y540D01*
Y475D01*
X860Y471D01*
X862Y468D01*
X863Y467D01*
Y417D01*
X859Y413D01*
X851D01*
Y425D01*
X806D01*
Y365D01*
X851D01*
Y389D01*
X864D01*
X868Y390D01*
X872Y393D01*
X883Y404D01*
X886Y408D01*
X887Y412D01*
Y467D01*
X888Y468D01*
X890Y471D01*
X891Y475D01*
Y540D01*
X890Y544D01*
X888Y547D01*
X884Y550D01*
X880Y551D01*
D02*
G37*
G36*
X1125Y404D02*
X1054D01*
X1050Y403D01*
X1047Y401D01*
X1045Y399D01*
X1045Y395D01*
X1045Y391D01*
X1047Y389D01*
X1050Y387D01*
X1054Y386D01*
X1125D01*
X1128Y387D01*
X1131Y389D01*
X1133Y391D01*
X1134Y395D01*
X1133Y399D01*
X1131Y401D01*
X1128Y403D01*
X1125Y404D01*
D02*
G37*
G36*
X750D02*
X700D01*
X696Y403D01*
X694Y401D01*
X692Y399D01*
X691Y395D01*
X692Y391D01*
X694Y389D01*
X696Y387D01*
X700Y386D01*
X750D01*
X754Y387D01*
X756Y389D01*
X758Y391D01*
X759Y395D01*
X758Y399D01*
X756Y401D01*
X754Y403D01*
X750Y404D01*
D02*
G37*
G36*
X930Y551D02*
X920D01*
X916Y550D01*
X912Y547D01*
X910Y544D01*
X909Y540D01*
Y518D01*
X907Y515D01*
X906Y508D01*
Y427D01*
X900D01*
Y363D01*
X916D01*
Y334D01*
X886D01*
Y236D01*
X985D01*
Y334D01*
X955D01*
Y363D01*
X971D01*
Y427D01*
X944D01*
Y457D01*
X945Y458D01*
X944Y459D01*
Y508D01*
X943Y515D01*
X941Y518D01*
Y540D01*
X940Y544D01*
X938Y547D01*
X934Y550D01*
X930Y551D01*
D02*
G37*
G36*
X1767Y405D02*
X1757Y403D01*
X1748Y400D01*
X1740Y394D01*
X1734Y386D01*
X1730Y377D01*
X1729Y367D01*
X1730Y357D01*
X1734Y348D01*
X1740Y340D01*
X1748Y334D01*
X1755Y331D01*
Y292D01*
X1749D01*
Y232D01*
X1757D01*
Y217D01*
X1749D01*
Y157D01*
X1794D01*
Y217D01*
X1786D01*
Y232D01*
X1794D01*
Y292D01*
X1783D01*
Y333D01*
X1786Y334D01*
X1794Y340D01*
X1800Y348D01*
X1804Y357D01*
X1805Y367D01*
X1804Y377D01*
X1800Y386D01*
X1794Y394D01*
X1786Y400D01*
X1777Y403D01*
X1767Y405D01*
D02*
G37*
G36*
X1810Y138D02*
X1797Y137D01*
X1784Y133D01*
X1772Y127D01*
X1762Y118D01*
X1753Y108D01*
X1747Y96D01*
X1743Y83D01*
X1742Y70D01*
X1743Y57D01*
X1747Y44D01*
X1753Y32D01*
X1762Y22D01*
X1772Y13D01*
X1784Y7D01*
X1797Y3D01*
X1810Y2D01*
X1823Y3D01*
X1836Y7D01*
X1848Y13D01*
X1858Y22D01*
X1867Y32D01*
X1873Y44D01*
X1877Y57D01*
X1878Y70D01*
X1877Y83D01*
X1873Y96D01*
X1867Y108D01*
X1858Y118D01*
X1848Y127D01*
X1836Y133D01*
X1823Y137D01*
X1810Y138D01*
D02*
G37*
G36*
X70D02*
X57Y137D01*
X44Y133D01*
X32Y127D01*
X22Y118D01*
X13Y108D01*
X7Y96D01*
X3Y83D01*
X2Y70D01*
X3Y57D01*
X7Y44D01*
X13Y32D01*
X22Y22D01*
X32Y13D01*
X44Y7D01*
X57Y3D01*
X70Y2D01*
X83Y3D01*
X96Y7D01*
X108Y13D01*
X118Y22D01*
X127Y32D01*
X133Y44D01*
X137Y57D01*
X138Y70D01*
X137Y83D01*
X133Y96D01*
X127Y108D01*
X118Y118D01*
X108Y127D01*
X96Y133D01*
X83Y137D01*
X70Y138D01*
D02*
G37*
G36*
X841Y344D02*
X659D01*
X654Y344D01*
X653Y344D01*
X651Y343D01*
X650Y340D01*
X650Y340D01*
X650Y-11D01*
X651Y-14D01*
X654Y-15D01*
X840D01*
X843Y-14D01*
X844Y-13D01*
X845Y-10D01*
Y340D01*
X844Y343D01*
X841Y344D01*
D02*
G37*
%LPD*%
G36*
X1014Y2025D02*
X1039D01*
Y1927D01*
X987D01*
Y2090D01*
X1014D01*
Y2025D01*
D02*
G37*
G36*
X1178Y1916D02*
X1166D01*
Y1844D01*
X1061D01*
Y2029D01*
X1178D01*
Y1916D01*
D02*
G37*
G36*
X1300Y1622D02*
X1199D01*
Y1822D01*
X1300D01*
Y1622D01*
D02*
G37*
G36*
X1270Y624D02*
X1086D01*
X1087Y623D01*
Y564D01*
X994D01*
X992Y566D01*
Y663D01*
X961D01*
Y748D01*
X1081D01*
X1082Y749D01*
Y982D01*
X1270D01*
Y624D01*
D02*
G37*
G36*
X1475Y334D02*
X1300D01*
X1300Y982D01*
X1475Y982D01*
X1475Y334D01*
D02*
G37*
G36*
X842Y661D02*
X648D01*
Y749D01*
X842D01*
Y661D01*
D02*
G37*
G36*
X841Y-10D02*
X840Y-11D01*
X654D01*
X654Y340D01*
X659Y340D01*
X841D01*
Y-10D01*
D02*
G37*
D15*
X1218Y1233D02*
X1220Y1231D01*
X713Y1429D02*
X771D01*
X704Y1420D02*
X713Y1429D01*
X856Y1944D02*
X868Y1932D01*
Y1874D02*
Y1932D01*
X795Y1944D02*
X856D01*
X868Y1804D02*
Y1874D01*
X970Y2161D02*
X1145D01*
X942Y1804D02*
Y1874D01*
X665Y1470D02*
X765D01*
X1142Y1157D02*
Y1205D01*
X1142Y1157D02*
X1142Y1157D01*
X1221Y1232D02*
X1271D01*
X1220Y1231D02*
X1221Y1232D01*
X1217D02*
X1218Y1233D01*
X1607Y1745D02*
X1607Y1745D01*
X1668D01*
X1669Y1745D01*
X1608Y1785D02*
X1608Y1785D01*
X1668D01*
X1669Y1785D01*
X191Y1660D02*
X192Y1661D01*
X250D01*
X771Y1449D02*
X833D01*
X249Y1699D02*
X249Y1699D01*
X192Y1699D02*
X249D01*
X191Y1700D02*
X192Y1699D01*
X191Y1965D02*
X192Y1964D01*
X257D01*
X771Y1488D02*
X833D01*
X191Y2005D02*
X258D01*
X925Y1114D02*
Y1157D01*
X878Y1067D02*
X925Y1114D01*
X878Y996D02*
Y1067D01*
X945Y1097D02*
Y1157D01*
Y1097D02*
X965Y1077D01*
Y1043D02*
Y1077D01*
X906Y996D02*
X908Y997D01*
X1598Y2046D02*
X1601Y2050D01*
X1519Y2176D02*
X1519Y2176D01*
X1519Y2083D02*
X1519Y2084D01*
X954Y2144D02*
X970Y2161D01*
X954Y2063D02*
Y2144D01*
X665Y2161D02*
X825D01*
X836Y2150D01*
Y2063D02*
Y2150D01*
D17*
X1381Y1412D02*
X1407D01*
X1217Y1528D02*
X1262D01*
X1083Y1077D02*
Y1157D01*
X908Y1043D02*
Y1062D01*
X908Y1043D02*
X908Y1043D01*
Y1062D02*
X926Y1079D01*
X436Y1519D02*
Y1592D01*
X425Y1602D02*
X436Y1592D01*
X629Y1251D02*
X629Y1252D01*
X770D01*
X771Y1252D01*
X663Y2241D02*
Y2287D01*
Y2241D02*
X665Y2239D01*
X1149Y2243D02*
Y2291D01*
X1145Y2239D02*
X1149Y2243D01*
X1308Y2061D02*
Y2128D01*
X1439Y1890D02*
Y2000D01*
X1443Y2005D01*
X1573Y1822D02*
X1574Y1823D01*
X1668D01*
X1669Y1824D01*
X1054Y395D02*
X1125D01*
X700D02*
X750D01*
X250Y1158D02*
X505D01*
X254Y1058D02*
X261Y1051D01*
X247D02*
X254Y1058D01*
X248Y937D02*
X378D01*
X244D02*
X246Y935D01*
X243Y834D02*
X322D01*
X1160Y1409D02*
X1235D01*
X1112Y1429D02*
X1167D01*
X1091D02*
X1112D01*
X189Y1367D02*
X191Y1365D01*
X1046Y1350D02*
X1048Y1352D01*
X771Y1350D02*
X1046D01*
X1025Y1441D02*
X1081Y1385D01*
X903Y1441D02*
X1025D01*
X1081Y1225D02*
Y1385D01*
X1015Y1291D02*
X1081Y1225D01*
X846Y1557D02*
X859Y1544D01*
X846Y1557D02*
Y1603D01*
X859Y1485D02*
Y1544D01*
Y1485D02*
X903Y1441D01*
X1081Y1225D02*
X1083Y1223D01*
Y1157D02*
Y1223D01*
X540Y1726D02*
X549Y1717D01*
X526Y1740D02*
X540Y1726D01*
X530Y1716D02*
X540Y1726D01*
X527Y1716D02*
X530D01*
X520Y1681D02*
X522Y1679D01*
X520Y1681D02*
Y1689D01*
X510Y1699D02*
X520Y1689D01*
X493Y1699D02*
X510D01*
X491Y1701D02*
X493Y1699D01*
X530Y1660D02*
X538D01*
X523Y1653D02*
X530Y1660D01*
X523Y1634D02*
Y1653D01*
X549Y1671D02*
Y1717D01*
X538Y1660D02*
X549Y1671D01*
X491Y1740D02*
X526D01*
X457Y1729D02*
X464Y1722D01*
X427Y1729D02*
X457D01*
X489Y1722D02*
X491Y1720D01*
X425Y1731D02*
X427Y1729D01*
X464Y1722D02*
X489D01*
X702Y1896D02*
X731D01*
X843Y1410D02*
X856Y1423D01*
X771Y1410D02*
X843D01*
X599Y1370D02*
X771D01*
X571Y1398D02*
X599Y1370D01*
X545Y1990D02*
X614D01*
X840Y1291D02*
X1015D01*
X1101Y1158D02*
Y1232D01*
X1398Y2178D02*
X1439D01*
X1441Y2176D01*
X846Y1604D02*
Y1641D01*
X838Y1649D02*
X846Y1641D01*
X795Y1649D02*
X838D01*
X831Y1282D02*
X840Y1291D01*
X831Y1230D02*
Y1282D01*
X984Y1157D02*
Y1238D01*
X953Y1269D02*
X984Y1238D01*
X865Y1269D02*
X953D01*
X965Y1157D02*
Y1230D01*
X588Y1348D02*
X664Y1272D01*
X771D01*
X670Y1337D02*
Y1349D01*
Y1337D02*
X716Y1291D01*
X771D01*
X779Y1311D02*
X1044D01*
X488Y1628D02*
Y1660D01*
X425Y1681D02*
X491D01*
X340Y1619D02*
Y1685D01*
X881Y1712D02*
X892D01*
X897Y1706D01*
Y1655D02*
Y1706D01*
X929Y1712D02*
X942Y1726D01*
X918Y1712D02*
X929D01*
X913Y1706D02*
X918Y1712D01*
X913Y1661D02*
Y1706D01*
X868Y1726D02*
X881Y1712D01*
X795Y1765D02*
Y1810D01*
X653Y1762D02*
Y1784D01*
X340Y1505D02*
Y1541D01*
X715Y1685D02*
X794D01*
X795Y1686D01*
X771Y1390D02*
X820D01*
X571Y1398D02*
Y1477D01*
X572Y1478D01*
X866Y1603D02*
Y1647D01*
X1160Y1459D02*
X1170Y1449D01*
X1217D01*
X1734Y984D02*
Y1055D01*
X1727Y977D02*
X1734Y984D01*
X1165Y1107D02*
Y1316D01*
X1179Y1330D01*
X1217D02*
X1217Y1331D01*
X1179Y1330D02*
X1217D01*
X1165Y1107D02*
X1270Y1002D01*
X885Y1497D02*
Y1598D01*
X771Y1528D02*
X832D01*
X1004Y1157D02*
Y1204D01*
X1264Y1269D02*
X1267D01*
X1262Y1272D02*
X1264Y1269D01*
X1217Y1272D02*
X1262D01*
X1305Y1003D02*
Y1264D01*
X1278Y1291D02*
X1305Y1264D01*
X1217Y1291D02*
X1278D01*
X1397Y1054D02*
Y1199D01*
X1285Y1311D02*
X1397Y1199D01*
X1218Y1311D02*
X1285D01*
X1431Y1085D02*
Y1190D01*
X1271Y1350D02*
X1431Y1190D01*
X1218Y1350D02*
X1271D01*
X1261Y1647D02*
X1263Y1649D01*
X1540Y1436D02*
X1616D01*
X1620Y1440D01*
X1544Y1331D02*
X1609D01*
X1132Y1508D02*
X1217D01*
X1366Y1531D02*
X1380Y1545D01*
X1366Y1469D02*
Y1531D01*
Y1469D02*
X1372Y1463D01*
X1380Y1545D02*
X1405D01*
X1380Y1463D02*
X1407D01*
X1372D02*
X1380D01*
X1354Y1437D02*
X1356D01*
X1354D02*
X1380Y1463D01*
X1324Y1437D02*
X1354D01*
X1356D02*
X1381Y1412D01*
X1407Y1412D02*
X1407Y1412D01*
X1405Y1410D02*
X1407Y1412D01*
X1397Y1054D02*
X1414Y1037D01*
X1430D01*
X1432Y1035D01*
X1217Y1311D02*
X1218Y1311D01*
X1217Y1350D02*
X1218Y1350D01*
X1018Y1476D02*
Y1479D01*
X1024Y1484D01*
Y1603D01*
X965Y1541D02*
X965Y1541D01*
X1266Y1390D02*
X1266Y1390D01*
X1217Y1390D02*
X1266D01*
X1217Y1390D02*
X1217Y1390D01*
X1161Y1350D02*
X1181Y1370D01*
X1217D01*
X1217Y1370D01*
X1043Y1216D02*
X1043Y1216D01*
Y1157D02*
Y1216D01*
Y1157D02*
X1043Y1157D01*
X1023Y1111D02*
X1023Y1111D01*
Y1156D01*
X1024Y1157D01*
X1004D02*
X1004Y1157D01*
X936Y1510D02*
Y1549D01*
X945Y1558D01*
Y1603D01*
X238Y829D02*
X243Y834D01*
X965Y1541D02*
Y1603D01*
X965Y1603D02*
X965Y1603D01*
X246Y935D02*
X248Y937D01*
X261Y1051D02*
X506D01*
X1118Y1073D02*
X1122Y1077D01*
Y1157D01*
X1112Y1429D02*
X1112Y1429D01*
X1217D01*
X1542Y1219D02*
X1618D01*
X1535Y1551D02*
X1619D01*
X1620Y1550D01*
X1609Y1331D02*
X1611Y1329D01*
X1043Y1545D02*
Y1603D01*
Y1545D02*
X1064Y1523D01*
X1063Y1668D02*
X1064Y1669D01*
X1063Y1604D02*
Y1668D01*
X1063Y1603D02*
X1063Y1604D01*
X587Y1895D02*
X652D01*
X653Y1896D01*
X651Y1760D02*
X653Y1762D01*
X649Y1760D02*
X651D01*
X588Y1740D02*
X649D01*
X493Y1560D02*
X494Y1559D01*
Y1478D02*
Y1559D01*
X1405Y1356D02*
Y1410D01*
X1404Y1355D02*
X1405Y1356D01*
X1286Y1361D02*
X1292Y1355D01*
X1326D01*
X1286Y1361D02*
Y1452D01*
X1297Y1463D01*
X1474Y1488D02*
X1476Y1490D01*
X1407Y1488D02*
X1474D01*
X1324D02*
X1326Y1490D01*
Y1545D01*
X1326Y1545D01*
X1297Y1463D02*
X1324D01*
X1291Y1469D02*
X1297Y1463D01*
X1217Y1469D02*
X1291D01*
X1324Y1488D02*
X1324Y1488D01*
X1217Y1488D02*
X1324D01*
X1217Y1488D02*
X1217Y1488D01*
X992Y1667D02*
Y1670D01*
X984Y1660D02*
X992Y1667D01*
X984Y1603D02*
Y1660D01*
X1004Y1547D02*
X1004Y1547D01*
X1004Y1547D02*
Y1603D01*
X1004Y1603D02*
X1004Y1603D01*
X191Y1365D02*
X243D01*
X193Y1406D02*
X242D01*
X191Y1405D02*
X193Y1406D01*
X136Y1367D02*
X189D01*
X137Y1404D02*
X191D01*
X897Y1655D02*
X905Y1647D01*
Y1603D02*
Y1647D01*
X913Y1661D02*
X925Y1649D01*
Y1603D02*
Y1649D01*
X875Y2032D02*
Y2063D01*
X868Y2025D02*
X875Y2032D01*
X868Y1976D02*
Y2025D01*
X934Y2020D02*
Y2063D01*
Y2019D02*
Y2020D01*
X944Y1978D02*
Y2009D01*
X942Y1976D02*
X944Y1978D01*
X934Y2019D02*
X944Y2009D01*
X930Y2016D02*
X934Y2020D01*
X907Y2016D02*
X930D01*
X895Y2028D02*
X907Y2016D01*
X895Y2028D02*
Y2063D01*
X909Y2117D02*
X914Y2111D01*
X881Y2117D02*
X909D01*
X914Y2063D02*
Y2111D01*
X875D02*
X881Y2117D01*
X875Y2063D02*
Y2111D01*
X1225Y2268D02*
X1302D01*
X1220Y2263D02*
X1225Y2268D01*
X1220Y2239D02*
Y2263D01*
D18*
X1627Y868D02*
Y977D01*
X905Y1874D02*
Y1909D01*
X1003Y917D02*
X1025Y895D01*
Y864D02*
Y895D01*
X991Y917D02*
X1003D01*
X1261Y1528D02*
Y1647D01*
X1459Y1545D02*
X1497D01*
X1405D02*
X1459D01*
X1497D02*
X1534Y1508D01*
Y1507D02*
Y1508D01*
X1548Y622D02*
Y811D01*
Y355D02*
Y622D01*
X1641Y262D02*
X1693D01*
X1548Y355D02*
X1641Y262D01*
X1624Y546D02*
X1665D01*
X1667Y544D01*
X1548Y622D02*
X1624Y546D01*
X1622Y1708D02*
X1667D01*
X1459Y1545D02*
X1622Y1708D01*
X1667D02*
X1669Y1706D01*
X1767Y367D02*
X1769Y365D01*
Y264D02*
Y365D01*
Y264D02*
X1771Y262D01*
X1735Y799D02*
X1767Y767D01*
X1559Y799D02*
X1735D01*
X1548Y811D02*
X1559Y799D01*
X1548Y811D02*
Y872D01*
X1543Y937D02*
X1545Y935D01*
Y874D02*
Y935D01*
Y874D02*
X1548Y872D01*
X191Y1365D02*
X191Y1365D01*
X191Y1404D02*
X191Y1405D01*
X126Y1740D02*
Y2032D01*
Y1463D02*
Y1740D01*
X127Y1739D01*
X191D01*
X144Y1445D02*
X191D01*
X126Y1463D02*
X144Y1445D01*
X126Y2032D02*
X138Y2044D01*
X191D01*
X1626Y868D02*
X1627Y868D01*
X1827Y872D02*
Y977D01*
X1826Y872D02*
X1827Y872D01*
X1767Y667D02*
X1767Y667D01*
X1667Y667D02*
X1767D01*
X1667Y668D02*
X1667Y667D01*
X1766Y466D02*
X1767Y467D01*
X1668Y466D02*
X1766D01*
X1667Y466D02*
X1668Y466D01*
X1771Y187D02*
Y262D01*
X951Y786D02*
X1025D01*
X942Y746D02*
Y777D01*
X925Y729D02*
X942Y746D01*
X925Y702D02*
Y729D01*
X548Y711D02*
X595D01*
X596Y709D01*
X816Y864D02*
X881D01*
X877Y782D02*
X881Y786D01*
X877Y704D02*
Y782D01*
X875Y702D02*
X877Y704D01*
X975Y508D02*
X975Y508D01*
X1045D01*
X1483Y1931D02*
X1530D01*
X1532Y1932D01*
X808Y2020D02*
Y2063D01*
X808Y2063D01*
D27*
X975Y702D02*
D03*
X925D02*
D03*
X875D02*
D03*
X825D02*
D03*
Y508D02*
D03*
X875D02*
D03*
X925D02*
D03*
X975D02*
D03*
D28*
X1326Y1355D02*
D03*
X1404D02*
D03*
X1326Y1545D02*
D03*
X1405D02*
D03*
X1548Y872D02*
D03*
X1626D02*
D03*
X1826D02*
D03*
X1748D02*
D03*
X1771Y187D02*
D03*
X1693Y187D02*
D03*
X1771Y262D02*
D03*
X1693D02*
D03*
X750Y395D02*
D03*
X829D02*
D03*
X596Y709D02*
D03*
X675D02*
D03*
X494Y1478D02*
D03*
X572D02*
D03*
X653Y1896D02*
D03*
X731D02*
D03*
X1532Y1932D02*
D03*
X1610D02*
D03*
X1519Y2176D02*
D03*
X1441D02*
D03*
X1229Y1720D02*
D03*
X1151Y1720D02*
D03*
X1089Y1880D02*
D03*
X1011Y1880D02*
D03*
X1151Y1955D02*
D03*
X1229Y1955D02*
D03*
X1011Y1960D02*
D03*
X1090D02*
D03*
D29*
X1324Y1437D02*
D03*
Y1463D02*
D03*
Y1412D02*
D03*
Y1488D02*
D03*
X1407Y1412D02*
D03*
Y1488D02*
D03*
Y1437D02*
D03*
Y1463D02*
D03*
D30*
X1476Y1411D02*
D03*
Y1490D02*
D03*
X1030Y1074D02*
D03*
X1030Y996D02*
D03*
X839D02*
D03*
X839Y1074D02*
D03*
X1667Y746D02*
D03*
Y668D02*
D03*
Y466D02*
D03*
Y544D02*
D03*
X1045Y508D02*
D03*
X1045Y586D02*
D03*
X1025Y786D02*
D03*
Y864D02*
D03*
X951D02*
D03*
Y786D02*
D03*
X881D02*
D03*
X881Y864D02*
D03*
X816Y786D02*
D03*
Y864D02*
D03*
X739Y704D02*
D03*
Y783D02*
D03*
X340Y1619D02*
D03*
Y1541D02*
D03*
X425Y1810D02*
D03*
Y1731D02*
D03*
Y1602D02*
D03*
Y1681D02*
D03*
X795Y1686D02*
D03*
Y1765D02*
D03*
X942Y1726D02*
D03*
Y1804D02*
D03*
X868Y1726D02*
D03*
Y1804D02*
D03*
X795Y1944D02*
D03*
Y1866D02*
D03*
X1443Y2083D02*
D03*
Y2005D02*
D03*
X1220Y2161D02*
D03*
Y2239D02*
D03*
X1145D02*
D03*
Y2161D02*
D03*
X665Y2239D02*
D03*
Y2161D02*
D03*
D31*
X965Y1043D02*
D03*
Y997D02*
D03*
X908D02*
D03*
Y1043D02*
D03*
D32*
X1152Y905D02*
D03*
X1408D02*
D03*
D33*
X1165Y526D02*
D03*
Y694D02*
D03*
D34*
X758Y285D02*
D03*
X936D02*
D03*
D35*
X1359Y390D02*
D03*
X1241D02*
D03*
X936Y395D02*
D03*
X1054D02*
D03*
D36*
X491Y1760D02*
D03*
Y1740D02*
D03*
Y1720D02*
D03*
Y1701D02*
D03*
Y1681D02*
D03*
Y1661D02*
D03*
X649D02*
D03*
Y1681D02*
D03*
Y1701D02*
D03*
Y1720D02*
D03*
Y1740D02*
D03*
Y1760D02*
D03*
D37*
X619Y1632D02*
D03*
X600D02*
D03*
X580D02*
D03*
X560D02*
D03*
X540D02*
D03*
X521D02*
D03*
Y1789D02*
D03*
X540D02*
D03*
X560D02*
D03*
X580D02*
D03*
X600D02*
D03*
X619D02*
D03*
D38*
X513Y1895D02*
D03*
X587D02*
D03*
X493Y1560D02*
D03*
X567D02*
D03*
D39*
X715Y1760D02*
D03*
Y1685D02*
D03*
X340D02*
D03*
Y1760D02*
D03*
D40*
X1217Y1232D02*
D03*
Y1252D02*
D03*
Y1272D02*
D03*
Y1291D02*
D03*
Y1311D02*
D03*
Y1331D02*
D03*
Y1350D02*
D03*
Y1370D02*
D03*
Y1390D02*
D03*
Y1410D02*
D03*
Y1429D02*
D03*
Y1449D02*
D03*
Y1469D02*
D03*
Y1488D02*
D03*
Y1508D02*
D03*
Y1528D02*
D03*
X771D02*
D03*
Y1488D02*
D03*
Y1469D02*
D03*
Y1449D02*
D03*
Y1429D02*
D03*
Y1410D02*
D03*
Y1390D02*
D03*
Y1370D02*
D03*
Y1350D02*
D03*
Y1311D02*
D03*
Y1291D02*
D03*
Y1272D02*
D03*
Y1252D02*
D03*
Y1232D02*
D03*
D41*
Y1508D02*
D03*
Y1331D02*
D03*
D42*
X846Y1157D02*
D03*
X925D02*
D03*
X945D02*
D03*
X965D02*
D03*
X984D02*
D03*
X1004D02*
D03*
X1024D02*
D03*
X1043D02*
D03*
X1063D02*
D03*
X1083D02*
D03*
X1102D02*
D03*
X1122D02*
D03*
X1142D02*
D03*
X1063Y1603D02*
D03*
X1043D02*
D03*
X1024D02*
D03*
X1004D02*
D03*
X984D02*
D03*
X965D02*
D03*
X945D02*
D03*
X925D02*
D03*
X905D02*
D03*
X886D02*
D03*
X866D02*
D03*
X846D02*
D03*
D43*
X866Y1157D02*
D03*
X886D02*
D03*
X905D02*
D03*
X1142Y1603D02*
D03*
X1122D02*
D03*
X1102D02*
D03*
X1083D02*
D03*
D44*
X1598Y2046D02*
D03*
X1519Y2084D02*
D03*
Y2009D02*
D03*
D45*
X1227Y1882D02*
D03*
X1190D02*
D03*
X1153D02*
D03*
Y1788D02*
D03*
X1227D02*
D03*
D46*
X942Y1976D02*
D03*
X905D02*
D03*
X868D02*
D03*
Y1874D02*
D03*
X905D02*
D03*
X942D02*
D03*
D47*
X39Y1875D02*
D03*
Y2095D02*
D03*
X1821Y1875D02*
D03*
Y1655D02*
D03*
X39Y1570D02*
D03*
Y1790D02*
D03*
Y1275D02*
D03*
Y1495D02*
D03*
D48*
X191Y1926D02*
D03*
Y1965D02*
D03*
Y2005D02*
D03*
Y2044D02*
D03*
X1669Y1824D02*
D03*
Y1785D02*
D03*
Y1745D02*
D03*
Y1706D02*
D03*
X191Y1621D02*
D03*
Y1660D02*
D03*
Y1700D02*
D03*
Y1739D02*
D03*
Y1326D02*
D03*
Y1365D02*
D03*
Y1405D02*
D03*
Y1444D02*
D03*
D49*
X1672Y2010D02*
D03*
Y2050D02*
D03*
D50*
X1825Y1959D02*
D03*
Y2101D02*
D03*
D51*
X759Y110D02*
D03*
X995D02*
D03*
D52*
X875Y2063D02*
D03*
X895Y2063D02*
D03*
X836Y2063D02*
D03*
X855Y2063D02*
D03*
X934Y2063D02*
D03*
X914Y2063D02*
D03*
X973Y2063D02*
D03*
X954Y2063D02*
D03*
D53*
X778Y2063D02*
D03*
X808Y2063D02*
D03*
X1032Y2063D02*
D03*
X1001Y2063D02*
D03*
D54*
X1310Y2260D02*
D03*
Y2130D02*
D03*
D55*
X545Y2280D02*
D03*
Y1990D02*
D03*
D56*
X75Y685D02*
D03*
X250D02*
D03*
X75Y585D02*
D03*
X250D02*
D03*
X75Y485D02*
D03*
X250D02*
D03*
D94*
X900Y605D02*
D03*
D95*
X1405Y1356D02*
X1409Y1352D01*
X634Y1844D02*
X773D01*
X618Y1830D02*
X619Y1829D01*
X505Y1830D02*
X618D01*
X533Y1428D02*
Y1446D01*
X390Y1428D02*
X533D01*
X351Y1467D02*
X390Y1428D01*
X831Y1230D02*
X846Y1215D01*
Y1157D02*
Y1215D01*
X771Y1232D02*
X829D01*
X619Y1829D02*
X634Y1844D01*
X773D02*
X795Y1866D01*
X619Y1789D02*
Y1829D01*
X342Y1444D02*
X350Y1452D01*
Y1466D01*
X351Y1467D01*
X191Y1444D02*
X342D01*
X1409Y1352D02*
X1448D01*
X1486Y1314D01*
Y1272D02*
Y1314D01*
X864Y401D02*
X875Y412D01*
Y508D01*
X835Y401D02*
X864D01*
X829Y395D02*
X835Y401D01*
X878Y996D02*
X906D01*
X841D02*
X878D01*
X1030Y1054D02*
Y1074D01*
X1019Y1043D02*
X1030Y1054D01*
X965Y1043D02*
X1019D01*
X1219Y1838D02*
X1227Y1846D01*
X1169Y1838D02*
X1219D01*
X1155Y1852D02*
X1169Y1838D01*
X1227Y1851D02*
X1227Y1852D01*
X1227Y1846D02*
Y1851D01*
X1227Y1852D02*
Y1882D01*
X1277Y1776D02*
X1279Y1778D01*
Y2034D01*
X1220Y2093D02*
X1279Y2034D01*
X1220Y2093D02*
Y2161D01*
X1647Y1932D02*
X1672Y1957D01*
Y2010D01*
X1610Y1932D02*
X1647D01*
X1601Y2050D02*
X1672D01*
X1519Y2084D02*
Y2176D01*
X1443Y2083D02*
X1519D01*
D96*
X1458Y813D02*
Y984D01*
X925Y406D02*
Y508D01*
X1674Y1086D02*
X1720Y1132D01*
X1560Y1086D02*
X1674D01*
X1458Y984D02*
X1560Y1086D01*
X1720Y1132D02*
Y1220D01*
X1446Y801D02*
X1458Y813D01*
X925Y406D02*
X936Y395D01*
Y285D02*
Y395D01*
D97*
X735Y2095D02*
D03*
X735Y2251D02*
D03*
X1075Y2251D02*
D03*
X1075Y2095D02*
D03*
D98*
X1019Y2110D02*
D03*
X790Y2110D02*
D03*
D99*
X1767Y467D02*
D03*
Y367D02*
D03*
Y567D02*
D03*
Y667D02*
D03*
Y767D02*
D03*
D100*
X1627Y977D02*
D03*
X1827D02*
D03*
D101*
X1727D02*
D03*
D102*
X1620Y1440D02*
D03*
X1720D02*
D03*
X1820D02*
D03*
X1620Y1550D02*
D03*
X1720D02*
D03*
X1820D02*
D03*
X1620Y1220D02*
D03*
X1720D02*
D03*
X1820D02*
D03*
X1620Y1330D02*
D03*
X1720D02*
D03*
X1820D02*
D03*
X250Y830D02*
D03*
X150D02*
D03*
X50D02*
D03*
X250Y940D02*
D03*
X150D02*
D03*
X50D02*
D03*
X250Y1050D02*
D03*
X150D02*
D03*
X50D02*
D03*
X250Y1160D02*
D03*
X150D02*
D03*
X50D02*
D03*
D103*
X1196Y2055D02*
D03*
X1127Y2062D02*
D03*
X703Y2027D02*
D03*
X1083Y1077D02*
D03*
X1062Y1112D02*
D03*
X1754Y2032D02*
D03*
X1756Y1765D02*
D03*
X3Y758D02*
D03*
X67Y1381D02*
D03*
X66Y1683D02*
D03*
X67Y1981D02*
D03*
X543Y2134D02*
D03*
X1694Y863D02*
D03*
X1213Y8D02*
D03*
X272Y24D02*
D03*
X1527Y1272D02*
D03*
X1496Y1362D02*
D03*
X1469Y1823D02*
D03*
X1337Y1851D02*
D03*
X1496Y1641D02*
D03*
X1383Y1670D02*
D03*
X746Y1990D02*
D03*
X662Y2063D02*
D03*
X943Y1933D02*
D03*
X1035Y1717D02*
D03*
X1159Y1661D02*
D03*
X1096Y1785D02*
D03*
X926Y1079D02*
D03*
X787Y1594D02*
D03*
X691Y1521D02*
D03*
X709Y1591D02*
D03*
X629Y1251D02*
D03*
X637Y1192D02*
D03*
X440Y1313D02*
D03*
X366Y1253D02*
D03*
X255Y1257D02*
D03*
X436Y1519D02*
D03*
X257Y1541D02*
D03*
X256Y1770D02*
D03*
X323Y1859D02*
D03*
X412Y1959D02*
D03*
X317Y2140D02*
D03*
X390Y2257D02*
D03*
X210Y2261D02*
D03*
X663Y2287D02*
D03*
X818Y2286D02*
D03*
X861D02*
D03*
X904D02*
D03*
X946D02*
D03*
X989D02*
D03*
X819Y2202D02*
D03*
X861D02*
D03*
X904D02*
D03*
X947D02*
D03*
X990D02*
D03*
Y2244D02*
D03*
X947D02*
D03*
X904D02*
D03*
X861D02*
D03*
X819D02*
D03*
X1149Y2291D02*
D03*
X1393Y2235D02*
D03*
X1308Y2061D02*
D03*
X1439Y1890D02*
D03*
X1573Y1822D02*
D03*
X1549Y2269D02*
D03*
X1664Y2232D02*
D03*
X1745Y2140D02*
D03*
X1888Y2082D02*
D03*
Y1978D02*
D03*
Y1884D02*
D03*
Y1789D02*
D03*
Y1681D02*
D03*
X1895Y1554D02*
D03*
Y1439D02*
D03*
X1896Y1327D02*
D03*
Y1212D02*
D03*
X1889Y1090D02*
D03*
X1815D02*
D03*
X386Y891D02*
D03*
Y1102D02*
D03*
Y997D02*
D03*
X1268Y1085D02*
D03*
X1484Y1168D02*
D03*
X1359Y1143D02*
D03*
X718Y883D02*
D03*
X937Y948D02*
D03*
X655Y795D02*
D03*
X77Y185D02*
D03*
X1170Y365D02*
D03*
Y458D02*
D03*
Y426D02*
D03*
Y395D02*
D03*
X1615Y404D02*
D03*
X1599Y751D02*
D03*
X1892Y777D02*
D03*
Y562D02*
D03*
X1578Y180D02*
D03*
X1866Y251D02*
D03*
X465Y602D02*
D03*
X537Y292D02*
D03*
X407Y435D02*
D03*
X357Y163D02*
D03*
X1369Y159D02*
D03*
X1483Y272D02*
D03*
X1232Y274D02*
D03*
X891Y575D02*
D03*
X892Y607D02*
D03*
X893Y637D02*
D03*
X951Y573D02*
D03*
X950Y606D02*
D03*
Y637D02*
D03*
X854Y576D02*
D03*
X853Y607D02*
D03*
X854Y639D02*
D03*
X625Y496D02*
D03*
X591D02*
D03*
X659D02*
D03*
X626Y526D02*
D03*
X592D02*
D03*
X660D02*
D03*
X626Y553D02*
D03*
X592D02*
D03*
X660D02*
D03*
X626Y579D02*
D03*
X592D02*
D03*
X660D02*
D03*
X626Y605D02*
D03*
X592D02*
D03*
X660D02*
D03*
X626Y633D02*
D03*
X592D02*
D03*
X660D02*
D03*
X726Y496D02*
D03*
X692D02*
D03*
X760D02*
D03*
X727Y526D02*
D03*
X693D02*
D03*
X761D02*
D03*
X727Y553D02*
D03*
X693D02*
D03*
X761D02*
D03*
X727Y579D02*
D03*
X693D02*
D03*
X761D02*
D03*
X727Y605D02*
D03*
X693D02*
D03*
X761D02*
D03*
X727Y633D02*
D03*
X693D02*
D03*
X761D02*
D03*
X1125Y395D02*
D03*
X700D02*
D03*
X718Y165D02*
D03*
X751Y165D02*
D03*
X784D02*
D03*
X718Y140D02*
D03*
X751Y140D02*
D03*
X784D02*
D03*
X718Y114D02*
D03*
X751Y114D02*
D03*
X784D02*
D03*
X718Y89D02*
D03*
X751Y89D02*
D03*
X784D02*
D03*
X718Y63D02*
D03*
X751Y63D02*
D03*
X784D02*
D03*
X718Y37D02*
D03*
X751Y37D02*
D03*
X784D02*
D03*
X958Y40D02*
D03*
X1026D02*
D03*
X992D02*
D03*
X958Y68D02*
D03*
X1026D02*
D03*
X992D02*
D03*
X958Y94D02*
D03*
X1026D02*
D03*
X992D02*
D03*
X958Y120D02*
D03*
X1026D02*
D03*
X992D02*
D03*
X958Y147D02*
D03*
X1026D02*
D03*
X992D02*
D03*
X959Y177D02*
D03*
X1027D02*
D03*
X993D02*
D03*
X527Y1716D02*
D03*
X505Y1830D02*
D03*
X522Y1679D02*
D03*
X702Y1896D02*
D03*
X856Y1423D02*
D03*
X533Y1446D02*
D03*
X614Y1990D02*
D03*
X755Y1842D02*
D03*
X1101Y1232D02*
D03*
X1398Y2178D02*
D03*
X1048Y1352D02*
D03*
X905Y1909D02*
D03*
X865Y1269D02*
D03*
X965Y1230D02*
D03*
X587Y1349D02*
D03*
X670D02*
D03*
X488Y1628D02*
D03*
X795Y1810D02*
D03*
X653Y1784D02*
D03*
X795Y1649D02*
D03*
X351Y1467D02*
D03*
X340Y1505D02*
D03*
X820Y1390D02*
D03*
X866Y1649D02*
D03*
X1159Y1459D02*
D03*
X1734Y1055D02*
D03*
X1044Y1311D02*
D03*
X885Y1497D02*
D03*
X832Y1528D02*
D03*
X1004Y1204D02*
D03*
X1267Y1269D02*
D03*
X1142Y1205D02*
D03*
X1544Y1331D02*
D03*
X1486Y1272D02*
D03*
X1131Y1509D02*
D03*
X1534Y1507D02*
D03*
X1261Y1528D02*
D03*
X1270Y1002D02*
D03*
X1305Y1003D02*
D03*
X1271Y1232D02*
D03*
X1432Y1035D02*
D03*
X1431Y1085D02*
D03*
X1018Y1476D02*
D03*
X965Y1541D02*
D03*
X178Y465D02*
D03*
X1266Y1390D02*
D03*
X143Y504D02*
D03*
X1161Y1350D02*
D03*
X319Y603D02*
D03*
X1043Y1216D02*
D03*
X145Y604D02*
D03*
X1023Y1111D02*
D03*
X320Y704D02*
D03*
X145Y706D02*
D03*
X936Y1510D02*
D03*
X322Y834D02*
D03*
X378Y937D02*
D03*
X505Y1158D02*
D03*
X506Y1051D02*
D03*
X1117Y1073D02*
D03*
X1091Y1429D02*
D03*
X1542Y1219D02*
D03*
X1160Y1409D02*
D03*
X1535Y1551D02*
D03*
X1064Y1523D02*
D03*
X1540Y1436D02*
D03*
X1064Y1669D02*
D03*
X588Y1740D02*
D03*
X992Y1670D02*
D03*
X1004Y1547D02*
D03*
X243Y1365D02*
D03*
X242Y1406D02*
D03*
X136Y1367D02*
D03*
X273Y1311D02*
D03*
X271Y1475D02*
D03*
X137Y1404D02*
D03*
X1607Y1745D02*
D03*
X1608Y1785D02*
D03*
X250Y1661D02*
D03*
X833Y1449D02*
D03*
X249Y1699D02*
D03*
X703Y1420D02*
D03*
X257Y1964D02*
D03*
X833Y1488D02*
D03*
X665Y1470D02*
D03*
X258Y2005D02*
D03*
D104*
X991Y917D02*
D03*
X925Y458D02*
D03*
X1479Y1933D02*
D03*
X1134Y2006D02*
D03*
X1009Y2007D02*
D03*
X808Y2020D02*
D03*
D105*
X1543Y937D02*
D03*
X1451Y369D02*
D03*
X548Y711D02*
D03*
M02*
