G04*
G04 #@! TF.GenerationSoftware,Altium Limited,Altium Designer,19.0.15 (446)*
G04*
G04 Layer_Color=2752767*
%FSLAX23Y23*%
%MOIN*%
G70*
G01*
G75*
%ADD109C,0.002*%
D109*
X694Y1888D02*
X698Y1896D01*
X694Y1904D01*
X702Y1900D01*
X710Y1904D01*
X706Y1896D01*
X710Y1888D01*
X702Y1892D01*
X694Y1888D01*
X848Y1415D02*
X852Y1423D01*
X848Y1431D01*
X856Y1427D01*
X864Y1431D01*
X860Y1423D01*
X864Y1415D01*
X856Y1419D01*
X848Y1415D01*
X1390Y2170D02*
X1394Y2178D01*
X1390Y2186D01*
X1398Y2182D01*
X1406Y2186D01*
X1402Y2178D01*
X1406Y2170D01*
X1398Y2174D01*
X1390Y2170D01*
X996Y1196D02*
X1000Y1204D01*
X996Y1212D01*
X1004Y1208D01*
X1012Y1212D01*
X1008Y1204D01*
X1012Y1196D01*
X1004Y1200D01*
X996Y1196D01*
X1134Y1197D02*
X1138Y1205D01*
X1134Y1213D01*
X1142Y1209D01*
X1150Y1213D01*
X1146Y1205D01*
X1150Y1197D01*
X1142Y1201D01*
X1134Y1197D01*
X1263Y1224D02*
X1267Y1232D01*
X1263Y1240D01*
X1271Y1236D01*
X1279Y1240D01*
X1275Y1232D01*
X1279Y1224D01*
X1271Y1228D01*
X1263Y1224D01*
X1010Y1468D02*
X1014Y1476D01*
X1010Y1484D01*
X1018Y1480D01*
X1026Y1484D01*
X1022Y1476D01*
X1026Y1468D01*
X1018Y1472D01*
X1010Y1468D01*
X170Y457D02*
X174Y465D01*
X170Y473D01*
X178Y469D01*
X186Y473D01*
X182Y465D01*
X186Y457D01*
X178Y461D01*
X170Y457D01*
X1258Y1382D02*
X1262Y1390D01*
X1258Y1398D01*
X1266Y1394D01*
X1274Y1398D01*
X1270Y1390D01*
X1274Y1382D01*
X1266Y1386D01*
X1258Y1382D01*
X135Y496D02*
X139Y504D01*
X135Y512D01*
X143Y508D01*
X151Y512D01*
X147Y504D01*
X151Y496D01*
X143Y500D01*
X135Y496D01*
X1153Y1342D02*
X1157Y1350D01*
X1153Y1358D01*
X1161Y1354D01*
X1169Y1358D01*
X1165Y1350D01*
X1169Y1342D01*
X1161Y1346D01*
X1153Y1342D01*
X311Y595D02*
X315Y603D01*
X311Y611D01*
X319Y607D01*
X327Y611D01*
X323Y603D01*
X327Y595D01*
X319Y599D01*
X311Y595D01*
X1035Y1208D02*
X1039Y1216D01*
X1035Y1224D01*
X1043Y1220D01*
X1051Y1224D01*
X1047Y1216D01*
X1051Y1208D01*
X1043Y1212D01*
X1035Y1208D01*
X137Y596D02*
X141Y604D01*
X137Y612D01*
X145Y608D01*
X153Y612D01*
X149Y604D01*
X153Y596D01*
X145Y600D01*
X137Y596D01*
X1015Y1103D02*
X1019Y1111D01*
X1015Y1119D01*
X1023Y1115D01*
X1031Y1119D01*
X1027Y1111D01*
X1031Y1103D01*
X1023Y1107D01*
X1015Y1103D01*
X312Y696D02*
X316Y704D01*
X312Y712D01*
X320Y708D01*
X328Y712D01*
X324Y704D01*
X328Y696D01*
X320Y700D01*
X312Y696D01*
X137Y698D02*
X141Y706D01*
X137Y714D01*
X145Y710D01*
X153Y714D01*
X149Y706D01*
X153Y698D01*
X145Y702D01*
X137Y698D01*
X984Y1662D02*
X988Y1670D01*
X984Y1678D01*
X992Y1674D01*
X1000Y1678D01*
X996Y1670D01*
X1000Y1662D01*
X992Y1666D01*
X984Y1662D01*
X996Y1539D02*
X1000Y1547D01*
X996Y1555D01*
X1004Y1551D01*
X1012Y1555D01*
X1008Y1547D01*
X1012Y1539D01*
X1004Y1543D01*
X996Y1539D01*
X235Y1357D02*
X239Y1365D01*
X235Y1373D01*
X243Y1369D01*
X251Y1373D01*
X247Y1365D01*
X251Y1357D01*
X243Y1361D01*
X235Y1357D01*
X234Y1398D02*
X238Y1406D01*
X234Y1414D01*
X242Y1410D01*
X250Y1414D01*
X246Y1406D01*
X250Y1398D01*
X242Y1402D01*
X234Y1398D01*
X1599Y1737D02*
X1603Y1745D01*
X1599Y1753D01*
X1607Y1749D01*
X1615Y1753D01*
X1611Y1745D01*
X1615Y1737D01*
X1607Y1741D01*
X1599Y1737D01*
X1600Y1777D02*
X1604Y1785D01*
X1600Y1793D01*
X1608Y1789D01*
X1616Y1793D01*
X1612Y1785D01*
X1616Y1777D01*
X1608Y1781D01*
X1600Y1777D01*
X242Y1653D02*
X246Y1661D01*
X242Y1669D01*
X250Y1665D01*
X258Y1669D01*
X254Y1661D01*
X258Y1653D01*
X250Y1657D01*
X242Y1653D01*
X825Y1441D02*
X829Y1449D01*
X825Y1457D01*
X833Y1453D01*
X841Y1457D01*
X837Y1449D01*
X841Y1441D01*
X833Y1445D01*
X825Y1441D01*
X241Y1691D02*
X245Y1699D01*
X241Y1707D01*
X249Y1703D01*
X257Y1707D01*
X253Y1699D01*
X257Y1691D01*
X249Y1695D01*
X241Y1691D01*
X695Y1412D02*
X699Y1420D01*
X695Y1428D01*
X703Y1424D01*
X711Y1428D01*
X707Y1420D01*
X711Y1412D01*
X703Y1416D01*
X695Y1412D01*
X249Y1956D02*
X253Y1964D01*
X249Y1972D01*
X257Y1968D01*
X265Y1972D01*
X261Y1964D01*
X265Y1956D01*
X257Y1960D01*
X249Y1956D01*
X825Y1480D02*
X829Y1488D01*
X825Y1496D01*
X833Y1492D01*
X841Y1496D01*
X837Y1488D01*
X841Y1480D01*
X833Y1484D01*
X825Y1480D01*
X657Y1462D02*
X661Y1470D01*
X657Y1478D01*
X665Y1474D01*
X673Y1478D01*
X669Y1470D01*
X673Y1462D01*
X665Y1466D01*
X657Y1462D01*
X250Y1997D02*
X254Y2005D01*
X250Y2013D01*
X258Y2009D01*
X266Y2013D01*
X262Y2005D01*
X266Y1997D01*
X258Y2001D01*
X250Y1997D01*
M02*
