G04*
G04 #@! TF.GenerationSoftware,Altium Limited,Altium Designer,19.0.15 (446)*
G04*
G04 Layer_Color=2752767*
%FSLAX23Y23*%
%MOIN*%
G70*
G01*
G75*
%ADD109C,0.002*%
D109*
X606Y1982D02*
X610Y1990D01*
X606Y1998D01*
X614Y1994D01*
X622Y1998D01*
X618Y1990D01*
X622Y1982D01*
X614Y1986D01*
X606Y1982D01*
X1093Y1224D02*
X1097Y1232D01*
X1093Y1240D01*
X1101Y1236D01*
X1109Y1240D01*
X1105Y1232D01*
X1109Y1224D01*
X1101Y1228D01*
X1093Y1224D01*
X579Y1341D02*
X583Y1349D01*
X579Y1357D01*
X587Y1353D01*
X595Y1357D01*
X591Y1349D01*
X595Y1341D01*
X587Y1345D01*
X579Y1341D01*
X662D02*
X666Y1349D01*
X662Y1357D01*
X670Y1353D01*
X678Y1357D01*
X674Y1349D01*
X678Y1341D01*
X670Y1345D01*
X662Y1341D01*
X1726Y1047D02*
X1730Y1055D01*
X1726Y1063D01*
X1734Y1059D01*
X1742Y1063D01*
X1738Y1055D01*
X1742Y1047D01*
X1734Y1051D01*
X1726Y1047D01*
X1036Y1303D02*
X1040Y1311D01*
X1036Y1319D01*
X1044Y1315D01*
X1052Y1319D01*
X1048Y1311D01*
X1052Y1303D01*
X1044Y1307D01*
X1036Y1303D01*
X1536Y1323D02*
X1540Y1331D01*
X1536Y1339D01*
X1544Y1335D01*
X1552Y1339D01*
X1548Y1331D01*
X1552Y1323D01*
X1544Y1327D01*
X1536Y1323D01*
X957Y1533D02*
X961Y1541D01*
X957Y1549D01*
X965Y1545D01*
X973Y1549D01*
X969Y1541D01*
X973Y1533D01*
X965Y1537D01*
X957Y1533D01*
X928Y1502D02*
X932Y1510D01*
X928Y1518D01*
X936Y1514D01*
X944Y1518D01*
X940Y1510D01*
X944Y1502D01*
X936Y1506D01*
X928Y1502D01*
X314Y826D02*
X318Y834D01*
X314Y842D01*
X322Y838D01*
X330Y842D01*
X326Y834D01*
X330Y826D01*
X322Y830D01*
X314Y826D01*
X370Y929D02*
X374Y937D01*
X370Y945D01*
X378Y941D01*
X386Y945D01*
X382Y937D01*
X386Y929D01*
X378Y933D01*
X370Y929D01*
X497Y1150D02*
X501Y1158D01*
X497Y1166D01*
X505Y1162D01*
X513Y1166D01*
X509Y1158D01*
X513Y1150D01*
X505Y1154D01*
X497Y1150D01*
X498Y1043D02*
X502Y1051D01*
X498Y1059D01*
X506Y1055D01*
X514Y1059D01*
X510Y1051D01*
X514Y1043D01*
X506Y1047D01*
X498Y1043D01*
X1109Y1065D02*
X1113Y1073D01*
X1109Y1081D01*
X1117Y1077D01*
X1125Y1081D01*
X1121Y1073D01*
X1125Y1065D01*
X1117Y1069D01*
X1109Y1065D01*
X1083Y1421D02*
X1087Y1429D01*
X1083Y1437D01*
X1091Y1433D01*
X1099Y1437D01*
X1095Y1429D01*
X1099Y1421D01*
X1091Y1425D01*
X1083Y1421D01*
X1534Y1211D02*
X1538Y1219D01*
X1534Y1227D01*
X1542Y1223D01*
X1550Y1227D01*
X1546Y1219D01*
X1550Y1211D01*
X1542Y1215D01*
X1534Y1211D01*
X1152Y1401D02*
X1156Y1409D01*
X1152Y1417D01*
X1160Y1413D01*
X1168Y1417D01*
X1164Y1409D01*
X1168Y1401D01*
X1160Y1405D01*
X1152Y1401D01*
X1527Y1543D02*
X1531Y1551D01*
X1527Y1559D01*
X1535Y1555D01*
X1543Y1559D01*
X1539Y1551D01*
X1543Y1543D01*
X1535Y1547D01*
X1527Y1543D01*
X1056Y1515D02*
X1061Y1523D01*
X1056Y1531D01*
X1064Y1528D01*
X1072Y1531D01*
X1069Y1523D01*
X1072Y1515D01*
X1064Y1520D01*
X1056Y1515D01*
X1532Y1428D02*
X1536Y1436D01*
X1532Y1444D01*
X1540Y1440D01*
X1548Y1444D01*
X1544Y1436D01*
X1548Y1428D01*
X1540Y1432D01*
X1532Y1428D01*
X1056Y1661D02*
X1060Y1669D01*
X1056Y1677D01*
X1064Y1673D01*
X1072Y1677D01*
X1068Y1669D01*
X1072Y1661D01*
X1064Y1665D01*
X1056Y1661D01*
M02*
