G04*
G04 #@! TF.GenerationSoftware,Altium Limited,Altium Designer,19.0.15 (446)*
G04*
G04 Layer_Color=128*
%FSLAX23Y23*%
%MOIN*%
G70*
G01*
G75*
%ADD109C,0.002*%
D109*
X723Y2095D02*
X746D01*
X735Y2083D02*
Y2107D01*
X723Y2251D02*
X747D01*
X735Y2239D02*
Y2263D01*
X1063Y2251D02*
X1087D01*
X1075Y2239D02*
Y2263D01*
X1063Y2095D02*
X1086D01*
X1075Y2083D02*
Y2107D01*
X1005Y2110D02*
X1033D01*
X1019Y2096D02*
Y2124D01*
X776Y2110D02*
X804D01*
X790Y2096D02*
Y2124D01*
X1747Y467D02*
X1787D01*
X1767Y447D02*
Y487D01*
X1747Y367D02*
X1787D01*
X1767Y347D02*
Y387D01*
X1747Y567D02*
X1787D01*
X1767Y547D02*
Y587D01*
X1747Y667D02*
X1787D01*
X1767Y647D02*
Y687D01*
X1747Y767D02*
X1787D01*
X1767Y747D02*
Y787D01*
X1605Y977D02*
X1649D01*
X1627Y955D02*
Y999D01*
X1705Y977D02*
X1749D01*
X1727Y955D02*
Y999D01*
X1805Y977D02*
X1849D01*
X1827Y955D02*
Y999D01*
X1600Y1440D02*
X1640D01*
X1620Y1420D02*
Y1460D01*
X1700Y1440D02*
X1740D01*
X1720Y1420D02*
Y1460D01*
X1800Y1440D02*
X1840D01*
X1820Y1420D02*
Y1460D01*
X1600Y1550D02*
X1640D01*
X1620Y1530D02*
Y1570D01*
X1700Y1550D02*
X1740D01*
X1720Y1530D02*
Y1570D01*
X1800Y1550D02*
X1840D01*
X1820Y1530D02*
Y1570D01*
X1600Y1220D02*
X1640D01*
X1620Y1200D02*
Y1240D01*
X1700Y1220D02*
X1740D01*
X1720Y1200D02*
Y1240D01*
X1800Y1220D02*
X1840D01*
X1820Y1200D02*
Y1240D01*
X1600Y1330D02*
X1640D01*
X1620Y1310D02*
Y1350D01*
X1700Y1330D02*
X1740D01*
X1720Y1310D02*
Y1350D01*
X1800Y1330D02*
X1840D01*
X1820Y1310D02*
Y1350D01*
X230Y830D02*
X270D01*
X250Y810D02*
Y850D01*
X130Y830D02*
X170D01*
X150Y810D02*
Y850D01*
X30Y830D02*
X70D01*
X50Y810D02*
Y850D01*
X230Y940D02*
X270D01*
X250Y920D02*
Y960D01*
X130Y940D02*
X170D01*
X150Y920D02*
Y960D01*
X30Y940D02*
X70D01*
X50Y920D02*
Y960D01*
X230Y1050D02*
X270D01*
X250Y1030D02*
Y1070D01*
X130Y1050D02*
X170D01*
X150Y1030D02*
Y1070D01*
X30Y1050D02*
X70D01*
X50Y1030D02*
Y1070D01*
X230Y1160D02*
X270D01*
X250Y1140D02*
Y1180D01*
X130Y1160D02*
X170D01*
X150Y1140D02*
Y1180D01*
X30Y1160D02*
X70D01*
X50Y1140D02*
Y1180D01*
X1191Y2055D02*
X1201D01*
X1196Y2050D02*
Y2060D01*
X1122Y2062D02*
X1132D01*
X1127Y2057D02*
Y2067D01*
X698Y2027D02*
X708D01*
X703Y2022D02*
Y2032D01*
X1078Y1077D02*
X1088D01*
X1083Y1072D02*
Y1082D01*
X1057Y1112D02*
X1067D01*
X1062Y1107D02*
Y1117D01*
X1749Y2032D02*
X1759D01*
X1754Y2027D02*
Y2037D01*
X1751Y1765D02*
X1761D01*
X1756Y1760D02*
Y1770D01*
X-2Y758D02*
X8D01*
X3Y753D02*
Y763D01*
X62Y1381D02*
X72D01*
X67Y1376D02*
Y1386D01*
X61Y1683D02*
X71D01*
X66Y1678D02*
Y1688D01*
X62Y1981D02*
X72D01*
X67Y1976D02*
Y1986D01*
X538Y2134D02*
X548D01*
X543Y2129D02*
Y2139D01*
X1689Y863D02*
X1699D01*
X1694Y858D02*
Y868D01*
X1208Y8D02*
X1218D01*
X1213Y3D02*
Y13D01*
X267Y24D02*
X277D01*
X272Y19D02*
Y29D01*
X1522Y1272D02*
X1532D01*
X1527Y1267D02*
Y1277D01*
X1491Y1362D02*
X1501D01*
X1496Y1357D02*
Y1367D01*
X1464Y1823D02*
X1474D01*
X1469Y1818D02*
Y1828D01*
X1332Y1851D02*
X1342D01*
X1337Y1846D02*
Y1856D01*
X1491Y1641D02*
X1501D01*
X1496Y1636D02*
Y1646D01*
X1378Y1670D02*
X1388D01*
X1383Y1665D02*
Y1675D01*
X741Y1990D02*
X751D01*
X746Y1985D02*
Y1995D01*
X657Y2063D02*
X667D01*
X662Y2058D02*
Y2068D01*
X938Y1933D02*
X948D01*
X943Y1928D02*
Y1938D01*
X1030Y1717D02*
X1040D01*
X1035Y1712D02*
Y1722D01*
X1154Y1661D02*
X1164D01*
X1159Y1656D02*
Y1666D01*
X1091Y1785D02*
X1101D01*
X1096Y1780D02*
Y1790D01*
X921Y1079D02*
X931D01*
X926Y1074D02*
Y1084D01*
X782Y1594D02*
X792D01*
X787Y1589D02*
Y1599D01*
X686Y1521D02*
X696D01*
X691Y1516D02*
Y1526D01*
X704Y1591D02*
X714D01*
X709Y1586D02*
Y1596D01*
X624Y1251D02*
X634D01*
X629Y1246D02*
Y1256D01*
X632Y1192D02*
X642D01*
X637Y1187D02*
Y1197D01*
X435Y1313D02*
X445D01*
X440Y1308D02*
Y1318D01*
X361Y1253D02*
X371D01*
X366Y1248D02*
Y1258D01*
X250Y1257D02*
X260D01*
X255Y1252D02*
Y1262D01*
X431Y1519D02*
X441D01*
X436Y1514D02*
Y1524D01*
X252Y1541D02*
X262D01*
X257Y1536D02*
Y1546D01*
X251Y1770D02*
X261D01*
X256Y1765D02*
Y1775D01*
X318Y1859D02*
X328D01*
X323Y1854D02*
Y1864D01*
X407Y1959D02*
X417D01*
X412Y1954D02*
Y1964D01*
X312Y2140D02*
X322D01*
X317Y2135D02*
Y2145D01*
X385Y2257D02*
X395D01*
X390Y2252D02*
Y2262D01*
X205Y2261D02*
X215D01*
X210Y2256D02*
Y2266D01*
X658Y2287D02*
X668D01*
X663Y2282D02*
Y2292D01*
X813Y2286D02*
X823D01*
X818Y2281D02*
Y2291D01*
X856Y2286D02*
X866D01*
X861Y2281D02*
Y2291D01*
X899Y2286D02*
X909D01*
X904Y2281D02*
Y2291D01*
X941Y2286D02*
X951D01*
X946Y2281D02*
Y2291D01*
X984Y2286D02*
X994D01*
X989Y2281D02*
Y2291D01*
X814Y2202D02*
X824D01*
X819Y2197D02*
Y2207D01*
X856Y2202D02*
X866D01*
X861Y2197D02*
Y2207D01*
X899Y2202D02*
X909D01*
X904Y2197D02*
Y2207D01*
X942Y2202D02*
X952D01*
X947Y2197D02*
Y2207D01*
X985Y2202D02*
X995D01*
X990Y2197D02*
Y2207D01*
X985Y2244D02*
X995D01*
X990Y2239D02*
Y2249D01*
X942Y2244D02*
X952D01*
X947Y2239D02*
Y2249D01*
X899Y2244D02*
X909D01*
X904Y2239D02*
Y2249D01*
X856Y2244D02*
X866D01*
X861Y2239D02*
Y2249D01*
X814Y2244D02*
X824D01*
X819Y2239D02*
Y2249D01*
X1144Y2291D02*
X1154D01*
X1149Y2286D02*
Y2296D01*
X1388Y2235D02*
X1398D01*
X1393Y2230D02*
Y2240D01*
X1303Y2061D02*
X1313D01*
X1308Y2056D02*
Y2066D01*
X1434Y1890D02*
X1444D01*
X1439Y1885D02*
Y1895D01*
X1568Y1822D02*
X1578D01*
X1573Y1817D02*
Y1827D01*
X1544Y2269D02*
X1554D01*
X1549Y2264D02*
Y2274D01*
X1659Y2232D02*
X1669D01*
X1664Y2227D02*
Y2237D01*
X1740Y2140D02*
X1750D01*
X1745Y2135D02*
Y2145D01*
X1883Y2082D02*
X1893D01*
X1888Y2077D02*
Y2087D01*
X1883Y1978D02*
X1893D01*
X1888Y1973D02*
Y1983D01*
X1883Y1884D02*
X1893D01*
X1888Y1879D02*
Y1889D01*
X1883Y1789D02*
X1893D01*
X1888Y1784D02*
Y1794D01*
X1883Y1681D02*
X1893D01*
X1888Y1676D02*
Y1686D01*
X1890Y1554D02*
X1900D01*
X1895Y1549D02*
Y1559D01*
X1890Y1439D02*
X1900D01*
X1895Y1434D02*
Y1444D01*
X1891Y1327D02*
X1901D01*
X1896Y1322D02*
Y1332D01*
X1891Y1212D02*
X1901D01*
X1896Y1207D02*
Y1217D01*
X1884Y1090D02*
X1894D01*
X1889Y1085D02*
Y1095D01*
X1810Y1090D02*
X1820D01*
X1815Y1085D02*
Y1095D01*
X381Y891D02*
X391D01*
X386Y886D02*
Y896D01*
X381Y1102D02*
X391D01*
X386Y1097D02*
Y1107D01*
X381Y997D02*
X391D01*
X386Y992D02*
Y1002D01*
X1263Y1085D02*
X1273D01*
X1268Y1080D02*
Y1090D01*
X1479Y1168D02*
X1489D01*
X1484Y1163D02*
Y1173D01*
X1354Y1143D02*
X1364D01*
X1359Y1138D02*
Y1148D01*
X713Y883D02*
X723D01*
X718Y878D02*
Y888D01*
X932Y948D02*
X942D01*
X937Y943D02*
Y953D01*
X650Y795D02*
X660D01*
X655Y790D02*
Y800D01*
X72Y185D02*
X82D01*
X77Y180D02*
Y190D01*
X1165Y365D02*
X1175D01*
X1170Y360D02*
Y370D01*
X1165Y458D02*
X1175D01*
X1170Y453D02*
Y463D01*
X1165Y426D02*
X1175D01*
X1170Y421D02*
Y431D01*
X1165Y395D02*
X1175D01*
X1170Y390D02*
Y400D01*
X1610Y404D02*
X1620D01*
X1615Y399D02*
Y409D01*
X1594Y751D02*
X1604D01*
X1599Y746D02*
Y756D01*
X1887Y777D02*
X1897D01*
X1892Y772D02*
Y782D01*
X1887Y562D02*
X1897D01*
X1892Y557D02*
Y567D01*
X1573Y180D02*
X1583D01*
X1578Y175D02*
Y185D01*
X1861Y251D02*
X1871D01*
X1866Y246D02*
Y256D01*
X460Y602D02*
X470D01*
X465Y597D02*
Y607D01*
X532Y292D02*
X542D01*
X537Y287D02*
Y297D01*
X402Y435D02*
X412D01*
X407Y430D02*
Y440D01*
X352Y163D02*
X362D01*
X357Y158D02*
Y168D01*
X1364Y159D02*
X1374D01*
X1369Y154D02*
Y164D01*
X1478Y272D02*
X1488D01*
X1483Y267D02*
Y277D01*
X1227Y274D02*
X1237D01*
X1232Y269D02*
Y279D01*
X886Y575D02*
X896D01*
X891Y570D02*
Y580D01*
X887Y607D02*
X897D01*
X892Y602D02*
Y612D01*
X888Y637D02*
X898D01*
X893Y632D02*
Y642D01*
X946Y573D02*
X956D01*
X951Y568D02*
Y578D01*
X945Y606D02*
X955D01*
X950Y601D02*
Y611D01*
X945Y637D02*
X955D01*
X950Y632D02*
Y642D01*
X849Y576D02*
X859D01*
X854Y571D02*
Y581D01*
X848Y607D02*
X858D01*
X853Y602D02*
Y612D01*
X849Y639D02*
X859D01*
X854Y634D02*
Y644D01*
X620Y496D02*
X630D01*
X625Y491D02*
Y501D01*
X586Y496D02*
X596D01*
X591Y491D02*
Y501D01*
X654Y496D02*
X664D01*
X659Y491D02*
Y501D01*
X621Y526D02*
X631D01*
X626Y521D02*
Y531D01*
X587Y526D02*
X597D01*
X592Y521D02*
Y531D01*
X655Y526D02*
X665D01*
X660Y521D02*
Y531D01*
X621Y553D02*
X631D01*
X626Y548D02*
Y558D01*
X587Y553D02*
X597D01*
X592Y548D02*
Y558D01*
X655Y553D02*
X665D01*
X660Y548D02*
Y558D01*
X621Y579D02*
X631D01*
X626Y574D02*
Y584D01*
X587Y579D02*
X597D01*
X592Y574D02*
Y584D01*
X655Y579D02*
X665D01*
X660Y574D02*
Y584D01*
X621Y605D02*
X631D01*
X626Y600D02*
Y610D01*
X587Y605D02*
X597D01*
X592Y600D02*
Y610D01*
X655Y605D02*
X665D01*
X660Y600D02*
Y610D01*
X621Y633D02*
X631D01*
X626Y628D02*
Y638D01*
X587Y633D02*
X597D01*
X592Y628D02*
Y638D01*
X655Y633D02*
X665D01*
X660Y628D02*
Y638D01*
X721Y496D02*
X731D01*
X726Y491D02*
Y501D01*
X687Y496D02*
X697D01*
X692Y491D02*
Y501D01*
X755Y496D02*
X765D01*
X760Y491D02*
Y501D01*
X722Y526D02*
X732D01*
X727Y521D02*
Y531D01*
X688Y526D02*
X698D01*
X693Y521D02*
Y531D01*
X756Y526D02*
X766D01*
X761Y521D02*
Y531D01*
X722Y553D02*
X732D01*
X727Y548D02*
Y558D01*
X688Y553D02*
X698D01*
X693Y548D02*
Y558D01*
X756Y553D02*
X766D01*
X761Y548D02*
Y558D01*
X722Y579D02*
X732D01*
X727Y574D02*
Y584D01*
X688Y579D02*
X698D01*
X693Y574D02*
Y584D01*
X756Y579D02*
X766D01*
X761Y574D02*
Y584D01*
X722Y605D02*
X732D01*
X727Y600D02*
Y610D01*
X688Y605D02*
X698D01*
X693Y600D02*
Y610D01*
X756Y605D02*
X766D01*
X761Y600D02*
Y610D01*
X722Y633D02*
X732D01*
X727Y628D02*
Y638D01*
X688Y633D02*
X698D01*
X693Y628D02*
Y638D01*
X756Y633D02*
X766D01*
X761Y628D02*
Y638D01*
X1120Y395D02*
X1130D01*
X1125Y390D02*
Y400D01*
X695Y395D02*
X705D01*
X700Y390D02*
Y400D01*
X713Y165D02*
X723D01*
X718Y160D02*
Y170D01*
X746Y165D02*
X756D01*
X751Y160D02*
Y170D01*
X779Y165D02*
X789D01*
X784Y160D02*
Y170D01*
X713Y140D02*
X723D01*
X718Y135D02*
Y145D01*
X746Y140D02*
X756D01*
X751Y135D02*
Y145D01*
X779Y140D02*
X789D01*
X784Y135D02*
Y145D01*
X713Y114D02*
X723D01*
X718Y109D02*
Y119D01*
X746Y114D02*
X756D01*
X751Y109D02*
Y119D01*
X779Y114D02*
X789D01*
X784Y109D02*
Y119D01*
X713Y89D02*
X723D01*
X718Y84D02*
Y94D01*
X746Y89D02*
X756D01*
X751Y84D02*
Y94D01*
X779Y89D02*
X789D01*
X784Y84D02*
Y94D01*
X713Y63D02*
X723D01*
X718Y58D02*
Y68D01*
X746Y63D02*
X756D01*
X751Y58D02*
Y68D01*
X779Y63D02*
X789D01*
X784Y58D02*
Y68D01*
X713Y37D02*
X723D01*
X718Y32D02*
Y42D01*
X746Y37D02*
X756D01*
X751Y32D02*
Y42D01*
X779Y37D02*
X789D01*
X784Y32D02*
Y42D01*
X953Y40D02*
X963D01*
X958Y35D02*
Y45D01*
X1021Y40D02*
X1031D01*
X1026Y35D02*
Y45D01*
X987Y40D02*
X997D01*
X992Y35D02*
Y45D01*
X953Y68D02*
X963D01*
X958Y63D02*
Y73D01*
X1021Y68D02*
X1031D01*
X1026Y63D02*
Y73D01*
X987Y68D02*
X997D01*
X992Y63D02*
Y73D01*
X953Y94D02*
X963D01*
X958Y89D02*
Y99D01*
X1021Y94D02*
X1031D01*
X1026Y89D02*
Y99D01*
X987Y94D02*
X997D01*
X992Y89D02*
Y99D01*
X953Y120D02*
X963D01*
X958Y115D02*
Y125D01*
X1021Y120D02*
X1031D01*
X1026Y115D02*
Y125D01*
X987Y120D02*
X997D01*
X992Y115D02*
Y125D01*
X953Y147D02*
X963D01*
X958Y142D02*
Y152D01*
X1021Y147D02*
X1031D01*
X1026Y142D02*
Y152D01*
X987Y147D02*
X997D01*
X992Y142D02*
Y152D01*
X954Y177D02*
X964D01*
X959Y172D02*
Y182D01*
X1022Y177D02*
X1032D01*
X1027Y172D02*
Y182D01*
X988Y177D02*
X998D01*
X993Y172D02*
Y182D01*
X522Y1716D02*
X532D01*
X527Y1711D02*
Y1721D01*
X500Y1830D02*
X510D01*
X505Y1825D02*
Y1835D01*
X517Y1679D02*
X527D01*
X522Y1674D02*
Y1684D01*
X528Y1446D02*
X538D01*
X533Y1441D02*
Y1451D01*
X750Y1842D02*
X760D01*
X755Y1837D02*
Y1847D01*
X1043Y1352D02*
X1053D01*
X1048Y1347D02*
Y1357D01*
X900Y1909D02*
X910D01*
X905Y1904D02*
Y1914D01*
X860Y1269D02*
X870D01*
X865Y1264D02*
Y1274D01*
X960Y1230D02*
X970D01*
X965Y1225D02*
Y1235D01*
X483Y1628D02*
X493D01*
X488Y1623D02*
Y1633D01*
X790Y1810D02*
X800D01*
X795Y1805D02*
Y1815D01*
X648Y1784D02*
X658D01*
X653Y1779D02*
Y1789D01*
X790Y1649D02*
X800D01*
X795Y1644D02*
Y1654D01*
X346Y1467D02*
X356D01*
X351Y1462D02*
Y1472D01*
X335Y1505D02*
X345D01*
X340Y1500D02*
Y1510D01*
X815Y1390D02*
X825D01*
X820Y1385D02*
Y1395D01*
X861Y1649D02*
X871D01*
X866Y1644D02*
Y1654D01*
X1154Y1459D02*
X1164D01*
X1159Y1454D02*
Y1464D01*
X880Y1497D02*
X890D01*
X885Y1492D02*
Y1502D01*
X827Y1528D02*
X837D01*
X832Y1523D02*
Y1533D01*
X984Y917D02*
X998D01*
X991Y910D02*
Y924D01*
X1262Y1269D02*
X1272D01*
X1267Y1264D02*
Y1274D01*
X1481Y1272D02*
X1491D01*
X1486Y1267D02*
Y1277D01*
X1126Y1509D02*
X1136D01*
X1131Y1504D02*
Y1514D01*
X1529Y1507D02*
X1539D01*
X1534Y1502D02*
Y1512D01*
X1256Y1528D02*
X1266D01*
X1261Y1523D02*
Y1533D01*
X1535Y937D02*
X1551D01*
X1543Y928D02*
Y946D01*
X1265Y1002D02*
X1275D01*
X1270Y997D02*
Y1007D01*
X1300Y1003D02*
X1310D01*
X1305Y998D02*
Y1008D01*
X1427Y1035D02*
X1437D01*
X1432Y1030D02*
Y1040D01*
X1426Y1085D02*
X1436D01*
X1431Y1080D02*
Y1090D01*
X583Y1740D02*
X593D01*
X588Y1735D02*
Y1745D01*
X131Y1367D02*
X141D01*
X136Y1362D02*
Y1372D01*
X268Y1311D02*
X278D01*
X273Y1306D02*
Y1316D01*
X266Y1475D02*
X276D01*
X271Y1470D02*
Y1480D01*
X132Y1404D02*
X142D01*
X137Y1399D02*
Y1409D01*
X918Y458D02*
X933D01*
X925Y451D02*
Y465D01*
X1442Y369D02*
X1459D01*
X1451Y361D02*
Y377D01*
X539Y711D02*
X557D01*
X548Y702D02*
Y720D01*
X1472Y1933D02*
X1487D01*
X1479Y1926D02*
Y1941D01*
X1127Y2006D02*
X1141D01*
X1134Y1998D02*
Y2013D01*
X1002Y2007D02*
X1016D01*
X1009Y2000D02*
Y2014D01*
X800Y2020D02*
X816D01*
X808Y2013D02*
Y2027D01*
M02*
