G04*
G04 #@! TF.GenerationSoftware,Altium Limited,Altium Designer,19.0.15 (446)*
G04*
G04 Layer_Color=255*
%FSLAX23Y23*%
%MOIN*%
G70*
G01*
G75*
G04:AMPARAMS|DCode=27|XSize=78mil|YSize=24mil|CornerRadius=6mil|HoleSize=0mil|Usage=FLASHONLY|Rotation=270.000|XOffset=0mil|YOffset=0mil|HoleType=Round|Shape=RoundedRectangle|*
%AMROUNDEDRECTD27*
21,1,0.078,0.011,0,0,270.0*
21,1,0.065,0.024,0,0,270.0*
1,1,0.013,-0.005,-0.032*
1,1,0.013,-0.005,0.032*
1,1,0.013,0.005,0.032*
1,1,0.013,0.005,-0.032*
%
%ADD27ROUNDEDRECTD27*%
%ADD28R,0.037X0.051*%
%ADD29R,0.039X0.014*%
%ADD30R,0.051X0.037*%
%ADD31R,0.037X0.033*%
%ADD32R,0.120X0.128*%
G04:AMPARAMS|DCode=33|XSize=92mil|YSize=61mil|CornerRadius=15mil|HoleSize=0mil|Usage=FLASHONLY|Rotation=270.000|XOffset=0mil|YOffset=0mil|HoleType=Round|Shape=RoundedRectangle|*
%AMROUNDEDRECTD33*
21,1,0.092,0.031,0,0,270.0*
21,1,0.061,0.061,0,0,270.0*
1,1,0.031,-0.015,-0.031*
1,1,0.031,-0.015,0.031*
1,1,0.031,0.015,0.031*
1,1,0.031,0.015,-0.031*
%
%ADD33ROUNDEDRECTD33*%
%ADD34R,0.091X0.091*%
%ADD35R,0.063X0.055*%
%ADD36R,0.033X0.014*%
%ADD37R,0.014X0.033*%
%ADD38R,0.051X0.063*%
%ADD39R,0.063X0.051*%
G04:AMPARAMS|DCode=40|XSize=58mil|YSize=11mil|CornerRadius=1mil|HoleSize=0mil|Usage=FLASHONLY|Rotation=180.000|XOffset=0mil|YOffset=0mil|HoleType=Round|Shape=RoundedRectangle|*
%AMROUNDEDRECTD40*
21,1,0.058,0.008,0,0,180.0*
21,1,0.055,0.011,0,0,180.0*
1,1,0.003,-0.028,0.004*
1,1,0.003,0.028,0.004*
1,1,0.003,0.028,-0.004*
1,1,0.003,-0.028,-0.004*
%
%ADD40ROUNDEDRECTD40*%
G04:AMPARAMS|DCode=41|XSize=55mil|YSize=5mil|CornerRadius=1mil|HoleSize=0mil|Usage=FLASHONLY|Rotation=180.000|XOffset=0mil|YOffset=0mil|HoleType=Round|Shape=RoundedRectangle|*
%AMROUNDEDRECTD41*
21,1,0.055,0.004,0,0,180.0*
21,1,0.054,0.005,0,0,180.0*
1,1,0.001,-0.027,0.002*
1,1,0.001,0.027,0.002*
1,1,0.001,0.027,-0.002*
1,1,0.001,-0.027,-0.002*
%
%ADD41ROUNDEDRECTD41*%
G04:AMPARAMS|DCode=42|XSize=58mil|YSize=11mil|CornerRadius=1mil|HoleSize=0mil|Usage=FLASHONLY|Rotation=90.000|XOffset=0mil|YOffset=0mil|HoleType=Round|Shape=RoundedRectangle|*
%AMROUNDEDRECTD42*
21,1,0.058,0.008,0,0,90.0*
21,1,0.055,0.011,0,0,90.0*
1,1,0.003,0.004,0.028*
1,1,0.003,0.004,-0.028*
1,1,0.003,-0.004,-0.028*
1,1,0.003,-0.004,0.028*
%
%ADD42ROUNDEDRECTD42*%
G04:AMPARAMS|DCode=43|XSize=55mil|YSize=5mil|CornerRadius=1mil|HoleSize=0mil|Usage=FLASHONLY|Rotation=90.000|XOffset=0mil|YOffset=0mil|HoleType=Round|Shape=RoundedRectangle|*
%AMROUNDEDRECTD43*
21,1,0.055,0.004,0,0,90.0*
21,1,0.054,0.005,0,0,90.0*
1,1,0.001,0.002,0.027*
1,1,0.001,0.002,-0.027*
1,1,0.001,-0.002,-0.027*
1,1,0.001,-0.002,0.027*
%
%ADD43ROUNDEDRECTD43*%
%ADD44R,0.035X0.031*%
%ADD45R,0.020X0.037*%
%ADD46R,0.026X0.039*%
%ADD47R,0.071X0.047*%
%ADD48R,0.061X0.024*%
%ADD49R,0.061X0.024*%
%ADD50R,0.071X0.047*%
G04:AMPARAMS|DCode=51|XSize=150mil|YSize=200mil|CornerRadius=38mil|HoleSize=0mil|Usage=FLASHONLY|Rotation=0.000|XOffset=0mil|YOffset=0mil|HoleType=Round|Shape=RoundedRectangle|*
%AMROUNDEDRECTD51*
21,1,0.150,0.125,0,0,0.0*
21,1,0.075,0.200,0,0,0.0*
1,1,0.075,0.038,-0.063*
1,1,0.075,-0.038,-0.063*
1,1,0.075,-0.038,0.063*
1,1,0.075,0.038,0.063*
%
%ADD51ROUNDEDRECTD51*%
%ADD52R,0.012X0.039*%
%ADD53R,0.024X0.039*%
%ADD54R,0.059X0.035*%
%ADD55R,0.059X0.079*%
%ADD56R,0.150X0.050*%
%ADD94R,0.130X0.095*%
%ADD97O,0.039X0.079*%
%ADD98C,0.028*%
%ADD99C,0.067*%
%ADD100O,0.071X0.094*%
%ADD101R,0.071X0.094*%
G04:AMPARAMS|DCode=102|XSize=80mil|YSize=60mil|CornerRadius=0mil|HoleSize=0mil|Usage=FLASHONLY|Rotation=90.000|XOffset=0mil|YOffset=0mil|HoleType=Round|Shape=Octagon|*
%AMOCTAGOND102*
4,1,8,0.015,0.040,-0.015,0.040,-0.030,0.025,-0.030,-0.025,-0.015,-0.040,0.015,-0.040,0.030,-0.025,0.030,0.025,0.015,0.040,0.0*
%
%ADD102OCTAGOND102*%

D27*
X975Y702D02*
D03*
X925D02*
D03*
X875D02*
D03*
X825D02*
D03*
Y508D02*
D03*
X875D02*
D03*
X925D02*
D03*
X975D02*
D03*
D28*
X1326Y1355D02*
D03*
X1404D02*
D03*
X1326Y1545D02*
D03*
X1405D02*
D03*
X1548Y872D02*
D03*
X1626D02*
D03*
X1826D02*
D03*
X1748D02*
D03*
X1771Y187D02*
D03*
X1693Y187D02*
D03*
X1771Y262D02*
D03*
X1693D02*
D03*
X750Y395D02*
D03*
X829D02*
D03*
X596Y709D02*
D03*
X675D02*
D03*
X494Y1478D02*
D03*
X572D02*
D03*
X653Y1896D02*
D03*
X731D02*
D03*
X1532Y1932D02*
D03*
X1610D02*
D03*
X1519Y2176D02*
D03*
X1441D02*
D03*
X1229Y1720D02*
D03*
X1151Y1720D02*
D03*
X1089Y1880D02*
D03*
X1011Y1880D02*
D03*
X1151Y1955D02*
D03*
X1229Y1955D02*
D03*
X1011Y1960D02*
D03*
X1090D02*
D03*
D29*
X1324Y1437D02*
D03*
Y1463D02*
D03*
Y1412D02*
D03*
Y1488D02*
D03*
X1407Y1412D02*
D03*
Y1488D02*
D03*
Y1437D02*
D03*
Y1463D02*
D03*
D30*
X1476Y1411D02*
D03*
Y1490D02*
D03*
X1030Y1074D02*
D03*
X1030Y996D02*
D03*
X839D02*
D03*
X839Y1074D02*
D03*
X1667Y746D02*
D03*
Y668D02*
D03*
Y466D02*
D03*
Y544D02*
D03*
X1045Y508D02*
D03*
X1045Y586D02*
D03*
X1025Y786D02*
D03*
Y864D02*
D03*
X951D02*
D03*
Y786D02*
D03*
X881D02*
D03*
X881Y864D02*
D03*
X816Y786D02*
D03*
Y864D02*
D03*
X739Y704D02*
D03*
Y783D02*
D03*
X340Y1619D02*
D03*
Y1541D02*
D03*
X425Y1810D02*
D03*
Y1731D02*
D03*
Y1602D02*
D03*
Y1681D02*
D03*
X795Y1686D02*
D03*
Y1765D02*
D03*
X942Y1726D02*
D03*
Y1804D02*
D03*
X868Y1726D02*
D03*
Y1804D02*
D03*
X795Y1944D02*
D03*
Y1866D02*
D03*
X1443Y2083D02*
D03*
Y2005D02*
D03*
X1220Y2161D02*
D03*
Y2239D02*
D03*
X1145D02*
D03*
Y2161D02*
D03*
X665Y2239D02*
D03*
Y2161D02*
D03*
D31*
X965Y1043D02*
D03*
Y997D02*
D03*
X908D02*
D03*
Y1043D02*
D03*
D32*
X1152Y905D02*
D03*
X1408D02*
D03*
D33*
X1165Y526D02*
D03*
Y694D02*
D03*
D34*
X758Y285D02*
D03*
X936D02*
D03*
D35*
X1359Y390D02*
D03*
X1241D02*
D03*
X936Y395D02*
D03*
X1054D02*
D03*
D36*
X491Y1760D02*
D03*
Y1740D02*
D03*
Y1720D02*
D03*
Y1701D02*
D03*
Y1681D02*
D03*
Y1661D02*
D03*
X649D02*
D03*
Y1681D02*
D03*
Y1701D02*
D03*
Y1720D02*
D03*
Y1740D02*
D03*
Y1760D02*
D03*
D37*
X619Y1632D02*
D03*
X600D02*
D03*
X580D02*
D03*
X560D02*
D03*
X540D02*
D03*
X521D02*
D03*
Y1789D02*
D03*
X540D02*
D03*
X560D02*
D03*
X580D02*
D03*
X600D02*
D03*
X619D02*
D03*
D38*
X513Y1895D02*
D03*
X587D02*
D03*
X493Y1560D02*
D03*
X567D02*
D03*
D39*
X715Y1760D02*
D03*
Y1685D02*
D03*
X340D02*
D03*
Y1760D02*
D03*
D40*
X1217Y1232D02*
D03*
Y1252D02*
D03*
Y1272D02*
D03*
Y1291D02*
D03*
Y1311D02*
D03*
Y1331D02*
D03*
Y1350D02*
D03*
Y1370D02*
D03*
Y1390D02*
D03*
Y1410D02*
D03*
Y1429D02*
D03*
Y1449D02*
D03*
Y1469D02*
D03*
Y1488D02*
D03*
Y1508D02*
D03*
Y1528D02*
D03*
X771D02*
D03*
Y1488D02*
D03*
Y1469D02*
D03*
Y1449D02*
D03*
Y1429D02*
D03*
Y1410D02*
D03*
Y1390D02*
D03*
Y1370D02*
D03*
Y1350D02*
D03*
Y1311D02*
D03*
Y1291D02*
D03*
Y1272D02*
D03*
Y1252D02*
D03*
Y1232D02*
D03*
D41*
Y1508D02*
D03*
Y1331D02*
D03*
D42*
X846Y1157D02*
D03*
X925D02*
D03*
X945D02*
D03*
X965D02*
D03*
X984D02*
D03*
X1004D02*
D03*
X1024D02*
D03*
X1043D02*
D03*
X1063D02*
D03*
X1083D02*
D03*
X1102D02*
D03*
X1122D02*
D03*
X1142D02*
D03*
X1063Y1603D02*
D03*
X1043D02*
D03*
X1024D02*
D03*
X1004D02*
D03*
X984D02*
D03*
X965D02*
D03*
X945D02*
D03*
X925D02*
D03*
X905D02*
D03*
X886D02*
D03*
X866D02*
D03*
X846D02*
D03*
D43*
X866Y1157D02*
D03*
X886D02*
D03*
X905D02*
D03*
X1142Y1603D02*
D03*
X1122D02*
D03*
X1102D02*
D03*
X1083D02*
D03*
D44*
X1598Y2046D02*
D03*
X1519Y2084D02*
D03*
Y2009D02*
D03*
D45*
X1227Y1882D02*
D03*
X1190D02*
D03*
X1153D02*
D03*
Y1788D02*
D03*
X1227D02*
D03*
D46*
X942Y1976D02*
D03*
X905D02*
D03*
X868D02*
D03*
Y1874D02*
D03*
X905D02*
D03*
X942D02*
D03*
D47*
X39Y1875D02*
D03*
Y2095D02*
D03*
X1821Y1875D02*
D03*
Y1655D02*
D03*
X39Y1570D02*
D03*
Y1790D02*
D03*
Y1275D02*
D03*
Y1495D02*
D03*
D48*
X191Y1926D02*
D03*
Y1965D02*
D03*
Y2005D02*
D03*
Y2044D02*
D03*
X1669Y1824D02*
D03*
Y1785D02*
D03*
Y1745D02*
D03*
Y1706D02*
D03*
X191Y1621D02*
D03*
Y1660D02*
D03*
Y1700D02*
D03*
Y1739D02*
D03*
Y1326D02*
D03*
Y1365D02*
D03*
Y1405D02*
D03*
Y1444D02*
D03*
D49*
X1672Y2010D02*
D03*
Y2050D02*
D03*
D50*
X1825Y1959D02*
D03*
Y2101D02*
D03*
D51*
X759Y110D02*
D03*
X995D02*
D03*
D52*
X875Y2063D02*
D03*
X895Y2063D02*
D03*
X836Y2063D02*
D03*
X855Y2063D02*
D03*
X934Y2063D02*
D03*
X914Y2063D02*
D03*
X973Y2063D02*
D03*
X954Y2063D02*
D03*
D53*
X778Y2063D02*
D03*
X808Y2063D02*
D03*
X1032Y2063D02*
D03*
X1001Y2063D02*
D03*
D54*
X1310Y2260D02*
D03*
Y2130D02*
D03*
D55*
X545Y2280D02*
D03*
Y1990D02*
D03*
D56*
X75Y685D02*
D03*
X250D02*
D03*
X75Y585D02*
D03*
X250D02*
D03*
X75Y485D02*
D03*
X250D02*
D03*
D94*
X900Y605D02*
D03*
D97*
X735Y2095D02*
D03*
X735Y2251D02*
D03*
X1075Y2251D02*
D03*
X1075Y2095D02*
D03*
D98*
X1019Y2110D02*
D03*
X790Y2110D02*
D03*
D99*
X1767Y467D02*
D03*
Y367D02*
D03*
Y567D02*
D03*
Y667D02*
D03*
Y767D02*
D03*
D100*
X1627Y977D02*
D03*
X1827D02*
D03*
D101*
X1727D02*
D03*
D102*
X1620Y1440D02*
D03*
X1720D02*
D03*
X1820D02*
D03*
X1620Y1550D02*
D03*
X1720D02*
D03*
X1820D02*
D03*
X1620Y1220D02*
D03*
X1720D02*
D03*
X1820D02*
D03*
X1620Y1330D02*
D03*
X1720D02*
D03*
X1820D02*
D03*
X250Y830D02*
D03*
X150D02*
D03*
X50D02*
D03*
X250Y940D02*
D03*
X150D02*
D03*
X50D02*
D03*
X250Y1050D02*
D03*
X150D02*
D03*
X50D02*
D03*
X250Y1160D02*
D03*
X150D02*
D03*
X50D02*
D03*
M02*
