G04*
G04 #@! TF.GenerationSoftware,Altium Limited,Altium Designer,19.0.15 (446)*
G04*
G04 Layer_Color=128*
%FSLAX23Y23*%
%MOIN*%
G70*
G01*
G75*
%ADD109C,0.002*%
D109*
X609Y1990D02*
X619D01*
X614Y1985D02*
Y1995D01*
X1096Y1232D02*
X1106D01*
X1101Y1227D02*
Y1237D01*
X582Y1349D02*
X592D01*
X587Y1344D02*
Y1354D01*
X665Y1349D02*
X675D01*
X670Y1344D02*
Y1354D01*
X1729Y1055D02*
X1739D01*
X1734Y1050D02*
Y1060D01*
X1039Y1311D02*
X1049D01*
X1044Y1306D02*
Y1316D01*
X1539Y1331D02*
X1549D01*
X1544Y1326D02*
Y1336D01*
X960Y1541D02*
X970D01*
X965Y1536D02*
Y1546D01*
X931Y1510D02*
X941D01*
X936Y1505D02*
Y1515D01*
X317Y834D02*
X327D01*
X322Y829D02*
Y839D01*
X373Y937D02*
X383D01*
X378Y932D02*
Y942D01*
X500Y1158D02*
X510D01*
X505Y1153D02*
Y1163D01*
X501Y1051D02*
X511D01*
X506Y1046D02*
Y1056D01*
X1112Y1073D02*
X1122D01*
X1117Y1068D02*
Y1078D01*
X1086Y1429D02*
X1096D01*
X1091Y1424D02*
Y1434D01*
X1537Y1219D02*
X1547D01*
X1542Y1214D02*
Y1224D01*
X1155Y1409D02*
X1165D01*
X1160Y1404D02*
Y1414D01*
X1530Y1551D02*
X1540D01*
X1535Y1546D02*
Y1556D01*
X1059Y1523D02*
X1069D01*
X1064Y1518D02*
Y1528D01*
X1535Y1436D02*
X1545D01*
X1540Y1431D02*
Y1441D01*
X1059Y1669D02*
X1069D01*
X1064Y1664D02*
Y1674D01*
M02*
