M48
;Layer_Color=5050912
;FILE_FORMAT=2:3
INCH,LZ
;TYPE=PLATED
T1F00S00C0.010
T2F00S00C0.015
T3F00S00C0.017
T5F00S00C0.028
T6F00S00C0.039
T7F00S00C0.043
%
T01
X01578Y0018
X01615Y00404
X01866Y00251
X01483Y00272
X01369Y00159
X01232Y00274
X0117Y00365
Y00395
Y00426
Y00458
X01125Y00395
X01027Y00177
X01026Y00147
Y0012
Y00094
Y00068
Y0004
X00992
Y00068
Y00094
Y0012
Y00147
X00993Y00177
X00959
X00958Y00147
Y0012
Y00094
Y00068
Y0004
X00784Y00037
Y00063
Y00089
Y00114
Y0014
Y00165
X00751
Y0014
Y00114
Y00089
Y00063
Y00037
X00718Y00037
Y00063
Y00089
Y00114
Y0014
Y00165
X007Y00395
X00537Y00292
X00407Y00435
X00357Y00163
X00272Y00024
X00077Y00185
X01213Y00008
X00951Y00573
X0095Y00606
Y00637
X00893
X00892Y00607
X00891Y00575
X00854Y00576
X00853Y00607
X00854Y00639
X00761Y00633
Y00605
Y00579
Y00553
Y00526
X0076Y00496
X00726
X00727Y00526
Y00553
Y00579
Y00605
Y00633
X00693
Y00605
Y00579
Y00553
Y00526
X00692Y00496
X00659
X0066Y00526
Y00553
Y00579
Y00605
Y00633
X00626
Y00605
Y00579
Y00553
Y00526
X00625Y00496
X00591
X00592Y00526
Y00553
Y00579
Y00605
Y00633
X00465Y00602
X00386Y00891
Y00997
Y01102
X00366Y01253
X00255Y01257
X00273Y01311
X00271Y01475
X00257Y01541
X0034Y01505
X00351Y01467
X00436Y01519
X00488Y01628
X00522Y01679
X00527Y01716
X00588Y0174
X00653Y01784
X00755Y01842
X00795Y0181
Y01649
X00787Y01594
X00709Y01591
X00691Y01521
X00832Y01528
X00885Y01497
X00866Y01649
X01035Y01717
X01096Y01785
X01159Y01661
X01131Y01509
X01159Y01459
X01261Y01528
X01383Y0167
X01496Y01641
X01469Y01823
X01439Y0189
X01337Y01851
X00943Y01933
X00905Y01909
X00746Y0199
X00412Y01959
X00323Y01859
X00256Y0177
X00066Y01683
X00067Y01981
X00505Y0183
X00533Y01446
X0044Y01313
X00629Y01251
X00637Y01192
X00865Y01269
X00965Y0123
X00926Y01079
X00937Y00948
X01083Y01077
X01062Y01112
X01268Y01085
X0127Y01002
X01305Y01003
X01432Y01035
X01431Y01085
X01359Y01143
X01484Y01168
X01486Y01272
X01496Y01362
X01267Y01269
X01048Y01352
X0082Y0139
X00718Y00883
X00655Y00795
X00003Y00758
X00067Y01381
X00136Y01367
X00137Y01404
X01534Y01507
X01527Y01272
X01896Y01327
X01895Y01439
Y01554
X01888Y01681
Y01789
Y01884
Y01978
X01756Y01765
X01573Y01822
X01896Y01212
X01889Y0109
X01815
X01694Y00863
X01599Y00751
X01892Y00777
Y00562
X01888Y02082
X01754Y02032
X01745Y0214
X01664Y02232
X01549Y02269
X01393Y02235
X01308Y02061
X01196Y02055
X01127Y02062
X01149Y02291
X00989Y02286
X0099Y02244
Y02202
X00947
Y02244
X00946Y02286
X00904
X00904Y02244
Y02202
X00861
Y02244
X00861Y02286
X00818
X00819Y02244
Y02202
X00663Y02287
X00662Y02063
X00703Y02027
X00543Y02134
X00317Y0214
X0039Y02257
X0021Y02261
T02
X00925Y00458
X00991Y00917
X01009Y02007
X01134Y02006
X00808Y0202
X01479Y01933
T03
X01451Y00369
X00548Y00711
X01543Y00937
T05
X0079Y0211
X01019Y0211
T06
X01767Y00367
X0025Y0083
X0015
X0005
Y0094
X0015
X0025
Y0105
X0015
X0005
Y0116
X0015
X0025
X0162Y0122
X0172
X0182
Y0133
X0172
X0162
Y0144
X0172
X0182
Y0155
X0172
X0162
X01767Y00767
Y00667
Y00567
Y00467
T07
X01627Y00977
X01727
X01827
M30
