M48
;Layer_Color=5050912
;FILE_FORMAT=2:3
INCH,LZ
;TYPE=PLATED
T1F00S00C0.010
%
T01
X00322Y00834
X00378Y00937
X00506Y01051
X00505Y01158
X00587Y01349
X0067
X01044Y01311
X01101Y01232
X01117Y01073
X0116Y01409
X01091Y01429
X01064Y01523
X00965Y01541
X00936Y0151
X01064Y01669
X00614Y0199
X01535Y01551
X0154Y01436
X01544Y01331
X01542Y01219
X01734Y01055
M30
